<?xml version="1.0" encoding="iso-8859-1"?>
<!-- Generator: Adobe Illustrator 16.0.0, SVG Export Plug-In . SVG Version: 6.00 Build 0)  -->
<!DOCTYPE svg PUBLIC "-//W3C//DTD SVG 1.1//EN" "http://www.w3.org/Graphics/SVG/1.1/DTD/svg11.dtd">
<svg version="1.1" xmlns="http://www.w3.org/2000/svg" xmlns:xlink="http://www.w3.org/1999/xlink" x="0px" y="0px" width="512px"
	 height="512px" viewBox="0 0 512 512" style="enable-background:new 0 0 512 512;" xml:space="preserve">
<g id="belgium">
	
		<path style="fill-rule:evenodd;clip-rule:evenodd;fill:none;stroke:#FFFFFF;stroke-width:7;stroke-linecap:square;stroke-linejoin:round;stroke-miterlimit:10;" d="
		M296.742,81.139c2.041-4.013,3.833-7.533,5.918-11.629c5.188,2.783,10.069,5.402,15.316,8.217
		c1.992-3.846,3.938-7.606,6.082-11.745c6.014,3.585,11.965,7.016,17.761,10.693c1.081,0.685,1.927,2.276,2.214,3.594
		c2.46,11.307,4.928,22.617,7.008,33.997c0.526,2.885,1.543,3.93,4.306,4.194c11.241,1.077,22.475,2.238,33.691,3.536
		c2.399,0.278,4.926,0.868,7.035,1.989c8.34,4.432,16.62,8.994,24.719,13.848c1.634,0.98,3.127,3.322,3.426,5.232
		c2.942,18.813,1.213,37.363-4.775,55.35c-2.362,7.1-0.406,11.212,4.981,15.985c17.168,15.211,33.792,31.039,50.524,46.736
		c1.741,1.635,2.968,3.903,4.133,6.041c1.181,2.169,1.725,4.7,2.998,6.797c7.98,13.139,8.594,27.59,7.584,42.289
		c-0.113,1.64-1.355,3.726-2.722,4.669c-7.644,5.282-15.337,10.529-23.317,15.274c-4.731,2.815-6.987,6.64-8.915,11.671
		c-2.162,5.638-0.743,9.342,2.223,14.135c13.662,22.084,31.502,40.586,49.807,59.084c-14.757,19.92-29.335,39.598-44.033,59.438
		c-10.852-2.749-22.242-5.633-34.059-8.626c0.08,1.328,0.141,2.327,0.237,3.961c-5.995-0.774-11.837-1.483-17.665-2.294
		c-11.178-1.554-22.365-3.035-33.498-4.864c-2.241-0.368-4.683-1.715-6.304-3.339c-16.804-16.83-33.494-33.775-50.113-50.789
		c-2.132-2.183-4.06-3.351-7.324-2.891c-5.252,0.74-10.63,0.564-15.894,1.25c-3.966,0.516-5.534-1.035-6.444-4.684
		c-3.565-14.28-7.35-28.507-11.07-42.748c-0.367-1.405-0.865-2.778-1.301-4.162c-23.176,1.677-46,3.328-69.559,5.031
		c-0.887-24.56-1.754-48.58-2.637-73.048c-13.593-1.394-26.927-2.916-40.292-4.062c-6.379-0.545-12.161-2.041-17.864-5.235
		c-33.271-18.636-66.685-37.02-100.149-55.309c-4.305-2.353-7.09-5.213-8.933-9.887c-11.302-28.663-22.927-57.197-34.435-85.778
		c-0.426-1.057-0.737-2.162-1.253-3.693c40.396-19.631,80.723-39.227,121.613-59.097c3.817,9.141,7.584,17.73,10.961,26.469
		c1.29,3.337,3.034,4.588,6.612,4.278c7.615-0.66,15.259-1.219,22.895-1.259c2.7-0.014,5.85,0.997,8.029,2.587
		c6.276,4.579,12.163,9.692,18.32,14.69c2.239-1.7,4.572-3.059,6.387-4.92c7.4-7.594,16.815-9.787,26.873-11.164
		c7.01-0.959,13.891-3.087,20.689-5.151c1.36-0.413,2.572-2.771,3.021-4.456c1.237-4.628,1.776-9.449,3.141-14.031
		c0.473-1.585,2.381-3.516,3.952-3.865c6.302-1.401,12.703-2.476,19.122-3.167c2.235-0.241,4.909,0.486,6.889,1.626
		C287.366,74.623,291.788,77.846,296.742,81.139z"/>
</g>
<g id="Layer_1">
</g>
</svg>
