<?xml version="1.0" encoding="iso-8859-1"?>
<!-- Generator: Adobe Illustrator 16.0.0, SVG Export Plug-In . SVG Version: 6.00 Build 0)  -->
<!DOCTYPE svg PUBLIC "-//W3C//DTD SVG 1.1//EN" "http://www.w3.org/Graphics/SVG/1.1/DTD/svg11.dtd">
<svg version="1.1" xmlns="http://www.w3.org/2000/svg" xmlns:xlink="http://www.w3.org/1999/xlink" x="0px" y="0px" width="512px"
	 height="512px" viewBox="0 0 512 512" style="enable-background:new 0 0 512 512;" xml:space="preserve">
<g id="bulgaria">
	
		<path style="fill-rule:evenodd;clip-rule:evenodd;fill:none;stroke:#FFFFFF;stroke-width:10;stroke-linecap:square;stroke-linejoin:round;stroke-miterlimit:10;" d="
		M108.333,460.555c-1.124-10.235-2.613-19.752-3.104-29.319c-0.61-11.881-5.208-22.569-8.851-33.562
		c-0.366-1.104-2.012-1.824-3.141-2.61c-0.36-0.251-0.972-0.175-1.47-0.186c-13.455-0.304-23.681-5.945-29.992-18.096
		c-0.304-0.585-0.686-1.181-1.172-1.611c-8.004-7.09-9.833-14.99-3.237-24.04c1.684-2.31,0.634-3.694-1.332-5.342
		c-7.019-5.883-13.904-11.932-20.701-18.07c-1.011-0.913-2.134-2.988-1.753-3.953c3.096-7.846,6.537-15.557,10.461-24.675
		c3.007,3.854,5.426,6.954,8.042,10.307c9.403-8.802,17.815-16.58,26.057-24.534c0.849-0.819,1.073-2.733,0.922-4.064
		c-0.617-5.451-1.229-10.932-2.423-16.272c-0.38-1.701-2.273-3.62-3.954-4.387c-11.793-5.379-23.768-10.36-35.542-15.776
		c-2.369-1.09-4.702-3.148-6.069-5.365c-5.322-8.63-10.379-17.432-15.228-26.337c-1.179-2.165-1.813-5.02-1.614-7.468
		c0.582-7.121,1.588-14.218,2.735-21.273c0.234-1.441,1.661-3.674,2.784-3.835c11.108-1.594,15.759-7.911,14.625-18.868
		c-0.027-0.266,0.29-0.566,0.793-1.48c10.259,0.509,20.826,1.033,32.35,1.605c-1.766,5.582-3.324,10.708-5.011,15.791
		c-3.582,10.793-3.608,10.783,5.337,17.86c2.474,1.958,4.943,3.923,7.531,5.977c5.874-4.384,11.5-8.779,17.362-12.837
		c1.752-1.212,4.203-2.186,6.263-2.065c23.773,1.393,47.53,3.078,71.304,4.464c1.98,0.115,4.589-0.838,5.99-2.223
		c5.089-5.027,9.675-10.563,14.712-15.646c1.331-1.344,3.587-2.442,5.443-2.481c10.828-0.229,21.666-0.219,32.495-0.007
		c1.931,0.038,4.143,1.005,5.699,2.218c6.033,4.703,11.854,9.678,18.013,14.766c12.236-8.342,24.752-16.286,36.504-25.232
		c3.675-2.798,5.403-8.236,7.829-12.573c5.846-10.447,11.461-21.024,17.459-31.382c1.084-1.872,3.338-3.711,5.403-4.271
		c24.194-6.572,48.464-12.863,72.689-19.321c3.469-0.925,5.54-0.184,6.834,3.37c1.06,2.909,2.772,5.581,4.563,9.072
		c3.058-3.842,5.812-7.301,9.295-11.677c4.818,5.694,8.44,9.976,12.229,14.453c6.643-5.266,12.213-9.681,18.283-14.492
		c3.354,4.242,6.795,8.232,9.8,12.527c1.826,2.61,3.852,3.496,7.014,3.572c13.321,0.32,26.636,0.963,39.951,1.503
		c0.8,0.033,1.594,0.2,3.043,0.391c-3.498,13.058-6.904,25.771-10.404,38.836c-7.54-2.03-14.55-3.918-22.231-5.986
		c1.484,7.559,2.864,14.79,4.328,22.005c2.278,11.229,4.744,22.425,6.807,33.694c0.391,2.137-0.093,4.949-1.248,6.768
		c-6.603,10.393-13.426,20.649-20.416,30.786c-1.841,2.669-2.051,4.836-0.751,7.734c1.763,3.928,3.482,7.975,4.435,12.149
		c3.573,15.663,14.805,25.952,25.223,36.861c3.546,3.714,6.995,7.521,10.847,11.671c-12.748,6.363-25.04,12.577-37.442,18.563
		c-1.201,0.579-3.201,0.048-4.635-0.489c-12.311-4.608-24.574-9.34-36.858-14.021c-0.904-0.345-1.852-0.574-3.285-1.012
		c-3.435,7.47-6.808,14.806-10.438,22.7c-4.84-2.699-9.397-5.24-14.416-8.039c-2.437,8.367-4.603,16.371-7.161,24.248
		c-0.771,2.376-2.585,4.431-4.021,6.565c-0.45,0.667-1.253,1.088-1.854,1.664c-8.558,8.202-16.692,17.368-31.109,12.109
		c-0.046,0.531-0.093,1.063-0.139,1.593c6.491,10.494,12.983,20.988,19.822,32.042c-2.759,1.045-5.07,1.808-7.29,2.779
		c-17.646,7.723-35.24,15.566-52.959,23.118c-1.915,0.816-4.803,0.672-6.754-0.163c-5.805-2.481-11.521-5.266-16.968-8.452
		c-3.451-2.019-5.903-1.527-8.936,0.698c-5.366,3.938-11.142,7.318-16.523,11.237c-2.972,2.164-5.12,2.495-8.191-0.078
		c-5.608-4.699-11.67-8.857-17.542-13.241c-0.4-0.299-0.76-0.681-1.202-0.89c-8.595-4.063-17.272,0.055-25.906,0.021
		c-2.264-0.01-5.379,2.678-6.663,4.943c-5.189,9.162-12.475,13.466-23.198,13.886c-19.775,0.774-36.579,11.479-54.682,17.854
		C117.454,456.779,113.224,458.617,108.333,460.555z"/>
</g>
<g id="Layer_1">
</g>
</svg>
