<?xml version="1.0" encoding="iso-8859-1"?>
<!-- Generator: Adobe Illustrator 16.0.0, SVG Export Plug-In . SVG Version: 6.00 Build 0)  -->
<!DOCTYPE svg PUBLIC "-//W3C//DTD SVG 1.1//EN" "http://www.w3.org/Graphics/SVG/1.1/DTD/svg11.dtd">
<svg version="1.1" xmlns="http://www.w3.org/2000/svg" xmlns:xlink="http://www.w3.org/1999/xlink" x="0px" y="0px" width="512px"
	 height="512px" viewBox="0 0 512 512" style="enable-background:new 0 0 512 512;" xml:space="preserve">
<g id="denmark">
	
		<path style="fill-rule:evenodd;clip-rule:evenodd;fill:none;stroke:#FFFFFF;stroke-width:10;stroke-linecap:square;stroke-linejoin:round;stroke-miterlimit:10;" d="
		M269.736,379.632c-3.037,9.071-6.15,17.455-8.538,26.04c-0.742,2.669,0.402,5.898,0.825,8.852
		c1.106,7.732,2.465,15.435,3.31,23.193c0.185,1.689-0.859,4.189-2.188,5.256c-6.588,5.285-13.46,10.217-21.06,15.89
		c11.475,2.921,22.024,5.606,33.248,8.464c-10.489,12.457-20.618,24.487-30.968,36.779c-3.213-2.891-6.491-5.454-9.304-8.455
		c-4.691-5.003-10.413-7.83-16.849-10.004c-19.316-6.524-19.26-6.683-38.974-2.37c-2.582,0.564-5.183,1.039-8.574,1.714
		c0.521-6.481,0.916-12.541,1.511-18.581c1.45-14.732,3.019-29.452,4.453-44.185c0.137-1.404-0.037-2.999-0.584-4.283
		c-2.868-6.724-5.726-13.466-8.998-19.995c-0.888-1.771-3.001-3.544-4.903-4.087c-10.217-2.916-20.524-5.53-30.847-8.052
		c-2.733-0.668-4.279-1.784-4.894-4.697c-1.443-6.832-3.418-13.555-4.746-20.407c-0.349-1.796,0.249-4.53,1.481-5.762
		c10.599-10.576,14.65-23.76,17.597-38.07c2.565-12.46,2.418-24.759,2.144-37.197c-0.032-1.45-1.406-3.245-2.667-4.23
		c-5.112-3.992-10.325-7.877-15.704-11.499c-2.36-1.59-2.894-2.938-1.935-5.7c2.916-8.39,6.034-16.481,13.361-22.307
		c1.269-1.009,1.884-4.253,1.3-5.946c-3.727-10.792-6.186-21.682-5.211-33.216c0.215-2.544,1.254-3.708,3.021-5.5
		c3.282-3.326,7.611-7.9,7.509-11.852c-0.301-11.679,4.447-21.193,9.513-30.964c6.368-12.286,14.551-23.017,25.619-31.367
		c1.784-1.346,4.373-2.336,6.571-2.303c11.988,0.182,24.057,1.796,35.93,0.841c10.477-0.843,21.74-0.862,30.636-8.363
		c8.018-6.76,14.203-14.926,17.583-24.853c3.693-10.842,7.006-21.828,10.057-32.869c1.027-3.717,2.959-4.915,6.449-5.482
		c12.252-1.997,24.753-3.271,35.698-9.929c3.209-1.952,6.41-4.023,9.233-6.478c2.746-2.387,4.994-5.346,7.477-8.039
		c9.294-10.087,9.599-10.146,24.241-4.174c-5.367,6.853-10.301,13.67-15.818,19.979c-2.859,3.271-3.835,5.752-1.56,9.871
		c3.366,6.092,6.104,12.554,8.768,19c0.813,1.971,1.129,4.565,0.606,6.601c-3.013,11.748-6.15,23.473-9.68,35.073
		c-1.171,3.847-3.229,7.59-5.583,10.877c-4.548,6.355-9.523,12.412-14.479,18.464c-1.524,1.861-3.558,3.306-5.666,5.222
		c6.344,0.208,5.916,4.631,5.834,9.257c-0.193,10.828-0.178,21.663,0.021,32.489c0.047,2.533,0.752,5.245,1.862,7.529
		c3.413,7.022,7.387,13.777,10.692,20.845c1.46,3.124,3.49,4.017,6.564,4.044c8.995,0.081,18.001,0.049,26.978,0.527
		c2.741,0.146,5.764,1.286,8.024,2.871c4.747,3.326,11.449,6.504,12.903,11.137c1.438,4.587-2.506,10.917-4.241,16.434
		c-2.146,6.821-4.32,13.641-6.774,20.354c-0.598,1.635-2.065,3.36-3.596,4.172c-6.017,3.188-12.145,6.198-18.403,8.87
		c-1.532,0.654-4.016,0.308-5.539-0.529c-2.438-1.34-4.699-3.239-6.581-5.313c-7.436-8.198-17.153-9.199-27.837-9.111
		c2.142,9.941,4.066,19.781,6.461,29.507c0.846,3.438,0.212,5.968-1.688,8.783c-12.274,18.186-24.419,36.457-36.595,54.709
		c-0.914,1.37-1.733,2.802-2.882,4.668c5.584,3.251,10.844,6.765,16.52,9.378c2.063,0.95,5.154-0.043,7.71-0.507
		c15.687-2.846,31.344-5.861,47.047-8.613c1.664-0.292,3.923,0.261,5.293,1.262c6.309,4.612,12.492,9.41,18.496,14.41
		c1.285,1.071,2.271,3.244,2.321,4.942c0.548,18.48,0.835,36.969,1.323,55.452c0.077,2.9-0.492,4.892-3.684,5.306
		c-0.161,0.021-0.326,0.091-0.467,0.176c-16.487,9.911-33.242,5.2-49.992,0.927c-1.128-0.287-2.274-0.725-3.411-0.725
		c-11.18,0.001-15.821-6.66-18.605-16.588c-2.821-10.06-6.979-19.752-10.741-29.531c-0.66-1.718-1.958-3.539-3.475-4.52
		C284.706,388.63,277.544,384.397,269.736,379.632z"/>
</g>
<g id="Layer_1">
</g>
</svg>
