<?xml version="1.0" encoding="iso-8859-1"?>
<!-- Generator: Adobe Illustrator 16.0.0, SVG Export Plug-In . SVG Version: 6.00 Build 0)  -->
<!DOCTYPE svg PUBLIC "-//W3C//DTD SVG 1.1//EN" "http://www.w3.org/Graphics/SVG/1.1/DTD/svg11.dtd">
<svg version="1.1" xmlns="http://www.w3.org/2000/svg" xmlns:xlink="http://www.w3.org/1999/xlink" x="0px" y="0px" width="512px"
	 height="512px" viewBox="0 0 512 512" style="enable-background:new 0 0 512 512;" xml:space="preserve">
<g id="eastPrussia">
	<path style="fill-rule:evenodd;clip-rule:evenodd;fill:none;stroke:#FFFFFF;stroke-width:5;stroke-linejoin:bevel;" d="
		M18.936,326.571c7.031-5.152,13.788-10.14,20.591-15.065c1.729-1.252,2.871-2.539,3.255-4.893
		c1.659-10.155,4.033-20.207,5.339-30.401c0.742-5.798-0.045-11.796-0.192-17.702c-0.328-13.238-0.66-26.475-1.068-39.71
		c-0.044-1.425,0.329-2.237,1.527-3.044c5.798-3.909,11.493-7.971,17.293-11.876c0.877-0.591,2.132-0.96,3.184-0.905
		c16.375,0.87,32.744,1.845,49.12,2.705c0.749,0.039,1.872-0.579,2.26-1.227c2.138-3.563,4.073-7.247,6.146-10.851
		c0.433-0.752,1.027-1.585,1.761-1.964c5.692-2.936,11.437-5.771,17.171-8.624c0.279-0.139,0.616-0.16,1.172-0.296
		c1.296,4.423,2.579,8.777,3.846,13.135c0.788,2.707,0.761,6.379,2.553,7.858c1.753,1.448,5.347,0.729,8.137,0.852
		c21.546,0.947,43.094,1.855,64.639,2.828c1.367,0.062,2.057-0.293,2.651-1.569c3.933-8.444,7.925-16.862,11.986-25.245
		c0.75-1.545,0.611-2.656-0.344-4.079c-10.305-15.341-20.537-30.731-30.787-46.11c-0.597-0.895-1.173-1.804-1.905-2.933
		c0.962-0.474,1.805-0.936,2.684-1.313c9.318-4.006,18.661-7.958,27.951-12.028c1.772-0.777,3.207-0.663,4.936,0.147
		c20.751,9.717,41.533,19.368,62.325,28.998c0.946,0.439,2.063,0.756,3.093,0.733c18.731-0.413,37.46-1.11,56.193-1.204
		c5.239-0.026,8.942-2.532,12.925-4.956c7.816-4.755,15.547-9.651,23.384-14.372c0.904-0.545,2.36-0.72,3.384-0.436
		c7.432,2.063,14.794,4.377,22.235,6.403c2.081,0.566,2.935,1.616,3.373,3.618c2.13,9.725,4.451,19.409,6.524,29.146
		c0.387,1.815,1.158,2.14,2.784,2.346c10.133,1.286,20.247,2.708,30.365,4.098c0.399,0.056,0.777,0.259,1.364,0.463
		c-2.366,5.215-4.679,10.346-7.019,15.463c-3.007,6.577-6.078,13.124-9.018,19.73c-0.552,1.239-0.899,2.702-0.866,4.049
		c0.428,17.318,0.926,34.634,1.479,51.949c0.032,0.991,0.518,2.087,1.097,2.925c7.375,10.68,14.775,21.342,22.256,31.949
		c1.063,1.508,1.214,2.568,0.08,4.134c-2.537,3.505-4.773,7.228-7.306,10.736c-0.545,0.754-1.844,1.409-2.766,1.373
		c-7.07-0.277-14.13-0.782-21.199-1.077c-0.845-0.035-2.07,0.531-2.531,1.215c-3.068,4.554-5.922,9.252-8.987,13.808
		c-0.54,0.803-1.722,1.583-2.656,1.647c-10.296,0.706-20.601,1.278-30.903,1.866c-14.21,0.812-28.421,1.613-42.632,2.402
		c-9.89,0.55-19.782,1.056-29.673,1.606c-11.136,0.619-22.318,0.838-33.387,2.072c-6.195,0.691-12.218,3.026-18.288,4.726
		c-22.708,6.356-45.39,12.805-68.12,19.08c-2.843,0.785-5.906,0.903-8.881,1.058c-19.957,1.032-39.916,2.003-59.875,2.971
		c-8.982,0.435-17.965,0.969-26.953,1.126c-2.57,0.045-5.193-0.958-7.737-1.675c-21.023-5.918-42.036-11.871-63.038-17.861
		c-1.082-0.309-2.119-0.943-3.042-1.612c-6.804-4.931-13.576-9.906-20.353-14.876C20.01,327.542,19.594,327.135,18.936,326.571z"/>
</g>
<g id="Layer_1">
</g>
</svg>
