<?xml version="1.0" encoding="iso-8859-1"?>
<!-- Generator: Adobe Illustrator 16.0.0, SVG Export Plug-In . SVG Version: 6.00 Build 0)  -->
<!DOCTYPE svg PUBLIC "-//W3C//DTD SVG 1.1//EN" "http://www.w3.org/Graphics/SVG/1.1/DTD/svg11.dtd">
<svg version="1.1" xmlns="http://www.w3.org/2000/svg" xmlns:xlink="http://www.w3.org/1999/xlink" x="0px" y="0px" width="512px"
	 height="512px" viewBox="0 0 512 512" style="enable-background:new 0 0 512 512;" xml:space="preserve">
<g id="estonia">
	
		<path style="fill-rule:evenodd;clip-rule:evenodd;fill:none;stroke:#FFFFFF;stroke-width:10;stroke-linecap:square;stroke-linejoin:round;stroke-miterlimit:10;" d="
		M425.463,83.268c3.721,19.82,7.358,39.189,11.104,59.134c-5.879,1.819-11.476,3.757-17.189,5.238
		c-2.994,0.776-4.297,2.358-4.959,5.253c-1.813,7.923-4.069,15.749-5.706,23.705c-0.385,1.867,0.368,4.642,1.64,6.071
		c13.134,14.766,26.438,29.38,39.805,43.938c2.738,2.981,3.908,5.757,3.031,10.087c-3.622,17.889-6.74,35.881-10.195,54.661
		c6.755,1.392,13.499,2.613,20.137,4.261c1.835,0.455,4.017,1.8,4.916,3.379c9.546,16.717,18.867,33.563,28.239,50.379
		c0.31,0.556,0.499,1.179,0.949,2.264c-6.798,3.644-13.397,7.392-20.197,10.729c-3.035,1.49-3.801,3.268-2.631,6.261
		c0.418,1.071,0.549,2.253,0.83,3.379c2.945,11.718,3.063,11.932-7.712,17.814c-4.213,2.298-5.88,4.791-5.394,9.709
		c0.894,9.035,1.02,18.145,1.494,27.813c-11.957-2.669-23.536-4.293-34.433-7.947c-11.351-3.808-20.386-2.618-28.041,6.797
		c-0.923,1.134-2.513,1.729-3.433,2.864c-7.182,8.866-15.196,9-25.633,5.072c-13.118-4.939-26.089-9.744-37.316-18.263
		c-3.081-2.338-5.984-5.165-8.219-8.302c-3.949-5.536-7.404-11.434-10.896-17.282c-1.284-2.149-2.494-2.956-5.17-2.272
		c-6.743,1.72-13.559,3.221-20.42,4.366c-2.959,0.494-6.292,0.527-9.13-0.32c-12.063-3.602-24.054-7.468-35.97-11.535
		c-5.942-2.029-11.698-2.153-17.988-1.754c-12.524,0.796-22.783,6.766-33.292,12.328c-1.566,0.829-2.688,3.726-2.854,5.76
		c-0.776,9.553-6.833,15.057-14.279,19.606c-3.682,2.25-7.652,4.076-11.132,6.59c-3.399,2.458-6.014,1.998-9.415-0.105
		c-3.064-1.896-4.257-3.838-4.234-7.478c0.162-25.948,0.086-51.897,0.086-77.847c0-1.814,0-3.629,0-6.029
		c-7.676,1.391-14.971,2.55-22.167,4.152c-1.435,0.318-2.838,2.132-3.671,3.59c-4.78,8.364-9.376,16.834-14.054,25.256
		c-0.618,1.113-1.345,2.164-2.381,3.817c-6.477-9.642-12.635-18.811-18.773-27.947c-0.576,0.28-0.997,0.343-1.094,0.554
		c-3.646,7.929-9.715,10.835-18.316,9.497c-3.726-0.58-7.618-0.098-11.912-0.098c-0.828-6.4-1.689-12.585-2.414-18.786
		c-0.791-6.76-1.3-13.558-2.279-20.289c-0.25-1.721-1.475-3.646-2.829-4.803c-6.568-5.613-13.457-10.854-19.937-16.565
		c-1.58-1.391-2.899-4.062-2.879-6.13c0.139-14.463,0.798-28.922,0.919-43.385c0.018-2.208-1.323-5.069-2.993-6.537
		c-7.1-6.247-14.56-12.081-22.176-18.301c5.948-14.083,11.862-28.087,18.015-42.655c8.681,2.691,17.259,5.103,25.644,8.06
		c3.804,1.341,6.313,0.941,9.018-2.149c2.933-3.353,6.509-6.143,9.914-9.277c-3.99-5.503-7.674-10.222-10.888-15.242
		c-0.928-1.449-1.265-4.111-0.574-5.623c3.583-7.836,7.586-15.48,11.667-23.64c10.79,2.356,21.569,4.674,32.332,7.07
		c10.913,2.43,10.913,2.469,16.816-6.831c1.414-2.227,2.754-4.501,4.341-7.102c-7.331-4.239-14.43-8.345-21.529-12.451
		c0.113-0.445,0.225-0.891,0.338-1.336c21.985,3.106,43.973,6.212,66.273,9.363c0.612-4.581,1.197-8.963,1.838-13.766
		c1.868,0,3.777-0.449,5.371,0.071c11.181,3.65,17.944-4.714,25.794-9.658c1.734-1.091,2.337-4.725,2.603-7.277
		c1.236-11.938,10.97-17.451,18.349-25.66c3.84,8.124,7.364,15.577,11.311,23.927c4.442-3.699,8.801-6.897,12.629-10.639
		c3.854-3.766,8.043-4.963,13.395-4.776c49.019,1.712,98.05,3.107,147.068,4.868c5.095,0.183,8.715-1.122,11.266-5.288
		c5.456-8.907,15.624-8.448,23.751-12.024c0.542-0.239,1.867,0.506,2.394,1.148c4.082,4.981,8.06,10.051,12.414,15.529
		C444.606,74.677,435.271,78.866,425.463,83.268z"/>
</g>
<g id="Layer_1">
</g>
</svg>
