<?xml version="1.0" encoding="iso-8859-1"?>
<!-- Generator: Adobe Illustrator 16.0.0, SVG Export Plug-In . SVG Version: 6.00 Build 0)  -->
<!DOCTYPE svg PUBLIC "-//W3C//DTD SVG 1.1//EN" "http://www.w3.org/Graphics/SVG/1.1/DTD/svg11.dtd">
<svg version="1.1" xmlns="http://www.w3.org/2000/svg" xmlns:xlink="http://www.w3.org/1999/xlink" x="0px" y="0px" width="512px"
	 height="512px" viewBox="0 0 512 512" style="enable-background:new 0 0 512 512;" xml:space="preserve">
<g id="finland">
	<g>
		<path style="fill:#FFFFFF;" d="M231.886,22.7c1.115,0.519,2.224,1.023,3.311,1.518c4.529,2.061,8.806,4.007,12.606,6.53
			c2.387,1.585,4.415,4.151,6.562,6.867c0.658,0.833,1.332,1.686,2.03,2.526c-0.144,0.992-0.277,1.986-0.41,2.981
			c-0.416,3.107-0.809,6.042-1.516,8.871c-1.458,5.825-0.453,10.636,3.072,14.71c2.698,3.118,3.288,7.084,3.971,11.677
			c0.348,2.335,0.706,4.746,1.38,7.151c0.006,0.221,0.022,0.528,0.082,0.88c1.927,11.316,3.432,12.744,14.641,13.88l0.556,0.057
			c1.694,0.172,3.799,1.113,5.117,2.285c2.784,2.478,5.495,5.231,8.117,7.895c2.073,2.107,4.219,4.286,6.436,6.37
			c0.257,0.242,0.39,0.405,0.453,0.492c-0.02,0.117-0.072,0.355-0.226,0.765c-1.354,3.616-2.645,7.303-3.894,10.868
			c-1.713,4.886-3.482,9.938-5.407,14.792c-2.042,5.147-0.256,8.479,1.761,11.061c9.031,11.559,18.122,23.392,26.914,34.835
			c1.862,2.423,3.724,4.847,5.587,7.27l-0.812,0.062c-1.231,0.093-2.351,0.75-3.033,1.779c-0.682,1.03-0.85,2.316-0.455,3.487
			c0.703,2.086,1.409,4.13,2.107,6.149c1.736,5.021,3.376,9.765,4.771,14.588c0.192,0.668,0.141,1.736,0.085,2.867
			c-0.067,1.386-0.145,2.957,0.171,4.603c0.718,3.75,2.051,6.547,3.964,8.314c2.521,2.329,5.286,4.265,7.96,6.137
			c0.246,0.172,0.488,0.342,0.729,0.511c-0.754,3.035-0.589,5.792,0.498,8.228c1.448,3.245,4.416,5.658,8.821,7.171
			c2.756,0.946,5.508,1.923,8.422,2.957c0.104,0.037,0.21,0.074,0.315,0.111l-7.053,18.752c-0.699,1.86,0.073,3.953,1.814,4.912
			c2.246,1.237,4.495,2.479,6.747,3.721c5.424,2.993,11.032,6.089,16.576,9.113c1.08,0.589,2.158,1.182,3.237,1.773
			c4.411,2.423,8.972,4.927,13.611,7.188c0.793,0.386,1.012,0.627,1.021,0.627l0,0c0.014,0.043,0.125,0.449-0.09,1.805
			c-4.667,29.414-16.192,57.259-27.339,84.186c-2.177,5.259-4.427,10.695-6.595,16.067c-0.775,1.922-1.516,3.88-2.23,5.772
			c-3.086,8.171-6.002,15.888-11.927,21.846c-0.284,0.286-0.568,0.588-0.855,0.892c-0.519,0.552-1.386,1.473-1.762,1.622
			c-20.752,7.561-39.538,19.071-57.705,30.203c-5.352,3.278-10.885,6.669-16.367,9.895c-3.913,2.304-7.979,4.503-12.237,6.772
			c0.573-1.204,0.508-2.614-0.173-3.761c-3.201-5.389-8.718-12.703-19.625-13.995c-1.34-0.158-2.829-0.692-4.406-1.258
			c-2.015-0.722-4.298-1.54-6.777-1.725c-9.039-0.671-13.144-7.315-17.893-15.005c-0.078-0.14-0.239-0.709-0.207-1.484
			c0.099-2.344,0.262-4.751,0.42-7.08c0.255-3.755,0.518-7.638,0.537-11.521l0.002-0.526c0.024-4.399,0.05-9.386-1.522-13.913
			c-0.66-1.9-1.307-3.808-1.954-5.716c-4.228-12.46-8.599-25.345-16.65-36.652c-0.938-1.318-0.764-1.601-0.297-2.354
			c0.642-1.039,1.063-2.085,1.435-3.009c0.25-0.62,0.485-1.207,0.737-1.653c2.475-4.395,5.489-11.174,3.095-19.266
			c-0.067-0.229-0.093-0.551-0.096-0.931c0.705,0.053,1.38,0.121,2.017,0.228c1.058,0.177,2.087,0.267,3.06,0.267
			c7.046,0,11.62-4.72,11.937-12.316l0.01-0.231c0.103-2.473,0.21-5.03,0.084-7.624c-0.036-0.751-0.015-1.242,0.02-1.554
			c0.189,0.005,0.404,0.022,0.64,0.054c0.235,0.031,0.478,0.047,0.722,0.047c2.173,0,5.071-1.362,6.16-3.642
			c5.485-11.467,10.947-23.168,16.23-34.484l1.796-3.848c0.365-0.783,0.805-1.838,0.964-3.06
			c1.45-11.055,4.583-19.581,15.159-25.259c1.394-0.749,2.216-2.249,2.097-3.826c-0.12-1.578-1.158-2.937-2.648-3.467
			c-5.08-1.807-5.236-4.161-5.123-9.783c0.018-0.875,0.036-1.78,0.021-2.698c-0.033-1.888-1.025-7.454-5.021-8.239
			c-6.718-1.32-10.046-4.765-11.129-11.519c-0.226-1.408-1.185-2.59-2.516-3.101c-0.465-0.178-0.951-0.266-1.433-0.266
			c-0.9,0-1.789,0.304-2.511,0.886l-4.688,3.779l-1.327,1.07c-1.692-3.511-3.295-6.833-5.035-10.192
			c-1.063-2.051-2.542-4.707-4.579-7.058c-2.534-2.927-3.071-6.032-1.854-10.716c2.182-8.391,0.002-16.969-5.981-23.534
			c-4.053-4.447-3.644-6.042-1.744-8.622c0.722-0.981,1.004-2.004,1.191-2.682c0.031-0.113,0.061-0.226,0.093-0.328
			c0.544-1.714-0.198-3.049-0.442-3.488c-0.029-0.052-0.068-0.12-0.111-0.21c-0.629-1.327-1.936-2.202-3.402-2.279l-4.361-0.23
			c0.091-0.94,0.203-1.792,0.393-2.562c2.722-11.069-3.026-18.948-8.627-25.464c-6.196-7.208-14.395-12.334-24.369-15.237
			c-7.398-2.152-13.221-6.069-17.799-11.974c-1.489-1.921-3.164-3.63-4.641-5.138c-0.027-0.028-0.055-0.056-0.082-0.084
			c0.251-0.757,0.5-1.51,0.748-2.26c1.361-4.12,2.652-8.028,4.05-11.91c1.429,0.44,3.191,1.033,3.682,1.638
			c2.995,3.697,5.593,7.668,8.344,11.872c1.091,1.668,2.22,3.393,3.365,5.082c2.751,4.057,13.583,7.022,18.175,7.022
			c1.534,0,2.77-0.267,3.777-0.814c1.878-1.021,2.845-2.778,3.551-4.062l0.102-0.186c1.261-2.277,2.487-4.589,3.774-7.024
			l8.591,4.981l6.793,3.939c0.62,0.36,1.313,0.54,2.006,0.54c0.689,0,1.379-0.178,1.997-0.534c1.24-0.714,2.003-2.036,2.003-3.466
			c0-1.256,0.025-2.418,0.049-3.542c0.051-2.383,0.099-4.634-0.131-6.899c-0.048-0.471-0.047-0.795-0.034-1.005
			c0.222-0.047,0.579-0.099,1.124-0.118c1.809-0.064,6.614-0.233,8.304-3.975c1.648-3.652-1.264-7.2-2.221-8.365
			c-6.213-7.568-7.438-15.485-3.972-25.671c1.286-3.778,1.993-7.688,2.677-11.47c0.024-0.134,0.048-0.269,0.073-0.403
			c1.229,0.298,2.429,0.445,3.611,0.445c7.608,0,12.006-6.139,15.567-11.11C231.425,23.273,231.651,22.984,231.886,22.7
			 M230.869,17.786c-0.77,0.906-1.938,2.103-2.901,3.445c-3.384,4.723-6.748,9.44-12.316,9.44c-1.92,0-4.104-0.562-6.641-1.877
			c-1.155,5.45-1.773,10.923-3.507,16.016c-3.673,10.795-2.771,20.439,4.667,29.499c3.203,3.901,2.133,5.619-3.132,5.805
			c-3.889,0.138-5.321,1.659-4.929,5.525c0.304,2.995,0.061,6.044,0.061,10.037c-7.15-4.146-12.934-7.499-18.979-11.005
			c-2.087,3.921-3.84,7.302-5.685,10.631c-0.545,0.985-1.157,2.177-2.065,2.671c-0.417,0.227-1.064,0.329-1.866,0.329
			c-4.37,0-13.342-3.022-14.865-5.268c-3.92-5.782-7.53-11.817-11.911-17.227c-1.619-1.998-4.993-2.703-7.701-3.587
			c-0.034-0.011-0.071-0.017-0.112-0.017c-0.644,0-2.089,1.334-2.424,2.252c-2.066,5.667-3.9,11.418-5.911,17.434
			c1.846,1.981,4.19,4.15,6.121,6.64c5.166,6.663,11.778,11.018,19.843,13.364c8.777,2.554,16.439,7.008,22.453,14.003
			c5.396,6.277,10.003,12.848,7.776,21.901c-0.538,2.188-0.552,4.505-0.867,7.292c3.265,0.172,5.981,0.315,8.508,0.449
			c0.23,0.485,0.39,0.66,0.354,0.772c-0.199,0.63-0.317,1.337-0.693,1.849c-3.88,5.268-2.134,9.142,2.009,13.687
			c4.927,5.406,6.989,12.439,5.066,19.833c-1.397,5.374-1.042,10.017,2.701,14.341c1.617,1.867,2.909,4.074,4.051,6.279
			c2.462,4.754,4.731,9.608,7.179,14.626c3.387-2.731,6.331-5.104,9.934-8.009c1.389,8.666,6.286,13.234,14.307,14.811
			c0.88,0.173,1.767,2.851,1.793,4.383c0.106,6.191-1.5,12.887,7.761,16.181c-12.263,6.584-15.738,16.873-17.232,28.263
			c-0.084,0.647-0.344,1.29-0.623,1.889c-5.969,12.782-11.922,25.571-18.01,38.297c-0.333,0.695-1.668,1.368-2.552,1.368
			c-0.067,0-0.133-0.004-0.194-0.012c-0.459-0.061-0.88-0.091-1.267-0.091c-3.481,0-4.077,2.403-3.916,5.749
			c0.121,2.491,0.009,4.999-0.095,7.496c-0.231,5.548-3.073,8.482-7.94,8.482c-0.752,0-1.554-0.07-2.4-0.212
			c-2.069-0.345-4.196-0.345-6.499-0.517c0,2.414-0.449,4.501,0.083,6.299c1.751,5.918,0.113,11.096-2.745,16.169
			c-0.813,1.441-1.223,3.12-2.089,4.521c-1.508,2.437-1.206,4.465,0.44,6.777c8.905,12.507,13.143,27.124,18.084,41.36
			c1.404,4.042,1.319,8.724,1.298,13.108c-0.03,6.151-0.694,12.298-0.954,18.451c-0.053,1.248,0.16,2.72,0.797,3.751
			c4.989,8.077,9.948,16.075,21.002,16.896c3.721,0.276,7.273,2.523,11.009,2.966c7.9,0.936,12.806,5.582,16.657,12.065
			c-1.527,3.21-3.092,6.499-5.222,10.976c8.606-4.669,15.989-8.396,23.101-12.583c24.004-14.124,46.964-30.15,73.412-39.787
			c1.574-0.572,2.822-2.183,4.083-3.449c8.024-8.069,10.958-18.851,15.031-28.943c13.335-33.039,28.517-65.462,34.175-101.123
			c0.545-3.438-0.044-5.152-3.131-6.655c-5.659-2.757-11.153-5.859-16.685-8.876c-7.801-4.256-15.573-8.565-23.309-12.826
			c2.934-7.799,5.65-15.021,8.488-22.569c-4.527-1.597-8.563-3.05-12.617-4.442c-6.615-2.271-8.64-6.656-5.888-13.151
			c-3.582-2.63-7.433-5.028-10.706-8.051c-1.527-1.411-2.334-3.958-2.749-6.127c-0.486-2.542,0.361-5.393-0.342-7.828
			c-1.995-6.897-4.486-13.651-6.932-20.905c3.047-0.23,5.102-0.387,7.963-0.604c-1.387-1.944-2.276-3.279-3.253-4.547
			c-11.158-14.508-22.28-29.044-33.549-43.467c-1.824-2.335-2.376-4.147-1.195-7.124c3.362-8.477,6.132-17.187,9.329-25.732
			c0.876-2.341,0.64-3.812-1.234-5.573c-4.976-4.676-9.537-9.805-14.633-14.338c-1.933-1.718-4.803-3.014-7.371-3.276
			c-9.971-1.015-9.99-0.83-11.658-10.628c-0.056-0.328,0.002-0.681-0.09-0.994c-2.023-6.91-1.128-14.729-6.262-20.661
			c-2.893-3.343-3.265-6.931-2.216-11.121c1.004-4.013,1.413-8.178,2.01-12.286c0.111-0.768,0.175-1.847-0.251-2.341
			c-3.248-3.767-6.075-8.254-10.091-10.921C244.192,23.55,237.479,21.021,230.869,17.786L230.869,17.786z"/>
	</g>
</g>
<g id="Layer_1">
</g>
</svg>
