<?xml version="1.0" encoding="iso-8859-1"?>
<!-- Generator: Adobe Illustrator 16.0.0, SVG Export Plug-In . SVG Version: 6.00 Build 0)  -->
<!DOCTYPE svg PUBLIC "-//W3C//DTD SVG 1.1//EN" "http://www.w3.org/Graphics/SVG/1.1/DTD/svg11.dtd">
<svg version="1.1" xmlns="http://www.w3.org/2000/svg" xmlns:xlink="http://www.w3.org/1999/xlink" x="0px" y="0px" width="512px"
	 height="512px" viewBox="0 0 512 512" style="enable-background:new 0 0 512 512;" xml:space="preserve">
<g id="france">
	<g>
		<path style="fill-rule:evenodd;clip-rule:evenodd;fill:none;stroke:#FFFFFF;stroke-width:8;stroke-miterlimit:10;" d="
			M282.671,501.291c-3.726-8-7.265-15.603-10.952-23.521c4.629-3.435,9.135-6.778,13.807-10.245
			c-1.311-2.889-2.516-5.544-3.933-8.664c4.025-1.029,7.665-2.607,11.368-2.778c9.484-0.438,16.843-4.273,22.173-12.064
			c1.652-2.416,3.476-2.335,5.966-1.13c5.69,2.753,11.665,4.942,17.254,7.876c2.742,1.44,4.8,4.138,7.33,6.05
			c1.11,0.84,2.942,1.936,3.905,1.553c4.934-1.959,9.689-4.363,14.48-6.6c-0.913-2.73-1.387-4.143-2.142-6.399
			c3.59,2.285,6.32,4.022,9.319,5.932c-3.014,2.553-5.586,4.731-8.764,7.422c2.407,0.311,3.728,0.647,5.04,0.62
			c6.026-0.125,10.524,1.891,12.517,8.098c0.323,1.006,1.898,2.454,2.691,2.336c9.017-1.345,15.893,3.848,23.388,7.226
			c1.161,0.523,2.901,0.575,4.084,0.111c14.332-5.625,25.639-15.097,34.433-27.715c-4.271-6.736-5.017-9.826-2.28-11.774
			c1.357-0.967,3.868-1.742,5.131-1.123c2.86,1.402,5.271,3.724,8.267,5.972c10.915-4.213,13.477-16.332,21.316-24.21
			c-7.14-2.671-14.165-4.18-19.897-7.76c-5.766-3.603-10.243-9.266-15.223-13.966c2.396-4.754,4.387-9.166,6.803-13.329
			c1.604-2.768,1.001-4.318-1.404-6.168c-6.438-4.953-12.68-10.159-18.892-15.178c2.962-5.446,7.158-8.018,12.845-8.994
			c6.5-1.117,12.866-3.001,19.847-4.686c-5.808-8.4-11.246-16.268-16.833-24.35c3.275-2.006,6.162-3.774,9.214-5.643
			c-5.16-9.624-12.456-18.086-9.323-29.868c-6.626-0.824-12.333-1.534-18.021-2.241c-3.063,7.003-2.074,16.979-14.351,15.905
			c0.737-4.5,0.51-9.471,2.401-13.431c5.147-10.774,11.036-21.209,17-31.567c1.323-2.298,3.979-4.027,6.352-5.478
			c3.031-1.854,7.131-2.453,9.458-4.861c4.104-4.25,7.218-9.459,10.733-14.25c-1.647-2.733-3.177-5.269-4.652-7.715
			c7.528-4.047,10.101,3.915,15.083,5.898c3.071-2.551,5.857-5.228,9.004-7.378c3.153-2.155,4.083-4.689,3.606-8.433
			c-1.05-8.258-1.571-16.582-2.576-24.848c-0.347-2.854,0.073-4.913,2.892-5.975c7.403-2.788,9.73-8.104,7.886-15.57
			c-0.157-0.636-0.029-1.338-0.142-1.99c-0.733-4.267,0.623-7.57,3.761-10.671c4.467-4.417,8.441-9.331,13.193-14.67
			c-5.928-1.495-11.145-2.475-16.135-4.135c-12.074-4.02-26.17-2.901-35.297-14.196c-2.108,1.436-3.843,2.618-5.708,3.889
			c-3.395-3.584-6.896-6.733-9.715-10.403c-3.105-4.042-6.984-5.995-11.878-6.099c-13.984-0.295-25.81-5.043-34.691-16.257
			c-0.957-1.209-2.78-2.791-3.938-2.6c-5.4,0.889-6.266-2.833-7.44-6.488c-0.61-1.898-1.002-3.999-2.117-5.562
			c-0.918-1.288-2.745-2.68-4.19-2.703c-5.102-0.081-10.213,0.407-15.617,0.694c-0.479-7.276-0.922-14.011-1.377-20.929
			c-4.005-0.395-7.645-0.623-11.237-1.163c-1.737-0.261-3.504-0.889-5.058-1.723c-9.074-4.873-18.144-9.762-27.08-14.881
			c-1.848-1.059-3.646-2.857-4.575-4.752c-3.438-7.013-6.752-14.112-9.602-21.379c-1.341-3.418-3.064-4.052-6.375-3.424
			c-6.377,1.208-12.801,2.299-19.254,2.928c-3.728,0.363-5.128,1.867-5.407,5.485c-0.59,7.634-1.235,15.286-2.42,22.844
			c-0.688,4.387-5.191,8.383,0.409,13.281c-9.033,5.071-16.807,10.297-25.27,13.909c-6.647,2.836-14.063,4.345-21.287,5.233
			c-8.812,1.085-13.906,5.963-17.43,13.736c2.352,1.303,4.755,2.633,7.615,4.218c-4.664,3.376-9.156,6.253-13.191,9.669
			c-3.323,2.813-5.915,3.372-9.33,0.133c-2.754-2.613-6.352-4.322-9.205-6.85c-5.802-5.14-11.966-8.155-19.797-5.019
			c-0.207,0.083-0.566-0.218-1.104-0.445c-1.05-6.551-2.121-13.229-3.25-20.271c-5.317,0-10.291-0.087-15.261,0.029
			c-3.514,0.082-6.991,0.368-9.029-4.148c-0.79,3.409-1.661,6.777-0.643,9.419c5.214,13.536,8.342,27.198,6.312,41.872
			c-0.522,3.771,1.082,7.836,1.795,12.305c-3.604,0.412-8.213,0.751-12.749,1.525c-3.192,0.544-4.972-0.116-5.724-3.531
			c-0.622-2.822-1.877-5.504-2.853-8.249c-0.318,0.021-0.637,0.042-0.955,0.063c-0.995,5.234-1.99,10.468-3.133,16.481
			c-3.991-4.219-7.489-7.729-10.751-11.447c-1.648-1.878-3.133-2.938-5.415-1.169c-2.49,1.931-4.308,1.103-6.325-1.05
			c-4.328-4.618-8.558-9.459-13.542-13.278c-3.12-2.392-7.462-3.759-11.414-4.213c-1.571-0.181-3.724,3.22-5.34,5.211
			c-4.009,4.938-9.45,5.089-13.711,0.199c-1.934-2.219-3.818-4.48-5.868-6.893c-3.139,2.812-5.904,5.289-7.914,7.09
			c-2.66-1.406-4.853-3.567-6.274-3.143c-6.144,1.836-12.063,4.427-18.3,6.835c1.679,4.619,3.183,8.758,4.807,13.223
			c3.844-1.984,7.294-3.765,10.744-5.545c0.153,0.188,0.305,0.377,0.458,0.565c-1.011,1.391-2.022,2.781-3.297,4.535
			c3.574,1.572,6.814,2.998,10.054,4.423c-7.389-0.094-4.956,6.796-7.479,10.147c-4.021-1.064-7.993-2.116-11.965-3.167
			c-0.263,0.342-0.526,0.684-0.789,1.024c8.025,4.325,13.488,9.955,9.698,20.297c0.471-0.112,0.941-0.224,1.413-0.336
			c2.757-3.401,5.515-6.803,8.524-10.516c4.226,4.579,10.418,7.044,9.47,12.989c3.258,1.363,6.808,1.715,7.982,3.571
			c2.593,4.095,5.279,4.963,9.406,2.938c1.001-0.492,2.189-0.604,3.292-0.889c-0.105,0.486-0.21,0.974-0.316,1.459
			c2.39,1.101,4.704,2.858,7.188,3.146c3.563,0.411,5.086,1.725,4.867,5.281c-0.066,1.078,0.381,2.188,0.619,3.416
			c2.835-0.266,5.407-0.507,8.269-0.775c-0.146,3.163-0.272,5.902-0.42,9.12c4.102,0,7.865,0,11.317,0
			c-1.44,3.598-4.45,7.417-3.633,10.046c0.946,3.042,5.259,5.036,8.343,7.687c-0.369,0.974-1.034,2.729-2.135,5.636
			c7.057-3.259,8.654,1.307,10.794,5.586c-3.169,2.28-6.206,4.465-9.282,6.679c2.545,4.303,6.98,7.505,4.795,11.068
			c2.532,6.304,4.53,11.28,6.62,16.481c1.921-0.106,4.192-0.232,6.77-0.375c0,1.765,0,3.164,0,4.642
			c2.52,0.186,4.757,0.351,7.218,0.533c-0.316,3.041-0.581,5.59-0.865,8.327c2.693,0,4.965,0,6.734,0
			c5.33,9.114,3.724,17.327-2.679,24.685c2.665,2.528,4.758,4.516,6.968,6.611c-2.057,1.233-3.588,2.151-5.372,3.221
			c3.701,3.325,7.035,6.594,10.663,9.493c2.566,2.049,3.62,4.293,3.59,7.63c-0.076,8.314,0.151,16.63,4.881,24.056
			c0.619,0.971,0.085,2.677,0.085,4.043c-0.499,0.035-0.997,0.069-1.496,0.104c-3.821-5.271-8.57-10.201-7.023-17.662
			c2.098-10.119-5.643-14.964-11.411-22.487c-4.821,16.074-9.273,30.916-13.755,45.86c3.194,0.547,6.555,1.121,9.883,1.69
			c0,2.098,0,3.7,0,5.534c-3.452,0.375-6.695,0.729-10.086,1.098c-0.823,4.924-1.525,9.517-2.393,14.078
			c-0.269,1.412-0.637,3.594-1.554,3.969c-7.042,2.881-5.953,8.884-5.559,14.342c0.409,5.658-1.149,10.215-4.801,14.563
			c-4.675,5.566-8.789,11.604-13.055,17.319c3.127,4.384,4.847,10.253,12.309,6.28c-1.617,4.694-2.853,8.282-4.211,12.224
			c8.857,3.785,17.618,7.368,26.204,11.329c1.84,0.849,3.695,2.814,4.437,4.7c3.091,7.863,2.936,7.928,11.366,8.204
			c1.332,0.043,2.685,0.204,3.995,0.039c3.687-0.466,6.093,0.881,7.021,4.572c0.796,3.163,2.792,3.694,5.919,3.65
			c3.107-0.044,6.589,0.597,9.25,2.1c2.682,1.515,4.576,1.525,6.604-0.348c3.19-2.946,6.306-3.013,9.665-0.31
			c0.862,0.694,2.045,0.989,3.313,1.574c0.683-3.042,1.311-5.834,1.946-8.665c0.826,0.29,1.163,0.354,1.444,0.515
			c8.097,4.624,16.156,9.315,24.31,13.834c1.492,0.827,3.668,1.774,5.02,1.277c6.896-2.534,10.352,2.061,14.337,6.128
			c-1.403,2.422-2.717,4.689-4.672,8.063c4.424,1.822,8.5,4.759,12.678,4.912c5.588,0.205,10.618,0.342,15.533,3.603
			c4.987,3.312,9.519,1.64,11.831-3.45C268.756,501.291,275.337,501.291,282.671,501.291z"/>
		<path style="fill-rule:evenodd;clip-rule:evenodd;fill:none;stroke:#FFFFFF;stroke-width:8;stroke-miterlimit:10;" d="
			M282.671,501.291c-7.334,0-13.915,0-20.496-0.001c-2.313,5.091-6.844,6.763-11.831,3.451c-4.915-3.261-9.945-3.397-15.533-3.603
			c-4.178-0.153-8.254-3.09-12.678-4.912c1.955-3.373,3.269-5.641,4.672-8.063c-3.986-4.067-7.441-8.662-14.337-6.128
			c-1.351,0.497-3.527-0.45-5.02-1.277c-8.154-4.519-16.213-9.21-24.31-13.834c-0.282-0.16-0.619-0.225-1.444-0.515
			c-0.635,2.831-1.263,5.623-1.946,8.665c-1.268-0.585-2.451-0.88-3.313-1.574c-3.359-2.703-6.475-2.637-9.665,0.31
			c-2.029,1.873-3.922,1.862-6.604,0.348c-2.661-1.503-6.143-2.144-9.25-2.1c-3.127,0.044-5.124-0.487-5.919-3.65
			c-0.928-3.691-3.334-5.038-7.021-4.572c-1.31,0.165-2.663,0.004-3.995-0.039c-8.431-0.276-8.275-0.341-11.366-8.204
			c-0.741-1.886-2.596-3.852-4.437-4.7c-8.586-3.961-17.347-7.544-26.204-11.329c1.358-3.941,2.594-7.529,4.211-12.224
			c-7.462,3.973-9.182-1.896-12.309-6.28c4.266-5.715,8.38-11.753,13.055-17.319c3.652-4.348,5.21-8.904,4.801-14.563
			c-0.395-5.458-1.483-11.461,5.559-14.342c0.917-0.375,1.286-2.557,1.554-3.969c0.868-4.562,1.57-9.154,2.393-14.078
			c3.391-0.369,6.634-0.723,10.086-1.098c0-1.834,0-3.437,0-5.534c-3.328-0.569-6.689-1.144-9.883-1.69
			c4.482-14.944,8.934-29.786,13.755-45.86c5.768,7.523,13.509,12.368,11.411,22.487c-1.547,7.461,3.202,12.392,7.023,17.662
			c0.499-0.034,0.997-0.068,1.496-0.104c0-1.366,0.534-3.072-0.085-4.043c-4.73-7.426-4.957-15.741-4.881-24.056
			c0.03-3.337-1.023-5.581-3.59-7.63c-3.628-2.899-6.962-6.168-10.663-9.493c1.784-1.069,3.314-1.987,5.372-3.221
			c-2.21-2.096-4.303-4.083-6.968-6.611c6.403-7.357,8.009-15.57,2.679-24.685c-1.769,0-4.041,0-6.734,0
			c0.284-2.736,0.549-5.286,0.865-8.327c-2.461-0.183-4.699-0.348-7.218-0.533c0-1.479,0-2.877,0-4.642
			c-2.578,0.143-4.849,0.269-6.77,0.375c-2.09-5.202-4.088-10.177-6.62-16.481c2.185-3.563-2.25-6.765-4.795-11.068
			c3.076-2.213,6.113-4.399,9.282-6.679c-2.14-4.28-3.737-8.846-10.794-5.586c1.102-2.907,1.766-4.662,2.135-5.636
			c-3.084-2.65-7.397-4.645-8.343-7.687c-0.817-2.629,2.192-6.448,3.633-10.046c-3.453,0-7.216,0-11.317,0
			c0.148-3.218,0.274-5.957,0.42-9.12c-2.862,0.269-5.434,0.51-8.269,0.775c-0.238-1.227-0.685-2.337-0.619-3.416
			c0.22-3.556-1.303-4.871-4.867-5.281c-2.484-0.287-4.798-2.045-7.188-3.146c0.105-0.486,0.21-0.973,0.316-1.459
			c-1.102,0.285-2.29,0.396-3.292,0.889c-4.127,2.025-6.813,1.157-9.406-2.938c-1.175-1.856-4.725-2.208-7.982-3.571
			c0.948-5.944-5.244-8.41-9.47-12.989c-3.01,3.713-5.767,7.115-8.524,10.516c-0.471,0.112-0.942,0.224-1.413,0.336
			c3.79-10.343-1.672-15.973-9.698-20.297c0.263-0.341,0.526-0.683,0.789-1.024c3.972,1.052,7.944,2.104,11.965,3.167
			c2.523-3.351,0.09-10.241,7.479-10.147c-3.24-1.426-6.48-2.851-10.054-4.423c1.274-1.753,2.286-3.144,3.297-4.535
			c-0.153-0.188-0.305-0.377-0.458-0.565c-3.45,1.78-6.9,3.561-10.744,5.545c-1.624-4.465-3.128-8.604-4.807-13.223
			c6.238-2.408,12.156-4.999,18.3-6.835c1.421-0.424,3.614,1.737,6.274,3.143c2.01-1.801,4.775-4.278,7.914-7.09
			c2.05,2.412,3.935,4.673,5.868,6.893c4.261,4.89,9.703,4.739,13.711-0.199c1.616-1.991,3.769-5.392,5.34-5.211
			c3.952,0.454,8.293,1.822,11.414,4.213c4.983,3.819,9.214,8.661,13.542,13.278c2.017,2.152,3.835,2.981,6.325,1.05
			c2.282-1.769,3.766-0.709,5.415,1.169c3.262,3.717,6.761,7.228,10.751,11.447c1.143-6.013,2.138-11.248,3.133-16.481
			c0.318-0.021,0.637-0.042,0.955-0.063c0.975,2.745,2.231,5.427,2.853,8.249c0.752,3.415,2.532,4.075,5.724,3.531
			c4.535-0.774,9.145-1.113,12.749-1.525c-0.713-4.469-2.317-8.534-1.795-12.305c2.03-14.674-1.098-28.336-6.312-41.872
			c-1.018-2.642-0.146-6.011,0.643-9.419c2.039,4.516,5.515,4.23,9.029,4.148c4.97-0.116,9.944-0.029,15.261-0.029
			c1.129,7.042,2.2,13.721,3.25,20.271c0.538,0.228,0.898,0.528,1.104,0.445c7.832-3.136,13.996-0.121,19.797,5.019
			c2.853,2.528,6.451,4.237,9.205,6.85c3.415,3.239,6.006,2.681,9.33-0.133c4.035-3.417,8.528-6.293,13.191-9.669
			c-2.86-1.585-5.264-2.916-7.615-4.218c3.523-7.772,8.618-12.651,17.43-13.736c7.224-0.888,14.64-2.397,21.287-5.233
			c8.463-3.612,16.237-8.838,25.27-13.909c-5.601-4.898-1.097-8.894-0.409-13.281c1.185-7.558,1.83-15.21,2.42-22.844
			c0.279-3.618,1.68-5.122,5.407-5.485c6.453-0.629,12.877-1.721,19.254-2.928c3.311-0.628,5.034,0.006,6.375,3.424
			c2.85,7.267,6.163,14.366,9.602,21.379c0.929,1.896,2.728,3.694,4.575,4.752c8.937,5.119,18.006,10.008,27.08,14.881
			c1.554,0.834,3.32,1.462,5.058,1.723c3.593,0.54,7.232,0.769,11.237,1.163c0.455,6.918,0.898,13.652,1.377,20.929
			c5.404-0.287,10.516-0.775,15.617-0.694c1.445,0.023,3.272,1.415,4.19,2.703c1.115,1.563,1.507,3.664,2.117,5.562
			c1.175,3.655,2.04,7.377,7.44,6.488c1.157-0.19,2.98,1.391,3.938,2.6c8.882,11.213,20.707,15.962,34.691,16.257
			c4.894,0.104,8.772,2.057,11.878,6.099c2.819,3.67,6.32,6.819,9.715,10.403c1.865-1.271,3.6-2.453,5.708-3.889
			c9.127,11.295,23.223,10.176,35.297,14.196c4.99,1.661,10.207,2.64,16.135,4.135c-4.752,5.339-8.727,10.252-13.193,14.67
			c-3.138,3.101-4.494,6.404-3.761,10.671c0.112,0.652-0.016,1.354,0.142,1.99c1.845,7.466-0.482,12.783-7.886,15.57
			c-2.818,1.062-3.238,3.121-2.892,5.975c1.005,8.266,1.526,16.59,2.576,24.848c0.477,3.744-0.453,6.277-3.606,8.433
			c-3.146,2.15-5.933,4.827-9.004,7.378c-4.982-1.983-7.555-9.945-15.083-5.898c1.476,2.446,3.005,4.982,4.652,7.715
			c-3.516,4.792-6.629,10.001-10.733,14.25c-2.327,2.408-6.427,3.006-9.458,4.861c-2.373,1.451-5.028,3.179-6.352,5.478
			c-5.964,10.358-11.853,20.793-17,31.567c-1.892,3.96-1.664,8.931-2.401,13.431c12.276,1.074,11.287-8.902,14.351-15.905
			c5.688,0.707,11.396,1.417,18.021,2.241c-3.133,11.782,4.163,20.244,9.323,29.868c-3.052,1.868-5.938,3.637-9.214,5.643
			c5.587,8.082,11.025,15.949,16.833,24.35c-6.98,1.685-13.347,3.568-19.847,4.686c-5.687,0.977-9.883,3.548-12.845,8.994
			c6.212,5.019,12.454,10.225,18.892,15.178c2.405,1.85,3.009,3.4,1.404,6.168c-2.416,4.163-4.406,8.575-6.803,13.329
			c4.979,4.7,9.457,10.363,15.223,13.966c5.732,3.58,12.758,5.089,19.897,7.76c-7.84,7.878-10.401,19.997-21.316,24.21
			c-2.995-2.248-5.406-4.569-8.267-5.972c-1.263-0.619-3.773,0.156-5.131,1.123c-2.736,1.948-1.99,5.038,2.28,11.774
			c-8.794,12.618-20.101,22.09-34.433,27.715c-1.183,0.464-2.923,0.412-4.084-0.111c-7.495-3.378-14.371-8.57-23.388-7.226
			c-0.793,0.118-2.368-1.33-2.691-2.336c-1.992-6.207-6.49-8.223-12.517-8.098c-1.313,0.027-2.633-0.31-5.04-0.62
			c3.178-2.69,5.75-4.869,8.764-7.422c-2.999-1.909-5.729-3.646-9.319-5.932c0.755,2.257,1.229,3.669,2.142,6.399
			c-4.791,2.236-9.547,4.641-14.48,6.6c-0.963,0.383-2.795-0.713-3.905-1.553c-2.53-1.912-4.588-4.609-7.33-6.05
			c-5.589-2.934-11.563-5.123-17.254-7.876c-2.49-1.205-4.313-1.286-5.966,1.13c-5.33,7.791-12.688,11.627-22.173,12.064
			c-3.703,0.171-7.343,1.749-11.368,2.778c1.417,3.12,2.622,5.775,3.933,8.664c-4.672,3.467-9.178,6.811-13.807,10.245
			C275.406,485.688,278.945,493.291,282.671,501.291z"/>
	</g>
</g>
<g id="Layer_1">
</g>
</svg>
