<?xml version="1.0" encoding="iso-8859-1"?>
<!-- Generator: Adobe Illustrator 16.0.0, SVG Export Plug-In . SVG Version: 6.00 Build 0)  -->
<!DOCTYPE svg PUBLIC "-//W3C//DTD SVG 1.1//EN" "http://www.w3.org/Graphics/SVG/1.1/DTD/svg11.dtd">
<svg version="1.1" xmlns="http://www.w3.org/2000/svg" xmlns:xlink="http://www.w3.org/1999/xlink" x="0px" y="0px" width="512px"
	 height="512px" viewBox="0 0 512 512" style="enable-background:new 0 0 512 512;" xml:space="preserve">
<g id="germany">
	<g>
		<path style="fill-rule:evenodd;clip-rule:evenodd;fill:none;stroke:#FFFFFF;stroke-width:7;" d="M157.421,100.804
			c-3.326-1.947-3.046-4.178-0.269-6.853c2.151-2.071,4.767-4.18,5.727-6.802c0.769-2.103-0.639-5.001-1.081-7.547
			c-1.904,0.471-4.305,0.379-5.612,1.53c-2.873,2.529-5.742,2.833-8.247-0.001c-1.248-1.412-2.471-2.845-3.379-3.894
			c-2.773,2.27-4.979,4.074-7.968,6.519c0-3.491,0-5.421,0-6.889c-2.353-0.518-4.361-0.959-7.529-1.655
			c2.888-2.141,4.324-3.204,5.585-4.138c-1.482-8.178-9.007-8.901-14.002-12.817c-1.271,1.427-2.329,2.613-3.353,3.762
			c-10.506-6.875-11.961-7.156-20.824-4.134c-0.844,5.221,2.214,8.563,5.347,12.141c1.557,1.778,1.944,4.582,2.86,6.921
			c-2.194,0.229-4.386,0.479-6.583,0.669c-0.616,0.054-1.248-0.07-2.453-0.153c0.199,2.344,0.372,4.383,0.504,5.954
			c3.823,1.178,7.052,2.172,9.769,3.009c-1.248,6.754-2.341,12.675-3.457,18.719c-0.092-0.017-0.75-0.092-1.383-0.261
			c-2.48-0.666-5.233-4.088-7.393-0.48c-1.705,2.848-2.528,6.443-2.901,9.801c-0.322,2.9,0.809,5.935,0.782,8.905
			c-0.016,1.806-1.01,3.603-1.565,5.405c-0.674,0.068-1.348,0.137-2.022,0.205c-1.784-3.379-3.612-6.736-5.334-10.147
			c-0.964-1.909-1.606-3.989-2.648-5.85c-2.739-4.895-6.251-4.898-9.587-0.109c-8.127-2.672-10.694-1.941-16.026,4.564
			c-3.416,4.167-1.666,9.66,3.407,10.77c0.736,0.161,1.423,0.548,3.135,1.229c-3.488,7.029-6.83,13.624-10.011,20.295
			c-0.601,1.26-1.07,2.96-0.731,4.225c1.068,3.983-0.832,5.418-4.304,6.002c-1.077,0.181-2.098,0.689-3.14,1.046
			c0.845,2.599,2.163,4.896,2.227,7.228c0.128,4.634,0.627,9.709-1.006,13.814c-1.687,4.239-5.135,8.414-8.923,10.976
			c-3.001,2.031-7.739,1.348-11.588,2.332c-1.943,0.496-4.382,1.634-5.172,3.202c-0.578,1.146,0.693,3.953,1.958,5.174
			c4.966,4.797,6.868,9.768,2.772,16.107c-1.612,2.495-2.495,5.453-4.013,8.021c-0.666,1.126-1.956,2.144-3.191,2.628
			c-5.789,2.269-7.064,9.296-2.5,13.464c3.313,3.025,6.541,6.195,9.442,9.609c5.387,6.34,4.708,12.197-1.784,17.087
			c-3.068,2.311-3.967,4.688-1.23,7.89c3.535,4.135,6.937,8.381,10.647,12.885c-2.875,3.626-5.936,7.487-9.118,11.5
			c4.813,5.2,9.413,10.17,13.991,15.114c1.507-1.2,2.653-2.114,3.753-2.99c11.203,10.294,26.625,8.431,39.553,14.487
			c-2.797,2.98-5.161,6.041-8.056,8.463c-4.67,3.909-6.792,8.262-4.61,14.322c1.594,4.422,0.094,7.606-4.531,9.019
			c-3.944,1.205-4.724,3.887-4.232,7.684c0.833,6.433,1.328,12.908,1.911,19.371c0.395,4.371,6.301,8.124,10.041,5.727
			c4.882-3.128,8.723-2.798,12.517,1.406c0.748,0.829,1.855,1.335,2.985,2.12c1.655-1.501,3.217-2.917,4.956-4.494
			c-1.04-1.151-1.808-1.981-2.552-2.833c-0.731-0.835-1.438-1.692-2.333-2.749c1.604-1.117,2.963-2.827,4.308-2.815
			c1.926,0.016,4.952,0.772,5.575,2.112c3.222,6.926,3.59,7.266,10.585,4.197c1.065-0.468,2.249-1.487,3.17-1.288
			c1.905,0.411,5.318,1.753,5.238,2.223c-0.903,5.297,3.515,5.995,7.312,8.188c-6.647,4.992-4.11,10.726-1.997,16.368
			c0.353,0.942,1.166,2.085,2.032,2.398c4.325,1.565,8.738,2.885,12.849,4.203c4.049-1.086,8.355-2.243,12.697-3.409
			c1.292,2.644,2.271,4.649,3.491,7.146c7.53-5.856,9.328,3.431,14.155,4.847c0.317-0.222,0.616-0.381,0.85-0.604
			c0.482-0.46,1.03-0.892,1.378-1.443c5.146-8.142,12.353-11.447,21.926-9.704c2.261,0.412,4.706,0.415,6.978,0.052
			c5.795-0.928,9.219,1.331,11.407,6.749c1.211,3,2.373,6.316,6.817,7.023c17.036,2.713,33.995,5.9,51.013,8.735
			c4.088,0.681,8.393,0.225,12.413,1.117c4.992,1.109,9.05-1.878,9.682-5.015c1.467-7.282,5.5-6.668,10.621-5.592
			c2.267,0.477,4.617,0.829,6.919,0.778c1.493-0.033,3.674-0.445,4.329-1.469c3.027-4.723,7.109-4.729,11.802-3.55
			c1.361,0.342,2.879,0.053,4.471,0.053c0-3.387-0.802-6.813,0.229-9.55c1.005-2.669,3.698-4.839,5.972-6.866
			c7.347-6.549,7.554-7.569,2.377-14.983c2.44-4.473,4.779-8.762,7.215-13.226c-3.378-1.601-5.41-2.563-7.604-3.604
			c4.102-8.229,11.698-2.068,17.22-4.711c0.368-4.717,0.742-9.5,1.241-15.878c2.914,1.292,5.461,1.908,7.354,3.371
			c3.545,2.742,6.646,6.051,10.074,8.957c1.033,0.875,2.646,1.856,3.807,1.665c10.938-1.802,21.835-3.848,33.176-5.9
			c-0.895-1.725-1.442-2.913-2.104-4.034c-2.436-4.131-1.234-7.103,3.476-8.187c1.933-0.445,3.939-0.577,5.916-0.828
			c4.553-0.579,9.108-1.143,13.974-1.752c-0.317-3.322-0.578-6.061-0.993-10.411c4.09,2.583,7.151,4.517,11.036,6.97
			c5.953-7.865,12.304-15.913,18.212-24.273c1.733-2.453,3.231-3.531,6.277-3.568c6.113-0.07,12.217-0.826,18.333-1.074
			c1.291-0.052,3.086,0.479,3.857,1.401c6.19,7.411,13.809,6.454,23.148,3.902c0-9.967,0.075-20.104-0.089-30.236
			c-0.022-1.378-0.879-3.238-1.965-4.028c-11.179-8.129-23.251-14.022-37.804-13.917c-0.938,1.914-2.008,4.093-3.067,6.249
			c-1.611-0.635-2.914-1.148-4.876-1.921c0.578,4.684-2.014,5.105-5.249,4.916c-2.656-0.156-5.381,0.296-7.984-0.105
			c-4.841-0.745-7.523,1.18-9.617,5.519c-2.842,5.89-9.498,6.084-13.657,0.777c-2.54-3.24-5.044-6.511-7.56-9.765
			c-9.727,7.638-9.879,7.658-18.488,2.671c0-1.751,0-3.542,0-5.351c-2.215-1.741-6.882,0.84-6.889-4.671
			c-0.004-2.619-2.283-5.237-3.594-7.986c-4.093,0.494-8.364,1.009-12.578,1.517c-1.081-1.588-2.054-3.016-3.063-4.498
			c-5.145,5.485-6.677,5.194-9.789-1.655c1.729-1.604,3.486-3.234,4.887-4.532c-2.267-1.732-4.214-3.222-6.172-4.72
			c-1.973,0.634-4.274,1.531-6.654,2.085c-1.67,0.388-4.595,0.998-5,0.326c-3.479-5.763-8.713-2.933-14.033-3.93
			c1.473,4.001,2.609,7.091,3.422,9.297c-2.276,1.494-4.295,2.856-6.356,4.15c-0.626,0.394-1.59,1.019-2.01,0.797
			c-0.733-0.386-1.625-1.331-1.648-2.067c-0.172-5.25-2.671-7.819-8.004-7.918c-1.064-0.02-2.104-1.361-3.607-2.408
			c3.285-2.144,5.863-3.828,8.896-5.809c-3.674-2.186-4.273-9.069-10.266-5.37c-4.693,2.898-8.366,0.277-11.304-2.246
			c-2.616-2.249-4.867-3.864-8.259-3.211c-3.339,0.641-5.327-0.736-6.581-3.74c-0.487-1.167-1.35-2.178-2.134-3.402
			c-2.414,1.544-4.568,2.922-7.024,4.493c0-6.788-0.145-12.874,0.063-18.949c0.097-2.805-0.508-4.615-3.235-5.914
			c-2.967-1.414-6.023-3.121-4.866-7.503c0.192-0.729-0.434-2.286-1.04-2.517c-3.705-1.404-3.296-4.443-2.609-7.087
			c0.845-3.257,2.435-6.321,3.723-9.519c-4.132-3.755-2.012-12.223-10.017-12.813c1.256-4.543,3.962-8.933,2.9-12.031
			c-1.041-3.041-5.846-4.87-9.118-7.053c-6.966-4.646-8.207-8.864-2.83-15.368c4.962-6.003,5.405-11.849,2.773-18.713
			c-2.167-5.654-5.552-10.234-11.051-12.652c-3.048-1.341-4.394-3.194-4.543-6.233c-0.271-5.537-2.6-8.622-8.643-9.04
			c-7.741-0.535-12.882-5.599-13.794-13.417c-5.703-0.423-11.404-0.846-15.129-1.122c-4.067,5.143-7.112,9.342-10.58,13.158
			c-1.003,1.104-3.33,1.756-4.861,1.498c-6.418-1.079-9.969,0.989-11.709,7.347c-0.512,1.871-1.092,3.724-1.492,5.08
			c-6.766,2.721-5.027-3.97-8.048-6.208C162.504,97.618,160.209,99.056,157.421,100.804z"/>
		<path style="fill-rule:evenodd;clip-rule:evenodd;fill:none;stroke:#FFFFFF;stroke-width:7;" d="M157.421,100.804
			c2.788-1.748,5.083-3.186,7.211-4.52c3.021,2.237,1.282,8.929,8.048,6.208c0.399-1.355,0.98-3.209,1.492-5.08
			c1.74-6.358,5.291-8.426,11.709-7.347c1.532,0.258,3.858-0.394,4.861-1.498c3.468-3.816,6.513-8.016,10.58-13.158
			c3.725,0.276,9.426,0.699,15.129,1.122c0.912,7.818,6.053,12.882,13.794,13.417c6.043,0.418,8.372,3.502,8.643,9.04
			c0.149,3.039,1.495,4.892,4.543,6.233c5.5,2.417,8.884,6.998,11.051,12.652c2.632,6.864,2.188,12.71-2.773,18.713
			c-5.376,6.504-4.136,10.722,2.83,15.368c3.272,2.183,8.077,4.012,9.118,7.053c1.062,3.098-1.645,7.487-2.9,12.031
			c8.005,0.59,5.885,9.058,10.017,12.813c-1.288,3.198-2.878,6.262-3.723,9.519c-0.687,2.644-1.096,5.683,2.609,7.087
			c0.606,0.23,1.232,1.787,1.04,2.517c-1.157,4.382,1.899,6.089,4.866,7.503c2.728,1.299,3.332,3.109,3.235,5.914
			c-0.208,6.075-0.063,12.161-0.063,18.949c2.456-1.571,4.61-2.949,7.024-4.493c0.784,1.225,1.646,2.235,2.134,3.402
			c1.254,3.003,3.242,4.381,6.581,3.74c3.392-0.652,5.643,0.962,8.259,3.211c2.938,2.523,6.61,5.144,11.304,2.246
			c5.992-3.7,6.592,3.184,10.266,5.37c-3.032,1.981-5.61,3.665-8.896,5.809c1.503,1.047,2.543,2.389,3.607,2.408
			c5.333,0.099,7.832,2.668,8.004,7.918c0.023,0.736,0.915,1.682,1.648,2.067c0.42,0.222,1.384-0.403,2.01-0.797
			c2.062-1.294,4.08-2.656,6.356-4.15c-0.813-2.206-1.949-5.296-3.422-9.297c5.32,0.997,10.555-1.833,14.033,3.93
			c0.405,0.672,3.33,0.062,5-0.326c2.38-0.554,4.682-1.451,6.654-2.085c1.958,1.498,3.905,2.987,6.172,4.72
			c-1.4,1.298-3.157,2.928-4.887,4.532c3.112,6.85,4.645,7.141,9.789,1.655c1.009,1.482,1.981,2.91,3.063,4.498
			c4.214-0.508,8.485-1.022,12.578-1.517c1.311,2.749,3.59,5.367,3.594,7.986c0.007,5.511,4.674,2.93,6.889,4.671
			c0,1.809,0,3.6,0,5.351c8.609,4.987,8.762,4.967,18.488-2.671c2.516,3.254,5.02,6.524,7.56,9.765
			c4.159,5.307,10.815,5.112,13.657-0.777c2.094-4.339,4.776-6.264,9.617-5.519c2.604,0.401,5.328-0.051,7.984,0.105
			c3.235,0.189,5.827-0.232,5.249-4.916c1.962,0.772,3.265,1.286,4.876,1.921c1.06-2.156,2.129-4.335,3.067-6.249
			c14.553-0.105,26.625,5.788,37.804,13.917c1.086,0.79,1.942,2.65,1.965,4.028c0.164,10.133,0.089,20.27,0.089,30.236
			c-9.34,2.552-16.958,3.509-23.148-3.902c-0.771-0.922-2.566-1.453-3.857-1.401c-6.116,0.248-12.22,1.004-18.333,1.074
			c-3.046,0.037-4.544,1.115-6.277,3.568c-5.908,8.36-12.259,16.408-18.212,24.273c-3.885-2.453-6.946-4.387-11.036-6.97
			c0.415,4.351,0.676,7.089,0.993,10.411c-4.865,0.609-9.421,1.173-13.974,1.752c-1.977,0.251-3.983,0.383-5.916,0.828
			c-4.71,1.084-5.911,4.056-3.476,8.187c0.661,1.121,1.209,2.31,2.104,4.034c-11.341,2.053-22.237,4.099-33.176,5.9
			c-1.161,0.191-2.773-0.79-3.807-1.665c-3.428-2.906-6.529-6.215-10.074-8.957c-1.893-1.463-4.439-2.079-7.354-3.371
			c-0.499,6.378-0.873,11.161-1.241,15.878c-5.521,2.643-13.118-3.518-17.22,4.711c2.194,1.04,4.227,2.003,7.604,3.604
			c-2.436,4.464-4.774,8.753-7.215,13.226c5.177,7.414,4.97,8.435-2.377,14.983c-2.273,2.027-4.967,4.197-5.972,6.866
			c-1.03,2.737-0.229,6.163-0.229,9.55c-1.592,0-3.109,0.289-4.471-0.053c-4.692-1.179-8.774-1.173-11.802,3.55
			c-0.655,1.023-2.836,1.436-4.329,1.469c-2.302,0.051-4.652-0.302-6.919-0.778c-5.121-1.076-9.154-1.69-10.621,5.592
			c-0.632,3.137-4.689,6.124-9.682,5.015c-4.021-0.893-8.325-0.437-12.413-1.117c-17.018-2.835-33.977-6.022-51.013-8.735
			c-4.444-0.707-5.605-4.023-6.817-7.023c-2.188-5.418-5.611-7.677-11.407-6.749c-2.271,0.363-4.716,0.36-6.978-0.052
			c-9.573-1.743-16.781,1.563-21.926,9.704c-0.349,0.552-0.896,0.983-1.378,1.443c-0.234,0.224-0.533,0.383-0.85,0.604
			c-4.827-1.416-6.625-10.703-14.155-4.847c-1.219-2.496-2.199-4.502-3.491-7.146c-4.342,1.166-8.648,2.323-12.697,3.409
			c-4.111-1.318-8.524-2.638-12.849-4.203c-0.866-0.313-1.679-1.456-2.032-2.398c-2.113-5.643-4.65-11.376,1.997-16.368
			c-3.797-2.192-8.215-2.891-7.312-8.188c0.08-0.47-3.333-1.812-5.238-2.223c-0.921-0.199-2.104,0.82-3.17,1.288
			c-6.995,3.068-7.363,2.729-10.585-4.197c-0.623-1.34-3.648-2.097-5.575-2.112c-1.345-0.012-2.704,1.698-4.308,2.815
			c0.895,1.057,1.602,1.914,2.333,2.749c0.744,0.852,1.512,1.682,2.552,2.833c-1.739,1.577-3.301,2.993-4.956,4.494
			c-1.13-0.785-2.237-1.291-2.985-2.12c-3.794-4.204-7.634-4.534-12.517-1.406c-3.739,2.397-9.646-1.355-10.041-5.727
			c-0.583-6.463-1.078-12.938-1.911-19.371c-0.492-3.797,0.289-6.479,4.232-7.684c4.625-1.412,6.125-4.597,4.531-9.019
			c-2.183-6.061-0.06-10.413,4.61-14.322c2.896-2.422,5.259-5.482,8.056-8.463c-12.928-6.057-28.351-4.193-39.553-14.487
			c-1.1,0.876-2.246,1.79-3.753,2.99c-4.578-4.944-9.177-9.914-13.991-15.114c3.182-4.013,6.243-7.874,9.118-11.5
			c-3.71-4.504-7.112-8.75-10.647-12.885c-2.737-3.202-1.838-5.579,1.23-7.89c6.492-4.891,7.171-10.747,1.784-17.087
			c-2.902-3.415-6.129-6.584-9.442-9.609c-4.564-4.167-3.288-11.195,2.5-13.464c1.235-0.484,2.525-1.502,3.191-2.628
			c1.518-2.568,2.401-5.525,4.013-8.021c4.096-6.339,2.194-11.31-2.772-16.107c-1.264-1.222-2.536-4.028-1.958-5.174
			c0.791-1.567,3.229-2.706,5.172-3.202c3.849-0.984,8.587-0.301,11.588-2.332c3.788-2.562,7.236-6.737,8.923-10.976
			c1.634-4.105,1.134-9.18,1.006-13.814c-0.064-2.331-1.382-4.628-2.227-7.228c1.042-0.356,2.063-0.865,3.14-1.046
			c3.473-0.584,5.373-2.02,4.304-6.002c-0.339-1.264,0.13-2.964,0.731-4.225c3.181-6.671,6.522-13.266,10.011-20.295
			c-1.711-0.682-2.398-1.068-3.135-1.229c-5.073-1.11-6.823-6.603-3.407-10.77c5.333-6.505,7.899-7.236,16.026-4.564
			c3.335-4.789,6.848-4.786,9.587,0.109c1.042,1.861,1.684,3.941,2.648,5.85c1.722,3.411,3.55,6.768,5.334,10.147
			c0.674-0.068,1.348-0.137,2.022-0.205c0.555-1.802,1.549-3.599,1.565-5.405c0.027-2.97-1.104-6.005-0.782-8.905
			c0.373-3.357,1.197-6.953,2.901-9.801c2.159-3.608,4.912-0.186,7.393,0.48c0.633,0.169,1.291,0.244,1.383,0.261
			c1.116-6.044,2.209-11.965,3.457-18.719c-2.716-0.837-5.945-1.831-9.769-3.009c-0.133-1.571-0.306-3.61-0.504-5.954
			c1.205,0.083,1.836,0.207,2.453,0.153c2.197-0.19,4.389-0.44,6.583-0.669c-0.917-2.339-1.303-5.143-2.86-6.921
			c-3.133-3.578-6.191-6.92-5.347-12.141c8.863-3.022,10.318-2.741,20.824,4.134c1.024-1.149,2.082-2.335,3.353-3.762
			c4.995,3.916,12.52,4.639,14.002,12.817c-1.261,0.934-2.697,1.998-5.585,4.138c3.168,0.696,5.177,1.137,7.529,1.655
			c0,1.468,0,3.398,0,6.889c2.989-2.445,5.195-4.249,7.968-6.519c0.908,1.049,2.131,2.482,3.379,3.894
			c2.505,2.834,5.374,2.53,8.247,0.001c1.307-1.15,3.708-1.059,5.612-1.53c0.442,2.545,1.85,5.444,1.081,7.547
			c-0.96,2.622-3.576,4.73-5.727,6.802C154.375,96.625,154.096,98.856,157.421,100.804z"/>
	</g>
</g>
<g id="Layer_1">
</g>
</svg>
