<?xml version="1.0" encoding="iso-8859-1"?>
<!-- Generator: Adobe Illustrator 16.0.0, SVG Export Plug-In . SVG Version: 6.00 Build 0)  -->
<!DOCTYPE svg PUBLIC "-//W3C//DTD SVG 1.1//EN" "http://www.w3.org/Graphics/SVG/1.1/DTD/svg11.dtd">
<svg version="1.1" xmlns="http://www.w3.org/2000/svg" xmlns:xlink="http://www.w3.org/1999/xlink" x="0px" y="0px" width="512px"
	 height="512px" viewBox="0 0 512 512" style="enable-background:new 0 0 512 512;" xml:space="preserve">
<g id="greece">
	<g>
		<path style="fill:#FFFFFF;" d="M467.277,39.94c3.949,0,7.211,0.399,10.292,2.348c5.847,3.699,11.8,6.792,18.103,10.067
			c0.004,0.002,0.009,0.004,0.013,0.007c-0.323,0.372-0.642,0.753-0.953,1.143c-5.23,6.536-9.941,12.694-14.4,18.829
			c-2.496,3.433-1.814,7.781-1.185,10.072c0.757,2.744,1.577,5.479,2.37,8.125c1.073,3.577,2.086,6.956,2.973,10.403
			c0.052,0.205,0.044,0.647-0.012,0.868c-4.993,10.396-9.709,19.786-14.41,28.689c-14.341,0.825-29.59,1.498-46.579,2.057
			l-0.136,0.002c-1.046,0-2.472-0.366-3.722-0.956c-5.998-2.829-11.876-5.773-18.1-8.891c-2.352-1.179-4.728-2.369-7.14-3.567
			c-1-0.497-2.063-0.733-3.11-0.733c-2.484,0-4.884,1.327-6.15,3.65c-1.217,2.231-2.435,4.432-3.645,6.617
			c-2.805,5.067-5.701,10.301-8.373,15.563c-6.148-1.611-12.218-2.962-18.637-4.392c-2.605-0.58-5.242-1.167-7.919-1.78
			c-0.525-0.12-1.051-0.178-1.568-0.178c-3.025,0-5.794,1.973-6.699,4.986c-0.612,2.038-1.228,4.043-1.837,6.028
			c-1.441,4.693-2.806,9.138-4.054,13.736c-8.358,0.296-16.589,0.778-25.293,1.289c-3.42,0.2-6.887,0.404-10.419,0.599
			c-2.527,0.139-4.783,1.633-5.898,3.906s-0.916,4.971,0.521,7.056c1.699,2.465,3.369,4.895,5.019,7.295
			c5.32,7.741,10.346,15.052,15.541,22.377c0.692,0.975,1.502,1.753,2.331,2.386l-0.92-0.401c-0.912-0.399-1.865-0.589-2.803-0.589
			c-2.586,0-5.063,1.44-6.279,3.899l-1.406,2.846l-2.688,5.438c-0.49,0.991-0.725,2.045-0.727,3.085
			c-1.268-0.204-2.581-0.306-3.941-0.306c-3.774,0-7.382,0.733-10.871,1.441c-1.069,0.217-2.078,0.422-3.081,0.604
			c-2.007,0.364-3.756,1.586-4.788,3.346s-1.245,3.882-0.583,5.813c2.442,7.122,5.938,15.184,12.245,21.74
			c-1.332,0.103-2.481,0.176-3.344,0.176c-0.104,0-0.196-0.001-0.28-0.003c-0.558-1.03-1.396-3.012-2.223-4.967
			c-0.591-1.399-1.206-2.786-1.8-4.126c-1.457-3.289-2.834-6.395-3.825-9.523c-2.637-8.327-8.661-10.614-12.963-11.61
			c-4.15-0.96-8.224-2.168-12.536-3.447c-3.506-1.04-7.132-2.114-10.803-3.043c-2.095-0.53-2.539-1.159-3.054-2.466
			c-1.02-2.586-2.273-4.938-3.485-7.211c-0.514-0.964-1-1.875-1.469-2.803c-1.222-2.418-3.676-3.844-6.25-3.844
			c-0.821,0-1.654,0.145-2.464,0.45l-14.128,5.316l-3.516,1.323c-3.614,1.36-5.444,5.389-4.091,9.005
			c0.147,0.394,0.269,0.772,0.386,1.133c0.356,1.094,0.801,2.455,1.624,3.845c5.763,9.708,7.939,20.169,6.651,31.98
			c-0.841,7.715,3.137,12.459,6.697,15.732c4.017,3.689,8.043,7.37,12.069,11.051c16.617,15.19,33.798,30.897,49.932,47.003
			c1.316,1.314,2.37,3.214,3.32,5.42c-3.232-1.324-6.37-2.675-9.449-4.173c-3.245-1.578-6.024-2.313-8.747-2.313
			c-4.416-0.001-8.358,1.965-11.715,5.841c-0.993,1.146-2.465,2.28-4.17,3.595c-0.969,0.746-1.97,1.519-3.033,2.402
			c-1.63,1.355-2.558,3.378-2.522,5.499c0.036,2.12,1.031,4.11,2.706,5.411c1.624,1.261,3.226,2.513,4.815,3.756
			c5.021,3.926,9.765,7.635,14.751,11.271c1.662,1.213,3.804,1.854,6.192,1.854c1.612,0,3.308-0.29,4.772-0.815l0.724-0.259
			c5.624-2.013,11.44-4.094,17.057-6.783c0.073-0.036,0.14-0.065,0.199-0.092c0.142,0.104,0.331,0.253,0.572,0.463
			c9.025,7.83,16.075,13.696,22.859,19.02c3.213,2.521,7.5,4.171,11.471,4.413c11.71,0.709,23.171,1.208,35.305,1.737
			c1.969,0.086,3.944,0.172,5.926,0.259c0.053,0.622,0.106,1.243,0.159,1.863c0.568,6.634,1.104,12.899,1.407,19.235
			c0.288,6.036,3.004,10.11,8.304,12.455c4.461,1.971,8.987,4.091,13.364,6.143c4.959,2.323,10.083,4.725,15.234,6.967
			c-0.503,3.455-0.93,6.884-1.358,10.44c-0.054-0.016-0.107-0.03-0.161-0.046c-8.481-2.44-16.516-4.751-24.604-7.222
			c-0.089-0.145-0.195-0.325-0.318-0.55c-1.793-3.244-3.589-6.58-5.325-9.807c-2.761-5.13-5.616-10.435-8.59-15.613
			c-1.92-3.343-5.948-6.07-9.79-6.632c-3.903-0.573-7.807-0.93-11.581-1.274c-2.734-0.25-5.317-0.486-7.919-0.799
			c-1.748-0.21-3.25-0.604-4.34-1.141l-1.656-0.815c-5.097-2.504-9.911-4.869-14.369-7.718
			c-15.315-9.782-32.229-13.804-48.24-17.085c-0.466-0.096-0.937-0.143-1.405-0.143c-1.476,0-2.927,0.467-4.136,1.353
			c-1.594,1.167-2.62,2.953-2.826,4.918l-0.806,7.693l-1.561,14.889c-0.36,3.436,1.839,6.62,5.18,7.5
			c3.371,0.888,6.718,1.76,10.047,2.627c7.621,1.986,14.819,3.862,22.136,5.87c3.074,0.843,6.151,1.679,9.229,2.515
			c11.686,3.173,23.769,6.454,35.44,10.124c6.065,1.909,11.92,4.604,18.118,7.456c1.021,0.471,2.043,0.94,3.065,1.406
			c0.672,5.471,1.287,11.038,1.883,16.434c0.671,6.082,1.365,12.37,2.146,18.567c0.354,2.814-0.273,3.3-1.225,4.037
			c-0.834,0.647-1.589,1.334-2.295,2.039l-1.306-1.106c-4.121-3.49-8.171-6.92-12.213-10.356c-1.242-1.057-2.497-2.101-3.752-3.145
			c-3.229-2.685-6.277-5.221-9.108-7.958c-2.449-2.367-5.172-3.568-8.096-3.568c-2.627,0-4.78,0.961-6.539,1.901
			c-11.082,5.921-22.01,11.639-33.58,17.692c-1.975,1.033-3.955,2.069-5.943,3.11l-5.573-9.311l1.196-0.462l9.031-3.491
			c2.779-1.074,4.574-3.79,4.473-6.768s-2.077-5.565-4.923-6.447c-2.4-0.745-4.739-1.53-7.002-2.289
			c-5.262-1.767-10.232-3.436-15.543-4.489c-3.898-0.773-6.348-2.937-9.705-8.568c-1.184-1.986-3.272-3.26-5.58-3.402
			c-0.146-0.009-0.29-0.014-0.435-0.014c-2.15,0-4.192,0.991-5.523,2.7l-2.583,3.317c-0.886-0.834-1.807-1.656-2.776-2.447
			c-1.951-1.592-5.194-3.293-8.446-3.293c-1.049,0-2.061,0.17-3.005,0.504c-9.344,3.304-18.95,3.759-27.938,3.759
			c-2.907,0-5.9-0.056-8.793-0.109c-2.955-0.055-6.011-0.11-9.043-0.11c-0.964,0-1.927,0.005-2.887,0.019
			c-2.594,0.034-10.488,0.138-14.102,8.009c-2.016,4.393-5.124,4.961-13.491,5.466l-0.559,0.033
			c-7.934,0.483-15.705,1.222-23.932,2.004c-1.75,0.167-3.513,0.335-5.292,0.501c-1.349-4.066-2.751-8.262-4.417-12.502
			c-1.594-4.064-3.683-7.38-6.208-9.854c-31.811-31.188-63.778-62.31-93.681-91.386c5.315-2.94,11.332-4.122,17.984-5.428
			c2.86-0.563,5.818-1.143,8.808-1.889c2.481-0.619,4.427-2.542,5.076-5.016c0.649-2.473-0.102-5.104-1.959-6.86l-14.388-13.612
			l-1.928-1.824c1.697-1.408,3.27-2.65,4.867-3.692c17.205-11.214,31.923-26.88,44.997-47.894c0.814-1.309,1.954-2.715,3.16-4.204
			c2.924-3.608,6.239-7.697,6.989-13.016c0.779-5.528-1.401-10.627-3.324-15.126c-0.684-1.601-1.33-3.112-1.779-4.489
			c-1.136-3.479-2.275-6.956-3.452-10.542c5.228-0.804,10.179-1.563,15.182-2.269c4.639-0.654,9.28-1.29,13.922-1.925
			c10.154-1.39,20.654-2.827,30.985-4.449c4.651-0.73,8.737-5.128,10-8.958c2.595-7.872,4.995-15.901,7.315-23.667
			c0.756-2.528,1.511-5.057,2.274-7.582c3.374,0.736,6.578,1.452,9.661,2.338c3.898,1.12,7.667,1.664,11.523,1.664
			c4.37,0,8.734-0.705,13.342-2.154c7.571-2.382,15.185-5.809,19.592-14.675c6.396-12.862,16.875-21.01,32.033-24.909
			c5.183-1.333,9.893-3.551,13.416-5.334c10.897-5.514,22.903-7.218,35.614-9.022l2.54-0.362c4.095-0.587,7.359-3.078,9.743-4.897
			l0.413-0.314c2.255-1.711,4.194-4.206,5.464-7.031c1.627-3.628,4.026-4.326,11.026-5.539c0.66-0.115,1.328-0.23,1.999-0.353
			c1.804-0.328,3.558-0.495,5.211-0.495c6.671,0,12.456,2.64,18.758,8.558c2.319,2.178,4.835,3.953,7.268,5.669
			c1.048,0.74,2.132,1.504,3.179,2.287c1.239,0.928,2.715,1.395,4.193,1.395c1.343,0,2.688-0.386,3.861-1.162
			c1.887-1.248,3.77-2.508,5.654-3.77c5.024-3.362,10.218-6.838,15.409-10.02c0.056-0.008,0.125-0.016,0.201-0.018
			c3.224,1.434,6.373,3.035,9.7,4.728c2.761,1.404,5.615,2.856,8.521,4.206c1.729,0.805,3.812,1.248,5.861,1.248
			c1.762,0,3.394-0.315,4.846-0.937c16.117-6.891,32.436-14.023,48.216-20.921l7.909-3.457c1.382-0.598,2.241-1.443,2.702-1.897
			c0.075-0.075,0.166-0.166,0.287-0.274c2.538-2.265,3.081-6.025,1.287-8.915L467.08,39.94
			C467.146,39.94,467.212,39.94,467.277,39.94 M467.277,32.94c-3.014,0-6.102,0.215-9.283,0.215c-1.13,0-2.272-0.027-3.427-0.101
			c7.094,11.429,13.604,21.918,20.104,32.39c-0.607,0.542-0.818,0.844-1.106,0.969c-18.683,8.162-37.354,16.353-56.1,24.367
			c-0.598,0.256-1.335,0.374-2.094,0.374c-1.026,0-2.092-0.215-2.908-0.595c-6.297-2.924-12.362-6.358-18.711-9.151
			c-0.673-0.296-1.531-0.437-2.419-0.437c-1.313,0-2.689,0.308-3.624,0.879c-7.334,4.48-14.415,9.372-21.548,14.091
			c-3.513-2.627-6.961-4.743-9.847-7.453c-6.957-6.534-14.367-10.456-23.55-10.456c-2.06,0-4.21,0.198-6.463,0.607
			c-7.609,1.384-14.565,1.896-18.161,9.915c-0.729,1.624-1.906,3.256-3.308,4.319c-2.1,1.594-4.462,3.507-6.918,3.859
			c-13.802,1.979-27.616,3.638-40.321,10.067c-3.835,1.941-7.858,3.736-12,4.801c-16.406,4.22-28.938,13.253-36.556,28.571
			c-3.235,6.508-8.766,9.019-15.425,11.114c-3.846,1.21-7.545,1.832-11.241,1.832c-3.169,0-6.336-0.457-9.591-1.392
			c-5.219-1.5-10.581-2.502-16.335-3.831c-0.632,1.983-1.194,3.669-1.708,5.369c-3.224,10.649-6.304,21.346-9.786,31.909
			c-0.58,1.759-2.737,3.967-4.438,4.234c-14.898,2.339-29.862,4.252-44.797,6.357c-7.644,1.078-15.268,2.297-23.432,3.53
			c2.128,6.493,4.083,12.436,6.024,18.384c1.8,5.513,5.553,11.307,4.826,16.467c-0.727,5.156-6.102,9.58-9.162,14.5
			c-11.26,18.1-24.833,33.967-42.875,45.727c-3.802,2.479-7.148,5.654-11.588,9.218c7.44,7.039,14.411,13.633,22.047,20.859
			c-12.864,3.21-26.001,3.352-36.545,14.116c1.505,0.989,3.239,1.773,4.523,3.022c31.952,31.066,63.883,62.155,95.706,93.354
			c2.024,1.983,3.543,4.738,4.591,7.411c2.335,5.947,4.223,12.071,6.053,17.422c12.068-1.073,23.282-2.309,34.529-2.993
			c8.096-0.493,15.946-0.767,19.986-9.566c1.505-3.278,4.343-3.884,7.832-3.93c0.932-0.013,1.863-0.018,2.795-0.018
			c5.938,0,11.895,0.22,17.837,0.22c10.189,0,20.337-0.647,30.271-4.159c0.202-0.071,0.428-0.104,0.672-0.104
			c1.264,0,2.987,0.873,4.021,1.717c2.754,2.247,5.172,4.903,7.882,7.546c2.633-3.384,4.845-6.225,7.426-9.54
			c3.551,5.958,7.39,10.468,14.354,11.851c7.091,1.407,13.919,4.143,21.835,6.598c-6.496,2.511-11.994,4.637-17.978,6.949
			c4.529,7.566,8.825,14.743,13.237,22.113c15.486-8.122,30.505-15.923,45.432-23.898c1.223-0.653,2.245-1.075,3.24-1.075
			c1.04,0,2.051,0.461,3.229,1.601c4.173,4.033,8.763,7.637,13.192,11.403c6.134,5.215,12.284,10.414,18.676,15.833
			c2.266-2.401,3.886-4.601,5.962-6.211c3.564-2.763,4.424-6.109,3.88-10.44c-1.516-12.027-2.669-24.099-4.169-36.129
			c-0.171-1.366-1.344-3.21-2.541-3.751c-7.693-3.476-15.328-7.265-23.348-9.788c-14.839-4.667-29.911-8.596-44.919-12.713
			c-10.629-2.916-21.313-5.636-32.252-8.516c0.824-7.855,1.592-15.192,2.366-22.583c16.513,3.384,32.028,7.281,45.877,16.127
			c5.303,3.388,11.041,6.123,16.699,8.912c2.017,0.992,4.353,1.543,6.602,1.813c6.429,0.773,12.915,1.108,19.315,2.049
			c1.73,0.253,3.869,1.681,4.737,3.192c4.79,8.342,9.204,16.898,13.858,25.319c0.748,1.355,1.854,3.077,3.15,3.476
			c11.176,3.435,22.435,6.606,34.021,9.96c0.831-6.683,1.488-12.763,2.378-18.809c0.498-3.39-0.369-5.396-3.783-6.878
			c-9.742-4.225-19.253-8.979-28.968-13.271c-3.033-1.342-3.985-3.132-4.141-6.386c-0.434-9.066-1.346-18.111-2.093-27.482
			c-16.093-0.731-31.694-1.322-47.273-2.266c-2.597-0.158-5.518-1.32-7.572-2.933c-7.706-6.047-15.193-12.38-22.593-18.8
			c-1.686-1.462-3.199-2.298-4.958-2.298c-1.03,0-2.144,0.286-3.426,0.9c-5.521,2.645-11.339,4.697-17.115,6.766
			c-0.685,0.245-1.573,0.405-2.413,0.405c-0.808,0-1.571-0.147-2.065-0.509c-6.489-4.732-12.77-9.754-19.401-14.902
			c2.996-2.492,5.875-4.323,8.015-6.793c2.089-2.411,4.151-3.426,6.425-3.426c1.738,0,3.6,0.593,5.688,1.608
			c7.365,3.584,15.111,6.386,22.695,9.521c0.447-0.332,0.894-0.663,1.341-0.995c-3.203-7.104-4.745-15.873-9.9-21.021
			c-20.097-20.063-41.288-39.033-62.212-58.256c-3.043-2.797-4.943-5.515-4.474-9.818c1.406-12.898-0.915-25.066-7.591-36.313
			c-0.64-1.08-0.919-2.375-1.474-3.858c6-2.258,11.69-4.398,17.645-6.64c1.628,3.222,3.425,6.219,4.689,9.425
			c1.475,3.743,3.953,5.698,7.848,6.684c7.874,1.994,15.573,4.694,23.479,6.524c4.171,0.966,6.555,2.754,7.869,6.904
			c1.547,4.883,3.849,9.525,5.851,14.261c3.175,7.511,3.899,9.245,8.95,9.245c1.473,0,3.314-0.148,5.692-0.343
			c4.936-0.403,9.843-1.119,14.764-1.693c0.289-0.593,0.577-1.185,0.865-1.775c-13.272-4.662-19.386-15.083-23.602-27.376
			c4.29-0.778,8.606-1.933,12.702-1.933c4.702,0,9.115,1.522,12.864,6.881c1.297,1.854,3.436,3.114,5.164,4.673
			c4.612,4.156,9.213,8.325,14.331,12.954c0.872-4.755,1.45-8.505,2.27-12.202c0.707-3.19-0.213-5.109-3.206-6.764
			c-6.909-3.817-13.581-8.065-20.48-12.218c1.479-2.991,2.713-5.488,4.096-8.286c1.456,0.637,2.63,1.143,3.797,1.665
			c13.779,6.176,27.537,12.397,41.363,18.464c0.898,0.395,2.115,0.7,3.181,0.7c0.623,0,1.194-0.104,1.62-0.355
			c2.767-1.629,5.117-3.964,8.299-6.554c-3.213-1.677-4.65-2.454-6.11-3.187c-13.642-6.85-27.292-13.679-40.922-20.553
			c-1.46-0.737-3.247-1.394-4.123-2.628c-6.787-9.568-13.387-19.267-20.505-29.594c12.551-0.692,24.284-1.492,36.031-1.897
			c3.433-0.119,5.016-1.287,5.886-4.536c1.789-6.669,3.917-13.248,6.004-20.193c9.233,2.115,17.991,3.921,26.626,6.194
			c1.001,0.263,1.881,0.408,2.667,0.408c2.093,0,3.522-1.025,4.805-3.564c3.797-7.524,8-14.844,12.185-22.519
			c8.733,4.34,16.986,8.568,25.369,12.521c2.037,0.961,4.458,1.624,6.707,1.624c0.124,0,0.247-0.002,0.369-0.006
			c15.952-0.524,31.901-1.199,47.833-2.127c1.617-0.095,3.748-1.853,4.569-3.405c5.1-9.649,9.978-19.42,14.701-29.258
			c0.761-1.583,0.887-3.84,0.443-5.563c-1.61-6.261-3.654-12.411-5.374-18.645c-0.354-1.289-0.571-3.174,0.098-4.094
			c4.582-6.303,9.335-12.487,14.204-18.571c2.023-2.525,4.471-4.711,7.019-7.357c-9.061-4.892-17.798-9.021-25.903-14.148
			C476.759,33.492,472.112,32.94,467.277,32.94L467.277,32.94z"/>
	</g>
</g>
<g id="Layer_1">
</g>
</svg>
