<?xml version="1.0" encoding="iso-8859-1"?>
<!-- Generator: Adobe Illustrator 16.0.0, SVG Export Plug-In . SVG Version: 6.00 Build 0)  -->
<!DOCTYPE svg PUBLIC "-//W3C//DTD SVG 1.1//EN" "http://www.w3.org/Graphics/SVG/1.1/DTD/svg11.dtd">
<svg version="1.1" xmlns="http://www.w3.org/2000/svg" xmlns:xlink="http://www.w3.org/1999/xlink" x="0px" y="0px" width="512px"
	 height="512px" viewBox="0 0 512 512" style="enable-background:new 0 0 512 512;" xml:space="preserve">
<g id="hungary">
	<g>
		<path style="fill:#FFFFFF;" d="M391.212,105.832c6.013,6.096,11.143,11.197,15.997,15.907c2.229,2.165,5.583,3.509,8.754,3.509
			c0.28,0,0.557-0.01,0.825-0.03c3.315-0.247,6.624-0.59,9.824-0.923c5.56-0.578,10.812-1.123,16.043-1.193
			c1.096-0.015,2.193-0.021,3.29-0.021c5.458,0,11.071,0.168,16.499,0.331c5.546,0.166,11.28,0.338,16.979,0.338
			c0.958,0,1.916-0.005,2.874-0.015l0.132,0c1.025,0,1.39,0.135,1.401,0.135v0c0.026,0.021,0.398,0.329,1.074,1.582
			c4.085,7.58,8.573,14.989,12.914,22.154c0.21,0.346,0.419,0.691,0.629,1.038c-4.604,6.158-9.443,12.729-14.975,20.332
			c-2.188-0.538-4.363-1.028-6.488-1.507c-1.851-0.417-3.763-0.848-5.606-1.294c-1.049-0.253-2.02-0.377-2.969-0.377
			c-2.074,0-5.981,0.645-8.84,4.963c-1.886,2.85-3.893,5.742-5.834,8.54c-1.643,2.367-3.341,4.815-4.992,7.273
			c-1.554,2.314-2.346,5.333-2.118,8.077c0.741,8.925,1.555,18.052,2.479,27.807c-1.896,1.178-3.786,2.363-5.678,3.547
			c-3.923,2.457-7.98,4.997-11.981,7.427c-3.817,2.319-5.829,5.925-5.819,10.432c0.026,10.686,0.032,21.372,0.037,32.058
			c0.006,11.089,0.012,22.52,0.042,33.832c-2.322,0.597-4.615,1.224-6.857,1.837c-2.466,0.674-5.016,1.371-7.499,1.997
			c-4.813,1.213-7.805,4.696-8.21,9.552c-0.398,4.745-0.852,9.586-1.289,14.268l-0.425,4.554c-0.08,0.866-0.156,1.733-0.231,2.601
			c-0.098,1.11-0.192,2.193-0.294,3.258c-9.197,1.766-17.163,3.227-24.79,4.548c-3.959,0.688-6.89,2.929-8.708,6.66
			c-0.917,1.88-1.886,3.803-2.822,5.663c-1.07,2.124-2.168,4.305-3.237,6.513c-4.211,0.568-8.421,1.146-12.631,1.722
			c-8.216,1.125-16.711,2.289-25.061,3.366c-7.943,1.026-16.29,1.979-25.478,2.907c-0.772-0.51-1.627-1.221-2.604-2.034
			c-0.571-0.475-1.154-0.958-1.762-1.44l-6.046-4.804l-5.014,5.873l-4.357,5.102c-3.065,3.589-6.102,7.143-9.135,10.7
			c-0.703,0.824-1.431,1.644-2.2,2.51c-1.946,2.19-3.958,4.455-5.794,7.066c-0.932,1.327-2.093,2.266-5.271,3.142
			c-7.883,2.172-15.75,4.645-23.358,7.036l-3.364,1.057c-2.221,0.695-4.417,1.911-6.355,3.52l-1.636,1.357
			c-4.333,3.593-8.813,7.309-13.09,11.265c-0.616,0.57-1.383,0.936-3.667,1.231c-3.974,0.517-7.997,1.065-11.889,1.596
			c-4.633,0.632-9.414,1.283-14.124,1.883c-1.933-0.95-3.871-1.893-5.808-2.835c-6.589-3.206-13.403-6.521-19.839-10.058
			c-6.239-3.429-12.997-5.328-21.268-5.976c-3.904-0.306-7.774-0.795-11.872-1.313l-0.738-0.094
			c-23.445-16.55-47.68-33.657-72.028-50.95c-0.628-0.446-1.293-1.161-1.779-1.913c-1.931-2.986-3.861-6.087-5.728-9.086
			c-2.073-3.33-4.216-6.773-6.415-10.151c-1.693-2.6-4.379-4.746-7.371-5.891c-2.158-0.826-4.306-1.617-6.475-2.4
			c3.693-3.331,7.329-6.609,10.969-9.887c0.5-0.45,0.997-0.904,1.494-1.359c1.365-1.248,2.654-2.428,3.953-3.47
			c4.231-3.394,6.603-7.709,7.049-12.83c0.132-1.514,0.472-3.188,0.832-4.961c0.32-1.577,0.651-3.208,0.889-4.957
			c0.462-3.402-0.924-7.163-3.535-9.584c-0.897-0.832-1.808-1.632-2.718-2.408c0.673-1.172,1.365-2.354,2.072-3.563
			c4.489-7.674,9.131-15.61,11.53-25.247l1.703-6.841l-6.572-2.55l-2.77-1.075l-5.042-1.956c0.356-0.345,0.712-0.688,1.068-1.03
			c7.215,1.08,14.651,2.226,22.142,3.412c0.681,0.108,1.59,0.231,2.595,0.231c4.333,0,9.305-2.543,10.267-9.681
			c0.924-6.869,2.067-13.881,3.173-20.664c0.442-2.716,0.897-5.506,1.341-8.305c2.697-0.908,5.529-1.934,8.561-3.101
			c4.211,3.881,8.429,7.755,12.646,11.628c5.925,5.442,12.052,11.069,18.053,16.621c2.256,2.087,4.861,3.146,7.743,3.146
			c0.788,0,1.587-0.078,2.442-0.239c20.209-3.799,40.773-7.605,60.659-11.287l11.586-2.145c0.939-0.174,1.88-0.337,2.904-0.515
			l1.679-0.293l11.438-2.015l-5.959-9.969c-0.729-1.22-1.447-2.428-2.158-3.625c-1.497-2.52-2.929-4.929-4.4-7.342
			c0.92-1.922,1.838-3.932,2.682-6.017c7.685-1,15.184-2.001,20.988-2.779c6.775-0.908,13.548-1.824,20.384-2.749l8.968-1.212
			l6.497-0.877l0.416-6.542l0.018-0.264l0.834-13.118c3.366,2.792,6.726,5.596,10.117,8.428l4.797,4.002l6.646,5.541l5.003-7.061
			l6.369-8.987c4.824-6.808,9.607-13.556,14.385-20.308c2.098-2.965,4.194-5.931,6.291-8.896c6.703-9.484,13.62-19.269,20.5-28.89
			c10.345,0.661,22.216,1.465,33.923,2.466c0.525,0.045,1.06,0.067,1.587,0.067c3.967,0,7.135-1.244,9.68-2.244
			c0.421-0.166,0.843-0.332,1.271-0.491C388.037,107.101,389.691,106.457,391.212,105.832 M392.484,96.855
			c-0.452,0-0.938,0.123-1.488,0.368c-2.499,1.117-5.052,2.12-7.617,3.076c-2.658,0.99-5.177,2.231-8.157,2.231
			c-0.298,0-0.6-0.012-0.907-0.039c-12.19-1.042-24.4-1.866-36.612-2.639c-0.043-0.003-0.087-0.004-0.132-0.004
			c-0.98,0-2.326,0.645-2.874,1.411c-9.497,13.256-18.886,26.59-28.306,39.902c-6.87,9.709-13.751,19.411-20.751,29.291
			c-5.213-4.346-10.306-8.611-15.42-12.85c-3.378-2.799-7.663-3.114-11.908-4.81c-0.537,8.444-1.036,16.284-1.543,24.248
			c-9.903,1.337-19.622,2.658-29.344,3.96c-7.665,1.027-15.331,2.047-23,3.04c-1.776,0.229-2.921,0.914-3.609,2.776
			c-1.205,3.267-2.701,6.436-4.241,9.565c-0.682,1.385-0.501,2.407,0.27,3.651c2.575,4.157,5.043,8.38,7.664,12.764
			c-1.744,0.307-3.2,0.552-4.651,0.82c-24.092,4.462-48.188,8.91-72.268,13.436c-0.353,0.066-0.67,0.101-0.964,0.101
			c-0.873,0-1.542-0.307-2.311-1.018c-10.814-10.004-21.693-19.938-32.52-29.928c-0.828-0.764-1.596-1.203-2.525-1.203
			c-0.449,0-0.935,0.103-1.484,0.32c-4.246,1.683-8.538,3.272-12.886,4.667c-1.886,0.605-2.566,1.706-2.846,3.499
			c-1.625,10.424-3.467,20.818-4.874,31.271c-0.292,2.164-1.033,2.748-2.338,2.748c-0.395,0-0.841-0.053-1.343-0.133
			c-8.202-1.299-16.409-2.562-24.623-3.783c-0.183-0.027-0.389-0.043-0.599-0.043c-0.563,0-1.162,0.111-1.475,0.408
			c-4.027,3.815-7.967,7.723-12.237,11.903c6.864,2.663,13.174,5.111,19.391,7.523c-3.035,12.192-10.482,21.908-16.019,32.673
			c2.546,2.138,5.09,4.149,7.461,6.347c0.64,0.594,1.158,1.806,1.044,2.641c-0.47,3.45-1.462,6.843-1.763,10.3
			c-0.277,3.18-1.713,5.381-4.084,7.283c-2.01,1.612-3.88,3.399-5.797,5.127c-6.856,6.173-13.705,12.354-20.94,18.879
			c6.622,2.36,12.825,4.481,18.944,6.822c1.348,0.516,2.744,1.585,3.525,2.785c4.132,6.347,8.016,12.855,12.128,19.215
			c1.005,1.555,2.36,3.022,3.866,4.092c24.145,17.148,48.338,34.229,72.533,51.308c0.589,0.416,1.294,0.827,1.986,0.914
			c4.702,0.589,9.404,1.218,14.126,1.588c6.359,0.498,12.327,1.871,18.039,5.011c8.599,4.727,17.505,8.896,26.316,13.23
			c0.843,0.414,1.879,0.729,2.825,0.729c0.162,0,0.321-0.01,0.477-0.029c8.984-1.132,17.946-2.427,26.926-3.594
			c3.008-0.391,5.69-1.092,8.069-3.293c4.639-4.291,9.541-8.3,14.405-12.341c1.055-0.875,2.333-1.631,3.634-2.038
			c8.793-2.757,17.576-5.568,26.457-8.015c4.005-1.104,7.241-2.765,9.693-6.256c2.239-3.187,4.998-6.009,7.535-8.984
			c4.462-5.232,8.93-10.459,13.488-15.798c1.848,1.468,3.443,2.953,5.256,4.096c1.005,0.633,2.325,1.199,3.486,1.199
			c0.11,0,0.219-0.005,0.326-0.016c8.938-0.896,17.867-1.891,26.775-3.041c13.25-1.71,26.479-3.583,39.72-5.361
			c1.494-0.2,2.512-0.728,3.22-2.23c2.231-4.744,4.679-9.386,6.978-14.1c0.623-1.278,1.323-2.014,2.887-2.285
			c9.744-1.688,19.465-3.508,29.174-5.393c0.673-0.13,1.6-1.069,1.691-1.73c0.477-3.458,0.725-6.948,1.047-10.428
			c0.583-6.296,1.191-12.59,1.72-18.891c0.123-1.475,0.738-2.096,2.194-2.463c5.959-1.501,11.85-3.282,17.828-4.69
			c2.065-0.486,2.59-1.301,2.583-3.33c-0.074-23.159-0.032-46.319-0.09-69.48c-0.004-1.699,0.495-2.677,1.973-3.575
			c6.753-4.1,13.412-8.356,20.135-12.509c1.16-0.717,1.773-1.462,1.631-2.952c-0.983-10.268-1.912-20.541-2.766-30.82
			c-0.08-0.966,0.244-2.146,0.787-2.955c3.572-5.318,7.322-10.517,10.856-15.858c0.663-1.002,1.313-1.377,2.167-1.377
			c0.329,0,0.688,0.056,1.089,0.153c5.003,1.21,10.059,2.215,15.026,3.553c0.445,0.12,0.833,0.179,1.179,0.179
			c1.069,0,1.74-0.562,2.497-1.604c6.112-8.418,12.268-16.806,18.513-25.125c1.002-1.336,1.152-2.196,0.256-3.681
			c-5.116-8.475-10.328-16.907-15.021-25.616c-2.22-4.119-4.672-5.922-9.519-5.922c-0.072,0-0.145,0-0.218,0.001
			c-0.93,0.01-1.858,0.015-2.788,0.015c-11.158,0-22.322-0.669-33.479-0.669c-1.132,0-2.266,0.007-3.397,0.022
			c-8.79,0.118-17.562,1.484-26.353,2.138c-0.076,0.005-0.153,0.008-0.232,0.008c-1.085,0-2.431-0.521-3.181-1.249
			c-6.098-5.917-12.097-11.937-18.052-17.997C393.98,97.239,393.286,96.855,392.484,96.855L392.484,96.855z"/>
	</g>
</g>
<g id="Layer_1">
</g>
</svg>
