<?xml version="1.0" encoding="iso-8859-1"?>
<!-- Generator: Adobe Illustrator 16.0.0, SVG Export Plug-In . SVG Version: 6.00 Build 0)  -->
<!DOCTYPE svg PUBLIC "-//W3C//DTD SVG 1.1//EN" "http://www.w3.org/Graphics/SVG/1.1/DTD/svg11.dtd">
<svg version="1.1" xmlns="http://www.w3.org/2000/svg" xmlns:xlink="http://www.w3.org/1999/xlink" x="0px" y="0px" width="512px"
	 height="512px" viewBox="0 0 512 512" style="enable-background:new 0 0 512 512;" xml:space="preserve">
<g id="ireland">
	<g>
		<g>
			<path style="fill:#FFFFFF;" d="M299.743,27.247c5.038,0.544,8.694,4.004,13.976,9.365l0.07,0.072
				c3.729,3.784,7.824,5.624,12.521,5.624c1.724,0,3.481-0.25,5.373-0.765c1.342-0.365,2.748-0.658,4.208-0.922
				c-0.634,6.87-3.646,10.745-9.956,13.604c-2.267,1.027-3.817,3.181-4.073,5.656c-0.256,2.475,0.821,4.9,2.83,6.37
				c2.05,1.499,3.998,2.94,5.881,4.333c4.427,3.275,8.608,6.369,12.886,9.306c1.9,1.305,3.88,1.967,5.883,1.967
				c3.722,0,8.389-2.481,9.295-9.471l0.024-0.185c0.597-4.594,1.214-9.346,1.505-14.161c0.476-0.289,1.414-0.689,2.072-0.97
				c0.635-0.271,1.308-0.558,1.999-0.89c0.144,0.081,0.278,0.164,0.389,0.242c3.336,2.348,6.564,4.895,9.981,7.59
				c1.364,1.075,2.74,2.16,4.141,3.247c1.269,0.984,2.781,1.469,4.289,1.469c1.745,0,3.484-0.65,4.829-1.931l7.509-7.15
				l11.671-11.112c1.592,1.287,3.1,2.538,4.478,3.813c0.962,0.889,3.887,3.595,8.181,3.595c2.339,0,4.618-0.795,6.771-2.362
				c0.517-0.375,1.362-0.786,2.258-1.221c0.575-0.279,1.149-0.56,1.713-0.857c0.612-0.323,1.34-0.707,1.973-1.026
				c0.446,0.417,0.954,0.907,1.432,1.368l0.516,0.497c3.435,3.309,8.44,3.566,9.893,3.566c0.821,0,1.622-0.063,2.381-0.188
				c0.798-0.131,1.539-0.197,2.203-0.197c2.057,0,3.883,0.337,5.405,4.462c0.374,1.02,0.875,1.882,1.538,2.642
				c4.718,5.39,5.374,10.41,2.196,16.786c-2.379,4.771-0.381,10.726,1.541,13.563c5.02,7.415,10.144,14.583,15.567,22.17
				c0.213,0.298,0.427,0.596,0.64,0.895c-3.512,1.616-6.875,3.145-10.196,4.533c-5.759,2.411-8.266,7.08-7.058,13.146
				c0.449,2.262,0.724,4.646,1.041,7.406c0.152,1.327,0.311,2.708,0.499,4.165c0.319,2.476,1.934,4.594,4.236,5.559
				c0.871,0.365,1.79,0.544,2.705,0.544c1.503,0,2.992-0.484,4.229-1.421l7.002-5.307l4.091-3.101
				c3.18,4.654,6.311,9.235,9.405,13.766c-0.421,0.755-0.844,1.507-1.261,2.249c-2.647,4.7-5.385,9.56-7.144,14.964
				c-1.725,5.296-2.375,10.746-2.988,16.024c-4.799-0.787-9.493-1.557-14.185-2.345c-0.743-0.125-1.536-0.188-2.358-0.188
				c-7.837,0-21.371,6.295-25.405,13.369c-0.054,0.093-0.112,0.184-0.169,0.275c-0.365,0.587-0.918,1.475-1.326,2.66
				c-2.29,6.648-5.201,7.205-7.75,7.205c-0.882,0-1.866-0.105-2.925-0.313c-0.542-0.106-1.103-0.16-1.668-0.16
				c-3.841,0-7.422,2.468-9.127,4.764c-4.631,6.245-10.058,13.677-15.203,21.454c-2.179,3.298-3.268,7.677-2.841,11.427
				c1.26,11.105,2.687,23.692,4.84,35.995c1.794,10.26,1.046,20.557,0.255,31.459c-0.1,1.373-0.199,2.747-0.294,4.123
				c-0.329,4.792-0.669,9.583-1.01,14.375c-0.777,10.956-1.581,22.284-2.238,33.455c-0.118,2.005-0.771,3.383-2.498,5.266
				c-3.183,3.474-6.45,6.993-9.609,10.397c-14.664,15.798-29.827,32.133-42.668,50.323c-3.436,4.865-6.827,10.967-5.934,19.332
				c0.01,0.088,0.019,0.178,0.026,0.268c-4.966-0.224-9.755-0.438-14.543-0.66c-4.51-0.209-9.019-0.429-13.527-0.647
				c-11.427-0.556-23.243-1.13-34.896-1.524c-0.849-0.028-1.34-0.115-1.596-0.179c-0.021-0.057-0.042-0.125-0.064-0.207
				c-3.449-12.269-11.935-14.1-16.687-14.1c-1.863,0-3.872,0.268-5.971,0.796c-1.917,0.482-4.265,0.598-6.751,0.721
				c-1.35,0.065-2.745,0.135-4.208,0.264c-3.368,0.296-6.042,2.958-6.355,6.324l-1.079,11.598l-0.228,2.447
				c-5.115-0.649-9.967-1.271-14.83-2.062c-1.211-0.197-2.288-0.293-3.292-0.293c-5.009,0-8.977,2.498-11.171,7.033
				c-2.882,5.956-6.028,6.759-8.724,6.759c-1.291,0-2.755-0.222-4.349-0.66c-1.431-0.393-2.825-0.611-4.19-0.75v-12.431
				c0-2.249-1.08-4.36-2.903-5.676c-1.208-0.872-2.645-1.324-4.097-1.324c-0.74,0-1.485,0.117-2.205,0.356l-7.78,2.582l-6.504,2.158
				c-3.5,1.161-5.499,4.839-4.569,8.407l4.746,18.228c-1.24,0.031-2.448,0.054-3.644,0.054c-2.611,0-4.718-0.109-6.631-0.345
				c-1.798-0.222-3.529-0.334-5.144-0.334c-9.307,0-16.395,3.818-20.782,11.114c-4.58-3.913-9.304-7.934-14.144-11.713
				c-3.268-2.551-7.763-4.164-11.73-4.212c-11.03-0.129-21.906-0.146-30.15-0.146c-1.943,0-3.886,0.002-5.83,0.003l16.654-8.737
				c2.02-1.06,3.397-3.037,3.689-5.3c0.293-2.263-0.535-4.525-2.219-6.064l-5.093-4.656l-1.546-1.414l0.827-0.627
				c2.355-1.788,3.333-4.863,2.442-7.684l-0.083-0.265l-0.396-1.252c-0.706-2.228-2.476-3.955-4.718-4.607
				c-0.643-0.187-1.301-0.278-1.954-0.278c-1.625,0-3.223,0.566-4.499,1.637c-7.338,6.155-15.613,8.634-24.78,9.706l2.978-2.271
				c2.288-1.744,3.275-4.71,2.489-7.478c-0.785-2.767-3.183-4.772-6.045-5.055c-9.079-0.897-17.609-1.741-26.236-2.595
				c3.75-7.173,7.346-14.028,11.089-20.83c3.884,0.534,7.841,1.166,11.676,1.778c4.455,0.711,9.062,1.446,13.656,2.048
				c0.428,0.057,0.874,0.085,1.324,0.085c3.716,0,8.491-1.974,10.425-5.743c0.799-1.558,1.62-3.087,2.488-4.707
				c4.255-7.938,8.656-16.145,9.726-26.186c0.24-2.25,0.385-4.506,0.526-6.871c11.139-3.209,21.324-8.279,31.212-13.202
				c1.087-0.541,2.175-1.083,3.263-1.622c0.142-0.037,0.589-0.12,1.771-0.12c0.445,0,0.892,0.01,1.336,0.019
				c0.485,0.01,0.966,0.02,1.438,0.021c0.162,0.055,0.379,0.136,0.554,0.199c0.474,0.175,1.064,0.393,1.725,0.581
				c8.146,2.327,13.468,3.74,18.681,3.74c8.104,0,14.23-3.438,25.247-10.025c2.133-1.275,3.43-3.587,3.407-6.072
				s-1.362-4.772-3.519-6.009l-8.167-4.682l-14.24-8.162c-1.078-0.618-2.279-0.927-3.48-0.927c-1.205,0-2.41,0.311-3.49,0.932
				l-0.094,0.047c-0.654,0.318-2.185,1.065-3.336,2.818l-0.04,0.061c-0.817,1.24-1.711,2.599-2.332,3.432
				c-1.042-0.188-2.643-0.581-4.003-0.914c-1.663-0.406-3.351-0.678-4.982-0.94c-1.655-0.266-4.287-0.688-5.463-1.186
				c-0.158-1.152-0.047-3.412,0.023-4.845c0.088-1.789,0.179-3.639,0.08-5.496c-0.194-3.631-0.379-7.261-0.567-11.011
				c1.909,0.557,3.819,1.053,5.797,1.439c0.881,0.172,1.815,0.259,2.774,0.259c3.347,0,6.687-1.009,9.166-2.768
				c3.828-2.718,7.568-5.584,11.184-8.355c3.508-2.688,7.136-5.468,10.741-8.029c0.277-0.186,1.316-0.532,2.571-0.532l0.14,0.002
				c5.054,0.117,10.16,0.466,15.565,0.835c2.176,0.148,4.392,0.299,6.664,0.439c0.145,0.01,0.289,0.014,0.433,0.014
				c1.971,0,3.859-0.832,5.19-2.304c1.428-1.578,2.061-3.721,1.718-5.822l-2.801-17.199l-0.507-3.116
				c-0.531-3.261-3.27-5.707-6.569-5.867c-2.951-0.144-5.894-0.308-8.831-0.471c-6.962-0.388-14.161-0.789-21.3-0.896
				c-3.707-0.056-6.371-1.06-8.906-3.354c-1.141-1.033-2.321-1.972-3.504-2.862l5.838-9.479c1.072-1.741,1.33-3.863,0.705-5.81
				c-0.625-1.946-2.069-3.522-3.954-4.314l-9.104-3.825L93.42,207.353c1.521-1.271,3.067-2.524,4.638-3.719
				c11.252-8.564,19.982-14.971,28.309-20.773c0.854-0.595,3.594-0.959,5.069-1.156c0.344-0.046,0.72-0.069,1.118-0.069
				c0.994,0,2.094,0.145,3.182,0.418c2.477,0.623,4.894,0.938,7.185,0.938c6.21,0,14.989-2.38,21.543-13.721
				c0.992-1.716,1.209-3.771,0.6-5.657c-0.609-1.885-1.99-3.424-3.798-4.234c-2.487-1.114-4.981-2.247-7.484-3.384
				c-6.185-2.809-12.574-5.71-19.027-8.406c0.554-4.41,0.983-8.846,1.398-13.145c0.394-4.072,0.801-8.283,1.306-12.364
				c0.366-2.956,0.104-5.332-0.573-7.239c2.805-0.359,5.579-0.66,8.367-0.856c2.172-0.153,4.553-0.224,7.493-0.224
				c1.809,0,3.675,0.026,5.48,0.052c1.855,0.026,3.773,0.054,5.683,0.054c1.858,0,3.504-0.026,5.036-0.08
				c0.061-0.002,0.121-0.003,0.179-0.003c0.043,0,0.082,0.001,0.117,0.002c0.074,0.099,0.172,0.241,0.294,0.44
				c1.693,2.755,3.49,5.421,5.229,8c1.536,2.278,2.986,4.43,4.375,6.645c2.36,3.76,5.532,5.666,9.427,5.666
				c1.123,0,2.283-0.163,3.547-0.5c1.653-0.44,3.287-0.96,4.867-1.464c3.188-1.015,6.483-2.064,8.919-2.064
				c0.456,0,0.869,0.038,1.227,0.111c1.962,0.406,4.647,2.788,7.245,5.091c1.563,1.386,3.179,2.819,4.94,4.124
				c1.18,0.874,2.366,1.737,3.676,2.689l1.925,1.402c1.207,0.88,2.653,1.346,4.127,1.346c0.388,0,0.777-0.032,1.165-0.098
				c1.86-0.313,3.514-1.365,4.589-2.915c1.236-1.784,2.506-3.573,3.734-5.303c2.925-4.121,5.95-8.383,8.679-12.801
				c0.442-0.714,0.733-1.042,0.868-1.173c0.032-0.001,0.072-0.002,0.12-0.002c0.199,0,0.551,0.021,1.101,0.122
				c5.083,0.933,10.173,1.38,15.095,1.812c1.899,0.167,3.863,0.339,5.763,0.536c0.403,0.042,0.805,0.088,1.204,0.134
				c1.429,0.164,3.048,0.349,4.755,0.349c4.198,0,7.766-1.16,10.907-3.545c0.446-0.339,1.499-0.761,2.518-1.169
				c1.671-0.669,3.75-1.502,5.789-2.929c2.714-1.899,3.726-5.44,2.424-8.486c-1.117-2.615-3.676-4.25-6.434-4.25
				c-0.454,0-0.915,0.044-1.374,0.136l-1.226,0.245l1.398-7.398c0.683-3.607-1.537-7.127-5.085-8.068
				c-2.551-0.676-5.105-1.25-7.576-1.805c-5.336-1.199-10.376-2.331-14.774-4.317c-4.366-1.97-8.463-4.916-13.206-8.328
				c2.258-2.127,4.459-4.169,6.693-6.12c0.043-0.002,0.089-0.003,0.137-0.003c0.053,0,0.104,0.001,0.159,0.004
				c3.138,0.153,6.334,0.462,9.719,0.79c1.381,0.133,2.786,0.269,4.227,0.399c0.212,0.019,0.424,0.028,0.633,0.028
				c3.487,0,6.488-2.593,6.938-6.117c0.307-2.412,0.622-4.79,0.935-7.142c0.731-5.513,1.426-10.746,1.977-16.087
				c0.001,0,0.002,0,0.004,0c0.105-0.024,0.21-0.05,0.315-0.071C291.174,41.199,297.767,35.998,299.743,27.247 M298.318,20.171
				c-0.2,0-0.402,0.003-0.605,0.009c-2.602,0.074-4.185,0.16-4.423,3.034c-0.638,7.709-5.158,11.168-12.565,11.502
				c-0.823,0.037-1.63,0.335-2.455,0.433c-2.652,0.316-3.917,1.53-4.201,4.446c-0.785,8.057-1.964,16.076-3.039,24.524
				c-5.022-0.451-9.619-0.983-14.23-1.208c-0.162-0.008-0.33-0.012-0.5-0.012c-1.419,0-3.076,0.29-4.017,1.102
				c-4.626,3.988-8.998,8.273-13.863,12.825c7.75,5.167,14.077,10.611,21.375,13.905c7.27,3.283,15.514,4.409,23.438,6.508
				c-1.113,5.886-2.173,11.492-3.327,17.598c4.394-0.878,7.898-1.579,11.403-2.279c-2.776,1.942-6.146,2.45-8.528,4.259
				c-2.197,1.669-4.418,2.119-6.673,2.119c-1.725,0-3.469-0.263-5.24-0.446c-6.779-0.7-13.627-1.043-20.313-2.27
				c-0.858-0.157-1.642-0.237-2.364-0.237c-3.086,0-5.061,1.451-6.942,4.497c-3.727,6.035-8.007,11.729-12.211,17.795
				c-2.113-1.542-3.846-2.792-5.563-4.063c-4.942-3.66-9.468-9.313-14.931-10.443c-0.86-0.178-1.744-0.257-2.645-0.257
				c-4.971,0-10.468,2.4-15.588,3.764c-0.66,0.175-1.235,0.264-1.746,0.264c-1.532,0-2.496-0.791-3.498-2.388
				c-3.09-4.925-6.524-9.635-9.568-14.588c-1.573-2.561-3.329-3.777-6.375-3.777c-0.139,0-0.281,0.003-0.425,0.008
				c-1.595,0.056-3.192,0.075-4.79,0.075c-3.72,0-7.446-0.105-11.163-0.105c-2.667,0-5.33,0.054-7.985,0.241
				c-8.53,0.601-16.994,2.143-25.487,3.273c2.448,2.124,4.853,3.607,7.467,4.29c3.829,1,4.194,3.246,3.772,6.656
				c-1.082,8.74-1.674,17.542-2.802,26.275c-0.443,3.426,0.561,4.979,3.744,6.301c9.126,3.792,18.081,7.997,26.95,11.97
				c-3.886,6.723-8.926,10.224-15.483,10.224c-1.72,0-3.543-0.241-5.478-0.727c-1.566-0.394-3.245-0.629-4.889-0.629
				c-0.691,0-1.376,0.042-2.044,0.131c-2.791,0.371-5.938,0.813-8.146,2.352c-9.681,6.746-19.154,13.797-28.545,20.946
				c-4.86,3.698-9.392,7.827-13.575,11.345c16.981,7.136,33.845,14.221,50.979,21.42c-3.565,5.79-6.335,10.288-9.226,14.98
				c2.911,2.196,5.712,4.01,8.154,6.221c3.881,3.512,8.198,5.083,13.498,5.163c9.939,0.15,19.871,0.873,29.897,1.36
				c1.12,6.877,2.173,13.351,3.309,20.316c-7.963-0.492-15.227-1.118-22.5-1.286c-0.1-0.002-0.2-0.004-0.301-0.004
				c-2.253,0-4.863,0.574-6.62,1.822c-7.437,5.282-14.49,11.105-21.929,16.387c-1.322,0.938-3.324,1.476-5.113,1.476
				c-0.502,0-0.987-0.042-1.436-0.13c-4.672-0.913-9.193-2.6-14.63-4.229c0.381,7.528,0.711,14.286,1.072,21.044
				c0.264,4.971-1.233,11.491,1.347,14.484c2.763,3.208,9.357,3.194,14.322,4.409c3.045,0.745,5.043,1.228,6.56,1.228
				c2.888,0,4.028-1.749,7.325-6.756c0.157-0.239,0.537-0.333,1.074-0.646c7.314,4.191,14.749,8.454,22.407,12.844
				c-10.639,6.362-15.522,9.033-21.654,9.033c-4.227,0-9.047-1.268-16.758-3.471c-1.269-0.362-2.536-1.051-3.798-1.051
				c-0.01,0-0.02,0-0.029,0c-0.078,0.001-0.156,0.001-0.234,0.001c-0.947,0-1.935-0.04-2.914-0.04c-1.723,0-3.417,0.124-4.804,0.811
				c-12.216,6.046-24.268,12.404-37.681,15.528c-0.414,0.097-0.789,0.364-0.722,0.364c0.024,0,0.111-0.037,0.28-0.135
				c-0.308,4.512-0.436,8.021-0.807,11.505c-1.124,10.547-6.801,19.319-11.481,28.438c-0.544,1.061-2.702,1.939-4.197,1.939
				c-0.145,0-0.283-0.009-0.413-0.025c-8.732-1.143-17.401-2.764-26.129-3.935c-0.233-0.031-0.49-0.046-0.76-0.046
				c-1.619-0.001-3.729,0.547-4.256,1.495c-5.845,10.511-11.338,21.217-17.198,32.374c12.284,1.216,23.889,2.364,36.559,3.616
				c-7.339,5.597-13.695,10.442-20.764,15.833c18.71-0.432,36.446,0.128,51.309-12.339c0.16,0.504,0.318,1.007,0.478,1.511
				c-2.265,1.72-4.531,3.438-7.515,5.702c4.371,3.997,8.378,7.659,12.837,11.736c-13.825,7.254-26.915,14.121-40.005,20.987
				c0.099,0.323,0.198,0.646,0.297,0.969c1.608,0,3.218,0,4.827,0c9.102,0,18.207-0.023,27.309-0.023
				c10.024,0,20.045,0.028,30.068,0.146c2.538,0.03,5.49,1.157,7.506,2.73c6.907,5.394,13.481,11.211,20.334,16.994
				c0.922-1.283,1.845-2.123,2.222-3.161c3.097-8.536,8.825-11.753,16.676-11.753c1.366,0,2.796,0.098,4.289,0.281
				c2.466,0.304,4.958,0.397,7.486,0.397c4.108,0,8.31-0.248,12.649-0.248c-2.461-9.453-4.694-18.029-6.978-26.797
				c4.925-1.635,9.299-3.085,14.285-4.74c0,6.577,0,12.651,0,18.97c3.435,0.324,6.51,0.185,9.334,0.961
				c2.218,0.609,4.284,0.91,6.204,0.91c6.694,0,11.615-3.661,15.025-10.71c1.133-2.342,2.775-3.082,4.87-3.082
				c0.676,0,1.399,0.077,2.168,0.202c7.302,1.187,14.663,2.014,22.252,3.02c0.693-7.454,1.32-14.192,1.978-21.264
				c4.203-0.37,8.268-0.216,12.053-1.169c1.554-0.392,2.972-0.584,4.262-0.584c5.174,0,8.292,3.106,9.947,8.994
				c1.153,4.102,3.992,5.346,8.162,5.487c16.118,0.545,32.225,1.421,48.336,2.168c7.091,0.328,14.185,0.644,21.849,0.99
				c0-3.103,0.229-5.744-0.047-8.331c-0.6-5.609,1.438-9.946,4.69-14.553c15.316-21.696,33.871-40.552,51.721-60.029
				c2.598-2.833,4.095-5.674,4.325-9.583c0.937-15.93,2.149-31.843,3.243-47.763c0.854-12.42,2.134-24.784-0.049-37.268
				c-2.062-11.78-3.432-23.688-4.78-35.578c-0.249-2.191,0.499-4.921,1.727-6.779c4.765-7.203,9.84-14.205,14.985-21.144
				c0.709-0.955,2.357-1.934,3.504-1.934c0.112,0,0.221,0.009,0.322,0.029c1.521,0.298,2.942,0.443,4.271,0.443
				c7.288,0,11.767-4.373,14.368-11.925c0.213-0.618,0.626-1.167,0.955-1.744c2.521-4.42,13.512-9.84,19.328-9.84
				c0.43,0,0.83,0.029,1.198,0.091c7.002,1.177,14.013,2.313,21.364,3.523c1.172-7.636,1.401-15.112,3.624-21.938
				c2.229-6.851,6.447-13.055,9.931-19.811c-5.206-7.622-10.5-15.37-15.956-23.354c-5.837,4.423-11.093,8.407-16.952,12.848
				c-0.587-4.545-0.881-8.337-1.617-12.04c-0.559-2.807,0.28-4.229,2.896-5.324c5.753-2.405,11.381-5.105,18.108-8.162
				c-7.337-10.325-14.351-19.957-21.025-29.817c-1.152-1.701-1.887-4.884-1.073-6.516c4.51-9.047,3.339-17.056-3.193-24.519
				c-0.106-0.122-0.176-0.285-0.232-0.439c-2.25-6.098-6.177-9.055-11.978-9.055c-1.052,0-2.164,0.097-3.339,0.29
				c-0.387,0.063-0.809,0.095-1.246,0.095c-1.826,0-3.938-0.549-5.036-1.607c-3.113-2.997-4.427-4.365-6.16-4.365
				c-1.354,0-2.963,0.834-5.885,2.377c-1.616,0.853-3.354,1.542-4.817,2.605c-0.972,0.707-1.836,1.024-2.656,1.024
				c-1.172,0-2.253-0.647-3.428-1.734c-2.911-2.693-6.097-5.089-9.611-7.978c-8.087,7.7-15.764,15.01-23.626,22.496
				c-4.919-3.816-9.521-7.607-14.384-11.03c-1.313-0.925-3.579-1.989-4.954-1.989c-0.332,0-0.612,0.062-0.814,0.203
				c-3.521,2.455-9.338,2.546-9.707,8.69c-0.279,4.642-0.885,9.267-1.484,13.882c-0.233,1.801-0.934,3.373-2.354,3.373
				c-0.534,0-1.17-0.222-1.922-0.738c-5.955-4.09-11.707-8.48-18.595-13.518c12.92-5.855,15.021-16.108,13.944-28.218
				c-4.472,0.804-8.783,1.281-12.921,2.405c-1.263,0.343-2.434,0.52-3.538,0.52c-2.791,0-5.16-1.127-7.534-3.537
				C313.106,26.016,307.387,20.171,298.318,20.171L298.318,20.171z"/>
		</g>
		<g>
			<path style="fill:#FFFFFF;" d="M299.743,27.246c5.038,0.544,8.693,4.003,13.974,9.363l0.072,0.074
				c3.729,3.784,7.824,5.624,12.521,5.624c1.724,0,3.481-0.25,5.373-0.765c1.342-0.365,2.748-0.658,4.208-0.922
				c-0.634,6.87-3.646,10.745-9.956,13.604c-2.267,1.027-3.817,3.181-4.073,5.656c-0.256,2.475,0.821,4.9,2.83,6.37
				c2.05,1.499,3.998,2.94,5.881,4.333c4.427,3.275,8.608,6.369,12.885,9.306c1.901,1.305,3.881,1.967,5.884,1.967
				c3.722,0,8.389-2.481,9.295-9.471l0.024-0.185c0.597-4.594,1.214-9.346,1.505-14.161c0.476-0.289,1.414-0.689,2.072-0.97
				c0.636-0.271,1.308-0.558,1.999-0.89c0.144,0.081,0.277,0.164,0.389,0.242c3.336,2.348,6.564,4.895,9.981,7.59
				c1.364,1.075,2.74,2.16,4.141,3.247c1.269,0.984,2.781,1.469,4.289,1.469c1.745,0,3.484-0.65,4.829-1.931l7.509-7.15
				l11.671-11.112c1.592,1.287,3.1,2.538,4.478,3.814c0.962,0.889,3.888,3.594,8.181,3.594c2.339,0,4.618-0.795,6.771-2.362
				c0.517-0.375,1.362-0.786,2.258-1.221c0.575-0.279,1.149-0.56,1.713-0.857c0.612-0.323,1.34-0.707,1.973-1.026
				c0.446,0.417,0.953,0.907,1.431,1.367l0.517,0.498c3.435,3.309,8.44,3.566,9.893,3.566c0.821,0,1.622-0.063,2.381-0.188
				c0.798-0.131,1.539-0.197,2.204-0.197c2.056,0,3.882,0.337,5.404,4.462c0.374,1.02,0.875,1.882,1.538,2.642
				c4.718,5.39,5.374,10.41,2.196,16.786c-2.379,4.771-0.381,10.726,1.541,13.563c5.02,7.415,10.144,14.583,15.567,22.17
				c0.213,0.298,0.427,0.596,0.64,0.895c-3.512,1.616-6.875,3.145-10.196,4.533c-5.759,2.411-8.266,7.08-7.058,13.146
				c0.449,2.262,0.724,4.646,1.041,7.406c0.152,1.327,0.311,2.708,0.499,4.165c0.319,2.476,1.934,4.594,4.236,5.559
				c0.871,0.365,1.79,0.544,2.705,0.544c1.503,0,2.992-0.484,4.229-1.421l7.002-5.307l4.091-3.101
				c3.18,4.654,6.311,9.235,9.405,13.766c-0.421,0.755-0.844,1.507-1.261,2.249c-2.647,4.7-5.385,9.56-7.144,14.964
				c-1.725,5.296-2.375,10.746-2.988,16.024c-4.799-0.787-9.493-1.557-14.184-2.345c-0.743-0.125-1.536-0.188-2.358-0.188
				c-7.838,0-21.372,6.295-25.406,13.369c-0.054,0.093-0.112,0.184-0.169,0.275c-0.365,0.587-0.918,1.475-1.326,2.66
				c-2.29,6.648-5.201,7.205-7.75,7.205c-0.882,0-1.866-0.105-2.929-0.313c-0.539-0.105-1.098-0.159-1.664-0.159
				c-3.84,0-7.422,2.468-9.127,4.764c-4.631,6.245-10.058,13.677-15.203,21.454c-2.179,3.298-3.268,7.677-2.841,11.427
				c1.26,11.105,2.687,23.692,4.84,35.995c1.794,10.26,1.046,20.557,0.255,31.459c-0.1,1.373-0.199,2.747-0.294,4.123
				c-0.329,4.792-0.669,9.583-1.01,14.375c-0.777,10.956-1.581,22.284-2.238,33.455c-0.118,2.005-0.771,3.383-2.498,5.266
				c-3.183,3.474-6.45,6.993-9.609,10.397c-14.664,15.798-29.827,32.133-42.668,50.323c-3.436,4.865-6.827,10.967-5.934,19.332
				c0.01,0.088,0.019,0.178,0.026,0.268c-4.966-0.224-9.755-0.438-14.543-0.66c-4.51-0.209-9.019-0.429-13.527-0.647
				c-11.427-0.556-23.243-1.13-34.896-1.524c-0.849-0.028-1.34-0.115-1.596-0.179c-0.021-0.057-0.042-0.125-0.064-0.207
				c-3.448-12.268-11.935-14.1-16.686-14.1c-1.863-0.001-3.873,0.268-5.972,0.796c-1.917,0.482-4.265,0.598-6.751,0.721
				c-1.35,0.065-2.745,0.135-4.208,0.264c-3.368,0.296-6.042,2.958-6.355,6.324l-1.079,11.598l-0.228,2.447
				c-5.115-0.649-9.967-1.271-14.83-2.062c-1.211-0.197-2.289-0.293-3.292-0.293c-5.009,0-8.977,2.498-11.171,7.033
				c-2.882,5.956-6.027,6.759-8.724,6.759c-1.291,0-2.755-0.222-4.349-0.66c-1.431-0.393-2.825-0.611-4.19-0.75v-12.431
				c0-2.249-1.08-4.36-2.903-5.676c-1.208-0.872-2.645-1.324-4.097-1.324c-0.74,0-1.485,0.117-2.205,0.356l-7.78,2.582l-6.504,2.158
				c-3.5,1.161-5.499,4.839-4.569,8.407l4.746,18.228c-1.24,0.031-2.448,0.054-3.644,0.054c-2.611,0-4.718-0.109-6.631-0.345
				c-1.797-0.222-3.527-0.334-5.144-0.334c-9.307,0-16.395,3.818-20.782,11.114c-4.58-3.913-9.304-7.934-14.144-11.713
				c-3.268-2.551-7.763-4.164-11.73-4.212c-11.036-0.129-21.91-0.146-30.15-0.146c-1.943,0-3.886,0.002-5.83,0.003l16.654-8.737
				c2.02-1.06,3.397-3.037,3.689-5.3c0.293-2.263-0.535-4.525-2.219-6.064l-5.093-4.656l-1.546-1.414l0.827-0.627
				c2.355-1.788,3.333-4.863,2.442-7.684l-0.083-0.265l-0.396-1.252c-0.706-2.228-2.476-3.955-4.718-4.607
				c-0.643-0.187-1.301-0.278-1.954-0.278c-1.625,0-3.223,0.566-4.499,1.637c-7.338,6.155-15.613,8.634-24.78,9.706l2.978-2.271
				c2.288-1.744,3.275-4.71,2.489-7.478c-0.785-2.767-3.183-4.772-6.045-5.055c-9.079-0.897-17.609-1.741-26.236-2.595
				c3.749-7.172,7.346-14.028,11.089-20.83c3.884,0.534,7.841,1.166,11.676,1.778c4.455,0.711,9.062,1.446,13.66,2.049
				c0.428,0.056,0.872,0.084,1.32,0.084c3.716,0,8.491-1.974,10.425-5.743c0.799-1.558,1.62-3.087,2.488-4.707
				c4.255-7.938,8.656-16.145,9.726-26.186c0.24-2.25,0.385-4.506,0.526-6.871c11.139-3.209,21.324-8.279,31.212-13.202
				c1.087-0.541,2.175-1.083,3.263-1.622c0.142-0.037,0.589-0.12,1.772-0.12c0.445,0,0.893,0.01,1.336,0.019
				c0.484,0.01,0.965,0.02,1.438,0.021c0.162,0.055,0.379,0.136,0.554,0.199c0.474,0.175,1.064,0.393,1.725,0.581
				c8.146,2.327,13.468,3.74,18.681,3.74c8.104,0,14.23-3.438,25.247-10.025c2.133-1.275,3.43-3.587,3.407-6.072
				s-1.362-4.772-3.519-6.009l-8.167-4.682l-14.24-8.162c-1.078-0.618-2.279-0.927-3.48-0.927c-1.205,0-2.41,0.311-3.49,0.932
				l-0.094,0.047c-0.654,0.318-2.185,1.065-3.336,2.818l-0.039,0.059c-0.817,1.24-1.713,2.601-2.334,3.434
				c-1.042-0.189-2.643-0.581-4.002-0.914c-1.663-0.406-3.351-0.678-4.982-0.94c-1.655-0.266-4.287-0.688-5.463-1.186
				c-0.158-1.152-0.047-3.412,0.023-4.845c0.088-1.789,0.179-3.639,0.08-5.496c-0.194-3.631-0.379-7.261-0.567-11.011
				c1.909,0.557,3.819,1.053,5.796,1.439c0.882,0.172,1.815,0.259,2.775,0.259c3.347,0,6.687-1.009,9.166-2.768
				c3.828-2.718,7.568-5.584,11.184-8.355c3.508-2.688,7.136-5.468,10.741-8.029c0.277-0.186,1.316-0.532,2.571-0.532l0.14,0.002
				c5.054,0.117,10.16,0.466,15.565,0.835c2.176,0.148,4.392,0.299,6.664,0.439c0.145,0.01,0.289,0.014,0.433,0.014
				c1.971,0,3.859-0.832,5.19-2.304c1.428-1.578,2.061-3.721,1.718-5.822l-2.801-17.199l-0.507-3.116
				c-0.531-3.261-3.27-5.707-6.569-5.867c-2.951-0.144-5.894-0.308-8.831-0.471c-6.962-0.388-14.161-0.789-21.3-0.896
				c-3.707-0.056-6.371-1.06-8.906-3.354c-1.141-1.033-2.321-1.972-3.504-2.862l5.838-9.479c1.072-1.741,1.33-3.863,0.705-5.81
				c-0.625-1.946-2.069-3.522-3.954-4.314l-9.104-3.825L93.42,207.353c1.521-1.271,3.067-2.524,4.638-3.719
				c11.252-8.564,19.982-14.971,28.309-20.773c0.854-0.595,3.594-0.959,5.07-1.156c0.344-0.046,0.72-0.069,1.117-0.069
				c0.994,0,2.094,0.145,3.182,0.418c2.477,0.623,4.894,0.938,7.185,0.938c6.21,0,14.989-2.38,21.543-13.721
				c0.992-1.716,1.209-3.771,0.6-5.657c-0.609-1.886-1.99-3.424-3.798-4.234c-2.487-1.114-4.981-2.247-7.484-3.384
				c-6.185-2.809-12.574-5.71-19.027-8.406c0.554-4.41,0.983-8.846,1.398-13.145c0.394-4.072,0.801-8.283,1.306-12.364
				c0.366-2.956,0.104-5.332-0.573-7.239c2.805-0.359,5.579-0.66,8.367-0.856c2.17-0.153,4.551-0.224,7.493-0.224
				c1.809,0,3.675,0.026,5.48,0.052c1.855,0.026,3.773,0.054,5.683,0.054c1.857,0,3.504-0.026,5.036-0.08
				c0.061-0.002,0.121-0.003,0.179-0.003c0.043,0,0.082,0.001,0.117,0.002c0.074,0.099,0.172,0.241,0.294,0.44
				c1.693,2.755,3.49,5.421,5.229,8c1.536,2.278,2.986,4.43,4.375,6.645c2.36,3.76,5.532,5.666,9.427,5.666
				c1.124,0,2.283-0.163,3.547-0.5c1.652-0.44,3.287-0.96,4.867-1.463c3.188-1.015,6.484-2.064,8.92-2.064
				c0.456,0,0.868,0.038,1.226,0.111c1.962,0.406,4.647,2.788,7.245,5.091c1.563,1.386,3.179,2.819,4.94,4.124
				c1.18,0.874,2.366,1.737,3.676,2.689l1.925,1.402c1.207,0.88,2.653,1.346,4.127,1.346c0.388,0,0.777-0.032,1.165-0.098
				c1.86-0.313,3.514-1.365,4.589-2.915c1.236-1.784,2.506-3.573,3.734-5.303c2.925-4.121,5.95-8.383,8.679-12.801
				c0.442-0.715,0.733-1.042,0.868-1.173c0.032-0.001,0.072-0.002,0.12-0.002c0.199,0,0.551,0.021,1.101,0.122
				c5.083,0.933,10.173,1.38,15.095,1.812c1.899,0.167,3.863,0.339,5.764,0.536c0.402,0.042,0.804,0.088,1.204,0.134
				c1.429,0.164,3.048,0.349,4.754,0.349c4.198,0,7.767-1.16,10.907-3.545c0.446-0.339,1.499-0.761,2.518-1.169
				c1.671-0.669,3.75-1.502,5.789-2.929c2.714-1.899,3.726-5.44,2.424-8.486c-1.117-2.615-3.676-4.25-6.434-4.25
				c-0.454,0-0.915,0.044-1.374,0.136l-1.226,0.245l1.398-7.398c0.683-3.607-1.537-7.127-5.085-8.068
				c-2.551-0.676-5.105-1.25-7.576-1.805c-5.336-1.199-10.376-2.331-14.774-4.317c-4.366-1.97-8.463-4.916-13.206-8.328
				c2.258-2.127,4.459-4.169,6.693-6.12c0.043-0.002,0.089-0.003,0.137-0.003c0.053,0,0.104,0.001,0.159,0.004
				c3.138,0.153,6.334,0.462,9.719,0.79c1.381,0.133,2.786,0.269,4.227,0.399c0.212,0.019,0.424,0.028,0.633,0.028
				c3.487,0,6.488-2.593,6.938-6.117c0.307-2.412,0.622-4.79,0.935-7.142c0.731-5.513,1.426-10.746,1.977-16.087
				c0.001,0,0.002,0,0.004,0c0.105-0.024,0.21-0.05,0.315-0.071C291.174,41.199,297.767,35.998,299.743,27.246 M298.318,20.171
				c-0.2,0-0.402,0.003-0.605,0.009c-2.602,0.074-4.185,0.16-4.423,3.034c-0.638,7.709-5.158,11.168-12.565,11.502
				c-0.823,0.037-1.63,0.335-2.455,0.433c-2.652,0.316-3.917,1.53-4.201,4.446c-0.785,8.057-1.964,16.076-3.039,24.524
				c-5.022-0.451-9.619-0.983-14.23-1.208c-0.162-0.008-0.329-0.012-0.5-0.012c-1.418,0-3.076,0.29-4.017,1.102
				c-4.626,3.988-8.998,8.273-13.863,12.825c7.75,5.167,14.077,10.611,21.375,13.905c7.27,3.283,15.514,4.409,23.438,6.508
				c-1.113,5.886-2.173,11.492-3.327,17.598c4.394-0.878,7.898-1.579,11.403-2.279c-2.776,1.942-6.146,2.45-8.528,4.259
				c-2.197,1.669-4.417,2.119-6.673,2.119c-1.725,0-3.469-0.263-5.24-0.446c-6.779-0.7-13.627-1.043-20.313-2.27
				c-0.858-0.157-1.642-0.237-2.364-0.237c-3.086,0-5.061,1.451-6.942,4.497c-3.727,6.035-8.007,11.729-12.211,17.795
				c-2.113-1.542-3.846-2.792-5.563-4.063c-4.942-3.66-9.468-9.313-14.931-10.443c-0.861-0.178-1.744-0.257-2.645-0.257
				c-4.97,0-10.469,2.4-15.588,3.764c-0.66,0.176-1.234,0.264-1.746,0.264c-1.532,0-2.496-0.791-3.498-2.388
				c-3.09-4.925-6.524-9.635-9.568-14.588c-1.573-2.561-3.329-3.777-6.375-3.777c-0.139,0-0.281,0.003-0.425,0.008
				c-1.595,0.056-3.191,0.075-4.79,0.075c-3.72,0-7.446-0.105-11.163-0.105c-2.667,0-5.331,0.054-7.985,0.241
				c-8.53,0.601-16.994,2.143-25.487,3.273c2.448,2.124,4.853,3.607,7.467,4.29c3.829,1,4.194,3.246,3.772,6.656
				c-1.082,8.74-1.674,17.542-2.802,26.275c-0.443,3.426,0.561,4.979,3.744,6.301c9.126,3.792,18.081,7.997,26.95,11.97
				c-3.886,6.724-8.925,10.224-15.483,10.224c-1.719,0-3.544-0.241-5.478-0.727c-1.566-0.394-3.245-0.629-4.889-0.629
				c-0.691,0-1.376,0.042-2.044,0.131c-2.791,0.371-5.938,0.813-8.146,2.352c-9.681,6.746-19.154,13.797-28.545,20.946
				c-4.86,3.698-9.392,7.827-13.575,11.345c16.981,7.136,33.845,14.221,50.979,21.42c-3.565,5.79-6.335,10.288-9.226,14.98
				c2.911,2.196,5.712,4.01,8.154,6.221c3.881,3.512,8.198,5.083,13.498,5.163c9.939,0.15,19.871,0.873,29.897,1.36
				c1.12,6.877,2.173,13.351,3.309,20.316c-7.963-0.492-15.227-1.118-22.5-1.286c-0.1-0.002-0.2-0.004-0.301-0.004
				c-2.253,0-4.863,0.574-6.62,1.822c-7.437,5.282-14.49,11.105-21.929,16.387c-1.322,0.938-3.324,1.476-5.113,1.476
				c-0.501,0-0.987-0.042-1.436-0.13c-4.672-0.913-9.193-2.6-14.63-4.229c0.381,7.528,0.711,14.286,1.072,21.044
				c0.264,4.971-1.233,11.491,1.347,14.484c2.763,3.208,9.357,3.194,14.322,4.409c3.045,0.745,5.043,1.228,6.56,1.228
				c2.888,0,4.028-1.749,7.325-6.756c0.157-0.239,0.537-0.333,1.074-0.646c7.314,4.191,14.749,8.454,22.407,12.844
				c-10.64,6.362-15.521,9.033-21.654,9.033c-4.227,0-9.048-1.268-16.758-3.471c-1.269-0.362-2.536-1.051-3.798-1.051
				c-0.01,0-0.02,0-0.029,0c-0.078,0.001-0.156,0.001-0.234,0.001c-0.947,0-1.935-0.04-2.914-0.04c-1.723,0-3.417,0.124-4.804,0.811
				c-12.216,6.046-24.268,12.404-37.681,15.528c-0.414,0.097-0.789,0.364-0.722,0.364c0.024,0,0.111-0.037,0.28-0.135
				c-0.308,4.512-0.436,8.021-0.807,11.505c-1.124,10.547-6.801,19.319-11.481,28.438c-0.544,1.061-2.702,1.939-4.197,1.939
				c-0.145,0-0.283-0.009-0.413-0.025c-8.732-1.143-17.401-2.764-26.129-3.935c-0.233-0.031-0.49-0.046-0.76-0.046
				c-1.619,0-3.729,0.547-4.256,1.495c-5.845,10.511-11.338,21.217-17.198,32.374c12.284,1.216,23.889,2.364,36.559,3.616
				c-7.339,5.597-13.695,10.442-20.764,15.833c18.71-0.432,36.446,0.128,51.309-12.339c0.16,0.504,0.318,1.007,0.478,1.511
				c-2.265,1.72-4.531,3.438-7.515,5.702c4.371,3.997,8.378,7.659,12.837,11.736c-13.825,7.254-26.915,14.121-40.005,20.987
				c0.099,0.323,0.198,0.646,0.297,0.969c1.608,0,3.218,0,4.827,0c9.104,0,18.206-0.023,27.309-0.023
				c10.023,0,20.046,0.028,30.068,0.146c2.538,0.03,5.49,1.157,7.506,2.73c6.907,5.394,13.481,11.211,20.334,16.994
				c0.922-1.283,1.845-2.123,2.222-3.161c3.097-8.537,8.825-11.753,16.676-11.753c1.366,0,2.797,0.098,4.289,0.281
				c2.466,0.304,4.958,0.397,7.486,0.397c4.107,0,8.31-0.248,12.649-0.248c-2.461-9.453-4.694-18.029-6.978-26.797
				c4.925-1.635,9.299-3.085,14.285-4.74c0,6.577,0,12.651,0,18.97c3.435,0.324,6.51,0.185,9.334,0.961
				c2.219,0.609,4.284,0.91,6.204,0.91c6.693,0,11.615-3.662,15.025-10.71c1.133-2.342,2.775-3.082,4.87-3.082
				c0.676,0,1.399,0.077,2.168,0.202c7.302,1.187,14.663,2.014,22.252,3.02c0.693-7.454,1.32-14.192,1.978-21.264
				c4.203-0.37,8.268-0.216,12.053-1.169c1.555-0.392,2.972-0.585,4.262-0.584c5.174,0,8.293,3.106,9.947,8.994
				c1.153,4.102,3.992,5.346,8.162,5.487c16.118,0.545,32.225,1.421,48.336,2.168c7.091,0.328,14.185,0.644,21.849,0.99
				c0-3.103,0.229-5.744-0.047-8.331c-0.6-5.609,1.438-9.946,4.69-14.553c15.316-21.696,33.871-40.552,51.721-60.029
				c2.598-2.833,4.095-5.674,4.325-9.583c0.937-15.93,2.149-31.843,3.243-47.763c0.854-12.42,2.134-24.784-0.049-37.268
				c-2.062-11.78-3.432-23.688-4.78-35.578c-0.249-2.191,0.499-4.921,1.727-6.779c4.765-7.203,9.84-14.205,14.985-21.144
				c0.709-0.955,2.357-1.934,3.504-1.934c0.112,0,0.221,0.009,0.322,0.029c1.521,0.298,2.942,0.443,4.271,0.443
				c7.287,0,11.768-4.374,14.368-11.925c0.213-0.618,0.626-1.167,0.955-1.744c2.521-4.42,13.512-9.84,19.328-9.84
				c0.429,0,0.831,0.029,1.198,0.091c7.002,1.177,14.013,2.313,21.364,3.523c1.172-7.636,1.401-15.112,3.624-21.938
				c2.229-6.851,6.447-13.055,9.931-19.811c-5.206-7.622-10.5-15.37-15.956-23.354c-5.837,4.423-11.093,8.407-16.952,12.848
				c-0.587-4.545-0.881-8.337-1.617-12.04c-0.559-2.807,0.28-4.229,2.896-5.324c5.753-2.405,11.381-5.105,18.108-8.162
				c-7.337-10.325-14.351-19.957-21.025-29.817c-1.152-1.701-1.887-4.884-1.073-6.516c4.51-9.047,3.339-17.056-3.193-24.519
				c-0.106-0.122-0.176-0.285-0.232-0.439c-2.251-6.098-6.177-9.055-11.978-9.055c-1.051,0-2.164,0.097-3.339,0.29
				c-0.387,0.063-0.809,0.095-1.246,0.095c-1.826,0-3.938-0.549-5.036-1.607c-3.113-2.998-4.427-4.365-6.16-4.365
				c-1.354,0-2.963,0.834-5.885,2.377c-1.616,0.853-3.354,1.542-4.817,2.605c-0.972,0.707-1.836,1.024-2.656,1.024
				c-1.171,0-2.253-0.647-3.428-1.734c-2.911-2.693-6.097-5.089-9.611-7.978c-8.087,7.7-15.764,15.01-23.626,22.496
				c-4.919-3.816-9.521-7.607-14.384-11.03c-1.313-0.925-3.579-1.989-4.954-1.989c-0.332,0-0.612,0.062-0.814,0.203
				c-3.521,2.455-9.338,2.546-9.707,8.69c-0.279,4.642-0.885,9.267-1.484,13.882c-0.233,1.801-0.933,3.373-2.354,3.373
				c-0.534,0-1.17-0.223-1.922-0.738c-5.955-4.09-11.707-8.48-18.595-13.518c12.92-5.855,15.021-16.108,13.944-28.218
				c-4.472,0.804-8.783,1.281-12.921,2.405c-1.263,0.343-2.434,0.52-3.538,0.52c-2.79,0-5.16-1.127-7.534-3.537
				C313.106,26.016,307.388,20.171,298.318,20.171L298.318,20.171z"/>
		</g>
	</g>
</g>
<g id="Layer_1">
</g>
</svg>
