<?xml version="1.0" encoding="iso-8859-1"?>
<!-- Generator: Adobe Illustrator 16.0.0, SVG Export Plug-In . SVG Version: 6.00 Build 0)  -->
<!DOCTYPE svg PUBLIC "-//W3C//DTD SVG 1.1//EN" "http://www.w3.org/Graphics/SVG/1.1/DTD/svg11.dtd">
<svg version="1.1" xmlns="http://www.w3.org/2000/svg" xmlns:xlink="http://www.w3.org/1999/xlink" x="0px" y="0px" width="512px"
	 height="512px" viewBox="0 0 512 512" style="enable-background:new 0 0 512 512;" xml:space="preserve">
<g id="italy">
	<g>
		<path style="fill:#FFFFFF;" d="M223.575,18.462c2.152,4.105,4.364,8.044,6.582,11.721c1.295,2.146,3.818,3.853,6.277,4.248
			c10.978,1.762,22.143,3.479,32.94,5.141c1.971,0.303,3.941,0.606,5.914,0.91c-0.292,1.578-0.588,3.171-0.892,4.763
			c-0.131,0.689-0.248,1.384-0.364,2.078c-0.266,1.582-0.517,3.076-0.937,4.362c-1.906,5.846,0.417,10.148,2.33,12.875
			c3.276,4.672,6.405,9.373,9.647,14.28c-1.362-1.35-3.495-2.215-5.49-2.215c-0.996,0-1.925,0.215-2.757,0.638
			c-0.483,0.246-0.942,0.355-1.489,0.355c-0.723,0-1.618-0.191-2.814-0.602c-1.079-0.371-2.07-0.551-3.028-0.551
			c-3.218,0-5.783,2.045-6.694,5.336c-1.306,4.701-4.084,6.848-9.288,7.181c-0.979,0.063-1.75,0.33-2.212,0.49
			c-0.052,0.018-0.104,0.037-0.154,0.053c-4.487,1.394-8.092,2.043-11.346,2.043c-2.134,0-4.12-0.274-6.073-0.837
			c-0.655-0.189-1.342-0.281-2.102-0.281c-0.296,0-0.613,0.016-0.956,0.036c-0.194,0.012-0.407,0.026-0.644,0.026l-4.988,5.349
			c0.084,1.205,0.06,2.481,0.034,3.833c-0.083,4.296-0.185,9.642,3.56,14.783c2.073,2.846,3.814,5.998,5.658,9.335
			c0.724,1.31,1.466,2.653,2.238,3.991c-1.152,1.493-2.276,2.999-3.371,4.466c-1.288,1.726-2.619,3.51-3.95,5.208
			c-2.011,2.563-2.477,5.386-1.384,8.39c1.514,4.161,3.023,8.414,4.483,12.526c1.574,4.434,3.201,9.018,4.846,13.523
			c0.724,1.983,2.131,3.859,3.86,5.149l2.148,1.603c6.933,5.174,14.103,10.525,21.347,15.581c2.641,1.842,5.437,3.213,8.141,4.539
			c0.842,0.413,1.684,0.825,2.516,1.25c1.79,0.916,3.607,1.815,5.365,2.685c2.816,1.394,5.729,2.835,8.504,4.334
			c0.072,0.06,0.178,0.183,0.228,0.266c1.153,3.507,2.265,7.118,3.339,10.611c1.81,5.883,3.681,11.965,5.854,17.897
			c1.506,4.108,3.348,8.055,5.129,11.871c1.583,3.392,3.079,6.595,4.357,9.902c2.434,6.293,6.635,11.021,13.222,14.878
			c8.141,4.767,16.279,9.942,24.149,14.948c2.697,1.716,5.395,3.431,8.101,5.137c1.921,1.209,3.835,1.798,5.852,1.798
			c0.831,0,1.664-0.097,2.549-0.295c7.438-1.666,15.454-3.401,23.664-4.813c3.489-0.6,7.053-0.865,10.824-1.146
			c0.43-0.032,0.859-0.064,1.289-0.097c0.147,0.295,0.294,0.58,0.435,0.854c0.277,0.539,0.656,1.278,0.872,1.807
			c-0.393,0.405-1.008,0.94-1.457,1.332c-0.697,0.606-1.488,1.295-2.214,2.065c-0.113,0.12-0.225,0.244-0.335,0.368
			c-0.03,0.034-0.06,0.068-0.09,0.102c-3.54,2.453-7.131,6.991-4.761,14.85c0.802,2.66,2.31,5.893,6.886,7.292l3.578,1.095
			c15.414,4.718,31.354,9.596,46.898,14.707c1.265,0.416,2.704,1.488,4.229,2.622c1.169,0.87,2.378,1.771,3.75,2.577
			c2.664,1.563,5.572,3.041,8.65,4.394c2.481,1.09,5.134,2.041,8.106,2.907c3.204,0.935,5.912,2.655,8.525,5.418
			c3.736,3.948,7.631,7.818,11.398,11.561c2.349,2.333,4.774,4.742,7.126,7.137c-1.016,5.06-2.13,10.177-3.225,15.169
			c-1.495-1.061-3.061-2.077-4.754-2.948c-4.769-2.45-7.137-5.906-7.681-11.208c-0.144-1.393-0.499-2.587-0.842-3.741
			c-0.127-0.427-0.26-0.87-0.381-1.341l-5.329-3.727c-1.376,0.135-2.744,0.275-4.104,0.415c-3.528,0.361-6.86,0.702-10.24,0.943
			c-0.264,0.019-0.525,0.028-0.776,0.028c-0.799,0-1.505-0.097-1.988-0.271c-4.92-1.782-9.741-3.64-14.846-5.606
			c-1.852-0.714-3.719-1.433-5.607-2.154l-6.585,3.269l-9.199,31.501l-2.893,9.904l2.358,5.765c1.069,0.599,2.134,1.212,3.199,1.826
			c2.52,1.452,5.125,2.954,7.85,4.291c2.507,1.231,4.502,2.969,6.277,5.468c2.931,4.125,6.018,8.208,9.004,12.157
			c0.495,0.654,0.99,1.309,1.484,1.965c-2.747,3.552-5.364,6.533-9.139,8.09c-2.535,1.045-4.826,2.361-7.043,3.634
			c-1.404,0.807-2.73,1.568-4.066,2.233c-2.544,1.267-5.387,3.873-4.479,9.094c0.567,3.268,1.086,6.624,1.589,9.87
			c0.366,2.37,0.744,4.812,1.143,7.234c-9.057,5.502-16.235,13.528-22.521,25.156c-0.203,0.375-0.426,0.752-0.668,1.141
			c-3.022-1.374-6.147-2.793-9.361-4.009c-0.398-0.15-0.621-0.271-0.731-0.341c-0.016-0.08-0.034-0.208-0.045-0.396
			c-0.123-2.27-0.481-4.432-0.849-6.525c0.761-0.495,1.501-0.996,2.226-1.485c1.301-0.879,2.529-1.709,3.774-2.449
			c3.396-2.018,4.597-5.223,3.379-9.025c-1.135-3.539-2.186-7.067-3.292-10.792c1.93-0.568,3.794-1.104,5.666-1.584
			c3.604-0.922,5.631-3.591,5.562-7.324c-0.048-2.568-0.044-5.205-0.04-7.756c0.003-2.028,0.007-4.125-0.016-6.204
			c-0.016-1.387-0.298-2.874-0.817-4.303c-6.188-16.992-13.963-33.74-23.11-49.779c-0.602-1.057-2.434-4.27-6.534-4.27
			c-0.847,0-1.729,0.143-2.697,0.436c-3.897,1.183-7.786,2.202-11.902,3.283c-0.17,0.044-0.34,0.089-0.51,0.134
			c-1.712-3.053-4.886-4.95-9.486-5.659c-1.26-0.194-2.563-0.51-3.915-0.872c0.733-3.313,1.426-6.482,2.055-9.746
			c0.454-2.363-0.437-5.787-2.972-7.472c-3.039-2.026-6.061-3.902-9.259-5.89c-1.012-0.628-2.031-1.262-3.061-1.905l-6.473,1.013
			l-2.839,3.363c-2.01-7.403-4.042-8.755-12.473-9.653c-0.327-0.035-0.721-0.102-1.138-0.172c-0.933-0.156-1.989-0.334-3.181-0.334
			c-0.423,0-0.84,0.022-1.24,0.069c-0.047,0.005-0.092,0.01-0.136,0.013c-0.109-0.255-0.264-0.676-0.456-1.355
			c-1.471-5.211-3.122-10.422-4.72-15.462c-0.619-1.952-1.238-3.905-1.847-5.856c-0.163-0.526-0.338-0.995-0.539-1.538
			c-0.094-0.252-0.198-0.532-0.315-0.857l-8.286-1.791c-0.575,0.591-1.129,1.169-1.671,1.736c-1.104,1.154-2.155,2.253-3.213,3.267
			c-8.018-0.848-15.718-3.116-23.852-5.513c-2.515-0.74-5.114-1.506-7.703-2.22c-0.233-0.165-0.656-0.551-0.948-0.815
			c-0.241-0.219-0.479-0.436-0.715-0.639c-3.707-3.209-7.405-6.428-11.104-9.647c-9.286-8.081-18.889-16.438-28.484-24.51
			c-2.427-2.042-5.482-2.779-8.006-3.341c0.516-7.651-0.662-9.574-7.472-15.007l-0.04-0.032c-2.395-1.91-4.787-3.825-7.179-5.741
			c-8.209-6.573-16.697-13.371-25.219-19.877c-2.02-1.542-4.334-2.335-6.454-2.987l0.036-0.681c0.192-3.681,0.39-7.476,0.606-11.271
			c0.089-1.555,0.193-3.108,0.296-4.662c0.171-2.572,0.349-5.232,0.457-7.884c0.071-1.762-0.327-3.678-1.123-5.395
			c-3.898-8.42-8.106-17.455-12.463-26.465c-1.126-2.333-3.513-4.31-5.937-4.919c-9.067-2.286-17.245-6.529-25-12.97
			c-5.716-4.747-12.436-5.901-18.365-6.918c-0.781-0.134-1.559-0.268-2.333-0.409c-0.902-0.165-1.861-0.249-2.85-0.249
			c-2.673,0-5.294,0.608-7.608,1.145c-1.011,0.234-1.966,0.456-2.869,0.618c-2.265,0.407-3.74,1.897-4.621,2.788l-0.179,0.18
			c-3.272,3.26-6.54,6.526-9.808,9.791c-5.594,5.59-11.378,11.371-17.089,17.025c-0.08,0.079-0.161,0.146-0.229,0.196
			c-3.207,0.248-6.463,0.447-9.686,0.628l5.179-7.459l3.244-4.67l-2.651-7.636c-1.398-0.425-2.784-0.842-4.16-1.255
			c-3.667-1.103-7.13-2.144-10.605-3.281c-0.616-0.202-1.273-0.583-1.759-1.022c-2.14-1.933-4.298-3.952-6.384-5.905
			c-1.889-1.769-3.834-3.59-5.799-5.376c0.996-1.861,1.898-3.738,2.777-5.564c0.857-1.782,1.667-3.465,2.545-5.113
			c2.036-3.814,1.299-7.368-2.074-10.006c-4.292-3.357-8.61-6.87-12.786-10.268c-0.917-0.746-1.834-1.492-2.752-2.238
			c0.618-0.722,1.232-1.419,1.858-2.089c0.105-0.036,0.268-0.086,0.505-0.146c5.757-1.464,11.442-2.873,17.461-4.364l5.554-1.377
			l2.912-7.69L25.403,81.685c2.794-1.653,5.49-3.243,8.208-4.817c0.139,0.017,0.277,0.032,0.417,0.048
			c0.878,0.101,1.708,0.196,2.304,0.373c1.551,0.461,3.055,0.695,4.469,0.695c2.633,0,6.249-0.805,9.21-4.418
			c3.258,1.036,6.484,2.001,9.883,3.018c1.417,0.424,2.848,0.852,4.297,1.29l6.314-3.643c0.388-1.652,0.815-3.328,1.229-4.948
			c0.977-3.829,1.986-7.789,2.589-11.839c0.446-2.996,1.493-4.393,4.147-5.538c1.625-0.701,3.189-1.508,4.71-2.352
			c0.305,3.521,0.581,6.911,0.765,10.312c0.396,7.29,5.593,7.856,7.176,7.856c0.622,0,1.258-0.067,1.947-0.204
			c0.625-0.125,1.205-0.188,1.723-0.188c1.373,0,2.976,0.289,4.635,3.732c1.604,3.328,3.923,6.103,6.358,8.888l8.764-3.292
			c0-1.447,0.009-2.895,0.019-4.343c0.022-3.469,0.045-7.057-0.063-10.627c-0.056-1.858,0.31-3.294,1.221-4.802
			c1.377-2.278,2.651-4.551,3.942-6.899l0.018,0.021l5.959,6.915l6.881,0.664l4.484-3.531l0.959-0.755l4.063,4.202l2.587,2.676
			l8.594-3.476l0-2.124V53.43c0-2.174,0.004-4.349,0.007-6.523c0.01-5.747,0.02-11.677-0.039-17.546
			c2.235-0.789,4.469-1.602,6.641-2.393c2.406-0.876,4.882-1.777,7.336-2.637c1.931,1.527,3.846,3.112,5.856,4.776
			c0.829,0.686,1.668,1.38,2.524,2.084l6.721-0.339c1.098-1.105,2.186-2.208,3.27-3.308c3.031-3.074,5.895-5.979,8.86-8.807
			c0.075-0.061,0.248-0.144,0.358-0.176c5.497-0.067,11.098-0.068,16.517-0.069C215.3,18.491,219.462,18.49,223.575,18.462
			 M224.391,13.457c-0.021,0-0.041,0-0.061,0c-9.915,0.076-19.832-0.016-29.747,0.106c-1.227,0.015-2.718,0.676-3.616,1.532
			c-4.147,3.953-8.127,8.082-12.252,12.232c-3.284-2.698-6.322-5.268-9.461-7.708c-0.436-0.339-1.169-0.576-1.787-0.576
			c-0.205,0-0.396,0.026-0.561,0.083c-5.577,1.922-11.091,4.026-16.662,5.967c-1.595,0.556-2.093,1.392-2.073,3.088
			c0.099,8.415,0.045,16.832,0.044,25.248c0,0.858,0,1.716,0,3.273c-3.585-3.708-6.631-6.856-9.79-10.124
			c-3.179,2.503-6.033,4.75-8.992,7.08c-3.541-4.108-6.989-8.11-10.681-12.394c-2.524,4.538-4.785,8.864-7.305,13.035
			c-1.438,2.38-2.022,4.779-1.939,7.539c0.148,4.936,0.042,9.879,0.042,14.82c-2.208-2.524-4.271-4.973-5.618-7.768
			c-2.06-4.275-4.963-6.561-9.14-6.561c-0.847,0-1.746,0.094-2.701,0.285c-0.362,0.072-0.684,0.107-0.968,0.107
			c-1.657,0-2.078-1.188-2.184-3.127c-0.324-5.968-0.925-11.921-1.449-18.277c-3.879,2.148-7.297,4.402-10.999,5.998
			c-4.303,1.855-6.418,4.725-7.113,9.393c-0.813,5.464-2.43,10.808-3.739,16.381C60.485,71.53,55.56,70.1,50.678,68.53
			c-0.602-0.193-1.158-0.318-1.671-0.318c-0.856,0-1.592,0.347-2.214,1.297c-1.586,2.421-3.604,3.476-5.992,3.476
			c-0.956,0-1.972-0.169-3.043-0.488c-1.263-0.375-2.613-0.475-3.932-0.639c-0.29-0.036-0.617-0.083-0.924-0.083
			c-0.274,0-0.533,0.038-0.735,0.154c-4.596,2.648-9.153,5.365-13.922,8.181c5.39,7.819,10.647,15.444,16.027,23.248
			c-7.917,1.966-15.487,3.827-23.043,5.749c-0.927,0.236-1.989,0.59-2.613,1.247c-1.933,2.031-3.685,4.234-5.584,6.462
			c0.89,0.752,1.637,1.408,2.408,2.032c5.692,4.611,11.347,9.272,17.116,13.785c1.506,1.178,1.609,2.091,0.744,3.713
			c-2.075,3.889-3.788,7.975-5.945,11.814c-1.069,1.902-0.583,2.881,0.841,4.166c4.393,3.959,8.637,8.083,13.026,12.045
			c0.999,0.902,2.275,1.644,3.554,2.063c4.868,1.593,9.788,3.023,14.865,4.568c-4.751,6.842-9.324,13.427-14.102,20.307
			c0.795,0.053,1.256,0.12,1.669,0.12c0.063,0,0.125-0.001,0.187-0.005c6.152-0.342,12.307-0.633,18.448-1.118
			c1.016-0.08,2.148-0.834,2.915-1.592c9-8.911,17.936-17.888,26.908-26.828c0.633-0.631,1.364-1.447,2.155-1.589
			c3.168-0.569,6.485-1.684,9.593-1.684c0.661,0,1.312,0.05,1.95,0.167c6.335,1.159,13.048,1.809,18.402,6.255
			c7.96,6.611,16.871,11.425,26.973,13.972c1.026,0.258,2.188,1.276,2.657,2.246c4.232,8.753,8.343,17.566,12.428,26.391
			c0.435,0.938,0.705,2.067,0.664,3.092c-0.169,4.157-0.512,8.308-0.749,12.463c-0.308,5.377-0.577,10.757-0.845,15.81
			c3.147,1.192,6.357,1.665,8.614,3.388c10.913,8.333,21.579,16.99,32.314,25.554c6.131,4.891,6.186,4.916,5.48,12.801
			c-0.168,1.879,0.474,2.356,2.143,2.771c2.68,0.665,5.818,1.063,7.794,2.726c13.317,11.204,26.375,22.719,39.534,34.111
			c1.058,0.914,2.137,2.09,3.4,2.438c11.115,3.051,22.025,6.991,33.61,8.044c0.054,0.005,0.108,0.007,0.164,0.007
			c0.736,0,1.646-0.414,2.185-0.915c1.881-1.744,3.615-3.646,5.598-5.683c0.354,0.98,0.594,1.574,0.783,2.184
			c2.2,7.057,4.521,14.08,6.529,21.192c0.831,2.946,1.915,5.009,5.027,5.009c0.297,0,0.612-0.019,0.948-0.058
			c0.221-0.025,0.443-0.037,0.668-0.037c1.243,0.001,2.525,0.344,3.786,0.479c6.918,0.737,6.906,0.739,8.59,7.588
			c0.596,2.423,1.261,4.829,2.013,7.692c3.265-3.869,6.146-7.282,9.062-10.736c4.203,2.63,8.257,5.089,12.197,7.717
			c0.573,0.381,0.977,1.637,0.836,2.369c-0.906,4.705-1.986,9.377-3.055,14.266c3.129,0.793,6.057,1.773,9.064,2.236
			c3.609,0.557,6.243,1.86,6.676,5.88c0.029,0.279,0.346,0.528,0.542,0.812c5.687-1.527,11.334-2.92,16.893-4.605
			c0.489-0.148,0.896-0.221,1.246-0.221c1.005,0,1.538,0.602,2.19,1.745c8.957,15.706,16.57,32.028,22.756,49.015
			c0.305,0.838,0.506,1.762,0.516,2.647c0.051,4.666-0.031,9.333,0.057,13.998c0.026,1.419-0.408,2.03-1.802,2.387
			c-3.511,0.899-6.976,1.983-10.651,3.05c1.621,5.395,3.111,10.569,4.755,15.696c0.49,1.53,0.227,2.37-1.171,3.2
			c-2.497,1.485-4.838,3.232-7.309,4.766c-1.148,0.713-1.551,1.537-1.319,2.867c0.427,2.453,0.903,4.919,1.038,7.397
			c0.149,2.76,1.43,4.169,3.996,5.142c4.391,1.66,8.627,3.728,12.975,5.645c1.185-1.85,2.32-3.399,3.226-5.074
			c5.263-9.734,11.917-18.195,21.67-23.824c1.556-0.896,1.796-2.063,1.523-3.699c-0.999-5.983-1.838-11.994-2.876-17.971
			c-0.317-1.825,0.041-2.896,1.781-3.762c3.644-1.815,7.043-4.178,10.787-5.722c6.145-2.534,9.627-7.634,13.506-12.689
			c-4.268-5.704-8.598-11.286-12.686-17.04c-2.178-3.065-4.766-5.398-8.149-7.061c-3.698-1.814-7.224-3.984-10.812-5.992
			c4.071-13.941,8.064-27.616,12.092-41.405c7.027,2.687,13.748,5.333,20.535,7.792c1.139,0.412,2.431,0.57,3.691,0.57
			c0.382,0,0.763-0.015,1.134-0.041c4.795-0.342,9.575-0.89,14.475-1.369c0.419,1.623,0.948,2.965,1.091,4.346
			c0.713,6.953,4.047,11.893,10.368,15.142c3.558,1.829,6.657,4.55,10.13,6.985c0.227-0.623,0.369-0.907,0.436-1.209
			c1.645-7.546,3.341-15.082,4.84-22.656c0.174-0.875-0.511-2.207-1.211-2.922c-6.238-6.368-12.697-12.526-18.822-19
			c-3.071-3.247-6.5-5.54-10.758-6.781c-2.545-0.742-5.071-1.621-7.497-2.686c-2.778-1.222-5.511-2.592-8.128-4.128
			c-3.045-1.789-5.7-4.567-8.946-5.636c-16.78-5.518-33.685-10.662-50.576-15.834c-2.165-0.662-2.913-1.801-3.563-3.954
			c-1.22-4.044-0.536-7.052,2.978-9.402c0.408-0.272,0.725-0.688,1.066-1.052c1.813-1.925,4.713-3.65,5.125-5.842
			c0.415-2.211-1.637-4.888-2.611-7.359c-0.092-0.232-0.143-0.549-0.319-0.665c-0.47-0.308-1.013-0.784-1.495-0.784
			c-0.021,0-0.04,0.001-0.06,0.003c-4.97,0.418-9.979,0.641-14.882,1.483c-8.013,1.377-15.973,3.084-23.909,4.861
			c-0.521,0.117-1.002,0.174-1.456,0.174c-1.146,0-2.128-0.362-3.188-1.029c-10.76-6.781-21.416-13.744-32.388-20.168
			c-5.179-3.033-8.891-6.693-11.085-12.367c-2.842-7.351-6.746-14.298-9.455-21.69c-3.422-9.339-6.05-18.967-9.162-28.424
			c-0.385-1.168-1.441-2.415-2.525-3c-4.605-2.491-9.355-4.713-14.02-7.099c-3.398-1.739-6.963-3.269-10.072-5.438
			c-7.912-5.521-15.631-11.322-23.367-17.091c-0.924-0.689-1.758-1.777-2.152-2.856c-3.163-8.662-6.175-17.378-9.328-26.044
			c-0.526-1.445-0.299-2.423,0.619-3.594c2.826-3.605,5.475-7.35,8.313-10.945c0.886-1.123,0.813-1.928,0.134-3.067
			c-2.98-5.004-5.502-10.333-8.914-15.017c-3.734-5.127-2.267-10.583-2.647-16.021c0.634,0,1.151-0.062,1.6-0.062
			c0.258,0,0.494,0.021,0.717,0.085c2.511,0.725,4.994,1.033,7.458,1.033c4.323,0,8.586-0.95,12.829-2.268
			c0.397-0.124,0.795-0.302,1.201-0.328c7.083-0.453,11.841-3.829,13.787-10.833c0.332-1.2,0.978-1.674,1.876-1.674
			c0.416,0,0.887,0.102,1.405,0.28c1.472,0.505,2.948,0.873,4.438,0.873c1.239,0,2.488-0.254,3.753-0.896
			c0.131-0.066,0.302-0.097,0.493-0.097c0.664,0,1.583,0.359,1.993,0.79c2.052,2.156,3.908,4.497,6.002,6.962
			c2.461-1.23,5.07-2.535,7.859-3.93c-5.434-8.159-10.523-16.065-15.918-23.758c-1.914-2.729-2.723-5.226-1.67-8.455
			c0.74-2.269,1.01-4.694,1.459-7.056c0.615-3.227,1.201-6.459,1.776-9.568c-0.47-0.259-0.606-0.388-0.76-0.411
			c-14.368-2.22-28.744-4.402-43.099-6.706c-1.022-0.164-2.253-1.006-2.789-1.894c-2.403-3.982-4.667-8.056-6.813-12.183
			C226.867,13.959,225.993,13.457,224.391,13.457L224.391,13.457z"/>
	</g>
	<g>
		<path style="fill:#FFFFFF;" d="M430.827,62.336c4.157,2.464,8.351,4.98,12.485,7.468l-1.712,0.86l-6.708,3.37l0.23,9.044
			c0.844,0.372,1.673,0.771,2.474,1.158c1.878,0.906,3.819,1.843,5.989,2.429c2.92,0.787,4.195,2.183,4.876,5.33
			c0.52,2.406,1.415,4.523,2.282,6.57c0.385,0.909,0.753,1.779,1.063,2.621c-4.154,6.722-8.104,12.952-12.064,19.022
			c-1.859,2.852-1.98,5.851-0.357,8.914c2.272,4.289,4.268,8.303,6.1,12.274c0.363,0.785,0.442,1.446,0.423,1.63
			c-0.736,6.976-1.599,14.076-2.433,20.943c-0.213,1.752-0.426,3.504-0.637,5.255c-0.759,6.288-1.527,12.573-2.298,18.859
			l-21.554-6.592l-6.441,4.321c-0.164,1.771-0.336,3.519-0.506,5.25c-0.396,4.023-0.77,7.824-1.033,11.742l-0.021,0.317
			c-0.039,0.586-0.081,1.212-0.127,1.735c-0.585,0.125-1.299,0.259-1.93,0.378c-4.068,0.765-8.141,1.511-12.333,2.278v-12.81
			l-6.543-4.756l-5.678,1.842c0.085-1.439,0.174-2.852,0.276-4.263c0.443-6.146,0.877-11.571,1.325-16.588
			c0.065-0.741,0.251-1.532,0.521-2.228c2.108-5.424,4.392-11.238,6.799-17.003c1.373-3.285,0.746-6.32-1.813-8.777
			c-2.55-2.447-5.01-4.898-7.595-7.477l9.111-8.98l0.655-6.328l-6.914-10.409c-0.411-0.619-0.813-1.245-1.216-1.871
			c-2.493-3.878-5.282-8.218-10.102-11.076c-0.472-6.664-0.923-13.396-1.36-20.04c0.067,0.042,0.135,0.083,0.202,0.125
			c2.346,1.448,4.563,2.816,6.732,4.289c1.475,1.001,3.009,1.508,4.561,1.508c2.44,0,4.262-1.281,4.862-1.703
			c7.648-5.382,15.064-10.489,23.967-16.606c0.233-0.161,0.382-0.25,0.47-0.298C419.637,63.489,424.87,62.923,430.827,62.336
			 M431.135,57.297c-0.096,0-0.189,0.004-0.281,0.013c-5.627,0.551-11.25,1.144-16.863,1.823c-0.848,0.103-1.707,0.608-2.436,1.109
			c-8.025,5.515-16.049,11.034-24.012,16.638c-0.725,0.51-1.345,0.792-1.984,0.792c-0.544,0-1.103-0.204-1.752-0.645
			c-3.094-2.1-6.313-4.017-9.486-6c-1.801-1.126-3.61-2.238-5.555-3.441c-0.145,0.603-0.26,0.833-0.245,1.055
			c0.658,10.051,1.315,20.102,2.032,30.149c0.039,0.555,0.461,1.354,0.924,1.567c5.414,2.504,8.031,7.526,11.1,12.147
			c2.239,3.373,4.479,6.745,6.914,10.41c-4.281,4.22-8.418,8.297-12.704,12.522c3.773,3.746,7.455,7.476,11.234,11.104
			c1.067,1.024,1.243,1.854,0.663,3.242c-2.368,5.67-4.619,11.391-6.846,17.12c-0.442,1.138-0.733,2.379-0.842,3.596
			c-0.496,5.553-0.931,11.111-1.332,16.672c-0.271,3.759-0.453,7.524-0.695,11.634c4.371-1.418,8.289-2.69,12.627-4.097
			c0,6.439,0,12.524,0,18.81c6.337-1.166,12.301-2.245,18.258-3.365c5.852-1.102,5.746-1.127,6.142-7.009
			c0.374-5.548,0.994-11.08,1.529-16.867c9.188,2.811,18.116,5.541,27.157,8.306c0.131-0.677,0.232-1.072,0.281-1.473
			c0.951-7.76,1.903-15.52,2.84-23.282c1.055-8.754,2.152-17.504,3.078-26.272c0.146-1.38-0.262-2.964-0.855-4.25
			c-1.952-4.23-4.04-8.402-6.222-12.519c-0.754-1.423-0.78-2.449,0.128-3.842c4.274-6.554,8.456-13.17,12.564-19.83
			c0.459-0.743,0.568-2.007,0.288-2.845c-1.053-3.143-2.743-6.121-3.435-9.325c-1.057-4.886-3.625-7.798-8.461-9.103
			c-2.536-0.684-4.882-2.072-7.752-3.335c5.71-2.869,10.875-5.463,16.251-8.164c-0.515-0.473-0.718-0.733-0.981-0.893
			c-6.479-3.904-12.953-7.812-19.461-11.666C432.435,57.478,431.751,57.297,431.135,57.297L431.135,57.297z"/>
	</g>
	<g>
		<path style="fill:#FFFFFF;" d="M293.319,401.438c-1.786,5.471-3.499,10.674-5.396,15.835c-3.148,8.561-4.043,15.497-2.898,22.494
			c0.537,3.278,0.953,6.687,1.355,9.982c0.479,3.933,0.976,8,1.692,12.029c0.513,2.879,1.42,5.535,2.297,8.104
			c0.25,0.732,0.492,1.444,0.721,2.145c-0.168,0.084-0.339,0.169-0.512,0.255c-2.28,1.135-5.117,2.548-6.838,5.307
			c-1.528,2.45-1.636,5.229-1.546,7.659l-0.783,0.001c-2.675,0.005-5.35,0.01-8.024,0.01c-5.448,0-9.694-0.021-13.681-0.067
			c-2.434-2.629-4.88-5.342-7.249-7.967c-2.506-2.778-5.097-5.65-7.697-8.452c-1.629-1.755-4.063-2.973-6.355-3.177
			c-4.324-0.384-8.706-0.7-12.944-1.008c-2.953-0.214-6.007-0.435-8.981-0.674c-0.075-0.011-0.365-0.091-0.799-0.327l-2.662-1.451
			c-10.164-5.544-20.674-11.276-30.939-17.014c-2.18-1.219-5.572-2.839-9.842-2.84c-0.386,0-0.778,0.014-1.169,0.039
			c-1.252,0.083-2.563,0.124-4.009,0.124c-1.385,0-2.88-0.037-4.667-0.116c-3.125-3.911-6.155-7.831-9.354-11.97
			c-0.279-0.36-0.559-0.723-0.839-1.085l5.379-7.179l6.533-8.719l5.611,5.676l6.803,0.286c1.281-1.094,2.518-2.146,3.722-3.17
			c2.772-2.358,5.407-4.599,7.991-6.855c2.826,1.228,5.685,2.407,8.459,3.553c2.951,1.218,6.001,2.477,8.949,3.769
			c1.88,0.824,3.727,1.225,5.647,1.225c1.462,0,2.941-0.233,4.52-0.715c6.44-1.961,13.532-3.983,21.673-6.178
			c0.019,0.003,0.038,0.008,0.054,0.012c2.786,1.463,5.519,3.028,8.411,4.686c1.092,0.625,2.194,1.257,3.316,1.892l6.199-1.026
			c1.146-1.287,2.292-2.568,3.436-3.847c2.484-2.775,5.054-5.646,7.548-8.509l0.123-0.142c0.591-0.678,1.229-1.41,1.736-1.956
			c0.681,0.411,1.513,0.959,2.057,1.317c2.592,1.708,5.118,2.538,7.721,2.538c1.705,0,3.431-0.349,5.275-1.065
			C286.607,403.606,289.893,402.528,293.319,401.438 M301.077,393.843c-1.109,0.288-1.729,0.415-2.327,0.611
			c-5.746,1.884-11.57,3.565-17.197,5.752c-1.252,0.486-2.383,0.726-3.465,0.726c-1.684,0-3.25-0.58-4.97-1.713
			c-2.583-1.701-4.023-2.602-5.241-2.602c-1.498,0-2.66,1.362-5.195,4.271c-3.598,4.129-7.274,8.188-10.949,12.316
			c-4.105-2.325-7.963-4.606-11.927-6.686c-0.671-0.352-1.559-0.561-2.387-0.561c-0.362,0-0.712,0.04-1.028,0.125
			c-7.374,1.986-14.728,4.053-22.033,6.277c-1.067,0.325-2.072,0.498-3.063,0.498c-1.204,0-2.388-0.255-3.639-0.804
			c-6.083-2.667-12.285-5.065-18.365-7.74c-0.59-0.26-1.088-0.393-1.547-0.393c-0.68,0-1.273,0.291-1.954,0.89
			c-3.934,3.456-7.944,6.824-12.51,10.725c-3.262-3.299-6.447-6.521-9.689-9.801c-5.825,7.773-11.746,15.675-17.675,23.588
			c4.434,5.715,8.676,11.266,13.043,16.715c0.566,0.707,1.766,1.217,2.699,1.262c1.797,0.084,3.601,0.145,5.402,0.145
			c1.45,0,2.898-0.039,4.34-0.135c0.283-0.019,0.562-0.028,0.837-0.028c2.694,0.001,5.028,0.877,7.402,2.204
			c11.171,6.243,22.412,12.361,33.646,18.49c0.846,0.461,1.829,0.844,2.775,0.92c7.298,0.587,14.609,1.033,21.901,1.68
			c1.095,0.098,2.374,0.781,3.132,1.598c5.097,5.492,10.041,11.127,15.135,16.623c0.693,0.748,1.941,1.376,2.941,1.389
			c4.739,0.059,9.477,0.073,14.215,0.073c4.094,0,8.188-0.011,12.281-0.017c0.477,0,0.951-0.146,1.403-0.222
			c0.106-0.353,0.228-0.582,0.239-0.817c0.142-3.045-0.732-6.717,0.672-8.969c1.49-2.389,5.19-3.354,7.803-5.121
			c0.551-0.372,0.954-1.637,0.768-2.309c-1.109-3.991-2.837-7.854-3.558-11.902c-1.293-7.265-1.843-14.658-3.036-21.944
			c-1.143-6.985,0.262-13.449,2.656-19.96C295.6,410.883,298.152,402.607,301.077,393.843L301.077,393.843z"/>
	</g>
	<g>
		<path style="fill:#FFFFFF;" d="M103.157,277.924l1.557,0.69l5.773,2.56c-0.302,0.719-0.604,1.432-0.907,2.144
			c-0.609,1.429-1.217,2.857-1.824,4.287c-1.919,4.521-3.905,9.195-5.933,13.733c-1.386,3.101-0.999,6.028,1.151,8.703
			c1.899,2.362,3.801,4.817,5.64,7.191c1.556,2.009,3.161,4.081,4.781,6.12c-1.158,3.674-2.32,7.347-3.482,11.02
			c-4.734,14.965-9.63,30.438-14.128,45.777c-1.062,3.62-0.709,7.338-0.399,10.618c0.096,1.015,0.187,1.973,0.234,2.885
			c0.147,2.841,0.375,5.69,0.595,8.446c0.162,2.03,0.33,4.124,0.461,6.181c-0.007,0.013-0.015,0.026-0.023,0.04
			c-0.769,1.306-1.532,2.616-2.295,3.926c-2.434,4.18-4.951,8.501-7.615,12.544c-0.766,1.162-1.855,2.315-3.041,3.516
			c-1.783-1.116-3.494-2.181-5.28-3.23l-1.995-1.172c-6.439-3.783-13.092-7.692-19.747-11.418c0.091-3.547,0.142-7.028-0.073-10.517
			c-0.154-2.493-1.444-5.198-3.288-6.893c-1.216-1.116-2.448-2.182-3.708-3.241l0.761-0.33l4.451-1.932l1.521-8.146l-5.302-5.231
			l5.529-4.513l0.099-7.665l-9.316-8.016l8.074-9.493l0.05-6.419l-5.547-6.731c1.077-0.544,2.131-1.045,3.181-1.472
			c4.093-1.663,5.834-4.888,5.176-9.585c-0.438-3.131-0.764-6.244-1.104-9.528c0.671-0.147,1.338-0.293,1.998-0.437
			c4.662-1.017,9.483-2.067,14.159-3.497c6.275-1.92,12.441-4.272,18.404-6.547c1.448-0.553,2.895-1.104,4.349-1.652
			c3.442-1.302,4.252-5.192,4.38-5.958c0.884-5.314,1.732-10.713,2.553-15.935C103.071,278.473,103.114,278.198,103.157,277.924
			 M99.387,270.783c-0.177,0.581-0.303,0.869-0.351,1.171c-1.157,7.304-2.28,14.612-3.494,21.906
			c-0.127,0.767-0.62,1.877-1.216,2.103c-7.444,2.806-14.849,5.77-22.447,8.095c-6.488,1.984-13.213,3.194-20.133,4.817
			c0.521,4.759,0.938,9.455,1.592,14.119c0.288,2.056,0.104,3.361-2.106,4.26c-3.044,1.238-5.91,2.914-9.084,4.518
			c3.278,3.979,6.369,7.729,9.474,11.497c-3.854,4.532-7.547,8.874-11.295,13.28c4.477,3.853,8.697,7.484,13.085,11.259
			c-3.194,2.606-6.242,5.095-9.844,8.035c3.257,3.214,6.25,6.167,9.267,9.143c-4,1.736-8.15,3.538-12.696,5.511
			c3.499,2.914,6.759,5.47,9.802,8.263c0.9,0.827,1.603,2.297,1.678,3.517c0.22,3.568,0.144,7.162,0.048,10.742
			c-0.045,1.672,0.42,2.627,2.007,3.513c7.469,4.171,14.839,8.522,22.217,12.855c2.841,1.669,5.61,3.457,8.583,5.296
			c2.26-2.459,4.736-4.548,6.445-7.142c3.568-5.415,6.747-11.089,10.042-16.683c0.4-0.679,0.79-1.532,0.744-2.278
			c-0.308-5.065-0.829-10.12-1.092-15.187c-0.205-3.954-1.096-8.203-0.03-11.836c5.629-19.195,11.769-38.241,17.777-57.324
			c0.447-1.422,0.193-2.432-0.719-3.574c-3.631-4.551-7.123-9.213-10.771-13.75c-0.956-1.189-1.123-2.1-0.483-3.529
			c2.68-5.996,5.213-12.058,7.791-18.099c0.931-2.181,1.838-4.371,2.813-6.692C111,275.932,105.266,273.39,99.387,270.783
			L99.387,270.783z"/>
	</g>
</g>
<g id="Layer_1">
</g>
</svg>
