<?xml version="1.0" encoding="iso-8859-1"?>
<!-- Generator: Adobe Illustrator 16.0.0, SVG Export Plug-In . SVG Version: 6.00 Build 0)  -->
<!DOCTYPE svg PUBLIC "-//W3C//DTD SVG 1.1//EN" "http://www.w3.org/Graphics/SVG/1.1/DTD/svg11.dtd">
<svg version="1.1" xmlns="http://www.w3.org/2000/svg" xmlns:xlink="http://www.w3.org/1999/xlink" x="0px" y="0px" width="512px"
	 height="512px" viewBox="0 0 512 512" style="enable-background:new 0 0 512 512;" xml:space="preserve">
<g id="latvia">
	
		<path style="fill-rule:evenodd;clip-rule:evenodd;fill:none;stroke:#FFFFFF;stroke-width:7;stroke-linecap:square;stroke-linejoin:round;stroke-miterlimit:10;" d="
		M413.717,341.258c-26.26-16.757-51.897-33.077-77.477-49.486c-3.358-2.153-6.506-3.463-10.682-2.232
		c-3.793,1.117-7.843,1.445-11.805,1.888c-6.249,0.698-12.321,1.568-15.368,9.941c-6.038-11.963-11.432-22.65-16.915-33.515
		c-4.908,1.807-9.673,3.294-14.166,5.369c-1.474,0.68-2.706,2.735-3.25,4.421c-1.817,5.631-3.274,11.38-4.966,17.433
		c-4.529-2.377-8.446-4.432-12.123-6.361c-0.545,0.241-0.77,0.266-0.838,0.383c-4.98,8.522-13.485,8.61-21.716,8.706
		c-17.127,0.198-34.265,0.28-51.385-0.146c-4.793-0.119-7.066,1.175-7.848,5.731c-0.273,1.597-1.054,3.104-1.787,5.173
		c-7.383-3.175-14.505-6.239-21.568-9.277c-0.355,0.384-0.651,0.573-0.761,0.84c-4.118,10.034-4.101,9.784-14.779,9.173
		c-17.445-1-34.911-1.635-53.222-2.462c1.96,3.232,3.604,5.942,5.486,9.045c-8.504,5.537-16.99,10.738-25.126,16.44
		c-9.803,6.872-18.443,14.765-19.435,27.884c-0.062,0.813-0.319,1.615-0.514,2.415c-0.033,0.137-0.21,0.238-0.854,0.924
		c-3.87-4.191-7.52-8.583-11.633-12.485c-4.778-4.535-7.74-9.596-7.708-16.386c0.075-16.28-0.661-32.592,0.174-48.828
		c0.364-7.093,3.711-14.049,5.872-21.016c0.295-0.951,1.465-1.771,2.413-2.353c2.123-1.299,4.367-2.399,6.552-3.598
		c8.016-4.4,11.65-13.034,7.19-21.061c-7.834-14.101-7.924-27.963-4.184-43.413c2.476-10.227,6.09-17.672,15.556-22.148
		c2.836-1.342,5.274-3.538,8.123-4.841c10.11-4.625,19.016-10.829,26.636-18.957c1.086-1.158,3.142-1.407,5.719-2.481
		c0.516-1.355,1.512-3.968,3.059-8.029c2.292,2.998,4.672,4.94,5.506,7.405c3.361,9.933,9.464,17.78,17.311,24.443
		c1.077,0.915,2.404,2.09,3.663,2.149c14.22,0.663,22.031,8.927,26.287,21.644c2.002,5.981,3.963,11.992,6.374,17.81
		c0.655,1.58,2.693,3.119,4.411,3.639c11.06,3.349,22.42,4.813,33.951,3.817c3.287-0.283,6.625-1.493,9.662-2.887
		c14.688-6.735,19.867-21.37,25.431-34.399c3.301-7.729,0.938-18.122-3.444-26.52c-3.292-6.311-7.396-12.205-10.575-18.566
		c-3.381-6.766-7.055-13.644-8.712-20.904c-0.87-3.81,2.251-8.561,3.734-12.828c0.137-0.395,1.486-0.58,2.244-0.517
		c9.728,0.817,16.425-3.896,20.755-12.022c6.256-11.739,17.191-14.628,28.968-17.316c9.337-2.13,16.877,1.29,23.945,5.62
		c7.639,4.68,14.737,5.158,22.377,1.212c3.618-1.869,5.413-0.607,7.584,2.538c8.484,12.292,18.211,23.288,32.721,28.861
		c8.643,3.32,16.1,1.392,20.795-6.408c2.621-4.353,5.664-6.555,10.779-5.593c6.987,1.314,14.055,2.265,20.972,3.868
		c4.612,1.069,9.036,2.022,13.471-0.235c2.626-1.337,4.56-0.921,5.357,2.039c3.093,11.47,10.428,15.506,22.023,13.636
		c2.946-0.476,6.325,1.546,9.461,2.559c0.671,0.217,1.408,0.926,1.675,1.585c1.615,3.99-1.211,14.187-4.626,17.139
		c-1.245,1.076-2.443,2.208-3.985,3.607c1.438,1.226,2.511,2.54,3.894,3.25c7.465,3.833,7.219,10.329,6.023,17.107
		c-0.746,4.234-1.771,8.418-2.828,13.365c3.185-0.58,5.857-1.106,8.544-1.543c2.278-0.371,4.639-1.144,6.849-0.856
		c6.107,0.793,8.039,3.084,7.674,9.559c-0.238,4.218,1.08,7.373,4.035,10.163c2.78,2.625,5.325,5.502,8.144,8.083
		c3.621,3.315,6.058,7.02,7.484,11.942c1.923,6.636,6.095,12.671,7.648,19.349c1.667,7.162,1.583,14.765,1.833,22.188
		c0.041,1.196-1.955,2.827-3.365,3.639c-5.332,3.065-11.123,5.558-12.871,12.322c-0.61,2.364-1.372,4.72-1.662,7.128
		c-0.834,6.925-1.437,13.878-2.186,20.814c-0.277,2.563-1.266,4.389-4.396,4.156c-1.281-0.095-2.639,0.75-3.911,0.632
		c-7.134-0.663-11.134,2.792-12.834,9.426c-0.763,2.978-2.938,3.64-5.332,2.646c-8.189-3.395-12.822-0.068-17.937,6.654
		C428.081,330.219,420.458,335.266,413.717,341.258z"/>
</g>
<g id="Layer_1">
</g>
</svg>
