<?xml version="1.0" encoding="iso-8859-1"?>
<!-- Generator: Adobe Illustrator 16.0.0, SVG Export Plug-In . SVG Version: 6.00 Build 0)  -->
<!DOCTYPE svg PUBLIC "-//W3C//DTD SVG 1.1//EN" "http://www.w3.org/Graphics/SVG/1.1/DTD/svg11.dtd">
<svg version="1.1" xmlns="http://www.w3.org/2000/svg" xmlns:xlink="http://www.w3.org/1999/xlink" x="0px" y="0px" width="512px"
	 height="512px" viewBox="0 0 512 512" style="enable-background:new 0 0 512 512;" xml:space="preserve">
<g id="lithuania">
	<g>
		<path style="fill:#FFFFFF;" d="M302.828,102.465l16.593,33.009c0.661,1.314,1.989,2.16,3.459,2.202
			c0.039,0.001,0.077,0.001,0.115,0.001c1.427,0,2.749-0.761,3.465-2.001c3.617-6.27,8.711-7.077,16.723-7.875
			c3.452-0.344,7.021-0.699,10.487-1.813c1.168-0.375,2.264-0.558,3.35-0.558c2.571,0,5.21,1.049,8.824,3.508
			c18.82,12.803,37.686,25.337,56.073,37.255c4.297,2.785,8.788,5.311,13.131,7.753c3.635,2.043,7.393,4.157,10.944,6.375
			c1.238,0.774,2.389,2.389,2.553,3.263c1.657,8.839,3.081,18.342,4.231,28.244c0.595,5.123,2.427,11.061,11.394,11.514
			c3.769,0.191,7.619,0.982,11.696,1.82c0.658,0.135,1.325,0.272,2,0.408c-0.114,0.773-0.229,1.544-0.342,2.313
			c-0.961,6.519-1.871,12.696-2.943,18.903c-0.036,0.017-0.07,0.031-0.1,0.041c-3.787,0.553-7.67,1.036-11.426,1.503
			c-4.012,0.499-8.159,1.014-12.248,1.622c-0.316,0.047-0.744,0.072-1.197,0.099c-2.308,0.136-7.713,0.456-8.874,6.795
			c-3.439,18.799-16.918,30.402-31.188,42.688c-1.056,0.909-2.081,1.827-3.072,2.715c-0.426,0.382-0.846,0.758-1.259,1.125
			c-1.339,1.19-1.724,3.125-0.941,4.736c0.075,0.154,0.125,0.286,0.168,0.395c0.219,0.553,0.676,1.704,1.9,2.488
			c8.102,5.21,12.893,13.331,15.534,26.33c0.241,1.188,0.184,2.611-0.148,3.626c-1.743,5.344-3.629,10.65-5.626,16.269
			c-0.745,2.097-1.504,4.232-2.274,6.423c-0.704,2.002,0.278,4.206,2.237,5.021l18.221,7.578l2.813,1.171l-14.273,14.494
			c-0.18-0.239-0.359-0.479-0.54-0.718c-2.659-3.533-5.41-7.188-7.962-10.87c-2.092-3.019-4.765-4.549-7.944-4.549
			c-0.979-0.001-1.996,0.141-3.105,0.431c-3.142,0.821-6.312,1.481-9.667,2.18c-1.446,0.301-2.902,0.604-4.373,0.925
			c-1.65,0.358-2.897,1.716-3.116,3.391c-0.231,1.777-0.475,3.544-0.717,5.302c-0.57,4.146-1.161,8.435-1.571,12.688
			c-0.032,0.33-0.07,0.592-0.108,0.798c-0.061-0.015-0.125-0.032-0.195-0.052c-0.673-0.189-1.292-0.259-1.744-0.31
			c-0.181-0.021-0.386-0.043-0.478-0.063c-1.336-0.286-2.523-0.425-3.63-0.426c-3.626,0-8.297,1.559-9.953,8.984
			c-0.723,3.231-1.865,6.398-3.075,9.751c-0.873,2.419-1.775,4.92-2.521,7.481c-0.151,0.522-0.283,0.848-0.376,1.042
			c-0.07-0.008-0.154-0.02-0.252-0.037c-0.277-0.051-0.555-0.075-0.847-0.075c-0.046,0-0.092,0.001-0.14,0.002
			c-2.833-0.348-5.697-0.524-8.518-0.524c-13.613-0.001-27.104,3.969-42.455,12.492c-9.406,5.222-19.979,9.046-30.204,12.745
			c-1.999,0.724-3.997,1.445-5.979,2.176c-0.001,0-0.087,0.025-0.295,0.025c-1.045,0-2.733-0.563-4.225-1.059
			c-0.631-0.209-1.25-0.415-1.844-0.593c-2.701-0.809-5.751-1.723-6.489-2.317c-0.193-0.894,0.311-3.861,0.798-6.733l0.019-0.114
			c0.459-2.702,0.837-5.409,1.236-8.275c0.188-1.352,0.384-2.748,0.596-4.21c0.153-1.051-0.118-2.118-0.753-2.969
			c-0.636-0.851-1.583-1.414-2.634-1.565c-2.807-0.405-5.589-0.819-8.355-1.23c-6.537-0.973-13.296-1.978-19.942-2.792
			c-3.932-0.481-6.223-1.57-8.171-3.884c-3.647-4.329-7.459-8.442-11.495-12.798c-1.714-1.85-3.466-3.74-5.257-5.703
			c-0.765-0.84-1.842-1.305-2.955-1.305c-0.25,0-0.502,0.023-0.753,0.071c-1.367,0.262-2.499,1.215-2.99,2.517l-2.656,7.039
			c-3.789-5.301-7.384-10.337-10.872-15.429c0.01-0.267,0.042-0.63,0.067-0.898c0.03-0.329,0.058-0.652,0.075-0.957
			c0.061-1.088,0.173-2.188,0.292-3.354c0.211-2.068,0.429-4.208,0.366-6.436l-0.001-0.054c-0.358-12.654-0.696-24.607,7.085-35.395
			c0.761-1.055,0.961-2.415,0.537-3.646c-0.424-1.229-1.421-2.177-2.671-2.537c-1.647-0.476-3.205-0.958-4.712-1.424
			c-3.339-1.033-6.493-2.009-9.762-2.64c-0.837-0.161-1.302-0.346-1.536-0.463c0.023-0.163,0.079-0.414,0.203-0.77
			c1.292-3.703,1.221-6.896-0.212-9.49c-1.453-2.629-4.199-4.424-8.165-5.334c-0.128-0.029-0.206-0.051-0.25-0.064
			c-4.019-2.534-7.834-3.767-11.661-3.767c-4.919-0.001-9.68,1.995-14.984,6.28c-3.004,2.427-8.518,3.775-16.388,4.01
			c-0.664,0.02-1.327,0.029-1.987,0.029c-17.13,0-33.454-6.654-48.543-13.846c-5.114-2.437-14.307-8.114-18.417-18.76
			c-4.511-11.687-9.566-23.479-15.022-35.047c-3.308-7.014-4.446-14.504-5.652-22.436c-0.546-3.595-1.111-7.313-1.896-10.983
			c-0.146-0.687-0.226-1.488-0.31-2.335c-0.154-1.558-0.329-3.322-0.99-5.089c-3.531-9.428,0.489-18.528,4.376-27.329l0.319-0.724
			c2.823-6.401,9.51-11.901,16.698-17.438c5.834-4.493,12.162-8.256,18.862-12.24c2.866-1.705,5.829-3.467,8.742-5.287
			c0.961-0.601,1.623-1.581,1.82-2.698s-0.09-2.265-0.788-3.158l-2.85-3.647c2.035,0.082,4.068,0.164,6.103,0.246
			c17.58,0.708,35.758,1.44,53.616,2.35c0.472,0.024,0.902,0.036,1.317,0.036c1.921,0,7.768,0,10.399-6.828
			c0.371-0.963,0.923-1.948,1.572-3.036l9.775,5.098l7.891,4.115c0.591,0.308,1.223,0.454,1.846,0.454
			c1.424,0,2.801-0.762,3.523-2.101c0.229-0.423,0.5-0.865,0.789-1.332c0.754-1.222,1.609-2.608,2.063-4.305
			c0.841-3.143,2.026-4.003,5.515-4.003c0.668,0,1.413,0.037,2.279,0.113c8.201,0.721,16.674,1.087,25.183,1.087
			c13.715,0,28.163-0.955,42.943-2.838c4.687-0.597,7.778-2.511,10.02-6.205c0.673-1.108,1.477-2.226,2.335-3.394l10.881,5.24
			c0.548,0.264,1.141,0.396,1.735,0.396c0.539,0,1.079-0.109,1.586-0.328c1.064-0.459,1.877-1.359,2.228-2.464
			c0.562-1.773,1.09-3.533,1.602-5.234c1.237-4.117,2.406-8.005,3.912-11.717c0.575-1.418,2.044-3.045,3.345-3.705
			c3.09-1.566,6.466-2.799,10.039-4.104C301.913,102.8,302.369,102.634,302.828,102.465 M304.788,97.458
			c-5.395,2.086-10.486,3.667-15.174,6.043c-2.195,1.112-4.313,3.476-5.243,5.77c-2.224,5.48-3.723,11.256-5.62,17.246
			c-4.873-2.347-9.302-4.48-13.883-6.686c-1.649,2.318-3.207,4.258-4.487,6.366c-1.657,2.73-3.719,3.882-7.106,4.314
			c-14.13,1.8-28.275,2.806-42.438,2.806c-8.272,0-16.55-0.343-24.833-1.071c-0.92-0.081-1.797-0.128-2.629-0.128
			c-4.661,0-7.913,1.492-9.379,6.969c-0.444,1.66-1.62,3.125-2.508,4.771c-7.096-3.701-13.948-7.274-21.022-10.963
			c-1.437,2.559-2.918,4.61-3.798,6.895c-1.31,3.399-3.476,4.266-6.667,4.266c-0.358,0-0.73-0.011-1.114-0.03
			c-21.603-1.102-43.221-1.924-64.835-2.804c-0.044-0.002-0.087-0.002-0.131-0.002c-0.837,0-1.703,0.308-2.907,0.524
			c2.741,3.508,5.167,6.613,7.651,9.791c-9.497,5.934-19.285,11.096-27.925,17.75c-6.887,5.304-14.59,11.45-17.917,18.992
			c-4.12,9.342-8.993,19.826-4.782,31.07c0.797,2.128,0.65,4.59,1.134,6.857c2.449,11.46,2.686,23.357,7.842,34.29
			c5.379,11.404,10.368,23.019,14.909,34.781c3.883,10.058,11.997,16.913,20.427,20.931c15.741,7.501,32.339,14.234,50.264,14.234
			c0.699,0,1.402-0.011,2.105-0.031c6.407-0.19,14.162-1.163,18.783-4.896c4.369-3.529,8.361-5.392,12.47-5.392
			c3.073,0,6.212,1.043,9.621,3.209c0.411,0.261,0.915,0.411,1.396,0.521c5.312,1.219,7.413,4.107,5.494,9.607
			c-1.319,3.781,0.352,5.705,4.351,6.478c4.463,0.861,8.788,2.438,14.124,3.979c-8.586,11.902-8.207,24.884-7.838,37.901
			c0.089,3.142-0.477,6.299-0.652,9.454c-0.072,1.298-0.4,2.945,0.226,3.862c4.928,7.213,10.058,14.288,15.596,22.065
			c1.933-5.123,3.513-9.311,5.3-14.048c5.974,6.549,11.518,12.292,16.648,18.383c2.929,3.477,6.441,4.75,10.745,5.277
			c9.336,1.144,18.631,2.628,28.213,4.011c-0.663,4.562-1.155,8.49-1.817,12.392c-1.784,10.516-1.834,10.58,8.469,13.666
			c2.294,0.687,4.98,1.819,7.216,1.819c0.594,0,1.155-0.08,1.67-0.27c12.442-4.581,25.228-8.784,36.749-15.18
			c12.983-7.208,26.128-11.99,40.514-11.989c2.716,0,5.479,0.171,8.29,0.527c0.033,0.004,0.067,0.006,0.101,0.006
			c0.089,0,0.179-0.011,0.267-0.011c0.044,0,0.089,0.003,0.132,0.011c0.427,0.077,0.819,0.114,1.18,0.114
			c2.247,0,3.282-1.456,4.004-3.937c1.71-5.88,4.329-11.53,5.658-17.479c0.949-4.253,2.942-5.856,6.05-5.856
			c0.848,0.001,1.778,0.12,2.792,0.337c0.65,0.14,1.337,0.131,1.974,0.311c0.737,0.208,1.379,0.309,1.938,0.309
			c2.273,0,3.158-1.669,3.434-4.521c0.572-5.928,1.486-11.823,2.273-17.855c4.857-1.057,9.572-1.933,14.201-3.143
			c0.761-0.199,1.453-0.302,2.093-0.302c1.891,0.001,3.317,0.895,4.657,2.828c3.665,5.289,7.623,10.374,11.376,15.431
			c7.403-7.518,14.474-14.697,21.696-22.032c-8.598-3.576-17.52-7.288-26.507-11.025c2.837-8.066,5.516-15.379,7.93-22.777
			c0.569-1.742,0.633-3.855,0.266-5.663c-2.364-11.633-6.752-22.121-17.29-28.898c-0.233-0.149-0.295-0.566-0.634-1.265
			c1.369-1.217,2.808-2.528,4.283-3.799c14.419-12.414,28.824-24.841,32.513-45c0.738-4.03,4.18-3.278,6.726-3.657
			c7.894-1.173,15.843-1.979,23.739-3.135c1.194-0.175,3.039-1.317,3.204-2.254c1.507-8.584,2.708-17.221,4.047-26.159
			c-6.288-1.109-12.119-2.716-18.015-3.015c-5.671-0.287-7.054-3.082-7.622-7.98c-1.109-9.547-2.503-19.076-4.273-28.52
			c-0.413-2.202-2.398-4.689-4.364-5.917c-7.871-4.916-16.238-9.049-24.02-14.093c-18.806-12.189-37.471-24.602-55.999-37.206
			c-3.622-2.465-7.114-4.201-11.074-4.201c-1.452,0-2.967,0.233-4.573,0.75c-9.994,3.213-22.493-0.564-29.451,11.497
			C316.695,121.144,310.751,109.319,304.788,97.458L304.788,97.458z"/>
	</g>
</g>
<g id="Layer_1">
</g>
</svg>
