<?xml version="1.0" encoding="iso-8859-1"?>
<!-- Generator: Adobe Illustrator 16.0.0, SVG Export Plug-In . SVG Version: 6.00 Build 0)  -->
<!DOCTYPE svg PUBLIC "-//W3C//DTD SVG 1.1//EN" "http://www.w3.org/Graphics/SVG/1.1/DTD/svg11.dtd">
<svg version="1.1" xmlns="http://www.w3.org/2000/svg" xmlns:xlink="http://www.w3.org/1999/xlink" x="0px" y="0px" width="512px"
	 height="512px" viewBox="0 0 512 512" style="enable-background:new 0 0 512 512;" xml:space="preserve">
<g id="netherlands">
	<g>
		<path style="fill:#FFFFFF;" d="M433.234,28.562c0.44,0,0.855,0,1.952,1.959c7.492,13.398,13.761,24.24,19.727,34.122
			c1.648,2.729,4.827,5.162,8.097,6.197c5.64,1.788,11.458,3.328,17.085,4.817c0.867,0.229,1.737,0.46,2.609,0.692
			c-0.073,0.226-0.146,0.451-0.219,0.675c-1.029,3.177-2.002,6.178-2.618,9.343c-2.754,14.135-10.353,25.672-18.397,37.887
			c-2.396,3.636-4.871,7.396-7.187,11.201c-1.99,3.27-3.148,7.179-3.178,10.723c-0.07,8.268,0.183,17.221,0.796,28.172
			c0.05,0.895-0.033,1.279-0.07,1.4c-0.101,0.07-0.425,0.262-1.22,0.481c-6.511,1.801-12.861,3.731-19.584,5.775
			c-2.673,0.813-5.378,1.635-8.129,2.459c-1.1,0.33-2.005,1.116-2.485,2.159c-0.479,1.043-0.488,2.242-0.023,3.292
			c0.703,1.589,1.415,3.148,2.12,4.691c1.662,3.638,3.231,7.075,4.547,10.594c0.87,2.33,1.314,4.851,1.25,7.097
			c-0.609,21.161-1.311,39.883-2.145,57.237c-0.095,1.959-0.917,4.327-2.095,6.033c-8.466,12.256-17.026,24.211-25.442,35.535
			c-0.718,0.966-2.457,1.976-3.722,2.16c-18.068,2.633-36.473,5.145-54.271,7.574c-5.561,0.759-11.121,1.518-16.683,2.281
			c-0.616,0.085-1.165,0.218-1.648,0.335c-0.181,0.043-0.363,0.088-0.551,0.129c-1.701,0.37-2.967,1.797-3.132,3.529
			c-0.14,1.476-0.272,2.936-0.404,4.384c-0.3,3.293-0.583,6.402-0.936,9.547c-0.572,5.094,0.855,9.339,4.492,13.356
			c10.778,11.918,21.014,23.984,30.472,35.253c0.162,0.349,0.259,1.172,0.178,1.532c-9.477,22.702-19.323,45.856-30.098,70.777
			c-0.174,0.379-0.918,1.053-1.261,1.17c-5.09,1.089-10.237,1.943-15.687,2.848c-0.697,0.116-1.398,0.232-2.104,0.35
			c-0.098-0.733-0.195-1.464-0.292-2.192c-0.766-5.743-1.488-11.167-2.465-16.687c-0.511-2.879-2.526-5.899-5.015-7.517
			c-8.82-5.734-16.174-10.226-23.145-14.134c-3.084-1.729-6.682-2.27-10.108-2.597c-9.815-0.94-19.394-1.681-28.47-2.202
			c-0.543-0.031-0.832-0.095-0.964-0.135c-0.066-0.132-0.189-0.432-0.326-1.027c-2.485-10.863-5.168-21.603-7.978-31.921
			c-0.792-2.913-3.049-5.921-5.614-7.484c-3.157-1.922-6.518-3.541-9.768-5.106c-1.303-0.628-2.651-1.277-3.98-1.943
			c-0.573-0.286-1.185-0.424-1.789-0.424c-1.34,0-2.642,0.676-3.396,1.883l-2.917,4.671l-2.108,3.376l-9.092-7.195
			c-0.713-0.564-1.59-0.863-2.482-0.863c-0.296,0-0.595,0.033-0.889,0.101c-1.182,0.269-2.177,1.06-2.708,2.149l-4.218,8.67
			c-0.037-0.031-0.073-0.063-0.11-0.094c-3.451-2.949-6.71-5.734-10.185-8.382c-1.762-1.341-4.345-2.174-6.74-2.174
			c-0.552,0-1.09,0.045-1.596,0.131c-6.531,1.115-13.017,2.513-19.277,4.154c-2.946,0.771-5.308,3.952-5.889,6.583
			c-0.555,2.52-0.977,5.074-1.374,7.719c-4.937-4.683-9.626-9.138-14.166-13.688c0.041-0.346,0.124-0.788,0.25-1.179
			c2.093-6.454,4.334-13.014,6.502-19.358c0.742-2.171,1.484-4.345,2.225-6.525c0.369-1.085,0.254-2.274-0.313-3.27
			c-0.567-0.994-1.534-1.698-2.655-1.933c-7.385-1.547-14.771-2.331-21.953-2.331c-5.796-0.001-11.64,0.512-17.465,1.527
			c0.429-0.583,0.703-1.287,0.764-2.049l0.075-0.929l0.075-0.932c0.109-1.361-0.484-2.685-1.574-3.509l-8.429-6.378l-13.631-10.313
			c0.016-0.018,0.031-0.034,0.046-0.051c2.782-3.046,5.421-5.937,8.139-8.75c0.121,0.002,0.242,0.005,0.359,0.008
			c5.474,4.315,11.365,6.414,18.004,6.414c6.69,0,13.1-2.128,19.299-4.186c2.816-0.936,5.476-1.818,8.146-2.509
			c3.734-0.966,4.764-6.419,4.247-8.951c-2.127-10.402-4.255-20.579-6.891-30.715c-0.06-0.229-0.098-0.411-0.123-0.554
			c0.162-0.086,0.389-0.197,0.703-0.337c9.194-4.08,19.02-8.498,28.581-13.154c2.882-1.401,5.515-3.996,6.873-6.772
			c7.733-15.824,16.015-33.158,25.317-52.991c1.295-2.762,1.991-5.908,1.958-8.857c-0.067-6.182-0.221-12.453-0.369-18.517
			c-0.16-6.519-0.324-13.26-0.382-19.875c-0.013-1.556,0.518-3.472,1.353-4.881c3.488-5.885,7.143-11.824,10.678-17.567
			c2.79-4.533,5.675-9.221,8.47-13.869c0.875-1.456,1.38-1.759,3.001-1.806c9.5-0.272,19.492-0.79,30.546-1.581
			c0.433-0.031,0.786-0.046,1.077-0.046c0.198,0,0.35,0.007,0.464,0.017c0.046,0.15,0.102,0.37,0.153,0.677
			c0.373,2.221,1.075,4.248,1.755,6.209c0.58,1.672,1.127,3.251,1.4,4.769c1.728,9.6,6.662,17.083,14.664,22.242
			c0.52,0.335,1.039,0.783,1.612,1.328l-6.94,6.337l-14.328,13.085c-1.429,1.304-1.719,3.445-0.689,5.083
			c0.751,1.195,1.484,2.452,2.193,3.667c1.684,2.887,3.426,5.872,5.683,8.541c1.79,2.117,2.03,3.395-0.069,6.788
			c-1.912,3.089-3.552,6.359-5.289,9.821c-0.812,1.618-1.651,3.291-2.575,5.065c-0.646,1.24-0.598,2.727,0.127,3.923
			c0.725,1.195,2.022,1.925,3.42,1.925c4.025,0,7.965,0.018,11.844,0.036c3.773,0.018,7.488,0.035,11.167,0.035
			c6.783,0,12.278-0.062,17.295-0.194c0.118-0.003,0.234-0.005,0.349-0.005c2.102,0,2.587,0.222,3.437,2.773
			c1.632,4.905,3.564,9.665,5.61,14.705c0.878,2.162,1.786,4.397,2.697,6.712c0.602,1.53,2.079,2.535,3.722,2.535
			c0.008,0,0.015,0,0.022,0c1.652-0.009,3.128-1.033,3.716-2.577c1.507-3.96,2.981-7.859,4.438-11.711
			c4.251-11.246,8.267-21.868,12.533-32.5c0.625-1.559,2.27-3.395,4-4.463c2.224-1.375,4.469-2.66,6.845-4.02
			c4.034-2.308,8.204-4.694,12.336-7.592c1.384-0.971,2.008-2.706,1.561-4.334c-0.448-1.629-1.871-2.802-3.556-2.929l-18.489-1.397
			l-7.521-0.568l13.193-35.561c0.422-1.136,0.306-2.403-0.316-3.443s-1.683-1.743-2.883-1.91l-37.328-5.19
			c0.139-1.139,0.276-2.27,0.414-3.394c0.658-5.393,1.279-10.485,1.874-15.669c0.296-2.579,0.567-5.193,0.83-7.722
			c0.527-5.069,1.072-10.312,1.82-15.393c0.083-0.564,0.821-1.722,1.462-2.133c3.343-2.144,6.679-4.299,10.016-6.455
			c13.258-8.566,26.967-17.424,40.843-25.338c3.752-2.141,8.382-3.127,13.284-4.172c2.508-0.534,5.102-1.087,7.633-1.815
			c19.848-5.716,40.825-7.201,61.113-8.637l4.495-0.32c0.783-0.056,1.568-0.105,2.355-0.155c3.465-0.218,7.049-0.444,10.606-1.24
			C432.552,28.612,432.929,28.562,433.234,28.562 M71.494,349.854c-0.651,0.507-1.141,1.211-1.381,2.027
			c-0.392,1.329-0.067,2.766,0.857,3.798c0.957,1.068,1.931,2.191,2.874,3.278c2.304,2.654,4.687,5.399,7.311,7.955
			c1.936,1.885,1.61,2.396,0.823,3.629c-4.701,7.361-4.961,15.04-0.775,22.823c0.623,1.158,1.776,1.937,3.083,2.081l11.597,1.284
			c-3.702,9.601-8.496,16.494-15.072,21.698c-0.811-0.681-1.628-1.364-2.451-2.052c-4.084-3.416-8.307-6.947-12.384-10.575
			c-2.161-1.925-5.229-4.134-9.803-4.134c-0.549,0-1.12,0.031-1.698,0.094c-6.096,0.656-12.8,0.999-20.483,1.045
			c-0.394-0.02-1.241-0.413-1.545-0.71c-3.294-5.75-6.396-11.664-9.68-17.922c-0.272-0.519-0.545-1.04-0.82-1.563
			c0.62-0.104,1.234-0.212,1.844-0.32c2.307-0.407,4.485-0.792,6.464-0.792c3.14,0,5.289,0.973,7.415,3.357
			c8.186,9.184,19.015,10.12,29.488,11.026c1.025,0.089,2.056,0.178,3.09,0.275c0.125,0.012,0.25,0.018,0.375,0.018
			c0.957,0,1.887-0.344,2.617-0.975c0.825-0.714,1.323-1.733,1.378-2.823l0.164-3.24l0.299-5.913
			c0.056-1.095-0.341-2.164-1.096-2.958c-0.755-0.795-1.803-1.244-2.899-1.244c-1.876,0-3.711,0.021-5.515,0.042
			c-1.713,0.02-3.398,0.039-5.065,0.039c-2.944,0-5.317-0.065-7.466-0.205c-0.555-0.037-1.708-0.71-2.635-1.25
			c-0.417-0.244-0.843-0.492-1.285-0.732c-0.479-0.743-0.956-1.49-1.432-2.236c-4.261-6.682-8.9-13.957-16.151-18.687
			L71.494,349.854 M433.234,24.562c-0.6,0-1.26,0.08-1.994,0.245c-4.022,0.9-8.235,1.012-12.375,1.309
			c-22.339,1.605-44.722,2.851-66.429,9.103c-7.294,2.1-15.4,2.71-21.792,6.356c-17.414,9.932-34.146,21.068-51.035,31.901
			c-1.541,0.988-2.996,3.128-3.26,4.917c-1.136,7.711-1.78,15.494-2.667,23.244c-0.861,7.504-1.801,14.998-2.759,22.938
			c13.896,1.933,27.383,3.808,41.222,5.731c-5.122,13.806-9.945,26.806-15.041,40.541c10.79,0.815,21.048,1.591,31.306,2.366
			c-6.325,4.437-12.831,7.678-18.987,11.484c-2.327,1.438-4.606,3.875-5.609,6.378c-5.759,14.35-11.127,28.856-16.996,44.277
			c-3.028-7.694-5.949-14.349-8.234-21.215c-1.301-3.909-3.087-5.51-7.231-5.51c-0.148,0-0.3,0.002-0.454,0.006
			c-5.698,0.15-11.399,0.192-17.19,0.192c-7.461,0-15.072-0.07-23.011-0.07c2.953-5.667,5.053-10.323,7.718-14.629
			c2.516-4.067,3.146-7.426-0.278-11.476c-2.943-3.48-5.001-7.71-7.544-11.754c8.149-7.441,16.195-14.791,24.403-22.286
			c-2.075-1.908-3.493-3.63-5.277-4.78c-7.219-4.654-11.374-11.143-12.895-19.589c-0.667-3.712-2.523-7.216-3.146-10.931
			c-0.551-3.284-2.066-4.031-4.562-4.031c-0.425,0-0.88,0.021-1.363,0.056c-10.112,0.724-20.242,1.281-30.375,1.572
			c-3.083,0.089-4.799,1.222-6.314,3.743c-6.327,10.522-12.901,20.897-19.16,31.458c-1.19,2.009-1.931,4.626-1.912,6.954
			c0.111,12.801,0.611,25.6,0.751,38.402c0.026,2.376-0.568,4.958-1.58,7.115c-8.304,17.705-16.704,35.365-25.29,52.933
			c-0.982,2.008-3.007,3.948-5.029,4.932c-9.386,4.57-18.911,8.859-28.454,13.095c-2.655,1.178-3.69,2.24-2.828,5.554
			c2.622,10.083,4.755,20.299,6.843,30.51c0.273,1.338-0.535,4.071-1.329,4.276c-8.792,2.274-17.575,6.567-26.444,6.567
			c-5.178,0-10.385-1.463-15.641-5.645c-0.501-0.398-1.203-0.745-1.818-0.757c-0.328-0.006-0.695-0.021-1.063-0.021
			c-0.799,0-1.601,0.074-2,0.482c-4.009,4.109-7.838,8.395-11.942,12.858c8.847,6.692,17.205,13.017,25.563,19.341
			c-0.05,0.621-0.1,1.239-0.149,1.86c-20.279,3.116-40.558,6.232-60.837,9.348c-0.274,0.42-0.548,0.839-0.822,1.259
			c14.927,2.017,21.091,13.486,27.996,24.16c0.179,0.278,0.363,0.626,0.634,0.759c2.06,1.004,4.097,2.66,6.227,2.8
			c2.556,0.167,5.119,0.214,7.728,0.214c3.421,0,6.92-0.081,10.58-0.081c-0.142,2.812-0.302,5.965-0.464,9.153
			c-11.277-1.061-22.111-1.168-29.966-9.98c-3.264-3.661-6.754-4.696-10.401-4.696c-4.664,0-9.582,1.694-14.599,1.754
			c4.732,8.93,8.856,17.047,13.38,24.937c0.802,1.398,3.252,2.617,4.944,2.617c0.008,0,0.015,0,0.022,0
			c6.973-0.042,13.972-0.321,20.902-1.068c0.441-0.048,0.863-0.07,1.269-0.07c2.886,0,4.954,1.172,7.143,3.121
			c5.769,5.134,11.76,10.021,17.33,14.728c11.079-7.608,16.762-18.071,20.685-30.208c-5.803-0.643-11.52-1.275-16.605-1.838
			c-3.663-6.811-3.113-12.925,0.623-18.776c2.154-3.375,1.387-5.93-1.404-8.647c-3.571-3.478-6.726-7.384-9.995-11.035
			c8.89-2.438,17.621-3.607,26.321-3.606c7.043,0,14.068,0.767,21.133,2.246c-2.953,8.692-5.939,17.285-8.745,25.938
			c-0.453,1.398-0.777,3.728-0.018,4.493c6.49,6.546,13.244,12.831,20.567,19.812c0.885-5.707,1.43-10.437,2.45-15.062
			c0.306-1.385,1.737-3.245,2.997-3.575c6.242-1.637,12.573-2.994,18.936-4.08c0.292-0.05,0.603-0.074,0.923-0.074
			c1.497,0,3.22,0.521,4.318,1.357c4.705,3.584,9.131,7.537,14.057,11.681c2.284-4.695,4.333-8.907,6.475-13.309
			c4.39,3.475,8.367,6.622,12.599,9.97c2.631-4.215,4.971-7.959,7.394-11.84c4.685,2.346,9.25,4.327,13.459,6.89
			c1.712,1.043,3.307,3.177,3.835,5.118c2.866,10.527,5.504,21.124,7.938,31.762c0.683,2.983,1.917,4.088,4.958,4.264
			c9.452,0.543,18.895,1.288,28.32,2.19c2.903,0.277,6.063,0.72,8.534,2.104c7.805,4.376,15.414,9.118,22.919,13.998
			c1.528,0.993,2.94,3.077,3.257,4.861c1.318,7.45,2.2,14.977,3.289,22.813c7.736-1.331,14.933-2.4,22.032-3.918
			c1.57-0.335,3.441-1.982,4.095-3.492c10.188-23.564,20.251-47.187,30.141-70.879c0.631-1.512,0.276-4.278-0.756-5.508
			c-10.041-11.964-20.165-23.866-30.64-35.448c-2.863-3.164-3.933-6.232-3.484-10.228c0.517-4.603,0.894-9.221,1.348-13.998
			c0.659-0.144,1.271-0.323,1.895-0.409c23.668-3.251,47.347-6.416,70.985-9.86c2.283-0.333,4.988-1.893,6.355-3.732
			c8.717-11.729,17.217-23.624,25.522-35.647c1.577-2.283,2.666-5.351,2.799-8.114c0.918-19.095,1.598-38.203,2.147-57.314
			c0.082-2.865-0.495-5.918-1.501-8.611c-1.937-5.183-4.396-10.17-6.757-15.505c9.557-2.864,18.549-5.699,27.631-8.21
			c3.332-0.921,4.41-2.497,4.218-5.959c-0.521-9.293-0.869-18.612-0.79-27.916c0.024-2.917,1.064-6.163,2.595-8.678
			c9.86-16.204,22.315-31.013,26.093-50.402c0.847-4.347,2.479-8.541,3.975-13.565c-8.018-2.182-15.864-4.104-23.549-6.54
			c-2.237-0.708-4.687-2.473-5.882-4.452c-6.767-11.208-13.269-22.579-19.659-34.006C437.251,26.02,435.795,24.562,433.234,24.562
			L433.234,24.562z"/>
	</g>
</g>
<g id="Layer_1">
</g>
</svg>
