<?xml version="1.0" encoding="iso-8859-1"?>
<!-- Generator: Adobe Illustrator 16.0.0, SVG Export Plug-In . SVG Version: 6.00 Build 0)  -->
<!DOCTYPE svg PUBLIC "-//W3C//DTD SVG 1.1//EN" "http://www.w3.org/Graphics/SVG/1.1/DTD/svg11.dtd">
<svg version="1.1" xmlns="http://www.w3.org/2000/svg" xmlns:xlink="http://www.w3.org/1999/xlink" x="0px" y="0px" width="512px"
	 height="512px" viewBox="0 0 512 512" style="enable-background:new 0 0 512 512;" xml:space="preserve">
<g id="norway">
	<path style="fill-rule:evenodd;clip-rule:evenodd;fill:none;stroke:#FFFFFF;stroke-width:4;stroke-linejoin:round;" d="
		M383.786,15.195c-1.255,0.08-1.813-0.035-2.215,0.165c-3.008,1.498-6.342,2.622-8.882,4.707c-3.364,2.76,0.047,5.24,1.239,7.725
		c0.067,0.14,0.051,0.326,0.051,0.49c0.002,5.104,0.002,10.208,0.002,15.212c-3.119-6.099-6.306-12.331-9.688-18.947
		c-1.707,6.369-2.97,11.623-4.539,16.782c-1.43,4.702-3.191,9.302-4.808,13.947c-0.881-0.262-1.763-0.523-2.643-0.785
		c0.895-5.967,0.437-12.624,3.034-17.723c3.149-6.178,0.642-11.641,1.622-18.175c-3.156,1.114-5.435,1.918-7.783,2.746
		c0.633,1.665,1.138,2.993,1.745,4.59c-2.867,0-5.325,0-8.081,0c-1.644,4.528-3.268,9.001-4.961,13.667
		c0.888,0.738,2.017,1.676,3.388,2.817c-0.922,1.321-1.736,2.488-2.43,3.482c-4.119-2.745-11.681,1.371-11.796-7.489
		c-3.447,1.565-6.104,2.771-9.134,4.147c1.181,1.563,2.114,2.798,3.073,4.068c-1.097,0.59-1.913,1.028-2.431,1.308
		c2.474,6.801,12.312,6.938,12.827,15.437c-7.509-8.001-15.601-1.038-23.938-2.211c0.9,3.253,1.539,5.563,2.215,8.003
		c2.621-0.283,4.709-0.509,6.925-0.749c1.063,2.462,2.064,4.782,3.364,7.791c-4.265-1.463-7.759-2.663-11.167-3.833
		c-0.919,1.945-1.543,3.267-2.432,5.151c-5.635-4.401-11.079-2.698-16.417,0.182c-4.959-6.558-5.691-6.74-12.269-3.086
		c1.691,1.948,3.378,3.889,5.221,6.01c-1.922,1.75-3.46,3.151-5.188,4.724c0.994,1.942,1.563,3.998,2.875,5.316
		c1.023,1.028,2.967,1.14,3.981,1.483c-1.47,2.229-2.291,3.617-3.259,4.893c-0.728,0.96-1.518,2.055-2.539,2.512
		c-0.376,0.168-1.569-1.26-2.249-2.078c-0.522-0.629-0.793-1.459-1.228-2.166c-2.367-3.845-5.154-3.825-7.674-0.204
		c-0.813,1.17-2.373,1.822-2.614,1.998c-1.918,3.794-3.42,6.766-5.381,10.648c2.403,0.783,5.074,1.653,9.135,2.976
		c2.407,2.496,1.165,6.08-1.687,9.132c1.605,1.883,2.951,3.46,4.297,5.039c-0.387,0.349-0.774,0.698-1.161,1.048
		c-0.907-0.584-1.813-1.167-2.865-1.844c-0.787,0.971-1.569,1.937-2.97,3.665c0.101-2.077,0.154-3.176,0.218-4.489
		c-2.025,0.126-3.591,0.223-5.385,0.334c0.15-2.165,0.272-3.907,0.467-6.688c-4.267,2.248-7.774,4.096-11.864,6.251
		c0.651-2.875,1.165-5.144,1.65-7.293c-5.639-2.383-7.254,1.058-8.463,5.214c-1.747-1.138-3.187-2.077-4.906-3.197
		c-2.022,3.376-3.857,6.441-5.496,9.176c2.819,1.653,5.205,3.052,8.303,4.87c0.934-0.401,3.056-1.313,5.515-2.372
		c-2.097,3.607-3.821,6.57-5.706,9.81c4.513-0.956,8.28-1.755,12.048-2.553c0.272,0.698,0.544,1.396,0.817,2.093
		c-2.598,1.651-5.197,3.303-7.795,4.955c-0.274-0.332-0.548-0.664-0.823-0.996c-0.66,1.918-1.32,3.835-2.109,6.129
		c3.31,0.17,5.851,0.301,9.317,0.479c-2.287,1.963-3.692,3.17-5.141,4.415c1.809,1.615,3.264,2.915,4.95,4.419
		c-2.347,1.389-4.279,2.531-5.887,3.483c-1.321-2.738-2.52-5.223-3.875-8.035c-2.404,2.006-4.056,3.383-6.318,5.269
		c1.829,2.911,3.631,5.777,5.424,8.63c-6.866,0.104-4.665,5.994-6.493,10.361c2.467-0.429,4.148-0.721,6.085-1.057
		c0.398,1.344,0.736,2.482,1.343,4.53c-9.314-2.763-9.508,7.971-15.918,9.387c-0.136,0.03-0.325,0.691-0.207,0.864
		c1.82,2.662-0.697,3.106-2.095,3.775c-8.179,3.91-9.21,11.705-11.464,19.716c2.591-0.878,4.351-1.476,6.603-2.24
		c-0.411,1.063-0.461,1.747-0.758,1.879c-3.579,1.598-7.195,3.115-10.809,4.655c2.322,3.983,9.932,1.271,10.32,8.362
		c-1.92-0.608-3.407-1.08-5.907-1.873c-0.347,4.196-0.643,7.768-0.964,11.645c-6.357-1.207-7.92,4.424-11.89,9.674
		c6.843,1.633,12.728,3.037,18.612,4.442c-6.78,2.75-11.116,9.204-19.126,8.697c-3.306-0.21-7.876,1.982-8.063,8.159
		c-0.157,5.222,3.93,5.437,6.595,8.197c-1.508,0.066-2.775,0.522-3.322,0.083c-4.178-3.359-7.84-0.742-10.791,1.505
		c-3.186,2.427-6.696,5.637-7.834,9.215c-1.233,3.88-2.484,7.171-5.901,9.2c-3.702,2.198-3.596,4.896-2.215,8.411
		c0.632,1.606,0.933,4,0.173,5.36c-1.572,2.813-3.955,5.171-5.177,6.688c-4.372-0.542-7.992-0.991-12.396-1.538
		c0.548,4.151,0.911,6.899,1.166,8.829c-4.632,1.689-9.215,2.932-13.371,5.024c-2.924,1.472-5.183,1.803-7.654-0.37
		c-3.329-2.929-6.616-1.823-9.514-0.322c1.852,3.527,3.6,6.857,5.735,10.925c1.482,0.598,4.167,1.681,6.851,2.764
		c-0.162,0.587-0.323,1.175-0.485,1.762c-1.961-0.273-3.919-0.579-5.885-0.813c-3.944-0.47-7.886-1.01-11.845-1.258
		c-0.811-0.051-2.233,0.927-2.403,1.655c-0.195,0.841,0.423,2.256,1.153,2.848c1.618,1.31,3.527,2.26,6.105,3.84
		c-2.351,0.293-3.735,0.466-5.053,0.631c-0.287,1.435-0.52,2.605-0.8,4.008c-2.859-3.181-6.736-2.938-9.288,0.406
		c0.435,0.935,0.909,1.95,1.983,4.253c-5.513-0.334-10.275-0.623-16.077-0.975c1.157,3.073,1.91,5.074,2.797,7.436
		c-3.789,1.914-7.825,5.093-5.494,10.002c1.728,3.642,5.764,6.187,8.783,9.23c-3.006,1.438-7.829-4.049-10.281,2.264
		c-1.862,4.794,1.382,6.892,3.983,9.529c-3.583,3.143-3.925,7.006-1.572,9.343c-1.427,2.497-2.724,4.768-4.487,7.854
		c3.689-0.314,5.988-0.511,8.899-0.759c-1.416,1.601-2.247,2.54-3.055,3.454c1.223,1.691,2.28,3.154,3.373,4.667
		c-1.501,1.72-2.857,3.274-4.476,5.132c2.039,0.836,3.517,1.442,5.169,2.12c-1.217,0.834-2.248,1.539-3.959,2.712
		c3.625,0.982,6.546,1.774,10.004,2.712c-1.417,1.932-2.556,3.481-3.751,5.111c-1.436-0.967-2.633-1.771-3.83-2.578
		c-0.351,0.252-0.702,0.504-1.053,0.756c0.974,2.511,1.948,5.023,2.707,6.981c-3.642,1.915-5.039,8.634-12.04,5.394
		c2.142,5.676,3.745,9.925,5.031,13.333c4.832-1.709,9.073-0.646,12.27-0.762c-2.085,3.351-4.09,6.573-6.183,9.936
		c-0.355-0.283-1.186-0.945-1.96-1.562c-3.709,1.536-4.355,4.07-3.175,7.62c0.939,2.825,0.832,6.108,2.191,8.653
		c1.729,3.237,3.923,6.864,6.917,8.618c3.446,2.019,7.057,6.691,12.195,2.728c0.438-0.338,1.667,0.349,2.952,0.663
		c-1.525,2.15-2.711,3.823-3.829,5.401c4.447,3.857,8.903,5.323,14.414,3.169c2.02-0.79,4.806,0.45,6.89-0.264
		c5.046-1.73,9.908-4.018,14.771-6.237c0.465-0.212,0.439-1.527,0.617-2.337c0.387-1.755,0.759-3.514,1.138-5.271
		c0.291,0.396,0.582,0.794,0.873,1.19c4.202-2.029,8.403-4.059,10.945-5.286c2.619-6.063,4.642-10.745,6.445-14.917
		c5.025,0.374,8.947,0.665,13.052,0.971c1.329-6.125,2.545-11.725,4.098-18.875c1.521,3.276,2.687,5.207,3.327,7.3
		c1.004,3.277,2.726,5.148,6.391,4.612c4.343-0.636,6.14,1.283,5.582,5.612c-0.119,0.924,0.14,1.897,0.233,2.953
		c2.418,0,4.493,0,6.464,0c0.231-0.575,0.455-0.873,0.45-1.167c-0.022-1.33-0.051-2.664-0.182-3.986
		c-1.224-12.359-0.691-23.838,8.854-33.858c3.705-3.889,4.353-10.856,5.887-16.558c0.53-1.97-0.027-4.542-0.867-6.507
		c-1.721-4.027-3.97-7.83-6.028-11.778c0.976-0.495,1.391-0.802,1.854-0.928c6.161-1.661,5.854-7.627,7.328-12.02
		c0.46-1.375-2.499-4.584-4.554-5.976c-4.497-3.043-5.762-6.816-5.656-12.155c0.261-13.174,2.39-26.682-4.865-38.976
		c-1.09-1.848-2.158-3.88-2.506-5.948c-0.404-2.401-0.646-5.181,0.177-7.367c2.044-5.428,4.805-10.581,7.148-15.901
		c2.624-5.953,6.98-9.477,13.511-10.229c3.471-0.4,6.968-0.717,10.378-1.431c1.156-0.242,2.712-1.411,3.005-2.458
		c1.603-5.732,2.701-11.449-4.243-14.887c-2.754-1.364-2.865-3.377-1.461-6.179c3.421-6.83,6.723-13.749,9.499-20.855
		c1.043-2.669,1.103-6.074,0.559-8.944c-1.401-7.397-4.82-14.585-1.329-22.454c1.542-0.078,3.202-0.057,4.832-0.267
		c3.434-0.443,7.774-6.085,6.133-8.419c-2.809-3.995-0.367-5.608,2.205-8.025c6.266-5.887,11.949-11.975,7.459-21.908
		c-1.459-3.229-2.003-7.588-1.161-10.982c1.428-5.753,4.251-11.166,6.562-16.691c1.481-3.542,4.105-4.513,7.636-3.064
		c2.282,0.937,4.552,1.899,6.771,2.826c3.526-4.698,5.207-8.977-0.037-13.492c-1.48-1.274-1.974-3.695-3.318-6.389
		c10.282,1.015,19.756,1.95,29.852,2.947c-0.93-3.263-2.493-6.013-2.218-8.565c0.263-2.444,2.437-4.681,3.942-7.311
		c-0.785-1.022-1.944-2.533-3.696-4.813c2.533,0,4.142,0,5.752,0c15.579,0,31.197,0.657,46.726-0.238
		c9.874-0.568,11.075,1.309,10.898-11.065c-0.007-0.45,0.323-0.906,0.481-1.322c7.98-0.982,8.454-1.994,4.31-8.887
		c-1.319-2.195-2.565-4.434-3.844-6.652c0.212-0.547,0.424-1.094,0.637-1.64c12.136,0,24.272,0.107,36.406-0.077
		c2.92-0.045,5.968-0.696,8.68-1.769c1.404-0.556,3.204-2.716,3.109-4.028c-0.563-7.789,3.276-12.865,9.448-16.618
		c4.482-2.727,5.342-6.372,3.368-11.044c-3.767-0.904-7.555-1.813-11.487-2.756c-0.948,2.761-1.747,5.085-2.527,7.355
		c-5.662,1.177-2.623-3.306-3.351-5.285c-3.223-0.692-6.298-1.352-9.374-2.012c-0.112-0.454-0.225-0.908-0.337-1.362
		c6.469,0.374,11.687-1.24,14.405-7.397c0.457-1.032,2.131-1.51,3.214-2.286c1.136-0.814,2.236-1.678,4.33-3.256
		c-5.321-2.729-9.765-5.005-13.502-6.921c-1.137-2.635-1.895-6.752-3.183-6.926c-3.546-0.478-6.956,1.05-5.72,6.679
		c-4.493-2.264-8.351-4.207-12.513-6.305c0.274,4.665,0.516,8.765,0.783,13.316c-1.685-0.173-2.896-0.297-3.507-0.359
		C385.744,26.103,384.764,20.642,383.786,15.195z"/>
	<path style="fill-rule:evenodd;clip-rule:evenodd;fill:#FFFFFF;" d="M1,512.936c170.424,0,340.848,0,511.936,0
		c0-170.852,0-341.394,0-511.936c0.333,1.333,0.953,2.666,0.957,4c0.063,19.831,0.043,39.662,0.043,59.492
		c0,149.814,0,299.629,0,449.444c-169.479,0-338.958,0.003-508.436-0.041C4,513.894,2.5,513.269,1,512.936z"/>
	<g>
		<path style="fill:#FFFFFF;" d="M380.623,20.213l0.861,4.798l1.383,7.708c0.315,1.756,1.755,3.091,3.53,3.272l0.514,0.053
			l2.992,0.307c0.137,0.014,0.272,0.021,0.408,0.021c1.025,0,2.018-0.395,2.767-1.111c0.847-0.811,1.295-1.953,1.227-3.124
			l-0.376-6.384l0.848,0.427l5.465,2.753c0.569,0.287,1.186,0.428,1.799,0.428c0.872,0,1.738-0.285,2.454-0.84
			c1.219-0.947,1.785-2.51,1.454-4.018c-0.161-0.731-0.179-1.215-0.159-1.509c0.122,0.357,0.241,0.722,0.341,1.03
			c0.345,1.058,0.702,2.151,1.141,3.169c0.368,0.853,1.021,1.551,1.848,1.975l4.769,2.444l2.89,1.481
			c-1.15,0.612-2.727,1.538-3.534,3.363c-1.588,3.597-4.21,5.064-9.05,5.064c-0.466,0-0.959-0.015-1.466-0.044
			c-0.077-0.005-0.154-0.007-0.23-0.007c-1.186,0-2.314,0.526-3.077,1.444c-0.812,0.978-1.11,2.282-0.806,3.516l0.281,1.137
			l0.056,0.226c0.367,1.484,1.549,2.63,3.044,2.951l6.054,1.299c-0.074,1.346,0.108,2.963,1.313,4.362
			c0.754,0.875,2.163,1.918,4.59,1.918c0.729,0,1.521-0.091,2.42-0.277c1.382-0.287,2.511-1.281,2.97-2.616l1.346-3.918l5.803,1.393
			c0.391,1.873-0.315,3.006-2.363,4.253c-7.959,4.84-11.791,11.471-11.396,19.716c-0.172,0.241-0.452,0.537-0.636,0.66
			c-2.315,0.904-4.864,1.421-7.188,1.457c-4.834,0.073-10.16,0.108-16.762,0.108c-3.261,0-6.521-0.008-9.782-0.016
			c-3.268-0.008-6.534-0.016-9.802-0.016c-1.648,0-3.128,1.011-3.727,2.547l-0.607,1.564l-0.032,0.083
			c-0.438,1.128-0.341,2.394,0.264,3.442c0.391,0.677,0.777,1.356,1.165,2.036c0.874,1.535,1.779,3.121,2.717,4.681
			c0.646,1.076,1.089,1.866,1.39,2.446c-0.639,0.12-1.526,0.257-2.76,0.409c-1.451,0.179-2.687,1.134-3.227,2.488l-0.054,0.109
			c-0.256,0.517-0.731,1.479-0.713,2.752c0.02,1.363,0.075,5.258-0.274,6.69c-0.71,0.113-2.081,0.151-3.223,0.183
			c-1.056,0.029-2.252,0.063-3.632,0.142c-5.491,0.316-11.428,0.464-18.682,0.464c-4.609,0-9.311-0.059-13.857-0.116
			c-4.57-0.058-9.298-0.117-13.956-0.117h-5.752c-1.523,0-2.915,0.865-3.588,2.232c-0.674,1.367-0.512,2.997,0.416,4.206
			l1.978,2.574c-1.297,1.896-2.745,4.044-3.028,6.683c-0.167,1.544,0.057,3.002,0.44,4.407l-23.705-2.34
			c-0.132-0.013-0.263-0.02-0.394-0.02c-0.269,0-0.534,0.027-0.793,0.08c0.701-1.396,0.542-3.132-0.531-4.391l-1.588-1.862
			l-0.621-0.728c2.591-4.242,2.455-8.63-0.566-11.762c-0.454-0.471-1.018-0.824-1.64-1.026l-4.7-1.531l2.731-5.406
			c0.861-0.523,2.015-1.36,2.873-2.596c0.2-0.287,0.373-0.5,0.516-0.657c0.131,0.162,0.288,0.38,0.468,0.67
			c0.069,0.114,0.174,0.327,0.275,0.532c0.278,0.568,0.66,1.345,1.284,2.097c1.444,1.737,2.938,3.534,5.256,3.534
			c0.593,0,1.166-0.122,1.702-0.362c1.905-0.853,3.105-2.44,3.981-3.6l0.111-0.147c0.743-0.98,1.373-1.959,2.17-3.197
			c0.364-0.565,0.769-1.193,1.241-1.911c0.683-1.036,0.846-2.329,0.442-3.502c-0.402-1.173-1.327-2.092-2.502-2.489
			c-0.494-0.167-0.982-0.273-1.455-0.377c-0.32-0.07-0.825-0.18-1.092-0.277c-0.237-0.305-0.488-0.806-0.741-1.361l3.032-2.761
			c0.958-0.873,1.396-2.106,1.291-3.308c0.779,0.928,1.911,1.428,3.065,1.428c0.645,0,1.296-0.156,1.897-0.48
			c3.059-1.65,5.285-2.386,7.218-2.386c1.696,0,3.233,0.583,4.838,1.836c0.71,0.555,1.578,0.848,2.462,0.848
			c0.309,0,0.619-0.036,0.926-0.108c1.183-0.281,2.173-1.085,2.691-2.185l0.903-1.912l7.78,2.67
			c0.425,0.146,0.863,0.217,1.297,0.217c1.096,0,2.166-0.451,2.937-1.283c1.075-1.162,1.364-2.85,0.736-4.303l-3.363-7.79
			c-0.638-1.477-2.09-2.415-3.671-2.415c-0.071,0-0.143,0.002-0.214,0.005c0.225-0.046,0.448-0.093,0.672-0.139
			c2.012-0.419,3.912-0.815,5.612-0.815c2.363,0,4.047,0.766,5.809,2.644c0.772,0.823,1.835,1.263,2.918,1.263
			c0.533,0,1.072-0.106,1.583-0.327c1.548-0.667,2.511-2.233,2.408-3.915c-0.407-6.712-5.04-9.825-8.424-12.099
			c-1.021-0.686-1.976-1.327-2.765-2.004c0.34-0.453,0.584-0.979,0.707-1.545c0.25-1.141-0.012-2.333-0.716-3.265l-0.061-0.081
			l0.163-0.074c2.182,4.12,6.725,4.445,9.236,4.625c1.203,0.086,2.567,0.184,3.108,0.544c0.681,0.454,1.451,0.672,2.215,0.672
			c1.265,0,2.508-0.599,3.284-1.712l1.27-1.82l1.159-1.662c1.189-1.704,0.875-4.035-0.722-5.364l-1.227-1.02l2.924-8.057
			l0.121-0.333h5.277c0.74,0,1.453-0.205,2.068-0.577c-0.014,1.966-0.275,3.755-1.217,5.6c-2.162,4.246-2.532,9.004-2.889,13.607
			c-0.146,1.876-0.283,3.649-0.537,5.338c-0.295,1.971,0.905,3.859,2.815,4.427l1.906,0.566l0.738,0.219
			c0.379,0.113,0.763,0.167,1.14,0.167c1.661,0,3.204-1.042,3.777-2.687c0.488-1.404,0.99-2.805,1.492-4.205
			c1.151-3.21,2.342-6.53,3.364-9.892c0.677-2.225,1.301-4.48,1.919-6.799l4.92,9.622c0.695,1.359,2.085,2.179,3.561,2.179
			c0.311,0,0.625-0.037,0.938-0.112c1.797-0.433,3.063-2.041,3.063-3.889c0-5.004,0-10.108-0.002-15.229
			c0.006-0.339,0.021-1.24-0.444-2.204c-0.428-0.891-0.971-1.671-1.45-2.36c-0.162-0.232-0.366-0.526-0.538-0.793
			c1.373-1.033,3.164-1.837,5.054-2.686C380.607,20.219,380.615,20.216,380.623,20.213 M237.369,123.515l1.426,0.929
			c0.658,0.429,1.418,0.648,2.184,0.648c0.469,0,0.94-0.083,1.391-0.25c0.569-0.211,1.073-0.545,1.484-0.97
			c0.11,0.615,0.363,1.199,0.741,1.702c-0.067-0.003-0.134-0.005-0.201-0.005c-0.532,0-1.069,0.106-1.58,0.326l-3.656,1.572
			l-3.076-1.804L237.369,123.515 M255.193,123.792c0.045,0.985,0.454,1.926,1.157,2.634c0.753,0.759,1.776,1.182,2.839,1.182
			c0.082,0,0.165-0.002,0.248-0.008l0.925-0.057l-0.001,0.026c-0.084,1.728,0.952,3.313,2.568,3.93
			c0.465,0.178,0.948,0.263,1.426,0.263c1.182,0,2.333-0.524,3.108-1.481l0.715-0.882c0.625,0.364,1.32,0.543,2.012,0.543
			c0.571,0,1.141-0.122,1.666-0.363c-0.247,0.928-0.156,1.931,0.286,2.817c0.385,0.772,0.705,1.559,1.015,2.321
			c0.767,1.887,1.561,3.839,3.272,5.313c1.874,1.613,2.651,2.764,1.153,5.498c-1.244-0.522-2.499-1.046-3.758-1.563
			c-1.529-0.628-3.015-0.946-4.414-0.946c-2.186,0-6.186,0.801-8.431,6.167c-0.599,1.432-1.254,2.903-1.887,4.325
			c-1.836,4.123-3.735,8.386-4.867,12.947c-1.037,4.18-0.501,9.388,1.398,13.592c3.038,6.72,0.433,10.782-6.554,17.346
			c-0.211,0.198-0.421,0.391-0.627,0.58c-2.089,1.916-6.35,5.821-2.603,11.915c-0.477,1.065-2.085,2.733-2.88,2.897
			c-0.934,0.121-1.933,0.15-2.99,0.182c-0.52,0.016-1.032,0.032-1.532,0.057c-1.507,0.077-2.842,0.994-3.454,2.373
			c-3.262,7.352-1.556,14.102-0.051,20.057c0.417,1.65,0.811,3.208,1.105,4.764c0.459,2.424,0.324,5.008-0.355,6.745
			c-2.897,7.418-6.352,14.535-9.349,20.519c-1.336,2.667-1.646,4.979-0.948,7.064c0.641,1.914,2.058,3.425,4.211,4.491
			c3.457,1.711,3.948,3.661,2.299,9.74c-0.068,0.049-0.142,0.096-0.2,0.124c-2.593,0.537-5.255,0.832-8.073,1.145
			c-0.617,0.068-1.233,0.137-1.849,0.208c-7.805,0.899-13.428,5.136-16.714,12.591c-0.843,1.913-1.769,3.862-2.664,5.748
			c-1.583,3.332-3.219,6.777-4.567,10.355c-1.219,3.234-0.8,6.937-0.378,9.441c0.461,2.738,1.778,5.235,3.006,7.317
			c5.45,9.235,5.011,19.418,4.546,30.199c-0.094,2.18-0.191,4.434-0.235,6.664c-0.096,4.838,0.66,10.977,7.413,15.547
			c1,0.677,2.1,1.821,2.648,2.567c-0.214,0.78-0.391,1.559-0.564,2.319c-0.886,3.904-1.397,5.325-3.665,5.936
			c-0.758,0.206-1.317,0.517-1.858,0.816c-0.204,0.112-0.447,0.248-0.756,0.404c-0.953,0.484-1.673,1.329-1.999,2.346
			c-0.326,1.018-0.232,2.124,0.262,3.071c0.612,1.174,1.241,2.336,1.868,3.495c1.483,2.739,2.884,5.327,4.029,8.005
			c0.697,1.632,0.871,3.195,0.682,3.896c-0.389,1.444-0.72,2.948-1.041,4.402c-0.897,4.07-1.825,8.279-3.88,10.436
			c-9.445,9.915-10.917,21.176-10.317,32.188c-0.139-0.193-0.288-0.381-0.446-0.561c-1.019-1.159-2.928-2.541-6.234-2.541
			c-0.655,0-1.357,0.055-2.087,0.161c-0.222,0.032-0.424,0.049-0.601,0.049c-0.436,0-0.812,0-1.386-1.874
			c-0.518-1.692-1.271-3.208-2.143-4.964c-0.414-0.833-0.884-1.778-1.38-2.849c-0.661-1.424-2.084-2.316-3.627-2.316
			c-0.146,0-0.294,0.008-0.442,0.024c-1.708,0.189-3.104,1.447-3.468,3.127l-3.36,15.477l-2.659-0.197l-6.925-0.516
			c-0.1-0.007-0.199-0.011-0.298-0.011c-1.585,0-3.034,0.94-3.67,2.413l-5.171,11.97l-0.683,1.58l-5.749,2.776l-1.32,0.638
			c-0.52-0.238-1.088-0.364-1.667-0.364c-0.278,0-0.558,0.028-0.836,0.088c-1.54,0.329-2.743,1.53-3.074,3.069l-0.34,1.583
			c-0.262,1.224-0.524,2.447-0.794,3.67c-0.025,0.113-0.047,0.225-0.066,0.333c-4.152,1.9-8.438,3.852-12.688,5.31
			c-0.004,0.001-0.099,0.023-0.348,0.023c-0.379,0-0.865-0.049-1.38-0.102c-0.654-0.065-1.396-0.141-2.171-0.141
			c-1.191,0-2.229,0.18-3.174,0.549c-1.243,0.486-2.375,0.723-3.459,0.723c-1.291,0-2.581-0.354-3.938-1.092l1.533-2.161
			c0.766-1.081,0.948-2.471,0.485-3.712s-1.51-2.173-2.797-2.488c-0.254-0.062-0.586-0.178-0.906-0.29
			c-0.776-0.271-1.656-0.578-2.667-0.578c-1.029,0-1.987,0.318-2.772,0.924c-0.613,0.474-1.138,0.713-1.559,0.713
			c-0.936,0-2.381-1.065-3.658-2.007c-0.797-0.588-1.622-1.195-2.513-1.718c-2.122-1.243-4.006-4.421-5.411-7.051
			c-0.488-0.914-0.721-2.303-0.967-3.771c-0.22-1.311-0.47-2.796-0.956-4.26c-0.162-0.485-0.268-0.859-0.318-1.156
			c0.52,0.236,1.084,0.359,1.657,0.359c0.226,0,0.454-0.02,0.68-0.059c1.125-0.193,2.113-0.858,2.716-1.828l0.268-0.431l5.915-9.505
			c0.781-1.255,0.806-2.839,0.065-4.118c-0.717-1.238-2.038-1.995-3.46-1.995c-0.048,0-0.096,0.001-0.145,0.003
			c-0.125,0.004-0.252,0.006-0.381,0.006c-0.635,0-1.389-0.047-2.188-0.097c-0.999-0.063-2.13-0.134-3.342-0.134
			c-1.319,0-2.548,0.085-3.722,0.261l-0.199-0.528l-1.347-3.57c2.899-0.845,4.774-3.014,6.11-4.559
			c0.634-0.733,1.352-1.563,1.813-1.807c1.799-0.945,2.603-3.091,1.868-4.986l-0.009-0.022c0.649-0.271,1.235-0.718,1.681-1.325
			l2.215-3.019l1.535-2.092c0.78-1.063,0.986-2.442,0.551-3.687c-0.436-1.245-1.457-2.195-2.729-2.54l-3.155-0.855
			c0.066-0.368,0.081-0.748,0.041-1.131c-0.155-1.461-1.1-2.72-2.459-3.278h-0.001l0.803-0.921c1.224-1.402,1.319-3.464,0.229-4.973
			l-1.498-2.072l0.934-1.057c1.083-1.225,1.312-2.985,0.578-4.446c-0.683-1.358-2.071-2.203-3.572-2.203
			c-0.113,0-0.227,0.005-0.341,0.015L89.298,410l0.707-1.237c0.898-1.57,0.629-3.548-0.654-4.822
			c-0.231-0.23-0.326-0.463-0.316-0.778c0.024-0.786,0.663-1.803,1.708-2.72c0.828-0.726,1.32-1.762,1.36-2.862
			c0.04-1.101-0.376-2.169-1.149-2.953c-0.372-0.377-0.755-0.744-1.137-1.109c-2.468-2.357-2.54-2.685-1.966-4.163
			c0.09-0.232,0.171-0.402,0.237-0.523c0.376,0.07,0.908,0.229,1.357,0.362c1.104,0.328,2.356,0.7,3.754,0.7
			c1.053,0,2.039-0.216,2.931-0.643c1.168-0.56,1.994-1.649,2.215-2.926c0.221-1.275-0.189-2.58-1.102-3.5
			c-1.037-1.044-2.138-2-3.204-2.924c-2.042-1.771-3.97-3.442-4.806-5.205c-0.382-0.805-1.093-2.302,3.685-4.716
			c1.823-0.921,2.659-3.066,1.94-4.978l-0.625-1.662l1.742,0.105l8.177,0.495c0.081,0.006,0.162,0.008,0.242,0.008
			c1.318,0,2.559-0.651,3.307-1.75c0.793-1.165,0.914-2.662,0.318-3.94l-0.55-1.178c0.391,0.104,0.833,0.414,1.254,0.883
			c0.77,0.856,1.856,1.326,2.975,1.326c0.353,0,0.708-0.047,1.058-0.143c1.46-0.4,2.569-1.59,2.865-3.075l0.227-1.137l0.008-0.041
			l2.19-0.273c1.687-0.211,3.056-1.464,3.415-3.124c0.359-1.661-0.371-3.368-1.819-4.256c-0.167-0.103-0.33-0.201-0.491-0.299
			c0.876,0.104,1.749,0.21,2.614,0.316c0.768,0.094,1.536,0.188,2.305,0.279c1.31,0.156,2.603,0.343,3.972,0.541
			c0.611,0.088,1.222,0.177,1.833,0.262c0.187,0.025,0.372,0.038,0.556,0.038c1.775,0,3.37-1.184,3.853-2.938l0.243-0.881
			l0.242-0.881c0.54-1.959-0.476-4.011-2.36-4.771l-5.489-2.214l-1.825-3.476l-0.839-1.6c0.274,0.125,0.586,0.323,0.943,0.637
			c1.922,1.69,4.048,2.548,6.318,2.548c1.784,0,3.564-0.496,5.775-1.609c2.646-1.332,5.573-2.317,8.671-3.36
			c1.389-0.468,2.824-0.95,4.271-1.479c1.762-0.643,2.84-2.423,2.595-4.281l-0.388-2.943l-0.1-0.756l7.26,0.901
			c0.165,0.021,0.329,0.03,0.493,0.03c1.202,0,2.351-0.542,3.115-1.491c0.264-0.328,0.624-0.739,1.042-1.215
			c1.326-1.51,3.141-3.579,4.512-6.032c1.52-2.721,0.98-6.427,0.058-8.773c-1.017-2.588-0.719-2.765,0.534-3.509
			c4.597-2.73,6.251-6.964,7.67-11.427c0.651-2.046,2.82-4.483,6.446-7.245c1.198-0.912,3.008-2.291,4.249-2.291
			c0.177,0,0.716,0,1.613,0.722c0.884,0.71,1.971,1.07,3.23,1.07c0.602,0,1.156-0.078,1.692-0.154
			c0.386-0.055,0.75-0.106,1.081-0.121c1.572-0.069,2.957-1.053,3.54-2.514s0.255-3.129-0.837-4.261
			c-1.155-1.196-2.425-2.003-3.445-2.652c-1.972-1.253-2.067-1.377-2.029-2.646c0.123-4.086,3.046-4.293,3.63-4.293
			c0.061,0,0.121,0.002,0.182,0.006c0.379,0.023,0.762,0.036,1.138,0.036c5.901,0,10.112-2.922,13.826-5.501
			c1.993-1.383,3.875-2.688,5.918-3.518c1.612-0.654,2.616-2.274,2.485-4.008c-0.131-1.734-1.368-3.185-3.06-3.589l-13-3.103
			c1.678-2.516,2.488-3.288,3.697-3.288c0.27,0,0.574,0.032,0.906,0.095c0.248,0.047,0.498,0.07,0.746,0.07
			c0.868,0,1.72-0.283,2.422-0.816c0.902-0.687,1.471-1.724,1.564-2.854l0.504-6.085l0.046-0.561l1.126,0.357
			c0.396,0.125,0.803,0.187,1.208,0.187c0.876,0,1.741-0.288,2.451-0.838c1.039-0.805,1.616-2.068,1.544-3.38
			c-0.242-4.41-2.417-6.645-4.717-7.896c0.948-0.412,1.895-0.828,2.835-1.248c1.866-0.829,2.378-2.54,2.625-3.362
			c0.074-0.246,0.144-0.479,0.241-0.732c0.559-1.448,0.23-3.089-0.845-4.209c-0.767-0.8-1.815-1.231-2.887-1.231
			c-0.253,0-0.507,0.024-0.759,0.073c1.494-4.859,3.202-7.959,7.347-9.94c0.137-0.065,0.292-0.125,0.449-0.19
			c1.153-0.47,3.551-1.447,4.333-4.049c0.136-0.452,0.235-1.005,0.22-1.643c1.974-1.336,3.359-3.196,4.552-4.796
			c1.843-2.474,2.675-3.409,4.105-3.409c0.483,0,1.054,0.097,1.697,0.288c0.375,0.111,0.757,0.165,1.137,0.165
			c1.046,0,2.067-0.411,2.829-1.171c1.038-1.037,1.424-2.559,1.007-3.965l-0.759-2.561l-0.584-1.97
			c-0.51-1.721-2.09-2.863-3.832-2.863c-0.227,0-0.456,0.02-0.687,0.059l-0.341,0.06c0.087-0.541,0.192-1.034,0.314-1.264
			c0.118-0.046,0.458-0.148,1.18-0.159c1.445-0.022,2.766-0.822,3.455-2.092c0.685-1.262,0.641-2.793-0.114-4.013
			c0.069,0.025,0.14,0.049,0.211,0.07c0.379,0.114,0.769,0.171,1.157,0.171c0.71,0,1.415-0.189,2.038-0.558l3.388-2.004l2.498-1.478
			c1.098-0.649,1.821-1.784,1.944-3.054c0.124-1.27-0.366-2.523-1.317-3.373l-1.542-1.376l1.675-1.439
			c1.241-1.065,1.708-2.779,1.18-4.327c-0.529-1.548-1.946-2.618-3.58-2.702l-1.554-0.08l0.048-0.03l4.856-3.086
			c1.614-1.026,2.276-3.051,1.58-4.832l-0.815-2.09c-0.608-1.561-2.106-2.548-3.725-2.548c-0.275,0-0.553,0.028-0.831,0.087
			l-3.228,0.684l1.173-2.017c0.813-1.399,0.699-3.138-0.261-4.415c0.066,0.003,0.133,0.005,0.2,0.005
			c0.637,0,1.278-0.152,1.864-0.461l3.12-1.644L255.193,123.792 M383.786,15.195c-1.255,0.08-1.813-0.035-2.215,0.165
			c-3.008,1.498-6.342,2.622-8.882,4.707c-3.364,2.76,0.047,5.24,1.239,7.725c0.067,0.14,0.051,0.326,0.051,0.49
			c0.002,5.104,0.002,10.208,0.002,15.212c-3.119-6.099-6.306-12.331-9.688-18.947c-1.707,6.369-2.97,11.623-4.539,16.782
			c-1.43,4.702-3.191,9.302-4.808,13.947c-0.881-0.262-1.763-0.523-2.643-0.785c0.895-5.967,0.437-12.624,3.034-17.723
			c3.149-6.178,0.642-11.641,1.622-18.175c-3.156,1.114-5.435,1.918-7.783,2.746c0.633,1.665,1.138,2.993,1.745,4.59
			c-2.867,0-5.325,0-8.081,0c-1.644,4.528-3.268,9.001-4.961,13.667c0.888,0.738,2.017,1.676,3.388,2.817
			c-0.922,1.321-1.736,2.488-2.43,3.482c-4.119-2.745-11.681,1.371-11.796-7.489c-3.447,1.565-6.104,2.771-9.134,4.147
			c1.181,1.563,2.114,2.798,3.073,4.068c-1.097,0.59-1.913,1.028-2.431,1.308c2.474,6.801,12.312,6.938,12.827,15.437
			c-2.832-3.018-5.746-3.906-8.726-3.906c-4.277,0-8.688,1.833-13.179,1.833c-0.676,0-1.354-0.042-2.033-0.137
			c0.9,3.253,1.539,5.563,2.215,8.003c2.621-0.283,4.709-0.509,6.925-0.749c1.063,2.462,2.064,4.782,3.364,7.791
			c-4.265-1.463-7.759-2.663-11.167-3.833c-0.919,1.945-1.543,3.267-2.432,5.151c-2.468-1.927-4.898-2.684-7.3-2.684
			c-3.082,0-6.117,1.247-9.117,2.865c-2.885-3.815-4.339-5.472-6.346-5.472c-1.443,0-3.172,0.857-5.923,2.385
			c1.691,1.948,3.378,3.889,5.221,6.01c-1.922,1.75-3.46,3.151-5.188,4.724c0.994,1.942,1.563,3.998,2.875,5.316
			c1.023,1.028,2.967,1.14,3.981,1.483c-1.47,2.229-2.291,3.617-3.259,4.893c-0.728,0.96-1.518,2.055-2.539,2.512
			c-0.021,0.009-0.044,0.014-0.068,0.014c-0.437,0-1.538-1.318-2.181-2.091c-0.522-0.629-0.793-1.459-1.228-2.166
			c-1.198-1.946-2.504-2.902-3.828-2.902c-1.292,0-2.602,0.91-3.846,2.698c-0.813,1.17-2.373,1.822-2.614,1.998
			c-1.918,3.794-3.42,6.766-5.381,10.648c2.403,0.783,5.074,1.653,9.135,2.976c2.407,2.496,1.165,6.08-1.687,9.132
			c1.605,1.883,2.951,3.46,4.297,5.039c-0.387,0.349-0.774,0.698-1.161,1.048c-0.907-0.584-1.813-1.167-2.865-1.844
			c-0.787,0.971-1.569,1.937-2.97,3.665c0.101-2.077,0.154-3.176,0.218-4.489c-2.025,0.126-3.591,0.223-5.385,0.334
			c0.15-2.165,0.272-3.907,0.467-6.688c-4.267,2.248-7.774,4.096-11.864,6.251c0.651-2.875,1.165-5.144,1.65-7.293
			c-1.282-0.542-2.355-0.782-3.263-0.782c-3.088,0-4.266,2.785-5.2,5.997c-1.747-1.138-3.187-2.077-4.906-3.197
			c-2.022,3.376-3.857,6.441-5.496,9.176c2.819,1.653,5.205,3.052,8.303,4.87c0.934-0.401,3.056-1.313,5.515-2.372
			c-2.097,3.607-3.821,6.57-5.706,9.81c4.513-0.956,8.28-1.755,12.048-2.553c0.272,0.698,0.544,1.396,0.817,2.093
			c-2.598,1.651-5.197,3.303-7.795,4.955c-0.274-0.332-0.548-0.664-0.823-0.996c-0.66,1.918-1.32,3.835-2.109,6.129
			c3.31,0.17,5.851,0.301,9.317,0.479c-2.287,1.963-3.692,3.17-5.141,4.415c1.809,1.615,3.264,2.915,4.95,4.419
			c-2.347,1.389-4.279,2.531-5.887,3.483c-1.321-2.738-2.52-5.223-3.875-8.035c-2.404,2.006-4.056,3.383-6.318,5.269
			c1.829,2.911,3.631,5.777,5.424,8.63c-6.866,0.104-4.665,5.994-6.493,10.361c2.467-0.429,4.148-0.721,6.085-1.057
			c0.398,1.344,0.736,2.482,1.343,4.53c-1.055-0.313-1.992-0.453-2.834-0.453c-6.603,0-7.399,8.583-13.084,9.839
			c-0.136,0.03-0.325,0.691-0.207,0.864c1.82,2.662-0.697,3.106-2.095,3.775c-8.179,3.91-9.21,11.705-11.464,19.716
			c2.591-0.878,4.351-1.476,6.603-2.24c-0.411,1.063-0.461,1.747-0.758,1.879c-3.579,1.598-7.195,3.115-10.809,4.655
			c2.322,3.983,9.932,1.271,10.32,8.362c-1.92-0.608-3.407-1.08-5.907-1.873c-0.347,4.196-0.643,7.768-0.964,11.645
			c-0.59-0.112-1.138-0.165-1.652-0.165c-5.016,0-6.637,5.077-10.238,9.839c6.843,1.633,12.728,3.037,18.612,4.442
			c-6.526,2.647-10.788,8.725-18.241,8.725c-0.29,0-0.585-0.01-0.886-0.028c-0.143-0.009-0.287-0.014-0.434-0.014
			c-3.258,0-7.451,2.263-7.629,8.173c-0.157,5.222,3.93,5.437,6.595,8.197c-1.029,0.045-1.945,0.271-2.597,0.271
			c-0.304,0-0.551-0.049-0.725-0.188c-1.437-1.155-2.812-1.604-4.119-1.604c-2.493,0-4.736,1.634-6.672,3.108
			c-3.186,2.427-6.696,5.637-7.834,9.215c-1.233,3.88-2.484,7.171-5.901,9.2c-3.702,2.198-3.596,4.896-2.215,8.411
			c0.632,1.606,0.933,4,0.173,5.36c-1.572,2.813-3.955,5.171-5.177,6.688c-4.372-0.542-7.992-0.991-12.396-1.538
			c0.548,4.151,0.911,6.899,1.166,8.829c-4.632,1.689-9.215,2.932-13.371,5.024c-1.454,0.732-2.744,1.182-3.977,1.182
			c-1.246,0-2.435-0.46-3.677-1.552c-1.522-1.34-3.036-1.835-4.507-1.835c-1.747,0-3.434,0.698-5.006,1.513
			c1.852,3.527,3.6,6.857,5.735,10.925c1.482,0.598,4.167,1.681,6.851,2.764c-0.162,0.587-0.323,1.175-0.485,1.762
			c-1.961-0.273-3.919-0.579-5.885-0.813c-3.944-0.47-7.886-1.01-11.845-1.258c-0.021-0.001-0.041-0.002-0.062-0.002
			c-0.819,0-2.176,0.947-2.341,1.657c-0.195,0.841,0.423,2.256,1.153,2.848c1.618,1.31,3.527,2.26,6.105,3.84
			c-2.351,0.293-3.735,0.466-5.053,0.631c-0.287,1.435-0.52,2.605-0.8,4.008c-1.358-1.512-2.947-2.25-4.513-2.25
			c-1.731,0-3.436,0.901-4.775,2.656c0.435,0.935,0.909,1.95,1.983,4.253c-5.513-0.334-10.275-0.623-16.077-0.975
			c1.157,3.073,1.91,5.074,2.797,7.436c-3.789,1.914-7.825,5.093-5.494,10.002c1.728,3.642,5.764,6.187,8.783,9.23
			c-0.376,0.18-0.779,0.251-1.204,0.251c-1.663,0-3.635-1.1-5.427-1.1c-1.409,0-2.706,0.681-3.65,3.112
			c-1.862,4.794,1.382,6.892,3.983,9.529c-3.583,3.143-3.925,7.006-1.572,9.343c-1.427,2.497-2.724,4.768-4.487,7.854
			c3.689-0.314,5.988-0.511,8.899-0.759c-1.416,1.601-2.247,2.54-3.055,3.454c1.223,1.691,2.28,3.154,3.373,4.667
			c-1.501,1.72-2.857,3.274-4.476,5.132c2.039,0.836,3.517,1.442,5.169,2.12c-1.217,0.834-2.248,1.539-3.959,2.712
			c3.625,0.982,6.546,1.774,10.004,2.712c-1.417,1.932-2.556,3.481-3.751,5.111c-1.436-0.967-2.633-1.771-3.83-2.578
			c-0.351,0.252-0.702,0.504-1.053,0.756c0.974,2.511,1.948,5.023,2.707,6.981c-2.953,1.553-4.43,6.264-8.615,6.264
			c-0.977,0-2.101-0.257-3.425-0.87c2.142,5.676,3.745,9.925,5.031,13.333c2.21-0.781,4.296-0.983,6.215-0.983
			c2.052,0,3.913,0.23,5.53,0.23c0.178,0,0.353-0.003,0.525-0.009c-2.085,3.351-4.09,6.573-6.183,9.936
			c-0.355-0.283-1.186-0.945-1.96-1.562c-3.709,1.536-4.355,4.07-3.175,7.62c0.939,2.825,0.832,6.108,2.191,8.653
			c1.729,3.237,3.923,6.864,6.917,8.618c2.477,1.451,5.039,4.273,8.193,4.273c1.233,0,2.557-0.432,4.002-1.546
			c0.083-0.064,0.194-0.091,0.329-0.091c0.577,0,1.581,0.499,2.623,0.754c-1.525,2.15-2.711,3.823-3.829,5.401
			c3.05,2.646,6.103,4.166,9.498,4.166c1.556,0,3.184-0.32,4.916-0.997c0.529-0.207,1.11-0.274,1.718-0.274
			c1.15,0,2.393,0.242,3.552,0.242c0.567,0,1.114-0.059,1.62-0.231c5.046-1.73,9.908-4.018,14.771-6.237
			c0.465-0.212,0.439-1.527,0.617-2.337c0.387-1.755,0.759-3.514,1.138-5.271c0.291,0.396,0.582,0.794,0.873,1.19
			c4.202-2.029,8.403-4.059,10.945-5.286c2.619-6.063,4.642-10.745,6.445-14.917c5.025,0.374,8.947,0.665,13.052,0.971
			c1.329-6.125,2.545-11.725,4.098-18.875c1.521,3.276,2.687,5.207,3.327,7.3c0.89,2.903,2.342,4.703,5.211,4.703
			c0.369,0,0.762-0.029,1.18-0.091c0.542-0.079,1.045-0.119,1.508-0.119c3.247,0,4.562,1.943,4.074,5.731
			c-0.119,0.924,0.14,1.897,0.233,2.953c2.418,0,4.493,0,6.464,0c0.231-0.575,0.455-0.873,0.45-1.167
			c-0.022-1.33-0.051-2.664-0.182-3.986c-1.224-12.359-0.691-23.838,8.854-33.858c3.705-3.889,4.353-10.856,5.887-16.558
			c0.53-1.97-0.027-4.542-0.867-6.507c-1.721-4.027-3.97-7.83-6.028-11.778c0.976-0.495,1.391-0.802,1.854-0.928
			c6.161-1.661,5.854-7.627,7.328-12.02c0.46-1.375-2.499-4.584-4.554-5.976c-4.497-3.043-5.762-6.816-5.656-12.155
			c0.261-13.174,2.39-26.682-4.865-38.976c-1.09-1.848-2.158-3.88-2.506-5.948c-0.404-2.401-0.646-5.181,0.177-7.367
			c2.044-5.428,4.805-10.581,7.148-15.901c2.624-5.953,6.98-9.477,13.511-10.229c3.471-0.4,6.968-0.717,10.378-1.431
			c1.156-0.242,2.712-1.411,3.005-2.458c1.603-5.732,2.701-11.449-4.243-14.887c-2.754-1.364-2.865-3.377-1.461-6.179
			c3.421-6.83,6.723-13.749,9.499-20.855c1.043-2.669,1.103-6.074,0.559-8.944c-1.401-7.397-4.82-14.585-1.329-22.454
			c1.542-0.078,3.202-0.057,4.832-0.267c3.434-0.443,7.774-6.085,6.133-8.419c-2.809-3.995-0.367-5.608,2.205-8.025
			c6.266-5.887,11.949-11.975,7.459-21.908c-1.459-3.229-2.003-7.588-1.161-10.982c1.428-5.753,4.251-11.166,6.562-16.691
			c1.042-2.491,2.649-3.711,4.74-3.71c0.881,0,1.849,0.217,2.896,0.646c2.282,0.937,4.552,1.899,6.771,2.826
			c3.526-4.698,5.207-8.977-0.037-13.492c-1.48-1.274-1.974-3.695-3.318-6.389c10.282,1.015,19.756,1.95,29.852,2.947
			c-0.93-3.263-2.493-6.013-2.218-8.565c0.263-2.444,2.437-4.681,3.942-7.311c-0.785-1.022-1.944-2.533-3.696-4.813
			c2.533,0,4.142,0,5.752,0c9.268,0,18.546,0.232,27.813,0.232c6.313,0,12.621-0.108,18.912-0.471
			c9.874-0.568,11.075,1.309,10.898-11.065c-0.007-0.45,0.323-0.906,0.481-1.322c7.98-0.982,8.454-1.994,4.31-8.887
			c-1.319-2.195-2.565-4.434-3.844-6.652c0.212-0.547,0.424-1.094,0.637-1.64c6.528,0,13.056,0.031,19.584,0.031
			c5.607,0,11.215-0.023,16.822-0.108c2.92-0.045,5.968-0.696,8.68-1.769c1.404-0.556,3.204-2.716,3.109-4.028
			c-0.563-7.789,3.276-12.865,9.448-16.618c4.482-2.727,5.342-6.372,3.368-11.044c-3.767-0.904-7.555-1.813-11.487-2.756
			c-0.948,2.761-1.747,5.085-2.527,7.355c-0.641,0.133-1.17,0.194-1.606,0.194c-3.416,0-1.099-3.724-1.744-5.479
			c-3.223-0.692-6.298-1.352-9.374-2.012c-0.112-0.454-0.225-0.908-0.337-1.362c0.575,0.033,1.142,0.051,1.696,0.051
			c5.682,0,10.232-1.838,12.709-7.448c0.457-1.032,2.131-1.51,3.214-2.286c1.136-0.814,2.236-1.678,4.33-3.256
			c-5.321-2.729-9.765-5.005-13.502-6.921c-1.137-2.635-1.895-6.752-3.183-6.926c-0.398-0.054-0.796-0.082-1.185-0.082
			c-3.069,0-5.633,1.765-4.535,6.761c-4.493-2.264-8.351-4.207-12.513-6.305c0.274,4.665,0.516,8.765,0.783,13.316
			c-1.685-0.173-2.896-0.297-3.507-0.359C385.744,26.103,384.764,20.642,383.786,15.195L383.786,15.195z"/>
	</g>
</g>
<g id="Layer_1">
</g>
</svg>
