<?xml version="1.0" encoding="iso-8859-1"?>
<!-- Generator: Adobe Illustrator 16.0.0, SVG Export Plug-In . SVG Version: 6.00 Build 0)  -->
<!DOCTYPE svg PUBLIC "-//W3C//DTD SVG 1.1//EN" "http://www.w3.org/Graphics/SVG/1.1/DTD/svg11.dtd">
<svg version="1.1" xmlns="http://www.w3.org/2000/svg" xmlns:xlink="http://www.w3.org/1999/xlink" x="0px" y="0px" width="512px"
	 height="512px" viewBox="0 0 512 512" style="enable-background:new 0 0 512 512;" xml:space="preserve">
<g id="poland">
	<g>
		<path style="fill:#FFFFFF;" d="M185.65,60.474c1.207,0,2.655,0.207,4.157,0.438c8.425,1.292,10.185,4.586,10.483,10.212
			c0.416,7.821,5.34,12.032,8.936,15.106c1.091,0.933,2.122,1.814,2.88,2.664c5.255,5.884,10.745,8.745,16.785,8.745
			c4.571,0,9.091-1.662,13.82-5.08c4.769-3.448,9.954-6.363,15.442-9.449l1.282-0.721c0.048-0.027,0.114-0.057,0.188-0.086
			c10.297,4.412,20.721,4.993,28.732,4.993c3.564,0,7.137-0.126,10.592-0.248c2.09-0.074,4.251-0.15,6.349-0.195
			c2.532-0.055,5.28-0.643,8.168-1.749c16.385-6.273,33.57-7.613,49.699-8.127c0.214-0.007,0.43-0.009,0.646-0.009
			c0.513,0,1.031,0.013,1.551,0.025c0.634,0.016,1.27,0.03,1.898,0.03c1.954,0,4.526-0.126,7.104-1.106
			c6.594-2.508,12.763-5.751,17.401-8.297c0.54-0.296,1.04-0.624,1.505-0.97c2.406,3.157,6.022,7.583,12.713,8.272
			c3.262,0.336,6.472,0.572,9.789,0.795c-0.623,2.621-1.198,5.299-1.58,8.022c-0.613,4.38,0.154,8.96,2.055,12.254
			c4.133,7.158,8.423,14.359,12.571,21.323c7.387,12.399,15.024,25.22,21.93,38.069c1.708,3.179,2.123,7.788,2.563,12.668
			c0.107,1.185,0.216,2.394,0.347,3.61c-0.093,0.093-0.183,0.185-0.27,0.274c-1.504,1.555-3.005,3.113-4.506,4.671
			c-5.881,6.105-11.963,12.417-18.1,18.385c-5.477,5.326-4.938,10.868-4.056,14.571l0.075,0.314
			c3.109,13.09,5.868,15.225,19.678,15.225h6.103c0.084,0.942,0.17,1.876,0.255,2.801c0.609,6.639,1.186,12.909,1.055,19.094
			c-0.261,12.261,4.141,22.417,8.397,32.24c1.432,3.305,2.784,6.426,3.954,9.604c1.168,3.179,3.689,5.004,5.359,6.212
			c0.179,0.129,0.355,0.257,0.526,0.385c5.008,3.744,9.95,7.389,15.143,11.213l-1.656,1.509c-1.455,1.325-2.286,3.201-2.288,5.169
			c-0.002,1.967,0.823,3.845,2.275,5.173c1.32,1.208,2.599,2.354,3.838,3.466c2.804,2.517,5.258,4.718,7.542,7.024
			c0.022,0.124,0.046,0.261,0.067,0.402c-0.214,0.583-0.449,1.339-0.572,2.216c-0.844,5.995-2.297,5.995-4.308,5.995
			c-0.416,0-0.871-0.026-1.356-0.077c-0.301-0.032-0.608-0.048-0.913-0.048c-4.458,0-8.846,3.572-10.71,6.933
			c-12.358,22.274-24.367,44.272-35.696,65.387c-1.901,3.548-2.203,8.457-0.751,12.215c3.016,7.796,6.139,15.328,9.436,23.255
			c-7.611-0.321-13.07-2.047-17.901-5.596c-13.366-9.821-28.554-12.168-43.242-14.438c-1.861-0.288-3.722-0.575-5.579-0.879
			c-0.466-0.075-0.944-0.114-1.422-0.114c-5.95,0-10.391,5.765-10.877,6.422l-0.287,0.389c-0.452,0.613-1.077,1.46-1.535,1.971
			c-0.142-0.056-0.315-0.132-0.522-0.234c-0.979-0.482-2.038-0.721-3.095-0.721c-1.31,0-2.614,0.367-3.756,1.093
			c-2.063,1.312-3.291,3.603-3.243,6.046c0.001,0.049,0.002,0.097,0.003,0.144c-0.509-0.032-1.07-0.084-1.651-0.138
			c-0.469-0.043-0.938-0.086-1.405-0.122c-4.324-0.338-8.794-0.688-13.386-0.688c-0.984,0-1.954,0.017-2.883,0.05
			c-3.795,0.134-6.665,2.22-8.761,3.743c-0.188,0.137-0.375,0.272-0.558,0.403c-2.048,1.46-3.001,3.406-3.571,4.569
			c-0.076,0.157-0.148,0.315-0.228,0.453l-0.054,0.09c-2.061,3.435-4.191,6.986-5.028,7.469c-0.003,0.002-0.356,0.149-1.653,0.149
			c-1.588,0-3.897-0.217-6.581-0.482c-0.049-0.044-0.094-0.089-0.121-0.123c-3.651-4.696-7.248-9.565-10.726-14.273
			c-1.25-1.692-2.494-3.376-3.735-5.046c-1.198-1.612-3.033-2.632-5.036-2.799c-0.194-0.017-0.388-0.024-0.581-0.024
			c-1.8,0-3.54,0.694-4.849,1.951l-5.32,5.109l-5.899,5.665c-2.706-1.489-5.289-2.923-7.744-4.464
			c-0.032-0.145-0.065-0.313-0.097-0.504c-0.124-0.761-0.087-1.877-0.044-3.17c0.024-0.748,0.053-1.597,0.053-2.499
			c0-3.479-2.556-6.431-6-6.928l-0.131-0.02l-5.079-0.733l0.054-0.524l0.191-1.853c0.317-3.061-1.402-5.97-4.236-7.168l-0.7-0.296
			l0.111-0.829c0.285-2.114-0.409-4.242-1.886-5.781c-1.326-1.383-3.154-2.154-5.051-2.154c-0.215,0-0.431,0.01-0.647,0.03
			c-1.355,0.126-2.729,0.227-4.058,0.325c-3.107,0.229-6.319,0.467-9.547,1.032c-0.873,0.152-1.607,0.23-2.182,0.23
			c-0.952,0-1.009,0-1.49-0.886c-0.881-1.623-2.011-2.725-2.76-3.453c-0.111-0.107-0.219-0.209-0.305-0.301
			c-1.274-1.418-3.073-2.256-4.979-2.317c-0.076-0.003-0.152-0.004-0.229-0.004c-1.124,0-2.222,0.271-3.206,0.777
			c0.764-1.048,1.23-2.298,1.327-3.616c0.145-1.984-0.561-3.936-1.941-5.368c-2.441-2.533-5.463-3.23-7.543-3.581
			c-0.355-1.631-1.285-3.101-2.651-4.121c-1.226-0.915-2.698-1.392-4.19-1.392c-0.72,0-1.443,0.111-2.146,0.337
			c-1.586,0.511-3.123,1.021-4.628,1.521c-3.079,1.022-6.016,1.997-8.899,2.813c-5.02-6.995-12.165-6.994-14.706-6.994
			c-1.388,0-2.71,0.088-3.989,0.174c-1.115,0.074-2.168,0.145-3.124,0.145c-0.236,0-0.471-0.004-0.706-0.015
			c-0.104-0.005-0.209-0.007-0.313-0.007c-1.838,0-3.608,0.725-4.922,2.023c-1.388,1.372-2.139,3.262-2.074,5.212
			c0.071,2.121,0.223,6.615,2.29,11.225c-1.068,0.371-2.152,0.873-3.179,1.558c-0.002-0.015-0.005-0.029-0.007-0.044
			c-0.693-4.296-3.61-8.25-8.212-11.137c-1.5-0.94-3.086-1.581-4.696-2.033c0.171-0.097,0.341-0.193,0.509-0.288
			c0.913-0.519,1.774-1.008,2.582-1.432c1.647-0.865,2.883-2.351,3.433-4.128c0.551-1.777,0.371-3.7-0.5-5.345
			c-3.87-7.312-9.355-11.02-16.304-11.02c-3.023-0.001-5.942,0.735-8.67,1.646c-1.216-2.122-3.503-3.523-6.07-3.523
			c-0.169,0-0.34,0.006-0.512,0.019c-0.822,0.06-1.544,0.161-2.181,0.251c-0.313,0.044-0.715,0.101-0.964,0.123l-0.32-0.078
			c-0.577-0.14-1.448-0.352-2.019-0.54c-3.909-5.343-9.283-8.159-15.605-8.159c-0.819,0-1.665,0.047-2.527,0.14
			c-2.926-7.168-8.615-11.117-16.178-11.181c0.006-0.129,0.013-0.257,0.02-0.386c0.307-6.106,0.597-11.875,1.21-17.631
			c0.911-8.53-4.134-12.112-8.532-13.616c-5.861-1.999-7.143-3.119-7.378-3.591c-0.065-0.259,0.052-1.54,1.393-3.951
			c1.049-1.886,1.17-4.15,0.327-6.138c-0.843-1.986-2.555-3.474-4.641-4.029l-1.675-0.446c0.002-0.059,0.005-0.116,0.007-0.175
			c0.242-5.932,0.513-9.432,3.277-12.398c3.481-3.739,2.024-9.078,1.543-10.837c-0.433-1.581-0.993-3.07-1.486-4.384
			c-0.636-1.692-1.237-3.291-1.349-4.497c-0.648-7.032-4.087-11.152-10.224-12.255l5.851-15.493c1.19-3.152-0.035-6.706-2.915-8.455
			l-6.839-4.152c-4.944-3-9.884-5.998-14.812-9.003c-0.333-0.222-1.388-1.619-1.846-4.158c-0.468-2.595,0.051-4.321,0.292-4.653
			c1.035-1.324,2.306-2.696,3.652-4.148c3.764-4.064,8.031-8.67,9.243-14.718c1.412-7.042-1.197-14.132-3.499-20.388
			c-0.37-1.005-0.736-1.998-1.075-2.971c-1.657-4.744-4.989-9.468-8.914-12.636c-1.673-1.351-2.759-2.717-3.041-4.923
			c1.565,0.417,3.005,0.621,4.39,0.621c2.612,0,8.989-0.883,11.781-9.066c0.982-2.881,2.442-3.977,5.581-4.188
			c7.101-0.479,12.291-3.917,17.416-7.703c1.048-0.774,5.337-0.944,6.744-1c2.366-0.093,9.495-0.374,12.795-7.722
			c0.018,0.002,0.035,0.004,0.053,0.006c0.849,0.096,1.679,0.145,2.466,0.145c3.511,0,6.248-1.007,8.134-2.994
			c0.993-1.046,1.931-1.417,3.583-1.417c1.339,0,2.901,0.264,4.391,0.548c1.042,0.199,1.999,0.296,2.922,0.296
			c4.495,0,9.896-2.721,10.329-10.388c0.405-7.179,3.732-10.965,13.693-15.579c13.483-6.245,26.53-13.668,39.147-20.848
			c3.721-2.118,7.569-4.307,11.354-6.423C183.482,60.695,184.375,60.474,185.65,60.474 M215.592,406.601
			c-0.368,0.426-0.712,0.844-1.036,1.238c-0.168,0.205-0.368,0.448-0.568,0.686c-0.11-0.12-0.228-0.257-0.354-0.41L215.592,406.601
			 M185.65,53.474c-2.206,0-4.335,0.414-6.596,1.677c-16.55,9.254-32.86,19.078-50.028,27.03
			c-10.069,4.664-17.089,9.991-17.74,21.536c-0.148,2.634-1.208,3.782-3.34,3.782c-0.481,0-1.017-0.058-1.609-0.171
			c-1.923-0.368-3.838-0.673-5.704-0.673c-3.086,0-6.038,0.835-8.661,3.599c-0.594,0.626-1.832,0.812-3.057,0.812
			c-0.587,0-1.171-0.042-1.68-0.1c-0.434-0.049-0.851-0.075-1.251-0.075c-2.754,0-4.724,1.192-5.892,3.968
			c-1.286,3.058-3.584,3.658-6.767,3.783c-3.621,0.144-7.937,0.377-10.627,2.363c-4.271,3.155-8.395,5.991-13.729,6.35
			c-5.976,0.402-9.845,3.369-11.735,8.913c-1.04,3.048-2.73,4.325-5.155,4.325c-0.866,0-1.827-0.163-2.884-0.467
			c-2.462-0.707-5.129-0.703-7.629-1.009c-1.83,7.277-1.391,13.254,4.768,18.225c2.927,2.363,5.463,5.951,6.702,9.497
			c2.233,6.396,5.535,13.615,4.32,19.675c-1.172,5.848-7.449,10.692-11.545,15.929c-3.772,4.82-1.838,15.891,3.418,19.097
			c7.211,4.397,14.436,8.772,21.667,13.165c-2.917,7.727-5.655,14.975-8.532,22.593c2.842,0.852,5.157,1.862,7.566,2.194
			c3.767,0.52,4.592,2.545,4.917,6.075c0.316,3.425,2.124,6.691,3.053,10.087c0.37,1.354,0.784,3.467,0.085,4.218
			c-6.164,6.616-4.603,14.817-5.531,22.624c2.359,0.629,4.251,1.133,7.241,1.93c-6.259,11.249,1.431,14.701,9.842,17.57
			c3.167,1.083,4.213,2.679,3.832,6.248c-0.893,8.379-1.125,16.828-1.64,25.52c1.657,0.146,2.961,0.438,4.16,0.438
			c0.265,0,0.524-0.015,0.781-0.048c0.782-0.101,1.529-0.151,2.244-0.151c5.085,0,8.492,2.566,10.282,7.907
			c0.788,2.351,2.391,3.469,4.619,3.469c0.391,0,0.802-0.034,1.23-0.103c0.958-0.153,1.877-0.231,2.759-0.231
			c4.269,0,7.668,1.836,10.405,5.936c1.068,1.598,3.997,2.172,6.198,2.721c0.378,0.095,0.771,0.132,1.178,0.132
			c1.17,0,2.45-0.305,3.813-0.403c0.167,2.167,0.29,3.755,0.46,5.963c4.84-1.499,9.758-4.087,14.287-4.086
			c3.724,0,7.184,1.75,10.119,7.294c-3.006,1.578-6.206,3.693-9.707,4.995c-4.961,1.842-5.011,4.81-3.414,8.154
			c5.234,0.865,10.602,0.438,14.261,2.732c3.59,2.251,7.683,6.631,2.977,12.327c3.624,1.694,6.568,3.069,10.247,4.788
			c0.571-10.744,9.843-5.536,15.101-9.301c-6.325-3.185-8.268-8.695-8.5-15.582c0.338,0.016,0.678,0.021,1.019,0.021
			c2.367,0,4.792-0.318,7.113-0.318c4,0,7.687,0.947,10.224,6.107c0.363,0.739,2.123,1.238,3.525,1.238
			c0.373,0,0.721-0.036,1.01-0.111c5.084-1.328,10.048-3.116,15.621-4.911c-0.172,7.184,6.424,3.923,9.343,6.951
			c-3.083,2.383-6.054,4.681-8.978,6.94c4.286,6.742,6.473,9.339,10.138,9.339c0.445,0,0.912-0.038,1.407-0.112
			c2.288-0.34,4.125-3.7,6.292-5.817c0.614,0.684,1.585,1.43,2.119,2.414c1.868,3.44,4.491,4.547,7.642,4.547
			c1.072,0,2.206-0.128,3.391-0.336c4.185-0.733,8.477-0.858,13.042-1.282c-0.321,2.384-0.56,4.153-0.825,6.127
			c1.877,0.795,3.68,1.559,5.625,2.381c-0.314,3.034-0.614,5.938-0.938,9.064c4.146,0.6,7.874,1.138,11.865,1.714
			c0,2.525-0.258,4.712,0.083,6.798c0.262,1.604,0.853,3.731,2.033,4.503c4.405,2.88,9.114,5.297,13.841,7.961
			c5.153-4.95,10.017-9.619,14.943-14.351c4.752,6.392,9.544,12.999,14.552,19.439c0.988,1.272,2.737,2.571,4.248,2.722
			c3.401,0.338,5.954,0.587,7.98,0.587c6.096,0,7.426-2.252,12.738-11.106c0.601-1.001,0.988-2.304,1.859-2.925
			c1.688-1.203,3.622-2.784,5.502-2.851c0.878-0.031,1.756-0.045,2.636-0.045c4.276,0,8.569,0.332,12.84,0.666
			c1.525,0.119,3.078,0.314,4.508,0.314c3.469,0,6.213-1.148,6.091-7.315c1.572,0.775,2.894,1.104,4.036,1.104
			c3.24,0,5.038-2.654,7.029-5.344c1.186-1.602,3.594-3.587,5.25-3.587c0.103,0,0.202,0.008,0.298,0.023
			c15.88,2.595,32.214,4.063,45.802,14.048c7.622,5.6,16.038,7.011,24.787,7.011c2.524,0,5.077-0.118,7.646-0.286
			c-4.558-11.046-9.108-21.726-13.294-32.549c-0.709-1.834-0.539-4.647,0.392-6.384c11.724-21.851,23.616-43.612,35.647-65.297
			c0.837-1.509,3.091-3.329,4.589-3.329c0.061,0,0.12,0.003,0.179,0.009c0.735,0.078,1.432,0.116,2.091,0.116
			c7.498,0,10.239-4.912,11.239-12.02c0.138-0.979,0.896-1.97,0.763-2.864c-0.254-1.717-0.453-3.841-1.538-4.962
			c-3.682-3.806-7.74-7.246-12.307-11.423c2.787-2.537,5.284-4.813,7.968-7.257c-7.533-5.559-14.779-10.868-21.975-16.248
			c-1.308-0.979-2.998-2.021-3.506-3.403c-4.729-12.843-12.233-24.734-11.925-39.282c0.202-9.551-1.165-19.136-1.854-29.043
			c-4.604,0-8.581,0-12.556,0c-10.641,0-10.534-0.025-12.942-10.157c-0.767-3.22-0.41-5.468,2.125-7.934
			c7.766-7.551,15.224-15.419,22.757-23.208c1.009-1.042,2.638-2.454,2.492-3.484c-1.01-7.168-0.737-15.182-3.997-21.248
			c-10.865-20.218-23.12-39.687-34.604-59.579c-1.235-2.141-1.537-5.266-1.185-7.783c0.706-5.047,2.165-9.991,3.414-15.417
			c-6.295-0.458-12.082-0.741-17.838-1.334c-6.836-0.704-8.045-8.327-13.637-11.323c-1.485,1.593-2.76,3.8-4.668,4.848
			c-5.349,2.936-10.831,5.726-16.521,7.89c-1.414,0.538-2.995,0.649-4.616,0.649c-1.146,0-2.31-0.056-3.449-0.056
			c-0.291,0-0.582,0.003-0.869,0.013c-17.708,0.564-35.232,2.175-51.979,8.587c-1.84,0.705-3.864,1.246-5.815,1.288
			c-5.594,0.121-11.206,0.442-16.79,0.442c-9.147,0-18.216-0.862-26.986-4.875c-0.391-0.179-0.864-0.256-1.377-0.256
			c-1.319,0-2.9,0.51-3.99,1.124c-5.915,3.331-11.905,6.63-17.392,10.597c-3.495,2.526-6.69,3.752-9.719,3.752
			c-4.051,0-7.802-2.195-11.563-6.407c-3.786-4.24-9.689-6.75-10.047-13.479c-0.554-10.434-6.392-15.223-16.412-16.76
			C189.025,53.71,187.315,53.474,185.65,53.474L185.65,53.474z"/>
	</g>
</g>
<g id="Layer_1">
</g>
</svg>
