<?xml version="1.0" encoding="iso-8859-1"?>
<!-- Generator: Adobe Illustrator 16.0.0, SVG Export Plug-In . SVG Version: 6.00 Build 0)  -->
<!DOCTYPE svg PUBLIC "-//W3C//DTD SVG 1.1//EN" "http://www.w3.org/Graphics/SVG/1.1/DTD/svg11.dtd">
<svg version="1.1" xmlns="http://www.w3.org/2000/svg" xmlns:xlink="http://www.w3.org/1999/xlink" x="0px" y="0px" width="512px"
	 height="512px" viewBox="0 0 512 512" style="enable-background:new 0 0 512 512;" xml:space="preserve">
<g id="portugal">
	<g>
		<path style="fill-rule:evenodd;clip-rule:evenodd;fill:none;stroke:#FFFFFF;stroke-width:8;stroke-miterlimit:10;" d="
			M119.433,482.813c6.282-3.672,12.23-6.985,17.994-10.594c2.562-1.604,4.59-1.728,7.213-0.089
			c17.916,11.191,35.959,22.18,53.839,33.428c2.561,1.61,4.382,1.987,7.134,0.495c8.191-4.439,16.509-8.66,24.901-12.708
			c2.692-1.3,3.419-2.836,3.227-5.759c-0.787-11.968-1.401-23.95-1.761-35.938c-0.06-2.003,0.937-4.552,2.329-6
			c8.312-8.648,16.757-17.18,25.472-25.418c1.758-1.662,4.853-2.604,7.353-2.646c6.234-0.104,12.481,0.501,19.111,0.842
			c-0.353-5.193-0.95-9.666-0.871-14.127c0.068-3.842-1.307-5.898-5.102-6.442c-5.022-0.72-7.445-3.819-8.869-8.621
			c-2.124-7.164-4.825-14.169-7.57-21.127c-1.018-2.582-0.438-4.083,1.267-6.122c7.487-8.954,16.401-15.942,26.886-21.063
			c4.234-2.066,8.211-4.664,12.49-7.127c-4.187-5.782-7.516-11.235-11.685-15.945c-7.048-7.965-10.434-16.854-10.5-27.565
			c-0.063-10.207-1.389-20.406-2.202-31.188c16.053,0,31.446,0,45.969,0c0-10.685-0.097-20.818,0.072-30.947
			c0.04-2.377,0.47-5.019,1.59-7.062c9.142-16.67,16.656-34.048,22.908-51.977c0.713-2.044,0.839-4.54,0.444-6.68
			c-1.526-8.286-3.374-16.513-5.114-24.83c16.146-8.135,31.634-16.667,47.75-23.772c9.024-3.979,13.879-8.998,13.01-19.145
			c-0.218-2.548-0.599-3.875-2.964-4.845c-5.233-2.147-10.313-4.671-15.563-6.777c-2.847-1.143-3.729-2.407-2.626-5.575
			c1.939-5.575,3.294-11.355,4.951-17.25c-2.584-0.964-4.612-1.668-6.602-2.471c-8.007-3.233-16.476-5.684-23.858-9.991
			c-6.614-3.858-12.114-5.139-18.311-0.179c-6.627,5.305-12.894,4.469-19.745-0.218c-6.959-4.76-14.454-9.199-23.551-5.081
			c-0.235,0.107-0.624-0.127-1.134-0.247c-1.183-2.187-2.424-4.484-3.715-6.872c-6.321,1.545-12.353,3.018-18.384,4.492
			c-0.305-0.393-0.609-0.785-0.914-1.178c5.868-7.309,11.736-14.617,17.784-22.15c-3.977-2.251-8.008-4.25-11.728-6.721
			c-3.594-2.386-7-2.949-11.214-1.607c-7.13,2.269-14.364,4.388-21.705,5.761c-8.545,1.598-14.054,7.643-20.951,12.047
			c2.532,4.556,4.622,8.715,7.099,12.629c1.626,2.57,1.735,4.495-0.877,6.295c-10.014,6.901-12.434,16.336-11.999,28.299
			c0.408,11.186,0.824,21.378,10.292,28.916c0.221,0.176,0.259,0.579,0.534,1.24c-5.763,6.97-11.643,14.083-18.371,22.221
			c2.767,2.117,5.239,4.008,7.902,6.046c-5.285,4.238-10.17,7.989-14.844,11.988c-1.706,1.46-3.314,3.312-4.279,5.316
			c-7.214,14.984-14.451,29.962-21.283,45.121c-4.822,10.698-11.137,20.229-18.36,29.499c-9.092,11.668-19.187,21.568-33.075,27.035
			c-3.98,1.567-5.186,4.2-4.604,8.124c2.219,14.993-1.73,28.303-11.563,39.681c-6.315,7.308-5.147,13.09-0.091,21.166
			c6.729,10.75,14.615,18.616,26.908,21.638c3.249,0.799,6.729,1.268,10.044,1.037c5.022-0.35,9.994-1.444,15.587-2.315
			c-2.254,8.418-4.143,16.001-6.415,23.467c-0.41,1.348-2.22,2.741-3.676,3.214c-5.352,1.738-10.828,3.098-16.507,4.667
			c0,11.937,0.118,23.586-0.088,35.23c-0.048,2.702-0.733,5.611-1.918,8.039c-7.659,15.695-15.563,31.271-23.296,46.931
			c-0.67,1.356-1.343,3.263-0.901,4.522C114.677,471.438,117.049,476.902,119.433,482.813z"/>
		<path style="fill-rule:evenodd;clip-rule:evenodd;fill:none;stroke:#FFFFFF;stroke-width:8;stroke-miterlimit:10;" d="
			M119.433,482.813c-2.384-5.91-4.756-11.375-6.724-16.984c-0.442-1.26,0.23-3.166,0.901-4.522
			c7.734-15.659,15.638-31.235,23.296-46.931c1.185-2.428,1.87-5.337,1.918-8.039c0.206-11.645,0.088-23.294,0.088-35.23
			c5.68-1.569,11.155-2.929,16.507-4.667c1.456-0.473,3.267-1.866,3.676-3.214c2.271-7.466,4.16-15.049,6.415-23.467
			c-5.593,0.871-10.564,1.966-15.587,2.315c-3.315,0.23-6.795-0.238-10.044-1.037c-12.293-3.021-20.178-10.888-26.908-21.638
			c-5.056-8.076-6.224-13.858,0.091-21.166c9.832-11.378,13.782-24.688,11.563-39.681c-0.581-3.924,0.624-6.557,4.604-8.124
			c13.888-5.466,23.983-15.366,33.075-27.035c7.223-9.27,13.538-18.8,18.36-29.499c6.832-15.159,14.069-30.137,21.283-45.121
			c0.965-2.004,2.573-3.856,4.279-5.316c4.674-3.999,9.559-7.75,14.844-11.988c-2.663-2.038-5.135-3.929-7.902-6.046
			c6.728-8.138,12.608-15.251,18.371-22.221c-0.274-0.661-0.313-1.064-0.534-1.24c-9.468-7.537-9.884-17.729-10.292-28.916
			c-0.436-11.962,1.985-21.397,11.999-28.299c2.612-1.801,2.503-3.725,0.877-6.295c-2.477-3.915-4.566-8.073-7.099-12.629
			c6.897-4.405,12.406-10.45,20.951-12.047c7.341-1.373,14.575-3.492,21.705-5.761c4.214-1.342,7.62-0.778,11.214,1.607
			c3.72,2.47,7.751,4.47,11.728,6.721c-6.048,7.533-11.916,14.842-17.784,22.15c0.305,0.393,0.609,0.785,0.914,1.178
			c6.031-1.474,12.063-2.947,18.384-4.492c1.291,2.388,2.532,4.685,3.715,6.872c0.51,0.12,0.898,0.354,1.134,0.247
			c9.097-4.119,16.592,0.32,23.551,5.081c6.852,4.687,13.118,5.522,19.745,0.218c6.196-4.96,11.696-3.679,18.311,0.179
			c7.383,4.307,15.852,6.758,23.858,9.991c1.989,0.803,4.018,1.507,6.602,2.471c-1.657,5.896-3.012,11.675-4.951,17.25
			c-1.103,3.167-0.221,4.432,2.626,5.575c5.249,2.106,10.329,4.63,15.563,6.777c2.365,0.971,2.746,2.297,2.964,4.845
			c0.869,10.147-3.985,15.166-13.01,19.145c-16.116,7.105-31.604,15.638-47.75,23.772c1.74,8.316,3.588,16.543,5.114,24.83
			c0.395,2.141,0.269,4.636-0.444,6.68c-6.252,17.928-13.767,35.306-22.908,51.977c-1.12,2.043-1.55,4.685-1.59,7.062
			c-0.169,10.129-0.072,20.263-0.072,30.947c-14.522,0-29.916,0-45.969,0c0.813,10.782,2.139,20.981,2.202,31.188
			c0.066,10.712,3.452,19.601,10.5,27.565c4.169,4.71,7.498,10.163,11.685,15.945c-4.279,2.463-8.256,5.061-12.49,7.127
			c-10.484,5.12-19.398,12.108-26.886,21.063c-1.705,2.039-2.284,3.54-1.267,6.122c2.745,6.958,5.446,13.963,7.57,21.127
			c1.424,4.802,3.847,7.901,8.869,8.621c3.795,0.544,5.17,2.601,5.102,6.442c-0.079,4.461,0.519,8.934,0.871,14.127
			c-6.63-0.341-12.877-0.945-19.111-0.842c-2.5,0.042-5.595,0.983-7.353,2.646c-8.714,8.238-17.16,16.77-25.472,25.418
			c-1.392,1.448-2.389,3.997-2.329,6c0.359,11.987,0.974,23.97,1.761,35.938c0.192,2.923-0.535,4.459-3.227,5.759
			c-8.392,4.048-16.71,8.269-24.901,12.708c-2.752,1.492-4.573,1.115-7.134-0.495c-17.88-11.248-35.923-22.236-53.839-33.428
			c-2.623-1.639-4.652-1.516-7.213,0.089C131.663,475.827,125.715,479.141,119.433,482.813z"/>
	</g>
</g>
<g id="Layer_1">
</g>
</svg>
