<?xml version="1.0" encoding="iso-8859-1"?>
<!-- Generator: Adobe Illustrator 16.0.0, SVG Export Plug-In . SVG Version: 6.00 Build 0)  -->
<!DOCTYPE svg PUBLIC "-//W3C//DTD SVG 1.1//EN" "http://www.w3.org/Graphics/SVG/1.1/DTD/svg11.dtd">
<svg version="1.1" xmlns="http://www.w3.org/2000/svg" xmlns:xlink="http://www.w3.org/1999/xlink" x="0px" y="0px" width="512px"
	 height="512px" viewBox="0 0 512 512" style="enable-background:new 0 0 512 512;" xml:space="preserve">
<g id="rumania">
	<path style="fill-rule:evenodd;clip-rule:evenodd;fill:none;stroke:#FFFFFF;stroke-width:4;stroke-linejoin:round;" d="
		M228.427,150.029c2.206-6.565,4.134-13.112,6.675-19.414c0.831-2.06,2.95-4.296,4.998-5.057
		c12.811-4.754,25.779-9.082,38.657-13.657c1.254-0.445,2.836-1.375,3.274-2.476c2.92-7.338,5.57-14.782,8.752-23.393
		c9.367-1.363,19.544-5.642,28.714-11.991c6.991-4.84,13.735-1.895,20.64-0.456c2.231,0.465,4.568,1.617,6.674,1.289
		c11.724-1.826,21.549,3.679,31.313,8.398c5.577,2.696,9.423,2.098,13.049-2.115c2.302-2.675,4.337-2.348,6.817-0.626
		c6.449,4.479,13.021,8.791,19.313,13.479c1.375,1.024,2.467,3.315,2.527,5.063c0.27,7.783,0.117,15.581,0.117,23.91
		c7.702,0,14.983-0.113,22.255,0.094c1.493,0.043,3.586,0.876,4.33,2.034c11.616,18.05,23.057,36.214,34.526,54.358
		c0.16,0.254,0.173,0.601,0.319,1.147c-4.368,1.645-11.801-2.978-12.507,6.537c-4.651-3.253-8.853-6.194-13.615-9.524
		c0.408,9.974-7.551,5.563-11.793,7.104c-4.772,1.735-10.206,1.65-15.777,2.415c2.199,5.469,4.526,10.358,6.086,15.481
		c0.882,2.899,1.066,6.269,0.596,9.276c-1.938,12.393-5.033,24.659-6.146,37.111c-0.75,8.387,1.109,17.006,1.868,26.332
		c4.685-1.939,8.985-3.605,13.188-5.489c7.146-3.202,14.167-6.691,21.386-9.716c1.66-0.694,4.092-0.494,5.842,0.161
		c4.269,1.601,8.209,4.163,12.544,5.467c3.235,0.974,4.277,2.461,3.896,5.528c-0.911,7.31-1.959,14.608-2.596,21.942
		c-0.269,3.099-2.001,4.423-4.48,4.588c-8.085,0.539-12.869,4.641-16.553,11.896c-4.407,8.681-10.11,16.746-15.727,24.744
		c-1.954,2.785-1.821,4.337,0.594,6.156c2.785,2.098,3.557,4.631,1.765,7.729c-3.991,6.898-1.977,13.271,1.5,19.634
		c2.188,4.004,4.066,8.177,6.626,13.374c-10.481-0.509-20.158-0.656-29.736-1.705c-1.991-0.218-3.827-3.629-5.356-5.83
		c-1.987-2.863-3.674-4.026-6.58-0.935c-2.114,2.251-4.78,3.984-8.618,7.391c-1.27-1.94-2.405-3.989-3.845-5.794
		c-1.968-2.468-4.069-4.19-6.178,0.066c-0.644,1.299-1.908,2.287-3.307,3.901c-1.919-3.553-3.501-6.484-5.413-10.026
		c-16.116,4.405-32.271,8.695-48.32,13.355c-2.162,0.628-4.367,2.775-5.55,4.805c-4.351,7.469-8.097,15.289-12.467,22.746
		c-1.504,2.568-3.9,4.826-6.348,6.589c-6.729,4.852-13.699,9.366-20.591,14.025c-3.309-2.874-6.377-5.905-9.834-8.396
		c-1.865-1.345-4.34-2.255-6.633-2.498c-3.79-0.404-7.75,0.439-11.467-0.218c-9.537-1.686-15.037,3.524-20.061,10.385
		c-1.047,1.429-3.52,2.654-5.276,2.58c-7.714-0.33-15.399-1.283-23.109-1.795c-7.422-0.492-15.044-1.841-22.233-0.679
		c-5,0.809-9.425,5.209-14.083,8.047c-0.681,0.415-1.219,1.063-1.985,1.75c-3.758-3.072-7.401-6.051-11.233-9.183
		c1.742-5.324,3.503-10.708,5.401-16.512c-4.354-0.524-8.422-1.735-12.314-1.317c-6.2,0.665-10.784-1.629-14.972-5.661
		c-0.81-0.779-1.784-1.389-3.082-2.383c3.173-4.357,1.184-12.538,10.667-12.4c-0.02-0.516-0.04-1.032-0.06-1.549
		c-7.552-4.307-15.104-8.613-23.379-13.332c0,7.675,0,14.522,0,21.369c-0.269,0.343-0.538,0.686-0.807,1.029
		c-11.798-13.942-29.022-11.581-43.959-15.798c0.734-8.94,1.468-17.869,2.21-26.914c-8.981-2.589-18.121-5.483-27.407-7.788
		c-4.536-1.126-5.137-5.091-7.132-8.007c-2.851-4.165-5.399-8.563-7.78-13.021c-4.788-8.96-14.115-12.977-21.012-19.629
		c-3.051-2.942-6.327-5.653-9.993-8.907c6.029-0.775,11.509-1.249,16.87-2.315c1.569-0.312,3.638-2.081,4.048-3.575
		c2.083-7.588,7.651-9.729,14.556-10.28c2.44-0.195,5.237-0.023,7.177-1.183c1.838-1.1,3.574-3.584,3.933-5.7
		c0.85-5.009,0.856-10.162,1.227-15.6c3.416-0.836,6.819-1.799,10.277-2.477c2.699-0.529,3.761-1.781,3.729-4.654
		c-0.141-12.496,0.195-25.002-0.192-37.487c-0.144-4.648,1.374-7.491,5.292-9.498c1.737-0.89,3.249-2.351,5.062-2.94
		c5.182-1.686,5.158-5.689,4.728-9.879c-0.484-4.705-1.718-9.42-1.485-14.073c0.117-2.345,3.211-4.388,4.162-6.873
		c2.221-5.804,6.224-6.886,11.244-4.465c3.898,1.879,6.072,0.324,8.101-2.614c0.742-1.074,1.688-2.061,2.192-3.238
		c5.763-13.471,19.354-13.91,30.528-18.024c11.281-4.154,22.943-7.271,34.433-10.857c2.944-0.919,5.851-1.97,8.821-2.793
		c0.754-0.209,1.811-0.003,2.515,0.393c10.98,6.176,21.92,12.422,32.891,18.616C226.874,149.911,227.599,149.873,228.427,150.029z"
		/>
</g>
<g id="Layer_1">
</g>
</svg>
