<?xml version="1.0" encoding="iso-8859-1"?>
<!-- Generator: Adobe Illustrator 16.0.0, SVG Export Plug-In . SVG Version: 6.00 Build 0)  -->
<!DOCTYPE svg PUBLIC "-//W3C//DTD SVG 1.1//EN" "http://www.w3.org/Graphics/SVG/1.1/DTD/svg11.dtd">
<svg version="1.1" xmlns="http://www.w3.org/2000/svg" xmlns:xlink="http://www.w3.org/1999/xlink" x="0px" y="0px" width="512px"
	 height="512px" viewBox="0 0 512 512" style="enable-background:new 0 0 512 512;" xml:space="preserve">
<g id="russia">
	<g>
		<path style="fill:#FFFFFF;" d="M257.743,18.441c0.662,0,1.291,0.006,1.919,0.025c14.713,0.455,29.425,0.914,44.137,1.374
			c24.829,0.776,50.503,1.578,75.756,2.34c26.367,0.796,50.169,1.497,74.447,2.015c3.531,0.075,4.443,1.016,4.433,4.575
			c-0.103,37.808-0.104,75.149-0.001,110.988c0.009,2.973-0.68,3.708-3.505,3.746c-13.886,0.182-28.001,0.459-41.65,0.728
			c-4.429,0.087-8.857,0.174-13.285,0.258l-0.057,0c-0.14,0-0.285-0.008-0.432-0.016c-0.184-0.01-0.368-0.019-0.548-0.019
			c-0.369,0-0.915,0.034-1.398,0.33c-2.109,1.295-4.322,2.551-6.462,3.767c-5.328,3.025-10.837,6.154-15.428,10.243
			c-5.524,4.92-8.2,12.48-7.34,20.74c0.039,0.382-0.577,1.217-0.985,1.771c-0.213,0.287-0.421,0.57-0.599,0.843
			c-1.045,1.604-2.435,3.125-3.779,4.597c-3.245,3.553-6.602,7.227-6.187,12.796c0.403,5.412-2.664,6.517-6.547,7.916
			c-0.885,0.319-1.799,0.648-2.684,1.041l-0.933,0.414l0.432,0.924l1.991,4.252l0.374,0.797l0.396,0.845l0.871-0.337
			c0.489-0.189,1.038-0.435,1.568-0.672c0.413-0.185,0.977-0.437,1.354-0.581c0.783,0.814,1.802,1.226,3.037,1.226
			c0.946,0,1.907-0.229,2.837-0.451c0.847-0.202,1.646-0.393,2.344-0.393c0.84,0,1.69,0.252,2.289,1.953
			c-0.185,0.158-0.372,0.323-0.565,0.492c-0.85,0.747-1.729,1.519-2.715,2.034c-1.931,1.009-3.068,2.573-3.203,4.405
			c-0.122,1.658,0.646,3.343,1.954,4.293c2.964,2.155,2.372,4.123,1.554,6.846c-0.154,0.512-0.313,1.042-0.448,1.582
			c-0.149,0.599-0.31,1.196-0.555,2.107c-0.145,0.535-0.317,1.178-0.534,1.991l-0.392,1.473l1.507-0.227
			c1.441-0.216,2.826-0.445,4.172-0.668c3.149-0.521,6.124-1.013,9.07-1.209c0.093-0.006,0.19-0.009,0.291-0.009
			c1.51,0,3.467,0.571,3.959,0.954c0.235,1.122,0.802,2.187,1.352,3.218c1.418,2.663,2.097,4.268-0.454,6.277
			c-1.45,1.143-2.804,2.354-4.112,3.525c-0.56,0.5-1.104,0.989-1.636,1.452l-0.198,0.172l-0.088,0.247
			c-0.205,0.579-0.374,1.268-0.537,1.935c-0.176,0.72-0.463,1.896-0.705,2.249c-1.309,0.314-2.583,0.881-3.818,1.429
			c-1.889,0.838-3.672,1.629-5.588,1.629c-1.798,0-3.535-0.739-5.312-2.262l-1.157-0.992l-0.449,1.456l-0.483,1.569l-2.069,6.708
			l-9.552,3.033l-0.697,0.222v0.731v7.607l-0.332,0.07l-8.71,1.844l-1.285,0.272l0.604,1.166l2.472,4.769l-28.747,1.579
			l-1.545,0.084l0.712,1.374l0.414,0.801c-0.474,0.389-0.938,0.789-1.391,1.182c-1.479,1.279-2.876,2.488-4.468,3.172
			c-0.242,0.104-0.481,0.204-0.718,0.303c-2.472,1.029-5.272,2.195-4.461,6.456c0.083,0.436-0.047,0.957-0.149,1.074
			c-1.967,2.229-2.623,4.891-3.258,7.465c-0.441,1.793-0.859,3.485-1.692,4.974c-2.305,4.12-0.54,6.47,1.638,8.707
			c1.189,1.222,2.026,3.715,1.658,4.94c-0.137,0.456-1.923,1.376-4.52,1.837c-0.801,0.142-1.663,0.205-2.798,0.205
			c-0.726,0-1.493-0.025-2.306-0.053c-0.954-0.032-1.94-0.065-3.034-0.065h-1.115l0.121,1.108l0.12,1.095
			c0.372,3.405,0.701,6.412,1.037,9.421c0.03,0.271,0.113,0.992,0.76,1.269c4.323,1.832,4.227,5.113,4.114,8.913
			c-0.053,1.79-0.107,3.642,0.332,5.379l0.127,0.501l0.481,0.187c1.148,0.445,2.439,0.48,3.688,0.515
			c2.951,0.081,4.9,0.135,5.08,4.406l0.066,1.584l1.401-0.742c0.768-0.407,1.512-0.814,2.241-1.213
			c1.807-0.986,3.512-1.919,5.272-2.691c0.239-0.104,0.59-0.165,0.962-0.165c0.471,0,0.935,0.094,1.24,0.252
			c3.378,1.743,6.68,3.569,10.174,5.504c0.925,0.512,1.858,1.028,2.806,1.55l-0.729,1.427l-0.504,0.987l-0.375,0.734l0.65,0.508
			c0.77,0.602,1.684,1.188,2.567,1.756c1.083,0.695,2.887,1.854,3.076,2.379c-0.054,0.559-0.042,1.153-0.03,1.729
			c0.041,2.134,0.077,3.978-2.47,5.173c-2.168,1.018-3.754,3.038-5.433,5.178c-0.757,0.964-1.539,1.961-2.401,2.901l-0.535,0.582
			l0.443,0.654c3.032,4.48,3.309,10.73,0.778,17.599l-0.353,0.958l0.965,0.333c1.29,0.446,2.547,0.872,3.776,1.289
			c3.527,1.197,6.859,2.328,10.092,3.618c0.092,0.108,0.373,0.567,0.645,2.274c0.914,5.777,3.64,9.728,8.334,12.075
			c3.17,1.585,6.319,3.31,9.365,4.978c1.128,0.617,2.249,1.232,3.367,1.837c-0.178,0.841-0.368,1.692-0.555,2.521
			c-0.562,2.507-1.143,5.098-1.419,7.724c-0.244,2.319-1.496,2.49-3.688,2.592c-0.343,0.017-0.676,0.032-0.989,0.063
			c-6.698,0.641-13.553,1.019-20.373,1.122c-2.178,0.033-4.563,0.049-7.291,0.049c-2.442,0-4.886-0.012-7.328-0.024
			c-2.446-0.013-4.893-0.024-7.338-0.024c-5.133,0-9.095,0.056-12.846,0.181c-4.292,0.144-8.608,0.784-12.784,1.405
			c-2.138,0.317-4.349,0.646-6.519,0.901c-0.867,0.102-1.745,0.127-2.675,0.154c-1.474,0.042-2.997,0.086-4.473,0.461
			c-1.457,0.371-2.751,1.093-4.388,2.007c-0.666,0.372-1.409,0.787-2.238,1.218c-0.504-0.229-1.059-0.491-1.654-0.773
			c-2.125-1.008-4.771-2.261-7.558-3.165c-2.002-0.65-4.118-0.899-6.163-1.14c-0.998-0.117-2.029-0.239-3.018-0.405
			c-0.224-0.037-0.454-0.07-0.686-0.104c-0.799-0.113-1.625-0.23-2.119-0.571c-1.608-1.11-3.126-1.673-4.511-1.673
			c-1.415-0.001-2.67,0.563-3.741,1.679l-6.308-2.686l-4.634-1.972l-1.395-0.594l0.003,1.516c0.005,2.177-0.382,3.67-1.149,4.439
			c-0.482,0.483-1.161,0.719-2.074,0.719c-0.593,0-1.29-0.102-2.07-0.302c-0.255-0.065-0.538-0.099-0.842-0.099
			c-1.01,0-2.452,0.393-3.231,1.255c-0.5,0.554-1.005,1.105-1.511,1.657c-2.668,2.916-5.427,5.93-7.564,9.313
			c-1.826,2.893-3.666,4.127-6.151,4.127c-0.222,0-0.453-0.011-0.689-0.03c-0.367-0.685-0.71-1.422-1.043-2.14
			c-0.979-2.107-1.992-4.288-3.781-5.542c-1.911-1.341-4.329-1.749-6.889-2.182c-0.562-0.095-1.134-0.191-1.706-0.3l7.836-9.231
			l1.167-1.375l0.948-1.116l-1.385-0.477c-0.915-0.315-1.878-0.475-2.862-0.475c-2.424,0-4.648,0.928-6.798,1.826
			c-1.875,0.783-3.646,1.522-5.306,1.522c-1.102,0-2.729-0.284-4.586-2.556l2.862-1.978l1.333-0.922l-1.422-0.777l-2.016-1.104
			c-0.412-0.226-0.446-0.244-0.635-0.268l-0.315-0.039l-0.28,0.149c-0.952,0.508-1.867,0.975-2.748,1.425
			c-2.026,1.034-3.939,2.012-5.711,3.188c-1.433,0.951-2.74,2.504-3.497,4.153c-1.562,3.406-3.004,6.923-4.4,10.324
			c-0.438,1.066-0.875,2.134-1.317,3.198l-0.433-0.099l-2.22-0.509l1.128,1.979l1.325,2.325l0.651,1.144l-10.161,2.037l-0.72,0.144
			v-16.882l6.208-1.061l3.138-0.537l2.112-0.36l-1.633-1.387c-1.255-1.066-1.982-2.653-2.752-4.333
			c-1.44-3.144-3.072-6.706-8.602-6.706h-0.036c-0.349-0.257-1.021-1.291-1.071-1.856c-0.304-3.472-1.228-6.684-5.884-6.684
			c-0.6,0-1.245,0.05-1.972,0.151c-0.258,0.036-0.531,0.055-0.811,0.055c-1.473,0-3.045-0.485-4.709-0.999
			c-1.72-0.53-3.499-1.079-5.305-1.116c-0.12-0.002-0.239-0.003-0.358-0.003c-4.742-0.001-8.227,1.922-10.357,5.714
			c-0.589,1.049-1.959,1.864-3.283,2.653c-0.532,0.317-1.082,0.645-1.593,0.993c-1.77,1.205-3.57,2.37-5.656,3.719
			c-0.782,0.507-1.604,1.038-2.479,1.607c-1.709-1.56-3.73-2.319-6.153-2.319c-2.873,0-5.975,1.092-8.974,2.148
			c-0.866,0.305-1.737,0.611-2.608,0.895c-0.419,0.137-0.924,0.212-1.42,0.212c-0.574,0-1.093-0.104-1.426-0.285
			c-1.612-0.878-3.144-1.967-4.917-3.227c-0.609-0.433-1.245-0.884-1.921-1.354c0.217-1.093,0.006-2.283-0.215-3.528
			c-0.483-2.727-0.901-5.082,2.677-6.763l0.797-0.375l-0.271-0.838c-0.208-0.645-0.535-1.346-0.851-2.023
			c-0.566-1.217-1.271-2.729-0.98-3.427c0.28-0.674,0.559-1.367,0.841-2.069c1.751-4.358,3.562-8.865,6.704-11.091
			c1.8-1.276,2.824-2.69,3.043-4.206c0.316-2.188-1.077-3.954-1.999-5.123c-0.198-0.251-0.369-0.467-0.484-0.64
			c-0.507-0.757-0.969-1.439-1.389-2.062c-3.925-5.805-4.161-6.152-4.913-12.604l-0.056-0.476l-0.406-0.255
			c-0.64-0.401-1.327-0.745-1.991-1.076c-0.794-0.396-2.123-1.06-2.222-1.415c-0.165-0.854,0.906-2.762,2.122-3.778
			c3.201-2.679,3.646-5.732,1.4-9.608c-1.493-2.576-3.003-5.143-4.583-7.826c-0.521-0.885-1.048-1.781-1.586-2.696
			c0.505-0.202,1.007-0.396,1.499-0.587c1.895-0.734,3.685-1.427,5.356-2.43c3.47-2.082,6.892-4.484,10.17-7.14
			c1.157-0.938,1.554-3.436,1.067-4.823c-1.442-4.107,0.691-5.761,3.393-7.854c0.83-0.643,1.688-1.308,2.442-2.066l0.686-0.689
			l-0.669-0.704c-1.784-1.878-2.536-3.3-2.366-4.478c0.175-1.215,1.426-2.48,3.824-3.87c3.175-1.84,5.145-4.551,5.546-7.636
			c0.397-3.047-0.781-6.118-3.315-8.646c-0.7-0.698-1.221-1.631-1.774-2.618c-0.327-0.585-0.666-1.189-1.053-1.764
			c-0.958-1.417-1.936-2.802-3.068-4.405c-0.435-0.616-0.892-1.263-1.375-1.953c0.121-0.25,0.258-0.514,0.4-0.786
			c1.217-2.331,3.055-5.854-1.869-9.395c-0.688-0.495-0.95-2.172-1.204-3.794c-0.21-1.342-0.426-2.726-0.906-3.971
			c0.18-0.528,0.372-1.059,0.563-1.589c1.398-3.868,2.97-8.217-0.104-12.651l6.225-3.384l5.575-3.03l1.999-1.087l-2.151-0.738
			l-14.813-5.082c0.738-1.881,1.483-3.762,2.229-5.645c2.052-5.175,4.173-10.528,6.113-15.86c1.163-3.2,2.116-6.518,3.037-9.727
			c0.43-1.498,0.875-3.047,1.334-4.559c1.056-3.477-0.101-5.911-3.536-7.441c-2.453-1.093-4.761-2.419-7.205-3.824
			c-0.803-0.461-1.627-0.935-2.458-1.4l1.169-3.421l0.955-2.794l0.298-0.871l-0.844-0.369c-5.351-2.337-11.751-13.316-11.413-19.578
			c0.042-0.788,0.044-2.782-0.867-4.281c-1.119-1.84-2.659-4.203-4.658-6.162c-4.735-4.641-5.489-8.838-2.521-14.035
			c0.801-1.402,0.657-3.294-0.394-5.191c-1.182-2.133-3.631-4.336-6.436-4.447c-2.923-0.117-3.539-1.293-3.883-4.062
			c-0.207-1.658-0.53-3.188-0.962-4.548c-0.305-0.958-0.768-1.86-1.141-2.584c-0.047-0.092-0.094-0.183-0.139-0.271l8.95-13.508
			c0.213,0.033,0.438,0.069,0.671,0.107c1.147,0.185,2.576,0.416,4.02,0.416c0.125,0,0.25-0.002,0.375-0.005
			c1.538-0.043,3.039-0.345,4.627-0.665c0.455-0.091,0.919-0.185,1.395-0.274c0.541,1.379,1.074,2.737,1.61,4.092l0.763,1.925
			l1.033-1.795c1.603-2.786,7.481-5.42,12.095-5.42c0.987,0,1.853,0.122,2.575,0.362c1.719,0.571,3.457,1.219,5.137,1.846
			c2.761,1.03,5.615,2.095,8.522,2.871c1.212,0.324,2.466,0.368,3.641,0.368c0.277,0,0.555-0.002,0.833-0.005
			c0.271-0.002,0.543-0.005,0.813-0.005c1.071,0,2.202,0.04,3.209,0.326c3.228,0.917,7.367,2.259,10.76,4.51
			c6.154,4.083,6.366,11.056,4.511,16.22c-2.485,6.917-8.061,10.951-15.299,11.068c-4.712,0.077-9.343,0.438-14.246,0.819
			c-2.163,0.168-4.398,0.342-6.654,0.491l-0.709,0.047l-0.189,0.685l-1.227,4.452l-0.268,0.973l0.976,0.259
			c1.188,0.315,2.439,0.462,3.649,0.605c3.399,0.4,6.353,0.748,8.054,4.341l-0.815,1.587l-0.961,1.873l-0.282,0.549l0.364,0.498
			l1.989,2.729c1.925,2.643,3.743,5.14,5.585,7.594c0.512,0.68,1.343,1.243,2.118,1.432c4.452,1.097,8.842,2.136,13.49,3.236
			l3.867,0.917l0.727,0.172l0.372-0.648c0.227-0.394,0.481-0.794,0.728-1.18c1.479-2.317,3.32-5.202-0.884-8.327l-0.602-0.447
			l-0.598,0.453l-1.796,1.358l-2.366,1.79l-6.752-10.813l0.267-0.335l22.901,1.158l1.097,0.056l-0.048-1.098
			c-0.237-5.46-3.606-7.281-6.314-8.745c-1.257-0.68-2.453-1.326-3.228-2.249l3.578-11.188l3.078-9.624h10.553h1.368l-0.415-1.303
			c-0.147-0.461-0.304-1.004-0.479-1.604c-0.499-1.722-1.121-3.865-2.008-5.938c-1.937-4.528-3.311-5.099-4.177-5.133
			c-4.309-0.174-4.806-2.974-5.383-6.215c-0.083-0.465-0.165-0.926-0.258-1.373c-1.099-5.275-3.94-7.887-8.909-8.158v-1.887
			c0.211-0.004,0.425-0.005,0.641-0.005h0.163l0.162,0c1.196,0,2.551,0,3.518-0.769c1.937-1.539,3.78-2.287,5.635-2.287
			c2.951,0,5.667,1.93,8.293,3.796c0.273,0.194,0.545,0.387,0.817,0.579l-2.052,4.335l-2.262,4.78l-0.46,0.973l1.004,0.388
			c1.301,0.502,2.444,0.971,3.55,1.424c2.393,0.981,4.459,1.829,6.583,2.337c0.285,0.068,0.599,0.103,0.935,0.103
			c1.352,0,3.311-0.621,4.277-1.771c1.088-1.294,1.923-3.749,1.437-5.618c-0.542-2.085-1.459-4-2.43-6.028
			c-0.265-0.553-0.536-1.12-0.801-1.693l0.86-0.498l1.643-0.95l0.443-0.256l0.052-0.509c0.077-0.759,0.115-1.457,0.152-2.132
			c0.069-1.274,0.129-2.374,0.435-3.343c2.677-8.491,5.321-16.782,8.244-24.869c0.417-1.153,1.418-2.187,2.386-3.186
			c0.055-0.057,0.11-0.114,0.165-0.17l2.288,5.905l1.006,2.598l0.388,1.001l0.971-0.458l4.811-2.268l1.563-0.737l0.873-0.411
			l-0.38-0.887c-1.145-2.672-1.396-4.725-0.769-6.277c0.534-1.319,1.712-2.347,3.603-3.141c0.82-0.343,1.129-1.245,1.401-2.04
			c0.06-0.175,0.118-0.347,0.181-0.501c0.555-1.367,1.096-2.763,1.619-4.113l0.344-0.885l0.686,0.113l2.375,0.393l-1.398-1.96
			l-0.593-0.831l-0.739-1.036c0.524-0.497,1.003-0.747,1.427-0.747c0.811,0,1.732,0.921,2.624,1.813
			c1.167,1.168,2.491,2.492,4.24,2.492c0.927,0,1.857-0.384,2.765-1.14l1.103-0.918l-1.244-0.716l-3.412-1.964l3.069-4.34
			l0.64-0.904l-0.965-0.544c-0.9-0.507-1.768-1.02-2.621-1.523c-1.9-1.122-3.696-2.181-5.618-3.067
			c-1.846-0.85-2.98-2.073-3.112-3.355c-0.125-1.212,0.637-2.494,2.144-3.608c4.418-3.266,9.25-6.548,15.44-7.673
			c5.494-0.999,10.754-2.536,16.322-4.163c2.338-0.683,4.756-1.39,7.175-2.047l0.933-0.253l-0.221-0.941l-0.436-1.837
			c0.004-0.004,0.008-0.008,0.012-0.012c2.313-0.024,4.626-0.064,6.939-0.104c3.624-0.063,7.372-0.128,11.05-0.128
			c3.21,0,6.059,0.049,8.708,0.151c2.026,0.078,2.426,1.459,2.802,4.373c0.087,0.677,0.17,1.316,0.311,1.913
			c0.313,1.329,0.042,2.883-0.271,4.683c-0.158,0.906-0.321,1.843-0.428,2.849l-0.366,3.435l2.145-2.708l7.188-9.075l0.365-0.461
			l-0.227-0.543l-1.58-3.804l-0.641-1.543c0.276-0.002,0.543-0.004,0.804-0.006C256.634,18.445,257.199,18.441,257.743,18.441
			 M257.743,17.441c-1.175,0-2.454,0.019-4.016,0.019c1.271,3.059,2.254,5.426,2.795,6.726c-2.62,3.308-4.749,5.995-7.188,9.075
			c0.323-3.034,1.208-5.617,0.678-7.867c-0.612-2.598-0.131-6.904-4.048-7.055c-2.914-0.112-5.829-0.152-8.747-0.152
			c-6.071,0-12.15,0.173-18.223,0.235c-0.248,0.002-0.492,0.35-0.892,0.653c0.275,1.159,0.566,2.389,0.574,2.422
			c-7.992,2.171-15.596,4.77-23.414,6.19c-6.227,1.132-11.062,4.31-15.856,7.853c-3.888,2.874-3.231,6.661,1.144,8.676
			c2.739,1.263,5.292,2.932,8.166,4.553c-1.591,2.25-2.611,3.692-3.703,5.236c1.58,0.909,2.875,1.654,4.363,2.512
			c-0.778,0.648-1.478,0.908-2.125,0.908c-2.632,0-4.379-4.306-6.864-4.305c-0.808,0-1.695,0.456-2.715,1.663
			c0.625,0.877,1.216,1.704,1.807,2.532c-0.496-0.082-0.992-0.164-1.487-0.246c-0.748,1.915-1.478,3.837-2.251,5.741
			c-0.287,0.706-0.507,1.771-1.041,1.994c-5.467,2.295-5.209,6.434-3.368,10.733c-2.287,1.078-4.156,1.959-6.374,3.005
			c-1.279-3.301-2.49-6.426-3.878-10.01c-1.174,1.445-3.136,2.938-3.84,4.885c-2.973,8.225-5.627,16.565-8.257,24.908
			c-0.514,1.63-0.402,3.457-0.628,5.675c-0.615,0.355-1.868,1.081-3.286,1.901c1.29,2.925,2.81,5.554,3.546,8.386
			c0.369,1.419-0.264,3.568-1.234,4.723c-0.688,0.819-2.266,1.414-3.512,1.414c-0.251,0-0.488-0.024-0.702-0.075
			c-2.969-0.71-5.777-2.09-10.006-3.722c1.509-3.189,3.055-6.455,4.677-9.882c-3.238-2.209-6.509-5.036-10.377-5.036
			c-1.917,0-3.98,0.695-6.257,2.503c-0.666,0.529-1.734,0.552-2.896,0.552c-0.107,0-0.216,0-0.325,0c-0.543,0-1.1,0.005-1.641,0.062
			c0,1.193,0,2.415,0,3.808c0.038,0,0.075,0,0.113,0c5.166,0,7.792,2.466,8.817,7.385c0.752,3.608,0.763,8.147,6.58,8.383
			c1.182,0.048,2.556,2.793,3.298,4.527c1.176,2.748,1.893,5.692,2.453,7.452c-3.947,0-8.041,0-11.283,0
			c-2.459,7.69-4.73,14.791-7.035,21.996c2.452,3.702,9.318,3.199,9.651,10.853c-8.023-0.405-15.719-0.795-23.415-1.185
			c-0.342,0.431-0.685,0.861-1.027,1.291c2.545,4.076,5.09,8.151,7.706,12.339c2.478-1.874,3.763-2.847,5.034-3.808
			c4.059,3.017,1.493,5.406-0.114,8.207c-5.952-1.413-11.659-2.748-17.349-4.15c-0.578-0.142-1.197-0.582-1.558-1.063
			c-2.452-3.265-4.839-6.577-7.566-10.312c0.384-0.747,1.274-2.481,1.995-3.886c-2.531-6.05-8.12-4.767-12.555-5.943
			c0.473-1.716,0.896-3.25,1.227-4.451c7.254-0.479,14.047-1.196,20.851-1.308c8.304-0.135,13.8-4.982,16.224-11.73
			c2.148-5.981,1.453-13.178-4.899-17.392c-3.278-2.175-7.215-3.552-11.039-4.639c-1.107-0.315-2.288-0.364-3.483-0.364
			c-0.548,0-1.099,0.01-1.646,0.01c-1.157,0-2.303-0.046-3.383-0.334c-4.623-1.233-9.047-3.188-13.602-4.7
			c-0.851-0.283-1.834-0.413-2.89-0.413c-4.813,0-11.108,2.7-12.961,5.921c-0.635-1.603-1.265-3.21-1.909-4.853
			c-2.464,0.419-4.565,1.009-6.682,1.068c-0.116,0.003-0.231,0.005-0.347,0.005c-1.939,0-3.857-0.442-5.177-0.6
			c-3.477,5.248-6.5,9.811-9.615,14.512c0.407,0.865,1.088,2.002,1.478,3.23c0.449,1.413,0.739,2.896,0.923,4.369
			c0.362,2.913,1.168,4.791,4.835,4.938c3.88,0.154,7.601,5.345,6.002,8.144c-3.455,6.048-1.909,10.738,2.688,15.245
			c1.765,1.729,3.213,3.845,4.503,5.967c0.618,1.017,0.79,2.474,0.723,3.707c-0.355,6.582,6.207,18.014,12.011,20.549
			c-0.739,2.164-1.482,4.338-2.394,7.007c3.531,1.941,6.884,4.071,10.473,5.67c3.014,1.343,3.897,3.236,2.985,6.237
			c-1.442,4.748-2.661,9.577-4.354,14.234c-2.748,7.556-5.803,15-8.714,22.454c5.46,1.873,10.427,3.577,15.8,5.421
			c-4.427,2.406-8.423,4.579-12.83,6.974c4.256,5.013,1.552,9.826-0.018,14.596c1.276,2.898,0.822,7.267,2.593,8.54
			c5.091,3.661,1.924,6.96,0.908,9.479c1.891,2.698,3.355,4.732,4.759,6.809c1.011,1.495,1.702,3.285,2.95,4.529
			c4.783,4.77,3.961,11.239-2.026,14.708c-5.271,3.054-5.642,5.732-1.681,9.901c-3.073,3.092-8.253,4.733-6.069,10.956
			c0.372,1.061,0.027,3.083-0.753,3.715c-3.178,2.574-6.548,4.955-10.056,7.06c-2.333,1.399-5.018,2.211-7.786,3.388
			c2.391,4.074,4.588,7.781,6.749,11.51c1.777,3.067,1.91,5.757-1.177,8.341c-1.321,1.104-2.731,3.333-2.461,4.734
			c0.232,1.21,2.79,1.973,4.664,3.148c0.863,7.401,1.164,7.199,6.465,15.106c1.048,1.563,4.906,4.902-0.308,8.596
			c-3.922,2.777-5.863,8.724-7.89,13.592c-0.662,1.591,1.183,4.226,1.803,6.143c-6.477,3.043-1.871,8.59-3.207,11.604
			c2.976,2.039,5.141,3.75,7.53,5.051c0.518,0.282,1.207,0.407,1.904,0.407c0.605,0,1.217-0.094,1.729-0.261
			c3.902-1.27,7.786-2.994,11.273-2.994c2.196,0,4.236,0.685,6.023,2.597c3.535-2.307,6.212-3.996,8.827-5.777
			c1.817-1.237,4.202-2.233,5.185-3.982c2.203-3.92,5.736-5.205,9.486-5.204c0.112,0,0.226,0.001,0.338,0.003
			c3.355,0.068,6.811,2.115,10.035,2.115c0.319,0,0.636-0.021,0.95-0.064c0.677-0.095,1.286-0.142,1.833-0.142
			c3.637,0,4.563,2.062,4.888,5.771c0.089,1.013,1.27,2.771,1.932,2.771c0.001,0,0.003,0,0.005,0
			c0.056-0.001,0.111-0.001,0.166-0.001c7.638,0.001,6.75,7.439,10.707,10.801c-4.188,0.716-7.538,1.289-10.177,1.739
			c0,7.038,0,13.2,0,18.946c4.749-0.952,8.985-1.802,13.436-2.693c-0.909-1.595-1.786-3.134-2.663-4.672
			c0.418,0.096,0.836,0.191,1.255,0.287c1.989-4.766,3.875-9.577,6.027-14.269c0.66-1.439,1.83-2.867,3.141-3.737
			c2.475-1.645,5.221-2.881,8.376-4.564l0,0c0,0,1.128,0.619,2.295,1.257c-1.192,0.824-2.369,1.637-3.719,2.569
			c1.996,2.853,3.987,3.786,6.012,3.786c3.834,0,7.786-3.349,12.104-3.349c0.831,0,1.676,0.124,2.537,0.42
			c-3.491,4.113-6.642,7.825-10.086,11.883c3.635,0.888,7.359,0.912,9.866,2.671c2.268,1.59,3.207,5.075,4.774,7.8
			c0.457,0.063,0.894,0.094,1.313,0.094c3.029,0,5.117-1.617,6.997-4.593c2.485-3.936,5.825-7.353,8.971-10.834
			c0.5-0.554,1.6-0.926,2.489-0.926c0.214,0,0.416,0.021,0.594,0.067c0.859,0.22,1.631,0.333,2.318,0.333
			c2.851,0,4.232-1.938,4.223-6.16c4.178,1.778,7.753,3.3,11.611,4.942c1.011-1.295,2.178-1.885,3.462-1.884
			c1.221,0,2.547,0.532,3.944,1.496c0.856,0.591,2.113,0.654,3.207,0.838c3.017,0.507,6.165,0.577,9.037,1.51
			c3.739,1.213,7.263,3.09,9.551,4.097c3.041-1.543,4.841-2.855,6.844-3.365c2.244-0.57,4.684-0.316,7.018-0.591
			c6.411-0.755,12.795-2.086,19.219-2.301c4.269-0.143,8.539-0.18,12.813-0.18c4.888,0,9.777,0.049,14.666,0.049
			c2.436,0,4.872-0.012,7.307-0.049c6.824-0.104,13.66-0.477,20.453-1.127c2.104-0.201,5.173,0.283,5.575-3.545
			c0.389-3.69,1.394-7.315,2.108-10.877c-4.386-2.36-8.838-4.894-13.414-7.182c-4.749-2.375-6.996-6.294-7.794-11.337
			c-0.171-1.077-0.499-2.742-1.2-3.022c-4.399-1.76-8.926-3.204-13.974-4.948c2.332-6.331,2.71-13.187-0.889-18.505
			c2.775-3.023,4.649-6.501,7.522-7.85c3.98-1.868,2.829-5.344,3.074-7.75c0.142-1.385-3.719-3.177-6.027-4.979
			c0.174-0.341,0.876-1.716,1.673-3.277c-4.817-2.646-9.288-5.179-13.852-7.533c-0.463-0.239-1.088-0.363-1.699-0.363
			c-0.495,0-0.98,0.081-1.364,0.25c-2.518,1.104-4.9,2.515-7.58,3.936c-0.309-7.332-6.004-4.493-9.406-5.812
			c-1.31-5.174,2.148-11.928-5.025-14.968c-0.101-0.043-0.139-0.299-0.157-0.461c-0.37-3.323-0.733-6.648-1.156-10.511
			c2.027,0,3.757,0.118,5.34,0.118c1.04,0,2.017-0.051,2.973-0.221c1.948-0.346,4.915-1.242,5.303-2.534
			c0.506-1.684-0.542-4.53-1.899-5.925c-2.345-2.408-3.331-4.216-1.481-7.521c2.133-3.81,1.707-8.731,4.827-12.265
			c0.38-0.43,0.497-1.315,0.382-1.923c-0.724-3.801,1.829-4.464,4.592-5.653c2.498-1.074,4.505-3.29,6.729-5.002
			c-0.264-0.511-0.527-1.021-0.792-1.531c9.976-0.547,19.95-1.095,30.292-1.663c-1.324-2.555-2.196-4.237-3.184-6.143
			c3.574-0.757,6.605-1.398,9.835-2.082c0-2.954,0-5.573,0-8.418c3.907-1.24,7.628-2.422,10.051-3.191
			c1.076-3.488,1.814-5.883,2.707-8.777c2.168,1.858,4.129,2.503,5.962,2.503c3.538,0,6.603-2.4,9.769-3.115
			c0.918-0.208,1.227-3.114,1.822-4.791c1.754-1.527,3.659-3.329,5.711-4.945c4.75-3.742,0.047-7.181-0.565-10.627
			c-0.143-0.8-3.063-1.607-4.91-1.607c-0.124,0-0.244,0.003-0.357,0.011c-4.251,0.284-8.462,1.156-13.324,1.887
			c0.588-2.208,0.854-3.157,1.093-4.113c0.829-3.331,2.7-6.434-1.488-9.479c-1.935-1.405-2.577-5.07,1.124-7.004
			c1.556-0.813,2.83-2.166,3.969-3.066c-0.698-2.612-1.965-3.298-3.44-3.298c-1.636,0-3.527,0.844-5.181,0.844
			c-0.998,0-1.91-0.307-2.627-1.291c-0.021-0.028-0.063-0.042-0.122-0.042c-0.506,0-2.304,0.936-3.572,1.426
			c-0.767-1.637-1.53-3.267-2.364-5.049c4.66-2.067,10.385-2.396,9.822-9.945c-0.552-7.409,6.251-11.315,9.807-16.772
			c0.682-1.047,1.847-2.245,1.74-3.264c-0.812-7.8,1.632-15.099,7.011-19.89c6.346-5.652,14.399-9.393,21.748-13.904
			c0.238-0.146,0.546-0.182,0.875-0.182c0.322,0,0.664,0.035,0.979,0.035c0.025,0,0.05,0,0.075,0
			c18.31-0.348,36.618-0.746,54.93-0.985c3.448-0.046,4.502-1.302,4.492-4.749c-0.105-36.994-0.1-73.988,0.001-110.982
			c0.012-3.995-1.25-5.489-5.411-5.578c-24.815-0.529-49.628-1.266-74.438-2.015c-39.965-1.207-79.928-2.479-119.892-3.714
			C259.055,17.447,258.416,17.441,257.743,17.441L257.743,17.441z"/>
	</g>
	
		<rect x="-27.334" y="479.333" style="fill-rule:evenodd;clip-rule:evenodd;stroke:#FFFFFF;stroke-width:6;stroke-miterlimit:10;" width="539.334" height="26.001"/>
	<path style="fill-rule:evenodd;clip-rule:evenodd;" d="M18.936,326.571c0.658,0.563,1.074,0.971,1.539,1.312
		c6.776,4.97,13.548,9.945,20.353,14.876c0.923,0.669,1.96,1.304,3.042,1.612c21.002,5.99,42.015,11.943,63.038,17.861
		c2.544,0.717,5.167,1.72,7.737,1.675c8.988-0.157,17.971-0.691,26.953-1.126c19.959-0.968,39.919-1.938,59.875-2.971
		c2.975-0.154,6.039-0.272,8.881-1.058c22.73-6.275,45.412-12.724,68.12-19.08c6.07-1.699,12.093-4.034,18.288-4.726
		c11.068-1.234,22.251-1.453,33.387-2.072c9.891-0.551,19.783-1.057,29.673-1.606c14.211-0.789,28.422-1.591,42.632-2.402
		c10.303-0.588,20.607-1.16,30.903-1.866c0.935-0.064,2.116-0.845,2.656-1.647c3.065-4.556,5.919-9.254,8.987-13.808
		c0.461-0.684,1.687-1.25,2.531-1.215c7.069,0.295,14.129,0.8,21.199,1.077c0.922,0.036,2.221-0.619,2.766-1.373
		c2.532-3.509,4.769-7.231,7.306-10.736c1.134-1.565,0.983-2.626-0.08-4.134c-7.48-10.607-14.881-21.27-22.256-31.949
		c-0.579-0.838-1.064-1.934-1.097-2.925c-0.554-17.315-1.052-34.631-1.479-51.949c-0.033-1.347,0.314-2.81,0.866-4.049
		c2.939-6.606,6.011-13.153,9.018-19.73c2.34-5.117,4.652-10.248,7.019-15.463c-0.587-0.204-0.965-0.407-1.364-0.463
		c-10.118-1.391-20.232-2.812-30.365-4.098c-1.626-0.207-2.397-0.531-2.784-2.346c-2.073-9.736-4.395-19.42-6.524-29.146
		c-0.438-2.002-1.292-3.052-3.373-3.618c-7.441-2.026-14.804-4.341-22.235-6.403c-1.023-0.285-2.479-0.109-3.384,0.436
		c-7.837,4.721-15.567,9.616-23.384,14.372c-3.982,2.424-7.686,4.93-12.925,4.956c-18.733,0.094-37.462,0.791-56.193,1.204
		c-1.029,0.022-2.146-0.294-3.093-0.733c-20.792-9.63-41.574-19.281-62.325-28.998c-1.729-0.81-3.163-0.924-4.936-0.147
		c-9.291,4.07-18.633,8.022-27.951,12.028c-0.879,0.377-1.722,0.84-2.684,1.313c0.732,1.129,1.308,2.038,1.905,2.933
		c10.25,15.378,20.481,30.769,30.787,46.11c0.956,1.423,1.094,2.533,0.344,4.079c-4.062,8.383-8.054,16.801-11.986,25.245
		c-0.594,1.276-1.284,1.63-2.651,1.569c-21.545-0.973-43.093-1.881-64.639-2.828c-2.791-0.123-6.384,0.597-8.137-0.852
		c-1.792-1.479-1.765-5.152-2.553-7.858c-1.267-4.358-2.55-8.712-3.846-13.135c-0.556,0.136-0.894,0.157-1.172,0.296
		c-5.734,2.854-11.479,5.688-17.171,8.624c-0.734,0.379-1.328,1.211-1.761,1.964c-2.073,3.604-4.008,7.287-6.146,10.851
		c-0.388,0.648-1.511,1.266-2.26,1.227c-16.375-0.86-32.745-1.835-49.12-2.705c-1.052-0.056-2.307,0.314-3.184,0.905
		c-5.8,3.906-11.495,7.968-17.293,11.876c-1.199,0.808-1.571,1.619-1.527,3.044c0.408,13.235,0.74,26.472,1.068,39.71
		c0.146,5.906,0.934,11.904,0.192,17.702c-1.306,10.194-3.68,20.246-5.339,30.401c-0.384,2.354-1.525,3.641-3.255,4.893
		C32.724,316.432,25.967,321.419,18.936,326.571z"/>
</g>
<g id="Layer_1">
</g>
</svg>
