<?xml version="1.0" encoding="iso-8859-1"?>
<!-- Generator: Adobe Illustrator 16.0.0, SVG Export Plug-In . SVG Version: 6.00 Build 0)  -->
<!DOCTYPE svg PUBLIC "-//W3C//DTD SVG 1.1//EN" "http://www.w3.org/Graphics/SVG/1.1/DTD/svg11.dtd">
<svg version="1.1" xmlns="http://www.w3.org/2000/svg" xmlns:xlink="http://www.w3.org/1999/xlink" x="0px" y="0px" width="512px"
	 height="512px" viewBox="0 0 512 512" style="enable-background:new 0 0 512 512;" xml:space="preserve">
<g id="spain">
	<g>
		<g>
			<path style="fill:#FFFFFF;" d="M70.088,15.049l0.271,2.441l0.697,6.278l5.377-3.314l5.339-3.29l1.907-1.175l8.69,15.91
				l3.624,6.634l1.137,2.083h2.294l0.071,0.007c0.178,0.019,0.448,0.048,0.759,0.048c1.708,0,2.751-0.864,3.216-1.373
				c2.342-2.556,4.655-3.798,7.073-3.798c2.057,0,4.39,0.892,6.933,2.649c3.049,2.108,6.182,3.177,9.309,3.177
				c2.727,0,5.408-0.808,8.008-2.409l3.523,5.292l1.971,2.959l3.169-1.61l6.548-3.326c3.111,6.847,9.558,9.433,14.924,11.585
				c1.211,0.486,2.355,0.945,3.458,1.442l1.947,0.877c12.213,5.505,24.842,11.198,37.407,16.515
				c1.627,0.689,3.512,1.023,5.762,1.023c1.539,0,3.038-0.158,4.172-0.296c2.764-0.336,5.658-1.352,8.148-2.86
				c1.568-0.949,3.112-1.391,4.859-1.391c2.651,0,5.493,1.026,8.502,2.111c0.693,0.25,1.386,0.5,2.078,0.738
				c0.151,0.158,0.465,0.548,0.999,1.47c1.371,2.366,2.686,4.863,4.077,7.506c0.595,1.129,1.21,2.298,1.861,3.517l1.961,3.672
				l3.591-2.106l2.434-1.427l6.813-3.996c2.534,4.979,6.927,7.583,12.891,7.583c1.022,0,2.116-0.076,3.25-0.227
				c0.521,0.118,1.787,0.853,2.694,1.807c1.504,1.583,2.843,3.569,4.26,5.671c0.673,0.998,1.368,2.031,2.127,3.092l1.759,2.458
				l2.845-1.02l6.609-2.369l9.125-3.271c0.631,1.766,1.455,3.595,2.976,5.04c1.36,1.292,3.031,1.815,4.692,2.097l-2.318,7.457
				l-0.995,3.199l2.976,1.541c1.997,1.034,4.03,2.124,5.996,3.177c4.662,2.499,9.482,5.083,14.463,7.277
				c4.926,2.172,7.312,4.712,8.233,8.769c1.462,6.432,6.151,7.392,8.816,7.392c0.511,0,1.051-0.033,1.605-0.099
				c1.266-0.149,2.912-0.321,4.413-0.321c3.752,0,6.215,0.494,6.264,7.093l0.047,6.308l5.686-2.732
				c2.3-1.105,4.277-1.666,5.877-1.666c1.569,0,3.627,0.474,5.62,4.174l2.643,4.904l3.803-4.071l2.447-2.621l1.091-1.168
				l5.146,3.164l4.69,2.883l1.293-5.352l0.804-3.329l0.256-1.062l18.228,12.028l1.192,0.788c-1.598,3.408-1.781,6.912-0.494,10.021
				c1.554,3.753,5.047,6.468,9.835,7.645c2.028,0.499,4.101,1.076,6.104,1.635c6.325,1.763,12.865,3.587,20.042,3.587
				c0.756,0,1.518-0.021,2.264-0.062l0.088-0.002c1.315,0,3.558,1.382,5.536,2.602c1.366,0.842,2.778,1.713,4.303,2.454l3.304,1.605
				l1.88-3.155c2.05-3.439,4.677-4.778,9.369-4.778c1.765,0,3.603,0.18,5.549,0.37c1.419,0.139,2.881,0.281,4.329,0.35
				c0.761,0.682,2.088,2.755,2.908,4.036c0.015,0.023,0.03,0.047,0.045,0.07c-11.637,6.502-12.14,17.796-11.376,26.101
				c0.299,3.252-0.587,4.488-3.948,5.51c-1.975,0.601-3.724,1.468-5.415,2.308c-1.341,0.665-2.607,1.294-3.845,1.711
				c-14.945,5.048-25.188,13.325-31.314,25.305c-0.551,1.077-0.874,1.077-1.461,1.077c-0.254,0-0.548-0.026-0.872-0.078
				c-1.663-0.266-3.236-0.271-4.757-0.277c-1.322-0.005-2.572-0.009-3.65-0.199c-3.739-0.658-7.496-0.992-11.165-0.992
				c-13.32,0-26.013,4.222-38.804,12.908l-3.604,2.448l2.746,3.383l5.803,7.144c-8.266,2.658-14.366,8.955-18.181,18.788
				c-3.936,10.147-13.208,14.372-22.177,18.459c-5.205,2.373-7.905,6.025-10.357,10.781c-8.43,16.343-9.835,32.405-4.298,49.104
				c1.245,3.754,1.879,7.79,2.551,12.063c0.314,2.001,0.64,4.07,1.036,6.139l0.622,3.248h3.307h5.64
				c-2.404,1.959-4.677,3.739-7.06,5.393c-3.41,2.365-7.471,4.229-11.398,6.03l-0.334,0.154c-4.78,2.194-11.883,5.455-10.578,14.551
				c-0.094,0.081-0.185,0.151-0.255,0.194c-2.921,1.299-5.989,2.439-9.236,3.647c-1.31,0.486-2.648,0.984-4.022,1.509l-3.37,1.286
				l0.932,3.484c0.821,3.07,1.623,6.071,2.444,9.144h-1.729h-6.674l3.146,5.886l4.573,8.559l0.537,1.005
				c-0.57,0.732-1.137,1.506-1.65,2.378c-0.044,0.073-0.085,0.139-0.123,0.197c-4.076-2.684-8.32-3.989-12.974-3.989
				c-5.616,0-10.793,1.91-15.799,3.757c-2.619,0.967-5.093,1.879-7.55,2.497c-2.644,0.664-4.137,2.975-5.228,4.661
				c-0.2,0.31-0.396,0.614-0.591,0.889c-6.079,8.554-12.008,16.953-18.286,25.847l-3.461,4.902c-0.165-0.125-0.33-0.249-0.493-0.373
				c-2.897-2.188-5.633-4.256-8.582-6.036c-1.521-0.918-3.623-1.466-5.623-1.466c-1.548,0-2.902,0.319-4.022,0.947
				c-2.016,1.131-4.246,1.657-7.017,1.657c-2.157,0-4.384-0.304-6.743-0.624c-1.163-0.158-2.358-0.321-3.566-0.448
				c-0.357-0.473-0.852-1.259-1.208-1.826c-0.611-0.971-1.303-2.07-2.111-3.099l-1.835-2.336l-2.767,1.081
				c-1.604,0.627-3.25,1.256-4.922,1.896c-4.283,1.639-8.712,3.332-13.111,5.233c-0.842,0.364-1.246,0.403-1.38,0.403
				c-0.193,0-0.524-0.332-0.704-0.529c-7.43-8.173-17.217-12.674-30.802-14.166c-0.733-0.08-1.598-0.162-2.456-0.162
				c-3.552,0-6.18,1.532-7.813,4.553c-3.28,6.07-7.08,6.772-9.652,6.772c-1.396,0-2.946-0.25-4.61-0.747
				c-0.614-0.182-1.146-0.209-1.482-0.216c-3.326-0.782-6.185-1.163-8.732-1.163c-6.512,0-14.689,2.673-17.094,15.253
				c-0.284,0.191-0.699,0.418-1.077,0.546c-4.744,1.611-8.172,2.775-10.128,2.775c-1.962,0-3.331-1.475-8.848-8.348l-0.042-0.053
				c-3.508-4.37-7.025-8.731-10.608-13.174l-2.488-3.085l1.944-1.332l3.99-2.733l4.142-2.837l-3.691-3.403l-8.24-7.599l8.285-10.627
				l2.027-0.001l0.386-3.57c0.119-1.101-0.248-2.194-0.927-3.04l-2.93-4.546l-2.622,3.36c-0.355,0.045-0.697,0.067-1.023,0.067
				c-1.943,0-4.303-0.672-7.076-5.657c-7.7-13.847-18.749-21.067-32.84-21.462c-0.118-0.004-0.218-0.01-0.301-0.019
				c-0.026-0.176-0.05-0.428-0.055-0.773c-0.056-3.933-0.291-7.883-0.517-11.703c-0.201-3.381-0.408-6.878-0.484-10.278
				c0.005-0.282,0.332-1.222,1.069-2.12c1.618-1.974,3.375-3.943,5.074-5.849c2.244-2.518,4.565-5.12,6.707-7.875
				c1.952-2.51,3.17-2.72,4.159-2.72c0.454,0,0.968,0.067,1.527,0.202c1.819,0.437,3.607,0.447,5.335,0.458
				c0.74,0.004,1.505,0.009,2.28,0.046l4.401,0.212l-0.213-4.4c-0.044-0.912-0.077-1.791-0.108-2.646
				c-0.081-2.173-0.157-4.226-0.395-6.325c-0.026-0.227-0.676-5.561-4.668-6.317c-2.139-0.404-2.641-1.415-3.701-5.227
				c-0.195-0.702-0.397-1.428-0.635-2.162c-0.129-0.398-0.244-0.803-0.36-1.206c-0.109-0.381-0.219-0.762-0.337-1.141
				c-2.672-8.609-1.892-10.876,5.569-16.164c2.878-2.04,5.892-4.061,9.083-6.199c1.569-1.052,3.206-2.149,4.938-3.322l4.23-2.866
				l-3.797-3.418c-11.981-10.786-12.578-24.533-12.723-40.419H66.51h4v-4c0-1.81-0.027-3.551-0.053-5.234
				c-0.057-3.666-0.111-7.128,0.134-10.472c0.285-3.884,0.967-7.383,2.028-10.398c1.967-5.592,4.408-11.071,7.163-17.141
				c5.054-11.134,5.749-21.579,2.125-31.932c-0.104-0.297-0.136-0.481-0.145-0.575c0.109-0.124,0.437-0.431,1.292-0.9
				c3.605-1.977,7.204-4.061,10.684-6.077c5.139-2.976,10.453-6.054,15.776-8.775c6.035-3.084,5.807-8.479,5.684-11.376
				c-0.029-0.685-0.057-1.332-0.022-1.86c0.216-3.342-2.787-5.768-5.752-7.699c-1.847-1.203-3.804-2.182-5.707-3.121l2.376-9.803
				l0.737-3.041l-2.774-1.448c-1.829-0.954-3.633-1.917-5.426-2.875c-4.965-2.65-10.099-5.391-15.34-7.697
				c-0.726-0.32-1.525-0.481-2.375-0.481c-2.933,0-6.066,1.993-7.674,3.182c-1.223,0.905-2.199,1.344-2.985,1.344
				c-0.772,0-1.717-0.411-2.888-1.257c-0.382-0.276-0.765-0.563-1.151-0.851c-2.756-2.06-6.188-4.624-10.777-4.624
				c-0.982,0-1.973,0.121-2.964,0.36c-0.148-0.146-0.293-0.292-0.42-0.418c-0.627-0.627-1.337-1.338-2.086-1.977l-1.578-1.344
				l-2.007,0.514l-0.919,0.235l4.67-6.807l2.011-2.931l-2.675-2.342c-3.09-2.705-7.322-6.41-13.113-6.41
				c-2.19,0-4.453,0.539-6.726,1.602c-2.18,1.019-4.735,1.679-7.44,2.377c-0.03,0.008-0.061,0.016-0.092,0.023l-0.479-2.252
				L20.6,98.861l1.547-0.886l2.026-1.161l2.867-1.643l-1.072-3.125c-0.354-1.034-0.677-2.083-1.018-3.194
				c-0.807-2.625-1.641-5.341-2.954-7.952c-0.896-1.783-0.908-2.406,1.073-3.97c1.064-0.841,1.928-1.791,2.69-2.629
				c0.651-0.716,1.266-1.392,1.846-1.82c6.248-4.612,3.785-10.576,2.857-12.821c-1.741-4.216-4.815-5.101-7.088-5.101
				c-0.893,0-1.696,0.128-2.405,0.242c-0.392,0.063-0.762,0.122-1.044,0.14c-1.587,0.104-3.167,0.292-4.815,0.499
				c-0.104-0.395-0.208-0.787-0.312-1.175c-0.922-3.459-1.793-6.727-1.775-9.803c0.038-0.593,1.255-2.209,1.983-3.174
				c0.864-1.146,1.844-2.446,2.575-3.875c1.792-3.503,3.872-3.987,5.853-3.986c0.534,0,1.117,0.045,1.732,0.135
				c1.339,0.196,2.692,0.295,4.021,0.295c5.773,0,11.333-1.769,17.496-5.567c6.32-3.896,12.808-7.442,19.676-11.197
				C67.585,16.42,68.831,15.739,70.088,15.049 M73.402,8.646c-10.05,5.613-19.646,10.583-28.819,16.237
				c-4.92,3.033-9.917,4.973-15.397,4.973c-1.126,0-2.272-0.082-3.443-0.253c-0.807-0.118-1.577-0.177-2.311-0.177
				c-4.231,0-7.272,1.978-9.414,6.165c-1.562,3.054-4.98,5.893-4.997,8.844c-0.029,5.132,1.927,10.276,3.051,15.41
				c3.166-0.366,5.632-0.749,8.113-0.911c1.068-0.07,2.164-0.374,3.189-0.374c1.313,0,2.512,0.499,3.391,2.627
				c1.397,3.383,1.61,5.754-1.536,8.076c-1.722,1.271-2.954,3.196-4.641,4.529c-3.123,2.466-4.112,5.035-2.167,8.905
				c1.676,3.333,2.538,7.076,3.762,10.647c-2.249,1.288-4.097,2.348-6.104,3.497c0.99,4.654,1.947,9.159,2.986,14.048
				c4.409-1.307,8.57-2.021,12.259-3.746c1.838-0.859,3.5-1.226,5.032-1.226c4.102,0,7.282,2.621,10.479,5.419
				c-3.435,5.005-6.668,9.717-10.693,15.584c4.979-1.274,8.46-2.165,11.231-2.874c1.754,1.494,3.547,3.758,4.39,3.758
				c0.053,0,0.102-0.009,0.147-0.028c1.261-0.52,2.43-0.741,3.526-0.741c3.786,0,6.705,2.637,9.587,4.718
				c1.888,1.363,3.575,2.014,5.229,2.014c1.758,0,3.479-0.734,5.364-2.129c1.452-1.074,3.749-2.397,5.295-2.397
				c0.283,0,0.541,0.044,0.763,0.142c6.934,3.051,13.554,6.818,20.528,10.458c-1.014,4.181-2.057,8.483-3.125,12.895
				c2.909,1.51,5.673,2.703,8.16,4.323c1.604,1.045,4.028,2.793,3.944,4.089c-0.222,3.444,1.29,7.49-3.49,9.933
				c-9.033,4.618-17.66,10.023-26.563,14.906c-2.736,1.501-4.08,3.216-2.999,6.304c3.479,9.939,2.292,19.521-1.992,28.957
				c-2.608,5.746-5.203,11.524-7.294,17.467c-1.278,3.633-1.961,7.579-2.244,11.433c-0.373,5.089-0.092,10.228-0.092,15.999
				c-8.556,0-17.093,0-25.604,0c0.16,17.487-0.265,34.478,14.08,47.392c-5.338,3.616-9.773,6.51-14.09,9.57
				c-8.921,6.323-10.261,10.35-7.076,20.612c0.247,0.795,0.456,1.602,0.712,2.393c1.348,4.16,1.682,9.007,7.399,10.088
				c0.654,0.124,1.32,1.813,1.437,2.838c0.312,2.752,0.329,5.536,0.483,8.713c-2.638-0.127-4.84,0.09-6.873-0.398
				c-0.878-0.211-1.695-0.313-2.461-0.313c-3.003-0.001-5.22,1.568-7.317,4.265c-3.674,4.727-7.916,9.008-11.716,13.643
				c-1.054,1.285-2.01,3.16-1.975,4.741c0.165,7.322,0.896,14.633,1,21.954c0.046,3.226,1.261,4.649,4.244,4.732
				c13.841,0.388,23.023,7.841,29.456,19.408c2.535,4.558,5.717,7.713,10.571,7.713c1.01,0,2.091-0.136,3.255-0.425
				c0.026-0.034,0.053-0.067,0.079-0.102c0.018,0.027,0.033,0.051,0.048,0.073c0.062,0.014,0.158,0.184,0.141,0.184
				c-0.009,0-0.049-0.046-0.141-0.184c-0.002-0.001-0.005-0.001-0.007-0.001s-0.005,0-0.007,0.001
				c-0.038,0.01-0.075,0.02-0.113,0.028c-4.043,5.187-7.896,10.129-11.87,15.226c4.161,3.837,7.438,6.859,10.947,10.095
				c-3.267,2.238-6.234,4.27-9.502,6.509c5.41,6.715,10.618,13.158,15.805,19.619c5.709,7.112,7.934,9.896,12.01,9.896
				c2.595,0,5.94-1.129,11.415-2.987c1.399-0.476,3.401-1.707,3.588-2.842c1.588-9.616,6.59-12.745,13.297-12.745
				c2.489,0,5.211,0.431,8.083,1.12c0.32,0.077,0.68,0.001,0.993,0.094c2.045,0.61,3.961,0.912,5.749,0.912
				c5.635,0,10.001-3.006,13.171-8.871c1.059-1.959,2.487-2.454,4.293-2.454c0.627,0,1.301,0.06,2.02,0.139
				c10.901,1.197,20.699,4.544,28.278,12.88c1.165,1.281,2.341,1.839,3.664,1.839c0.906,0,1.88-0.262,2.967-0.731
				c6.038-2.61,12.233-4.859,17.903-7.075c2.045,2.604,3.488,6.199,5.235,6.354c3.81,0.337,7.682,1.173,11.539,1.173
				c3.013,0,6.017-0.511,8.973-2.168c0.538-0.302,1.277-0.437,2.066-0.437c1.259,0,2.646,0.342,3.556,0.891
				c3.935,2.376,7.518,5.334,12.041,8.646c8.191-11.596,16.126-22.861,24.109-34.093c1.04-1.464,2.105-3.629,3.532-3.987
				c7.451-1.875,14.74-6.134,22.374-6.134c3.509,0,7.091,0.899,10.795,3.344c0.904,0.597,1.725,0.885,2.474,0.885
				c1.279,0,2.349-0.839,3.272-2.403c0.832-1.411,1.955-2.651,2.966-3.991c-2.072-3.878-4.064-7.606-6.343-11.869
				c2.728,0,4.66,0,6.937,0c-1.309-4.901-2.526-9.458-3.788-14.177c4.859-1.854,9.263-3.37,13.5-5.258
				c1.219-0.542,2.959-2.385,2.763-3.244c-1.598-7.015,3.067-9.204,8.072-11.502c4.229-1.941,8.543-3.896,12.343-6.532
				c5.227-3.625,10.005-7.896,15.956-12.68c-6.561,0-11.567,0-16.815,0c-1.219-6.363-1.751-12.774-3.719-18.709
				c-5.321-16.047-3.642-31.087,4.056-46.012c2.116-4.103,4.28-7.068,8.462-8.975c9.998-4.556,19.817-9.23,24.247-20.652
				c3.646-9.4,9.943-16.295,20.768-17.496c0.098-0.011,0.174-0.22,0.512-0.677c-3.216-3.959-6.51-8.013-9.525-11.727
				c11.491-7.804,23.534-12.218,36.557-12.218c3.421,0,6.908,0.304,10.472,0.932c2.765,0.487,5.69,0.042,8.469,0.486
				c0.53,0.085,1.032,0.128,1.504,0.128c2.258,0,3.867-0.997,5.022-3.256c6.192-12.109,16.475-19.094,29.033-23.336
				c3.14-1.06,5.984-3.021,9.144-3.982c4.983-1.515,7.26-4.344,6.768-9.703c-0.969-10.538,1.164-19.621,13.395-24.077
				c-2.879-3.562-5.489-9.643-8.309-9.741c-3.378-0.117-7.02-0.743-10.524-0.743c-4.892,0-9.519,1.217-12.805,6.73
				c-4.097-1.99-7.941-5.458-11.587-5.458c-0.103,0-0.205,0.002-0.308,0.008c-0.687,0.038-1.368,0.056-2.044,0.056
				c-8.848,0-16.862-3.06-25.192-5.106c-7.037-1.729-9.618-7.358-6.02-13.299c0.314-0.52,0.413-1.17,0.691-1.997
				c-8.976-5.923-17.798-11.746-26.938-17.776c-0.88,3.647-1.601,6.628-2.397,9.928c-2.927-1.799-5.408-3.325-7.931-4.876
				c-1.932,2.069-3.612,3.868-5.771,6.18c-2.334-4.331-5.39-6.276-9.142-6.277c-2.281,0-4.819,0.72-7.609,2.061
				c-0.067-9.065-4.591-11.063-10.263-11.063c-1.564,0-3.215,0.152-4.884,0.349c-0.4,0.047-0.778,0.071-1.136,0.071
				c-2.765,0-4.266-1.417-4.916-4.278c-1.328-5.845-5.114-9.159-10.521-11.542c-6.926-3.051-13.516-6.868-20.233-10.346
				c1.397-4.497,2.604-8.375,3.723-11.973c-2.824-0.572-5.747-0.324-7.16-1.667c-1.728-1.641-2.188-4.617-3.301-7.261
				c-6.789,2.433-13.133,4.708-19.515,6.995c-2.393-3.345-4.25-6.569-6.741-9.191c-1.389-1.461-3.775-3.061-5.597-3.061
				c-0.131,0-0.259,0.008-0.383,0.025c-1.007,0.139-1.963,0.21-2.864,0.21c-5.357,0-8.848-2.522-10.477-8.43
				c-0.064-0.234-0.52-0.36-0.959-0.645c-4.143,2.429-8.359,4.903-12.726,7.464c-2.213-4.144-4.01-7.701-6.005-11.144
				c-0.71-1.228-1.703-2.75-2.9-3.158c-4.009-1.365-8.006-3.155-12.14-3.156c-2.261,0-4.563,0.536-6.931,1.97
				c-1.954,1.183-4.303,2.037-6.56,2.311c-1.181,0.144-2.445,0.267-3.689,0.267c-1.489,0-2.949-0.177-4.203-0.708
				c-13.178-5.576-26.221-11.475-39.269-17.356c-7.256-3.27-15.897-4.882-17.584-15.106c-4.036,2.05-7.37,3.744-10.801,5.486
				c-1.995-2.995-3.798-5.704-5.895-8.852c-2.963,2.781-5.939,4.187-8.966,4.187c-2.31,0-4.648-0.818-7.034-2.467
				c-3.168-2.19-6.241-3.359-9.207-3.359c-3.492,0-6.837,1.619-10.023,5.095c-0.052,0.058-0.147,0.076-0.267,0.076
				c-0.208,0-0.49-0.055-0.751-0.055c-4.737-8.672-9.479-17.353-14.334-26.243c-3.879,2.391-7.201,4.437-10.834,6.676
				C73.994,13.974,73.729,11.596,73.402,8.646L73.402,8.646z"/>
		</g>
		<g>
			<path style="fill:#FFFFFF;" d="M70.088,15.049l0.271,2.441l0.697,6.278l5.377-3.314l5.339-3.29l1.907-1.175l8.69,15.91
				l3.624,6.634l1.137,2.083h2.294l0.071,0.007c0.178,0.019,0.448,0.048,0.759,0.048c1.708,0,2.751-0.864,3.216-1.373
				c2.341-2.556,4.655-3.798,7.074-3.798c2.057,0,4.389,0.892,6.932,2.649c3.049,2.108,6.182,3.177,9.309,3.177
				c2.727,0,5.408-0.808,8.008-2.409l3.523,5.292l1.971,2.959l3.169-1.61l6.548-3.326c3.111,6.847,9.558,9.433,14.924,11.585
				c1.211,0.486,2.355,0.945,3.458,1.442l1.947,0.877c12.213,5.505,24.842,11.198,37.407,16.515
				c1.627,0.689,3.512,1.023,5.762,1.023c1.538,0,3.038-0.158,4.172-0.296c2.764-0.336,5.658-1.352,8.149-2.86
				c1.567-0.949,3.111-1.391,4.859-1.391c2.651,0,5.493,1.025,8.501,2.111c0.693,0.25,1.386,0.5,2.079,0.739
				c0.151,0.158,0.465,0.548,0.999,1.47c1.371,2.366,2.686,4.863,4.077,7.506c0.595,1.129,1.21,2.298,1.861,3.517l1.961,3.672
				l3.591-2.106l2.434-1.427l6.813-3.996c2.534,4.979,6.927,7.583,12.891,7.583c1.022,0,2.115-0.076,3.25-0.227
				c0.521,0.118,1.787,0.853,2.694,1.807c1.504,1.583,2.843,3.569,4.26,5.671c0.673,0.998,1.368,2.031,2.127,3.092l1.759,2.458
				l2.845-1.02l6.609-2.369l9.125-3.271c0.631,1.766,1.455,3.595,2.976,5.04c1.36,1.292,3.031,1.815,4.692,2.097l-2.318,7.457
				l-0.995,3.199l2.976,1.541c1.997,1.034,4.03,2.124,5.996,3.177c4.662,2.499,9.482,5.083,14.463,7.277
				c4.926,2.172,7.312,4.712,8.233,8.769c1.462,6.432,6.151,7.392,8.816,7.392c0.512,0,1.052-0.033,1.605-0.099
				c1.266-0.149,2.911-0.321,4.414-0.321c3.751,0,6.214,0.494,6.263,7.093l0.047,6.308l5.686-2.732
				c2.3-1.105,4.277-1.666,5.877-1.666c1.569,0,3.627,0.474,5.62,4.174l2.643,4.904l3.803-4.071l2.447-2.621l1.091-1.168
				l5.146,3.164l4.69,2.883l1.293-5.352l0.804-3.329l0.256-1.062l18.228,12.028l1.192,0.788c-1.598,3.408-1.781,6.912-0.494,10.021
				c1.554,3.753,5.047,6.468,9.835,7.645c2.028,0.499,4.101,1.076,6.104,1.635c6.325,1.764,12.865,3.587,20.042,3.587
				c0.756,0,1.517-0.021,2.265-0.062l0.087-0.002c1.315,0,3.558,1.382,5.536,2.602c1.366,0.842,2.778,1.713,4.303,2.454l3.304,1.605
				l1.88-3.155c2.05-3.438,4.677-4.778,9.369-4.778c1.766,0,3.604,0.179,5.549,0.37c1.419,0.139,2.881,0.281,4.329,0.35
				c0.761,0.682,2.088,2.755,2.908,4.036c0.015,0.023,0.03,0.047,0.045,0.07c-11.637,6.502-12.14,17.796-11.376,26.101
				c0.299,3.252-0.587,4.488-3.948,5.51c-1.975,0.601-3.724,1.468-5.415,2.308c-1.341,0.665-2.607,1.294-3.845,1.711
				c-14.945,5.048-25.188,13.325-31.314,25.305c-0.551,1.077-0.874,1.077-1.461,1.077c-0.254,0-0.548-0.026-0.872-0.078
				c-1.663-0.266-3.236-0.271-4.757-0.277c-1.322-0.005-2.572-0.009-3.65-0.199c-3.739-0.658-7.495-0.992-11.164-0.992
				c-13.32,0-26.013,4.222-38.805,12.908l-3.604,2.448l2.746,3.383l5.803,7.144c-8.266,2.658-14.366,8.955-18.181,18.788
				c-3.936,10.147-13.208,14.372-22.177,18.459c-5.205,2.373-7.905,6.025-10.357,10.781c-8.43,16.343-9.835,32.405-4.298,49.104
				c1.245,3.754,1.879,7.79,2.551,12.063c0.314,2.001,0.64,4.07,1.036,6.139l0.622,3.248h3.307h5.64
				c-2.404,1.959-4.677,3.739-7.06,5.393c-3.41,2.365-7.471,4.229-11.398,6.03l-0.334,0.154c-4.78,2.194-11.883,5.455-10.578,14.551
				c-0.094,0.081-0.185,0.151-0.255,0.194c-2.921,1.299-5.989,2.439-9.236,3.647c-1.31,0.486-2.648,0.984-4.022,1.509l-3.37,1.286
				l0.932,3.484c0.821,3.07,1.623,6.071,2.444,9.144h-1.729h-6.674l3.146,5.886l4.573,8.559l0.537,1.005
				c-0.57,0.732-1.137,1.506-1.651,2.378c-0.043,0.073-0.084,0.139-0.122,0.197c-4.076-2.684-8.32-3.988-12.973-3.989
				c-5.618,0-10.794,1.91-15.8,3.757c-2.619,0.967-5.093,1.879-7.55,2.497c-2.644,0.664-4.137,2.975-5.228,4.661
				c-0.2,0.31-0.396,0.614-0.591,0.889c-6.079,8.554-12.008,16.953-18.286,25.847l-3.461,4.902c-0.165-0.125-0.33-0.249-0.493-0.373
				c-2.897-2.188-5.633-4.256-8.583-6.036c-1.521-0.918-3.623-1.466-5.622-1.466c-1.548,0-2.901,0.319-4.022,0.947
				c-2.016,1.131-4.246,1.657-7.017,1.657c-2.157,0-4.384-0.304-6.742-0.624c-1.164-0.158-2.359-0.321-3.567-0.448
				c-0.357-0.473-0.852-1.259-1.208-1.826c-0.611-0.971-1.303-2.07-2.111-3.099l-1.835-2.336l-2.767,1.081
				c-1.604,0.627-3.25,1.256-4.922,1.896c-4.283,1.639-8.712,3.332-13.111,5.233c-0.842,0.364-1.246,0.403-1.38,0.403
				c-0.193,0-0.524-0.332-0.704-0.529c-7.43-8.173-17.217-12.674-30.802-14.166c-0.732-0.08-1.597-0.162-2.456-0.162
				c-3.552,0-6.181,1.532-7.813,4.553c-3.28,6.07-7.08,6.772-9.652,6.772c-1.396,0-2.946-0.25-4.61-0.747
				c-0.614-0.182-1.146-0.209-1.482-0.216c-3.326-0.782-6.185-1.163-8.732-1.163c-6.512,0-14.689,2.673-17.094,15.253
				c-0.284,0.191-0.699,0.418-1.077,0.546c-4.744,1.611-8.172,2.775-10.128,2.775c-1.962,0-3.33-1.475-8.845-8.344l-0.046-0.057
				c-3.508-4.37-7.025-8.731-10.608-13.174l-2.488-3.085l1.944-1.332l3.99-2.733l4.142-2.837l-3.691-3.403l-8.24-7.599l8.285-10.627
				l2.025-0.001l0.388-3.567c0.127-1.17-0.269-2.309-1.003-3.162l-2.853-4.427l-2.622,3.36c-0.355,0.045-0.697,0.067-1.023,0.067
				c-1.943,0-4.303-0.672-7.076-5.657c-7.7-13.847-18.749-21.067-32.84-21.462c-0.118-0.004-0.218-0.01-0.301-0.019
				c-0.026-0.176-0.05-0.428-0.055-0.773c-0.056-3.933-0.291-7.883-0.517-11.703c-0.201-3.381-0.408-6.878-0.484-10.278
				c0.005-0.282,0.332-1.222,1.069-2.12c1.618-1.974,3.375-3.943,5.074-5.849c2.244-2.518,4.565-5.12,6.707-7.875
				c1.952-2.51,3.17-2.72,4.159-2.72c0.454,0,0.968,0.067,1.527,0.202c1.819,0.437,3.607,0.447,5.335,0.458
				c0.74,0.004,1.505,0.009,2.28,0.046l4.401,0.212l-0.213-4.4c-0.044-0.912-0.077-1.791-0.108-2.646
				c-0.081-2.173-0.157-4.226-0.395-6.325c-0.026-0.227-0.676-5.561-4.668-6.317c-2.139-0.404-2.641-1.415-3.701-5.227
				c-0.195-0.702-0.397-1.428-0.635-2.162c-0.129-0.398-0.244-0.803-0.36-1.206c-0.109-0.381-0.219-0.762-0.337-1.141
				c-2.672-8.609-1.892-10.876,5.569-16.164c2.878-2.04,5.892-4.061,9.083-6.199c1.569-1.052,3.206-2.149,4.938-3.322l4.23-2.866
				l-3.797-3.418c-11.981-10.786-12.578-24.533-12.723-40.419H66.51h4v-4c0-1.81-0.027-3.551-0.053-5.234
				c-0.057-3.666-0.111-7.128,0.134-10.472c0.285-3.884,0.967-7.383,2.028-10.398c1.967-5.592,4.408-11.071,7.163-17.141
				c5.054-11.134,5.749-21.579,2.125-31.932c-0.104-0.297-0.136-0.481-0.145-0.575c0.109-0.124,0.437-0.431,1.292-0.9
				c3.605-1.977,7.204-4.061,10.684-6.077c5.139-2.976,10.453-6.054,15.776-8.775c6.035-3.084,5.807-8.479,5.684-11.376
				c-0.029-0.685-0.057-1.332-0.022-1.86c0.216-3.342-2.787-5.768-5.752-7.699c-1.847-1.203-3.804-2.182-5.707-3.121l2.376-9.803
				l0.737-3.041l-2.774-1.448c-1.829-0.954-3.633-1.917-5.426-2.875c-4.965-2.65-10.099-5.391-15.341-7.698
				c-0.725-0.319-1.524-0.481-2.375-0.481c-2.933,0-6.066,1.993-7.674,3.182c-1.223,0.905-2.199,1.345-2.985,1.345
				c-0.772,0-1.717-0.411-2.888-1.257c-0.382-0.276-0.765-0.562-1.15-0.85c-2.757-2.061-6.188-4.625-10.778-4.625
				c-0.982,0-1.973,0.121-2.964,0.36c-0.148-0.146-0.293-0.292-0.42-0.418c-0.627-0.627-1.337-1.338-2.086-1.977l-1.578-1.344
				l-2.007,0.514l-0.919,0.235l4.67-6.807l2.011-2.931l-2.675-2.342c-3.09-2.705-7.322-6.41-13.113-6.41
				c-2.189,0-4.453,0.539-6.726,1.602c-2.18,1.019-4.735,1.679-7.44,2.377c-0.03,0.008-0.061,0.016-0.092,0.023l-0.479-2.252
				L20.6,98.861l1.547-0.886l2.026-1.161l2.867-1.643l-1.072-3.125c-0.354-1.034-0.677-2.083-1.018-3.194
				c-0.807-2.625-1.641-5.341-2.954-7.952c-0.896-1.783-0.908-2.406,1.073-3.97c1.064-0.841,1.928-1.791,2.69-2.629
				c0.651-0.716,1.266-1.392,1.846-1.82c6.248-4.612,3.785-10.576,2.857-12.821c-1.741-4.216-4.815-5.101-7.088-5.101
				c-0.894,0-1.697,0.128-2.406,0.242c-0.392,0.063-0.762,0.122-1.044,0.14c-1.587,0.104-3.167,0.292-4.815,0.499
				c-0.104-0.395-0.208-0.787-0.312-1.175c-0.922-3.459-1.793-6.727-1.775-9.803c0.038-0.593,1.255-2.209,1.983-3.174
				c0.864-1.146,1.844-2.446,2.575-3.875c1.792-3.503,3.872-3.986,5.853-3.986c0.534,0,1.117,0.045,1.732,0.135
				c1.339,0.196,2.692,0.295,4.021,0.295c5.773,0,11.333-1.769,17.496-5.567c6.32-3.896,12.808-7.442,19.676-11.197
				C67.585,16.42,68.831,15.739,70.088,15.049 M73.402,8.646c-10.05,5.613-19.646,10.583-28.819,16.237
				c-4.921,3.033-9.917,4.973-15.397,4.973c-1.126,0-2.272-0.082-3.443-0.253c-0.807-0.118-1.577-0.177-2.311-0.177
				c-4.23,0-7.272,1.978-9.414,6.165c-1.562,3.054-4.98,5.893-4.997,8.844c-0.029,5.132,1.927,10.276,3.051,15.41
				c3.166-0.366,5.632-0.749,8.113-0.911c1.068-0.07,2.163-0.375,3.189-0.374c1.313,0,2.512,0.499,3.391,2.627
				c1.397,3.383,1.61,5.754-1.536,8.076c-1.722,1.271-2.954,3.196-4.641,4.529c-3.123,2.466-4.112,5.035-2.167,8.905
				c1.676,3.333,2.538,7.076,3.762,10.647c-2.249,1.288-4.097,2.348-6.104,3.497c0.99,4.654,1.947,9.159,2.986,14.048
				c4.409-1.307,8.57-2.021,12.259-3.746c1.838-0.86,3.5-1.226,5.032-1.226c4.101,0,7.282,2.622,10.479,5.419
				c-3.435,5.005-6.668,9.717-10.693,15.584c4.979-1.274,8.46-2.165,11.231-2.874c1.754,1.494,3.547,3.758,4.39,3.758
				c0.053,0,0.102-0.009,0.147-0.028c1.261-0.52,2.43-0.741,3.526-0.741c3.785,0,6.705,2.637,9.587,4.718
				c1.888,1.363,3.575,2.014,5.229,2.014c1.758,0,3.479-0.735,5.364-2.129c1.452-1.074,3.749-2.398,5.295-2.397
				c0.283,0,0.541,0.044,0.763,0.142c6.934,3.051,13.554,6.818,20.528,10.458c-1.014,4.181-2.057,8.483-3.125,12.895
				c2.909,1.51,5.673,2.703,8.16,4.323c1.604,1.045,4.028,2.793,3.944,4.089c-0.222,3.444,1.29,7.49-3.49,9.933
				c-9.033,4.618-17.66,10.023-26.563,14.906c-2.736,1.501-4.08,3.216-2.999,6.304c3.479,9.939,2.292,19.521-1.992,28.957
				c-2.608,5.746-5.203,11.524-7.294,17.467c-1.278,3.633-1.961,7.579-2.244,11.433c-0.373,5.089-0.092,10.228-0.092,15.999
				c-8.556,0-17.093,0-25.604,0c0.16,17.487-0.265,34.478,14.08,47.392c-5.338,3.616-9.773,6.51-14.09,9.57
				c-8.921,6.323-10.261,10.35-7.076,20.612c0.247,0.795,0.456,1.602,0.712,2.393c1.348,4.16,1.682,9.007,7.399,10.088
				c0.654,0.124,1.32,1.813,1.437,2.838c0.312,2.752,0.329,5.536,0.483,8.713c-2.638-0.127-4.84,0.09-6.873-0.398
				c-0.879-0.211-1.695-0.313-2.461-0.313c-3.003,0-5.22,1.568-7.317,4.265c-3.674,4.727-7.916,9.008-11.716,13.643
				c-1.054,1.285-2.01,3.16-1.975,4.741c0.165,7.322,0.896,14.633,1,21.954c0.046,3.226,1.261,4.649,4.244,4.732
				c13.841,0.388,23.023,7.841,29.456,19.408c2.535,4.558,5.716,7.713,10.571,7.713c1.009,0,2.092-0.137,3.255-0.425
				c0.026-0.034,0.053-0.067,0.079-0.102c0.018,0.027,0.033,0.051,0.048,0.073c0.062,0.014,0.158,0.184,0.141,0.184
				c-0.009,0-0.049-0.046-0.141-0.184c-0.002-0.001-0.005-0.001-0.007-0.001s-0.004,0-0.007,0.001
				c-0.038,0.01-0.075,0.02-0.113,0.028c-4.043,5.187-7.896,10.129-11.87,15.226c4.161,3.837,7.438,6.859,10.947,10.095
				c-3.267,2.238-6.234,4.27-9.502,6.509c5.41,6.715,10.618,13.158,15.805,19.619c5.71,7.112,7.934,9.896,12.01,9.896
				c2.595,0,5.941-1.129,11.415-2.987c1.399-0.476,3.401-1.707,3.588-2.842c1.588-9.617,6.589-12.745,13.297-12.745
				c2.488,0,5.212,0.431,8.083,1.12c0.32,0.077,0.68,0.001,0.993,0.094c2.046,0.61,3.96,0.912,5.749,0.912
				c5.634,0,10.002-3.006,13.171-8.871c1.059-1.959,2.487-2.454,4.293-2.454c0.627,0,1.301,0.06,2.02,0.139
				c10.901,1.197,20.699,4.544,28.278,12.88c1.165,1.281,2.341,1.839,3.664,1.839c0.906,0,1.881-0.262,2.967-0.731
				c6.038-2.61,12.233-4.859,17.903-7.075c2.045,2.604,3.488,6.199,5.235,6.354c3.81,0.337,7.682,1.173,11.539,1.173
				c3.013,0,6.017-0.511,8.973-2.168c0.539-0.302,1.277-0.437,2.066-0.437c1.259,0,2.647,0.342,3.556,0.891
				c3.935,2.376,7.518,5.334,12.041,8.646c8.191-11.596,16.126-22.861,24.109-34.093c1.04-1.464,2.105-3.629,3.532-3.987
				c7.452-1.875,14.739-6.134,22.374-6.134c3.509,0.001,7.092,0.9,10.795,3.344c0.904,0.597,1.725,0.885,2.474,0.885
				c1.279,0,2.35-0.839,3.272-2.403c0.832-1.411,1.955-2.651,2.966-3.991c-2.072-3.878-4.064-7.606-6.343-11.869
				c2.728,0,4.66,0,6.937,0c-1.309-4.901-2.526-9.458-3.788-14.177c4.859-1.854,9.263-3.37,13.5-5.258
				c1.219-0.542,2.959-2.385,2.763-3.244c-1.598-7.015,3.067-9.204,8.072-11.502c4.229-1.941,8.543-3.896,12.343-6.532
				c5.227-3.625,10.005-7.896,15.956-12.68c-6.561,0-11.567,0-16.815,0c-1.219-6.363-1.751-12.774-3.719-18.709
				c-5.321-16.047-3.642-31.087,4.056-46.012c2.116-4.103,4.28-7.068,8.462-8.975c9.998-4.556,19.817-9.23,24.247-20.652
				c3.646-9.4,9.943-16.295,20.768-17.496c0.098-0.011,0.174-0.22,0.512-0.677c-3.216-3.959-6.51-8.013-9.525-11.727
				c11.492-7.804,23.532-12.219,36.557-12.218c3.42,0,6.909,0.304,10.472,0.932c2.765,0.487,5.69,0.042,8.469,0.486
				c0.531,0.085,1.031,0.128,1.504,0.128c2.258,0,3.867-0.997,5.022-3.256c6.192-12.109,16.475-19.094,29.033-23.336
				c3.14-1.06,5.984-3.021,9.144-3.982c4.983-1.515,7.26-4.344,6.768-9.703c-0.969-10.538,1.164-19.621,13.395-24.077
				c-2.879-3.562-5.489-9.643-8.309-9.741c-3.379-0.117-7.019-0.743-10.524-0.743c-4.891,0-9.519,1.218-12.805,6.73
				c-4.097-1.99-7.941-5.458-11.587-5.458c-0.103,0-0.205,0.002-0.308,0.008c-0.687,0.038-1.367,0.056-2.044,0.056
				c-8.848,0-16.862-3.061-25.192-5.106c-7.037-1.729-9.618-7.358-6.02-13.299c0.314-0.52,0.413-1.17,0.691-1.997
				c-8.976-5.923-17.798-11.746-26.938-17.776c-0.88,3.647-1.601,6.628-2.397,9.928c-2.927-1.799-5.408-3.325-7.931-4.876
				c-1.932,2.069-3.612,3.868-5.771,6.18c-2.334-4.331-5.39-6.277-9.142-6.277c-2.28,0-4.819,0.72-7.609,2.061
				c-0.067-9.066-4.591-11.063-10.263-11.063c-1.563,0-3.215,0.152-4.884,0.349c-0.4,0.047-0.778,0.071-1.136,0.071
				c-2.765,0-4.266-1.417-4.916-4.278c-1.328-5.845-5.114-9.159-10.521-11.542c-6.926-3.051-13.516-6.868-20.233-10.346
				c1.397-4.497,2.604-8.375,3.723-11.973c-2.824-0.572-5.747-0.324-7.16-1.667c-1.728-1.641-2.188-4.617-3.301-7.261
				c-6.789,2.433-13.133,4.708-19.515,6.995c-2.393-3.345-4.25-6.569-6.741-9.191c-1.389-1.461-3.775-3.061-5.597-3.061
				c-0.131,0-0.259,0.008-0.383,0.025c-1.008,0.139-1.962,0.21-2.864,0.21c-5.356,0-8.848-2.523-10.477-8.43
				c-0.064-0.234-0.52-0.36-0.959-0.645c-4.143,2.429-8.359,4.903-12.726,7.464c-2.213-4.144-4.01-7.701-6.005-11.144
				c-0.71-1.228-1.703-2.75-2.9-3.158c-4.009-1.365-8.005-3.156-12.14-3.156c-2.261,0-4.563,0.536-6.931,1.97
				c-1.954,1.183-4.303,2.037-6.56,2.311c-1.181,0.144-2.445,0.267-3.689,0.267c-1.489,0-2.949-0.177-4.203-0.708
				c-13.178-5.576-26.221-11.475-39.269-17.356c-7.256-3.27-15.897-4.882-17.584-15.106c-4.036,2.05-7.37,3.744-10.801,5.486
				c-1.995-2.995-3.798-5.704-5.895-8.852c-2.964,2.782-5.939,4.187-8.966,4.187c-2.31,0-4.649-0.818-7.034-2.467
				c-3.169-2.191-6.24-3.359-9.207-3.359c-3.492,0-6.837,1.619-10.023,5.095c-0.052,0.058-0.147,0.076-0.267,0.076
				c-0.208,0-0.49-0.055-0.751-0.055c-4.737-8.672-9.479-17.353-14.334-26.243c-3.879,2.391-7.201,4.437-10.834,6.676
				C73.994,13.974,73.729,11.596,73.402,8.646L73.402,8.646z"/>
		</g>
	</g>
	<rect x="374" y="302" style="fill-rule:evenodd;clip-rule:evenodd;" width="123" height="201"/>
	<rect x="-419" y="737" style="fill-rule:evenodd;clip-rule:evenodd;" width="9" height="2"/>
</g>
<g id="Layer_1">
</g>
</svg>
