<?xml version="1.0" encoding="iso-8859-1"?>
<!-- Generator: Adobe Illustrator 16.0.0, SVG Export Plug-In . SVG Version: 6.00 Build 0)  -->
<!DOCTYPE svg PUBLIC "-//W3C//DTD SVG 1.1//EN" "http://www.w3.org/Graphics/SVG/1.1/DTD/svg11.dtd">
<svg version="1.1" xmlns="http://www.w3.org/2000/svg" xmlns:xlink="http://www.w3.org/1999/xlink" x="0px" y="0px" width="512px"
	 height="512px" viewBox="0 0 512 512" style="enable-background:new 0 0 512 512;" xml:space="preserve">
<g id="sweden">
	<g>
		<path style="fill:#FFFFFF;" d="M284.137,8.647c0.446,0.299,0.892,0.591,1.331,0.879c2.304,1.511,4.479,2.938,6.018,4.771
			c5.83,6.939,12.724,11.416,21.075,13.683c6.4,1.739,10.701,6.341,15.254,11.214l0.42,0.449c4.645,4.966,5.693,10.938,3.208,18.254
			c-0.208,0.611-0.107,1.284,0.268,1.808c0.376,0.524,0.981,0.835,1.626,0.835h4.78c-2.328,5.111-1.405,9.537,2.955,14.845
			c1.296,1.578,2.749,5.135,2.315,13.122c-0.202,3.726-0.171,7.401,2.394,11.406c2.24,3.499,4.245,7.279,6.183,10.936
			c0.396,0.747,0.799,1.505,1.205,2.267c-1.021-0.219-2.002-0.329-2.935-0.329c-4.784,0-8.351,2.719-10.624,8.092l-6.412-4.323
			l-0.671-0.452c-0.335-0.226-0.725-0.342-1.118-0.342c-0.201,0-0.404,0.03-0.601,0.092c-0.581,0.183-1.047,0.621-1.266,1.188
			l-0.586,1.52l-1.117,2.9c-0.317,0.824-0.058,1.758,0.64,2.299l0.106,0.082c-0.073,0.053-0.144,0.111-0.209,0.174
			c-0.477,0.457-0.697,1.12-0.589,1.771l0.813,4.906l-7.648,1.125c-0.73,0.107-1.343,0.608-1.592,1.304s-0.095,1.471,0.401,2.019
			l6.855,7.557l-1.589,2.206l-7.274,10.101c-0.607,0.844-0.468,2.013,0.322,2.688l1.115,0.954l8.806,7.536
			c-0.072,0.127-0.141,0.248-0.204,0.361c-0.395,0.7-0.655,1.162-0.906,1.433c-6.336,6.852-9.44,15.082-9.226,24.462
			c0.035,1.595-0.459,2.444-3.489,3.258c-3.603,0.969-5.484,3.009-6.291,6.82c-0.113,0.537-1.488,1.722-4.81,2.783
			c-0.829,0.265-1.392,1.035-1.392,1.905v5.437l-2.515,0.228l-3.646,0.331c-0.556,0.05-1.064,0.33-1.404,0.772
			c-0.34,0.442-0.48,1.006-0.387,1.556c0.503,2.951,0.302,4.988-0.599,6.054c-0.737,0.874-2.141,1.317-4.171,1.317l-0.207-0.002
			c-0.01,0-0.019,0-0.028,0c-0.569,0-1.112,0.243-1.492,0.668c-0.386,0.432-0.565,1.011-0.492,1.586
			c0.552,4.31,0.661,7.104-2.462,9.56c-1.784,1.405-1.855,3.996-1.931,6.738c-0.012,0.435-0.024,0.876-0.043,1.313l-4.924-0.392
			l-4.911-0.391c-0.054-0.004-0.106-0.006-0.159-0.006c-0.646,0-1.258,0.313-1.634,0.847c-0.407,0.577-0.48,1.326-0.191,1.971
			c0.348,0.776,0.636,1.581,0.915,2.36c0.666,1.861,1.296,3.62,2.657,4.954c1.141,1.118,1.704,2.067,1.677,2.822
			c-0.028,0.772-0.707,1.725-2.016,2.83c-0.624,0.525-1.033,1.162-1.466,1.837c-0.197,0.307-0.421,0.655-0.701,1.05
			c-0.311,0.437-0.434,0.979-0.341,1.507s0.393,0.995,0.834,1.3c3.428,2.365,4.611,5.497,3.736,10.032h-6.487
			c-0.903,0-1.694,0.605-1.931,1.478s0.143,1.794,0.922,2.25c4.303,2.512,4.426,5.41,4.596,9.422
			c0.025,0.595,0.051,1.193,0.092,1.791c0.296,4.362,1.09,8.731,1.858,12.956c0.329,1.811,0.67,3.683,0.968,5.534
			c0.128,0.797,0.723,1.438,1.507,1.627c0.66,0.159,1.3,0.326,1.926,0.489c1.41,0.367,2.742,0.714,4.15,0.943l0.104,0.018
			c2.974,0.483,4.938,0.803,5.562,1.405c0.601,0.581,0.906,2.438,1.367,5.249c0.152,0.925,0.926,1.62,1.862,1.673l10.786,0.603
			l-0.368,0.537l-0.902,1.317c-0.532,0.778-0.449,1.822,0.199,2.507l11.82,12.458c-1.143,1.13-2.257,2.245-3.346,3.334
			c-3.88,3.883-7.544,7.551-11.47,10.848c-0.544,0.457-1.768,0.729-3.271,0.729c-0.621,0-1.271-0.045-1.91-0.131
			c-0.264-0.577-0.583-1.7-0.77-2.356c-0.119-0.42-0.234-0.823-0.347-1.179c-0.467-1.477-0.827-2.977-1.208-4.564
			c-0.164-0.685-0.328-1.368-0.501-2.05c-0.229-0.904-1.042-1.509-1.937-1.509c-0.148,0-0.298,0.016-0.448,0.051l-0.852,0.194
			l-0.852,0.195c-1.011,0.23-1.677,1.196-1.535,2.224l0.834,6.024l0.339,2.442c-6.089-1.87-10.85-2.783-14.491-2.783
			c-7.627,0-8.956,4.229-9.07,6.751c-0.024,0.545,0.175,1.077,0.553,1.472c0.377,0.395,0.899,0.618,1.445,0.618
			c0.599,0,1.198,0.021,1.796,0.043c0.625,0.021,1.271,0.044,1.919,0.044c0.928,0,1.699-0.046,2.43-0.146
			c0.983-0.134,1.969-0.201,2.927-0.201c4.775,0,9.36,1.696,13.63,5.042c1.038,0.813,1.983,2.44,2.063,3.552
			c0.57,7.824-1.532,12.094-7.257,14.737c-6.627,3.062-9.146,8.322-7.931,16.556c1.681,11.369,1.879,23.217,2.071,34.674
			c0.021,1.312,0.044,2.622,0.067,3.931c0.044,2.39-0.723,4.888-1.535,7.533c-0.385,1.257-0.784,2.556-1.097,3.863
			c-0.188,0.788,0.118,1.612,0.775,2.087l0.118,0.086c-0.367,0.274-0.639,0.676-0.748,1.149l-2.67,11.558l-2.861,12.383
			c-3.548-0.959-6.967-1.444-10.187-1.445c-9.294,0-17.434,4.032-24.192,11.985c-0.573,0.675-0.635,1.646-0.151,2.387l6.338,9.724
			l-1.082,1.513l-3.179,4.445c-0.243-0.096-0.485-0.192-0.723-0.287c-1.691-0.673-3.441-1.369-5.28-1.755
			c-0.573-0.119-1.233-0.183-1.909-0.183c-1.504,0-3.502,0.292-4.478,1.687c-1.292,1.845-2.474,2.081-3.359,2.081
			c-1.305,0-2.879-0.602-4.252-1.166c-1.687-0.694-3.383-1.495-5.179-2.344c-0.118-0.056-0.237-0.112-0.357-0.169l3.274-3.801
			c0.444-0.516,0.596-1.222,0.402-1.874s-0.705-1.161-1.358-1.352c-0.536-0.156-1.063-0.338-1.573-0.514
			c-1.177-0.405-2.394-0.824-3.704-0.918c-2.033-0.146-2.534-0.456-2.786-3.175c-0.303-3.277-2.177-6.329-3.831-9.021l-0.168-0.273
			c-0.994-1.619-0.857-2.502,0.666-4.294c2.145-2.522,4.155-5.104,6.481-8.092c1.042-1.338,2.143-2.752,3.341-4.27
			c0.427-0.541,0.545-1.265,0.313-1.914c-0.232-0.648-0.783-1.133-1.457-1.279c-7.213-1.571-9.351-6.129-11.826-11.405
			c-0.38-0.811-0.774-1.649-1.186-2.469c-0.724-1.441-1.426-2.944-2.104-4.397c-1.34-2.87-2.725-5.837-4.411-8.624
			c-1.953-3.228-4.155-6.237-6.487-9.425c-0.784-1.071-1.588-2.17-2.396-3.296c0.446-0.789,0.914-1.602,1.394-2.436
			c1.976-3.434,4.216-7.326,6.028-11.402c0.787-1.771,0.049-3.747-0.665-5.658c-0.288-0.771-0.586-1.569-0.783-2.333
			c-0.155-0.604-0.583-1.1-1.157-1.343c-0.25-0.105-0.515-0.158-0.78-0.158c-0.343,0-0.684,0.088-0.99,0.262l-5.331,3.037
			l-1.919,1.093c-1.431-1.022-1.811-2.438-1.396-4.856c0.356-2.077,0.282-4.242-0.207-6.096c-0.889-3.366-1.939-6.727-2.955-9.976
			c-0.132-0.425-0.265-0.849-0.397-1.272c0.604,0.404,1.238,0.794,1.929,1.125c1.084,0.52,2.191,0.842,3.262,1.154
			c0.422,0.123,0.844,0.246,1.26,0.382c0.202,0.065,0.411,0.098,0.619,0.098c0.324,0,0.646-0.079,0.938-0.233
			c0.479-0.254,0.834-0.691,0.984-1.213c0.106-0.369,0.277-0.791,0.458-1.237c0.504-1.243,1.075-2.651,0.766-4.163
			c-1.354-6.628-0.943-13.707,1.292-22.278c0.365-1.398,1.378-2.79,2.451-4.264c0.458-0.63,0.932-1.28,1.367-1.951
			c0.685-1.057,1.474-2.082,2.31-3.167c1.795-2.333,3.651-4.745,4.522-7.611c3.996-13.139,3.618-14.304-3.974-28.775
			c4.304-2.018,7.155-5.586,8.49-10.638c0.575-2.177,1.538-5.821-2.653-8.115c-5.812-3.183-7.862-7.958-6.854-15.97
			c1.907-15.167-0.614-29.021-7.49-41.176c-1.581-2.793-1.514-5.194,0.229-8.284c2.083-3.693,3.984-7.79,5.98-12.892
			c3.217-8.22,9.082-12.208,18.458-12.552c4.041-0.148,7.039-1.381,8.911-3.666c1.827-2.229,2.441-5.282,1.825-9.073
			c-0.269-1.65-1.613-2.891-2.616-3.816c-1.586-1.463-3.181-2.83-4.869-4.276c-0.282-0.242-0.564-0.484-0.848-0.728
			c0.858-1.863,1.718-3.715,2.574-5.56c2.826-6.089,5.749-12.386,8.396-18.648c0.99-2.343,1.195-5.512,0.537-8.272
			c-0.334-1.399-0.718-2.799-1.09-4.153c-1.44-5.251-2.801-10.21-1.514-15.356c0.303-1.21,1.51-2.661,2.033-2.815
			c4.919-1.118,8.001-1.975,9.319-4.437c1.191-2.227,0.473-5.017-0.947-8.866c0.365-0.278,0.741-0.556,1.128-0.843
			c1.851-1.371,3.766-2.788,5.199-4.718c0.268-0.36,0.539-0.721,0.811-1.082c3.894-5.17,8.307-11.031,3.973-19.291
			c-3.358-6.402-1.01-12.73,1.729-18.076c0.74-1.444,1.238-3.047,1.718-4.596c0.676-2.179,1.375-4.432,2.564-5.274
			c0.354-0.251,0.974-0.378,1.842-0.378c1.158,0,2.53,0.222,3.983,0.458c1.303,0.211,2.65,0.43,3.928,0.493
			c0.398,0.02,0.797,0.026,1.188,0.026c0.32,0,0.636-0.004,0.941-0.009c0.27-0.003,0.531-0.007,0.782-0.007
			c0.617,0,1.2-0.285,1.579-0.772c3.679-4.73,3.556-9.052-0.378-13.213c-1.175-1.242-1.99-3.028-2.854-4.92
			c-0.146-0.318-0.292-0.639-0.443-0.963c1.918-0.736,3.918-1.096,6.063-1.096c3.385,0,6.736,0.86,10.285,1.771
			c3.335,0.855,6.783,1.74,10.403,1.914c0.032,0.001,0.064,0.002,0.096,0.002c0.606,0,1.182-0.275,1.562-0.751
			c0.401-0.501,0.537-1.164,0.366-1.782c-0.26-0.94-0.581-1.827-0.892-2.685c-0.576-1.593-1.121-3.097-0.959-4.207
			c0.104-0.722,1.123-1.79,2.108-2.822c0.639-0.669,1.3-1.362,1.93-2.154c0.351-0.439,0.499-1.006,0.41-1.561
			c-0.088-0.555-0.406-1.047-0.876-1.356C284.42,16.899,281.929,14.277,284.137,8.647 M287.533,432.449
			c-2.489,6.339-2.717,12.988-2.938,19.453c-0.122,3.59-1.076,7.241-2.087,11.107c-0.188,0.718-0.378,1.445-0.565,2.183
			c-2.682-3.311-2.969-7.017-3.291-11.182c-0.123-1.595-0.251-3.244-0.529-4.89c-0.024-0.145-0.063-0.283-0.116-0.414
			c0.243-0.126,0.465-0.305,0.646-0.532c0.301-0.379,0.655-0.761,1.03-1.166c0.915-0.986,1.951-2.105,2.506-3.541l0.176-0.454
			C284.766,436.802,285.674,434.449,287.533,432.449 M283.327,5.641c-3.398,6.437-2.555,11.253,2.533,14.599
			c-1.795,2.254-4.163,3.943-4.453,5.933c-0.339,2.33,1.132,4.924,1.902,7.713c-7.155-0.343-13.822-3.687-20.784-3.687
			c-2.855,0-5.763,0.563-8.771,2.127c1.539,2.885,2.506,6.064,4.551,8.227c3.464,3.665,3.144,6.894,0.252,10.611
			c-0.535,0-1.12,0.016-1.724,0.016c-0.359,0-0.724-0.006-1.089-0.024c-2.541-0.126-5.57-0.954-8.011-0.954
			c-1.176,0-2.215,0.192-2.998,0.747c-2.747,1.945-3.098,7.063-4.906,10.589c-3.314,6.468-5.302,13.088-1.72,19.917
			c4.02,7.662-0.657,12.92-4.618,18.25c-1.824,2.456-4.729,4.108-7.107,6.093c3.451,9.035,2.846,9.905-6.43,12.013
			c-1.461,0.332-3.112,2.613-3.53,4.279c-1.774,7.088,0.983,13.702,2.598,20.459c0.526,2.206,0.437,4.969-0.434,7.029
			c-3.606,8.534-7.62,16.897-11.573,25.519c2.332,2.022,4.62,3.926,6.806,5.942c0.814,0.751,1.839,1.689,1.998,2.667
			c1.054,6.488-1.98,10.167-8.835,10.418c-9.738,0.356-16.612,4.533-20.247,13.821c-1.69,4.32-3.584,8.604-5.86,12.638
			c-1.998,3.543-2.238,6.696-0.227,10.251c7.046,12.455,9.003,25.97,7.247,39.942c-0.99,7.875,0.625,14.001,7.878,17.973
			c2.545,1.394,2.384,3.184,1.68,5.851c-1.366,5.167-4.4,8.525-9.366,10.1c8.522,16.244,8.797,16.328,4.87,29.242
			c-1.139,3.744-4.373,6.844-6.596,10.271c-1.444,2.226-3.435,4.344-4.076,6.799c-1.979,7.586-2.926,15.308-1.317,23.184
			c0.275,1.345-0.758,2.957-1.187,4.446c-1.432-0.466-2.931-0.793-4.277-1.438c-1.333-0.639-2.513-1.597-3.759-2.416
			c-0.583,0.359-1.167,0.718-1.75,1.076c1.399,4.587,2.912,9.144,4.136,13.777c0.438,1.657,0.46,3.548,0.169,5.247
			c-0.565,3.301,0.069,5.874,3.355,7.504c2.601-1.481,5.259-2.997,8.252-4.701c0.676,2.624,2.236,5.15,1.557,6.681
			c-2.405,5.409-5.577,10.479-7.958,14.777c3.43,4.847,6.774,9.063,9.537,13.628c2.477,4.095,4.283,8.592,6.439,12.884
			c3.009,5.992,4.942,12.876,14.373,14.931c-3.846,4.87-6.698,8.685-9.776,12.305c-1.818,2.14-2.479,3.978-0.846,6.637
			c1.607,2.62,3.442,5.519,3.711,8.432c0.315,3.409,1.378,4.752,4.634,4.986c1.549,0.11,3.054,0.83,4.86,1.356
			c-1.692,1.964-3.155,3.662-4.997,5.801c2.973,1.369,5.454,2.615,8.013,3.668c1.715,0.705,3.401,1.316,5.013,1.316
			c1.779,0,3.466-0.745,4.998-2.935c0.413-0.59,1.654-0.833,2.839-0.833c0.539,0,1.066,0.05,1.5,0.141
			c2.383,0.499,4.643,1.591,7.141,2.503c2.052-2.87,3.966-5.545,5.954-8.324c-2.416-3.706-4.749-7.286-7.084-10.868
			c6.512-7.662,14.059-11.28,22.668-11.28c3.69,0.001,7.576,0.666,11.658,1.962c2.039-8.826,4.023-17.417,6.008-26.007
			c1.139,6.74-0.363,13.877,6.923,19.619c1.315-6.048,3.331-11.544,3.521-17.103c0.252-7.386,0.495-14.559,3.925-21.293
			c0.507-0.997,0.504-2.256,0.842-3.9c-6.885,5.043-6.823,5.066-11.037,15.97c-0.609,1.576-2.135,2.798-3.236,4.183
			c-0.362-0.261-0.724-0.522-1.085-0.783c0.948-3.967,2.759-7.949,2.687-11.897c-0.238-12.977-0.27-26.074-2.16-38.861
			c-1.088-7.365,0.946-11.747,6.791-14.447c7.559-3.49,8.931-9.595,8.413-16.698c-0.127-1.747-1.411-3.872-2.825-4.98
			c-4.415-3.46-9.347-5.468-14.863-5.468c-1.044,0-2.109,0.072-3.196,0.22c-0.712,0.097-1.434,0.127-2.16,0.127
			c-1.229,0-2.474-0.087-3.715-0.087c0.146-3.247,2.533-4.841,7.072-4.841c3.992,0,9.649,1.233,16.908,3.66
			c-0.557-4.02-1.082-7.818-1.608-11.618c0.567-0.13,1.136-0.26,1.703-0.39c0.569,2.245,1.043,4.521,1.74,6.726
			c0.548,1.734,1.152,4.646,2.122,4.816c0.854,0.149,1.832,0.247,2.811,0.247c1.75,0,3.503-0.313,4.559-1.198
			c5.562-4.671,10.553-10.018,16.333-15.664c-4.553-4.799-8.748-9.221-13.173-13.884c0.596-0.87,1.755-2.561,3.276-4.783
			c-5.283-0.295-9.862-0.551-14.331-0.801c-1.171-7.132-1.177-7.101-8.685-8.321c-1.937-0.315-3.831-0.898-5.93-1.403
			c-0.996-6.193-2.393-12.217-2.806-18.309c-0.316-4.657,0.319-9.306-5.674-12.805c3.753,0,5.962,0,8.074,0
			c1.53-5.671,0.617-10.363-4.188-13.679c0.854-1.2,1.219-2.005,1.827-2.518c3.242-2.739,3.84-5.287,0.449-8.61
			c-1.532-1.502-1.984-4.108-3.146-6.703c4.686,0.373,8.237,0.655,11.825,0.941c0.453-3.397-0.178-7.405,1.38-8.632
			c3.973-3.125,3.787-6.864,3.209-11.385c0.079,0.001,0.157,0.002,0.235,0.002c6.79,0,7.652-4.365,6.741-9.708
			c3.041-0.276,5.458-0.496,7.979-0.724c0-2.744,0-5.003,0-7.264c2.729-0.872,5.74-2.299,6.158-4.274
			c0.67-3.165,2.045-4.547,4.854-5.303c2.668-0.717,5.047-1.782,4.969-5.235c-0.202-8.843,2.668-16.542,8.695-23.059
			c0.649-0.702,1.034-1.648,2.212-3.584c-3.655-3.128-7.402-6.335-11.19-9.577c3.456-4.799,6.548-9.092,9.81-13.621
			c-2.555-2.815-4.971-5.478-7.943-8.755c3.688-0.542,6.557-0.964,9.663-1.421c-0.409-2.473-0.769-4.644-1.146-6.916
			c1.571,0.329,2.778,0.582,3.986,0.834c0.074-0.268,0.148-0.537,0.223-0.806c-1.389-1.077-2.776-2.154-4.264-3.309
			c0.588-1.525,1.092-2.833,1.703-4.42c3.03,2.042,5.744,3.872,9.206,6.206c1.756-5.677,4.757-9.182,9.619-9.182
			c1.704,0,3.639,0.431,5.826,1.35c0.08-0.479,0.159-0.959,0.238-1.438c-2.915-5.307-5.575-10.775-8.833-15.863
			c-2.126-3.32-2.291-6.346-2.081-10.219c0.265-4.873,0.015-11.112-2.767-14.499c-4.174-5.081-4.914-9.084-1.829-14.383
			c0.09-0.154-0.247-0.558-0.554-1.193c-1.92,0-3.997,0-6.898,0c2.626-7.729,1.656-14.6-3.641-20.264
			c-4.744-5.072-9.45-10.282-16.61-12.227c-8.049-2.185-14.625-6.56-20.068-13.039C290.499,10.011,286.668,8.115,283.327,5.641
			L283.327,5.641z M291.361,426.777h0.005H291.361z"/>
	</g>
</g>
<g id="Layer_1">
</g>
</svg>
