<?xml version="1.0" encoding="iso-8859-1"?>
<!-- Generator: Adobe Illustrator 16.0.0, SVG Export Plug-In . SVG Version: 6.00 Build 0)  -->
<!DOCTYPE svg PUBLIC "-//W3C//DTD SVG 1.1//EN" "http://www.w3.org/Graphics/SVG/1.1/DTD/svg11.dtd">
<svg version="1.1" xmlns="http://www.w3.org/2000/svg" xmlns:xlink="http://www.w3.org/1999/xlink" x="0px" y="0px" width="512px"
	 height="512px" viewBox="0 0 512 512" style="enable-background:new 0 0 512 512;" xml:space="preserve">
<g id="switzerland">
	<g>
		<path style="fill:#FFFFFF;" d="M302.809,108.919c0.599,0.013,1.38,0.099,2.137,0.182l0.279,0.03
			c1.512,0.165,3.013,0.228,4.464,0.289c1.296,0.054,3.265,0.137,4.483,0.343c0.236,1.368,0.322,3.596,0.379,5.056
			c0.036,0.922,0.071,1.822,0.125,2.67c0.441,7.003,5.045,10.645,7.519,12.602c0.636,0.502,1.355,1.072,1.605,1.382
			c3.576,4.439,7.837,6.689,12.664,6.689c3,0,6.063-0.888,9.359-2.715c3.583-1.985,7.44-3.639,11.524-5.389
			c2.935-1.258,5.969-2.558,8.968-4.021c0.671-0.327,0.944-0.357,0.942-0.359c0.014,0.002,0.176,0.027,0.546,0.203
			c2.025,0.958,4.141,1.626,6.007,2.216c1.268,0.4,3.074,0.971,4.008,1.44c0.113,1.245-0.1,3.608-0.234,5.11
			c-0.115,1.291-0.235,2.626-0.286,3.965c-0.247,6.557,2.822,11.289,8.877,13.687c3.771,1.492,7.503,3.109,11.379,4.814
			c-3.036,4.867-5.942,9.5-8.996,14.09c-3.141,4.722-3.809,9.689-2.043,15.182c1.44,4.488,2.82,9.125,4.155,13.608
			c1.468,4.932,2.986,10.032,4.618,15.057c1.393,4.282,6.126,8.904,11.347,8.904c0.077,0,0.189-0.001,0.268-0.004
			c0.524-0.015,1.046-0.023,1.563-0.023c13.065,0,23.728,4.901,32.59,14.977c1.606,1.831,3.487,2.474,4.296,2.749
			c0.981,0.405,2.019,0.605,3.051,0.605c1.539,0,3.069-0.444,4.393-1.313l0.033-0.019c0.656-0.376,2.191-1.257,3.399-3.015
			c3.531-5.137,8.557-7.371,17.344-7.71c5.48-0.21,10.826-0.963,16.003-1.707c1.058,3.013,2.188,5.979,3.367,9.036
			c-0.529,0.2-1.059,0.396-1.588,0.588c-1.928,0.701-3.853,1.41-5.778,2.12c-5.718,2.108-11.631,4.289-17.443,6.132
			c-6.827,2.164-10.262,7.036-10.21,14.482c0.135,19.4,0.119,39.142,0.104,58.233c-0.001,1.446-0.002,2.893-0.003,4.34l-2.262-2.308
			l-12.669-12.927c-1.559-1.59-3.632-2.4-5.716-2.4c-1.751,0-3.51,0.572-4.975,1.736l-19.38,15.396l-5.293-6.16l-18.872-21.963
			c-1.528-1.778-3.748-2.786-6.066-2.786c-0.268,0-0.537,0.014-0.807,0.041c-2.602,0.263-4.911,1.781-6.184,4.066
			c-1.708,3.067-3.346,6.122-4.929,9.077c-3.515,6.558-6.834,12.751-10.624,18.566c-7.344,11.271-10.512,23.474-9.686,37.308
			c0.317,5.318,0.404,10.64,0.339,15.906c-0.098-0.145-0.195-0.29-0.292-0.435c-4.155-6.179-8.451-12.567-12.504-18.907
			c-3.19-4.989-7.505-7.414-13.19-7.414c-0.207,0-0.417,0.003-0.63,0.01c-3.023,0.091-6.328,0.133-10.4,0.133
			c-2.353,0-4.716-0.014-7.094-0.027c-0.007,0-0.014,0-0.021,0l-1.559-18.563l-2.688-31.994c-0.215-2.562-1.647-4.863-3.851-6.188
			c-1.263-0.758-2.688-1.143-4.121-1.143c-1.069,0-2.142,0.214-3.15,0.646c-0.398,0.171-0.774,0.32-1.133,0.464
			c-0.965,0.386-2.059,0.822-3.198,1.454c-3.661,2.024-7.313,4.066-10.966,6.108c-7.959,4.45-16.188,9.051-24.342,13.361
			c-6.784,3.584-8.707,9.072-9.564,12.889c-3.217,14.341-6.458,28.357-9.889,43.196c-0.541,2.341-1.083,4.686-1.626,7.036
			l-4.729-1.41c-10.688-3.186-21.741-6.479-32.54-9.856c-1.84-0.576-3.422-0.845-4.978-0.845c-4.196,0-7.807,2.025-10.167,5.705
			c-4.293,6.692-8.754,7.551-12.162,7.551c-2.466,0-5.312-0.553-8.46-1.644c-3.493-1.21-6.94-1.823-10.246-1.823
			c-5.361,0-10.338,1.556-14.851,4.634c-0.387-0.718-0.772-1.433-1.154-2.143c-4.037-7.501-8.211-15.258-13.111-22.53
			c-5.167-7.669-7.17-16.082-6.307-26.475c0.339-4.063,0.322-8.421-0.051-13.715c-0.272-3.864-3.39-9.956-9.212-10.757
			c-11.249-1.555-22.272-2.908-33.944-4.342c-2.705-0.332-5.422-0.665-8.153-1.003c-0.331-0.041-0.66-0.061-0.987-0.061
			c-3.47,0-6.598,2.258-7.641,5.647c-0.929,3.017-1.86,6.012-2.787,8.994c-2.366,7.612-4.813,15.483-7.064,23.262
			c-0.037,0.126-0.07,0.232-0.101,0.321c-0.01,0.003-0.02,0.006-0.03,0.008c-4.539,1.189-8.975,2.495-13.545,3.874
			c0.458-5.023,0.853-10.157,0.858-15.281c0.005-5.281,1.751-9.85,6.027-15.768c4.98-6.891,9.647-14.609,14.267-23.598
			c5.534-10.767,11.016-21.76,16.316-32.39C70.899,244,76.036,233.7,81.188,223.641c0.476-0.56,2.087-1.605,3.062-2.238l0.59-0.384
			c0.064-0.042,0.684-0.42,2.573-0.734c19.613-3.262,34.335-13.943,45.007-32.654c2.643-4.634,6.054-9.021,9.666-13.665
			c1.704-2.191,3.465-4.456,5.18-6.796c1.929-2.633,2.065-6.174,0.344-8.947l-6.351-10.23l-1.421-2.29
			c1.613-0.216,3.203-0.411,4.777-0.571c0.066,0.052,0.137,0.109,0.211,0.172c4.728,4.005,9.341,8.063,14.227,12.36
			c1.723,1.515,3.463,3.046,5.23,4.593c1.508,1.321,3.389,1.981,5.27,1.981c1.871,0,3.742-0.653,5.247-1.961
			c2.813-2.444,5.629-4.874,8.44-7.3c7.199-6.211,14.638-12.631,21.835-19.135c1.106,0.606,2.262,1.291,3.475,2.008
			c5.294,3.132,11.295,6.682,18.18,6.682c8.168-0.002,15.571-5.146,21.519-9.279l0.776-0.539c2.276-1.577,4.205-2.41,5.58-2.41
			c1.503,0,3.404,1.159,5.653,3.444c4.276,4.346,9.124,7.908,13.813,11.353c1.987,1.46,4.043,2.971,6.005,4.506
			c1.452,1.137,3.192,1.701,4.93,1.701c1.904,0,3.804-0.677,5.314-2.02l6.18-5.49l6.753-6c1.6-1.421,2.563-3.424,2.675-5.562
			c0.111-2.137-0.637-4.229-2.079-5.811l-6.525-7.152l-4.888-5.357C295.827,113.529,299.299,111.129,302.809,108.919
			 M302.663,100.917c-1.235,0-2.407,0.166-3.284,0.711c-6.607,4.098-12.879,8.739-18.977,12.972
			c5.903,6.472,11.588,12.701,17.534,19.218c-4.033,3.584-8.444,7.503-12.932,11.49c-6.62-5.182-13.493-9.527-19.046-15.17
			c-3.854-3.919-7.505-5.833-11.355-5.833c-3.167,0-6.471,1.295-10.136,3.834c-5.405,3.745-11.792,8.392-17.741,8.394
			c-0.001,0-0.002,0-0.004,0c-6.173,0-12.469-4.881-18.476-8.068c-1.366-0.725-2.523-1.084-3.604-1.084
			c-1.569,0-2.979,0.758-4.633,2.256c-9.969,9.022-20.232,17.718-30.458,26.603c-6.734-5.896-13.076-11.549-19.556-17.039
			c-1.22-1.034-2.978-2.183-4.43-2.183c-0.077,0-0.154,0.003-0.229,0.01c-6.065,0.536-12.086,1.576-18.74,2.516
			c4.966,8,9.577,15.428,14.215,22.899c-5.255,7.172-11.08,13.753-15.342,21.226c-8.921,15.64-21.411,25.738-39.371,28.726
			c-1.947,0.323-4.025,0.874-5.642,1.932c-2.343,1.533-5.13,3.208-6.326,5.542c-10.691,20.868-20.914,41.975-31.633,62.829
			c-4.013,7.807-8.502,15.466-13.636,22.569c-4.531,6.271-7.536,12.48-7.543,20.445c-0.009,8.595-1.18,17.188-1.889,26.372
			c8.682-2.578,16.585-5.117,24.604-7.218c3.349-0.877,4.857-2.632,5.788-5.843c3.09-10.676,6.47-21.266,9.813-32.129
			c14.266,1.764,28.143,3.417,41.983,5.33c0.951,0.131,2.241,2.169,2.328,3.395c0.292,4.146,0.404,8.35,0.059,12.488
			c-0.949,11.419,1.011,21.763,7.644,31.608c6.742,10.005,12.047,20.977,18.13,31.789c1.777-1.068,3.364-1.697,4.534-2.779
			c4.009-3.707,8.382-5.44,13.086-5.44c2.455,0,5,0.473,7.628,1.383c3.897,1.35,7.601,2.084,11.078,2.084
			c7.44,0,13.846-3.359,18.896-11.231c0.945-1.473,2.073-2.024,3.433-2.024c0.784,0,1.644,0.184,2.59,0.479
			c13.192,4.127,26.453,8.036,39.699,11.992c1.846,0.551,3.74,0.947,5.897,1.486c4.551-19.749,9.053-39.019,13.384-58.328
			c0.777-3.461,2.148-5.798,5.495-7.566c11.925-6.304,23.635-13.014,35.442-19.542c1.055-0.584,2.218-0.969,3.61-1.565
			c1.635,19.464,3.221,38.349,4.859,57.859c4.897,0,9.705,0.055,14.473,0.055c3.563,0,7.104-0.03,10.641-0.137
			c0.132-0.004,0.262-0.006,0.39-0.006c3.024,0,4.791,1.128,6.45,3.724c5.649,8.838,11.582,17.495,17.407,26.22
			c2.997,4.487,5.998,8.972,8.996,13.457c0.965-13.886,1.588-27.499,0.779-41.028c-0.715-11.972,1.861-22.423,8.403-32.463
			c5.758-8.835,10.418-18.386,15.839-28.118c9.959,11.589,19.468,22.656,29.182,33.961c8.272-6.571,16.294-12.943,25.407-20.184
			c9.583,9.778,18.935,19.318,28.638,29.22c0-1.984,0-3.598,0-5.21c0-25.668,0.084-51.337-0.094-77.004
			c-0.026-3.747,0.926-5.627,4.627-6.8c7.932-2.515,15.71-5.516,23.536-8.359c3.053-1.109,6.065-2.329,9.185-3.534
			c-2.508-6.637-4.969-12.638-7.008-18.779c-0.781-2.354-1.892-3.236-3.849-3.236c-0.39,0-0.813,0.035-1.274,0.1
			c-5.938,0.841-11.897,1.789-17.874,2.019c-9.574,0.37-17.913,2.855-23.63,11.173c-0.26,0.378-0.788,0.571-1.231,0.878
			c-0.463-0.21-1.041-0.296-1.335-0.631c-10.322-11.735-23.1-17.7-38.603-17.7c-0.595,0-1.194,0.009-1.797,0.026
			c-0.012,0-0.022,0-0.034,0c-1.266,0-3.275-1.955-3.738-3.377c-3.084-9.492-5.714-19.132-8.765-28.636
			c-1.005-3.126-0.744-5.553,1.087-8.306c4.771-7.17,9.243-14.537,14.023-22.123c-6.985-3.031-13.482-6.023-20.124-8.651
			c-2.953-1.169-3.944-2.805-3.826-5.947c0.182-4.798,1.536-10.874-0.799-14.084c-2.505-3.443-8.772-4.052-13.266-6.179
			c-1.388-0.658-2.676-0.972-3.956-0.972c-1.452,0-2.895,0.404-4.462,1.168c-6.883,3.355-14.187,5.904-20.863,9.603
			c-2.043,1.132-3.839,1.713-5.482,1.713c-2.367,0-4.418-1.206-6.435-3.708c-2.498-3.102-7.048-4.364-7.369-9.467
			c-0.29-4.595,0.011-10.799-2.702-13.247c-2.981-2.691-9.09-2.041-13.867-2.562C305.017,101.061,303.813,100.917,302.663,100.917
			L302.663,100.917z"/>
	</g>
</g>
<g id="Layer_1">
</g>
</svg>
