<?xml version="1.0" encoding="iso-8859-1"?>
<!-- Generator: Adobe Illustrator 16.0.0, SVG Export Plug-In . SVG Version: 6.00 Build 0)  -->
<!DOCTYPE svg PUBLIC "-//W3C//DTD SVG 1.1//EN" "http://www.w3.org/Graphics/SVG/1.1/DTD/svg11.dtd">
<svg version="1.1" xmlns="http://www.w3.org/2000/svg" xmlns:xlink="http://www.w3.org/1999/xlink" x="0px" y="0px" width="512px"
	 height="512px" viewBox="0 0 512 512" style="enable-background:new 0 0 512 512;" xml:space="preserve">
<g id="unitedKingdom">
	<g>
		<path style="fill:#FFFFFF;" d="M233.408,6.001c0.424,0,0.905,0.077,1.428,0.228c2.082,0.6,3.844,2.654,5.332,4.532l0.206,0.26
			l0.321,0.085l5.239,1.387l0.164,0.043l-0.02,0.067l-1.24,4.307l-0.468,1.625l1.65-0.374c0.359-0.082,0.793-0.136,1.253-0.194
			c1.211-0.153,2.584-0.326,3.676-1.094c2.404-1.69,5.077-2.444,8.666-2.444c1.408,0,2.821,0.112,4.019,0.221
			c3.189,0.291,6.437,0.338,9.575,0.383c1.955,0.028,3.976,0.058,5.951,0.146c3.449,0.154,6.937,0.388,10.309,0.614
			c1.28,0.085,2.555,0.171,3.82,0.252c0.564,1.319,0.686,2.383,0.36,3.169c-0.357,0.866-1.297,1.55-2.874,2.094
			c-1.178,0.406-2.821,1.125-3.486,2.674c-0.477,1.108-0.368,2.395,0.332,3.934c0.277,0.608,0.302,1.919,0.2,2.469
			c-4.14,1.839-3.95,5.374-3.837,7.507c0.009,0.167,0.018,0.331,0.024,0.484l-14.063,7.265l-14.324,7.4l-1.377,0.712l1.216,0.961
			l5.928,4.688l0.302,0.238c-0.627,0.606-1.224,1.23-1.806,1.841c-2.539,2.659-4.732,4.955-8.384,4.955
			c-0.683,0-1.413-0.083-2.171-0.245c-0.162-0.035-0.336-0.052-0.518-0.052c-1.936,0-5.396,2.285-5.71,4.185
			c-0.201,1.214,0.076,2.307,0.8,3.161c0.861,1.015,2.319,1.597,4.002,1.597c0.332,0,0.674-0.022,1.015-0.067
			c0.88-0.114,1.761-0.158,2.612-0.201c2.917-0.146,5.933-0.296,9.333-3.186c2.396-2.036,6.147-3.3,9.794-3.3
			c2.564,0,4.994,0.609,7.026,1.762c4.825,2.736,10.012,4.011,16.32,4.011c0.464,0,0.93-0.007,1.398-0.02
			c0.312-0.008,0.647-0.044,0.972-0.079c0.342-0.036,0.695-0.074,0.977-0.074c0.145,0,0.232,0.01,0.281,0.019
			c3.291,3.625,7.63,4.453,11.826,5.253c3.507,0.669,6.82,1.301,9.518,3.468c2.541,2.043,3.914,4.506,3.766,6.76
			c-0.128,1.941-1.349,3.668-3.531,4.993c-4.153,2.52-6.645,5.899-8.08,10.957c-0.813,2.866-2.086,5.685-3.434,8.669
			c-0.575,1.275-1.168,2.589-1.76,3.977l-0.761,0.158l-1.964,0.408l-0.42,0.087l-0.227,0.364c-0.038,0.062-0.089,0.122-0.137,0.182
			c-0.215,0.271-0.539,0.679-0.501,1.236c0.25,3.797-2.063,6.117-4.511,8.573c-1.168,1.171-2.375,2.382-3.309,3.774
			c-3.066,4.567-6.412,8.227-9.944,10.878c-0.923,0.693-2.56,1.09-4.488,1.09c-1.198,0-2.453-0.153-3.532-0.431
			c-1.493-0.385-2.967-0.58-4.38-0.58c-3.949,0-7.718,1.514-11.521,4.628l-2.39,1.957l3.083-0.185
			c0.618-0.037,1.266-0.042,1.874-0.042l0.413,0l0.417,0c1.703,0,3.361-0.042,4.932-0.549c1.094-0.353,2.18-0.531,3.229-0.531
			c3.07,0,5.925,1.426,9.258,4.625c0.734,0.704,0.583,4.37-0.514,6.486c-0.509,0.98-2.62,1.915-5.38,2.382
			c-0.039,0.007-0.078,0.009-0.118,0.009c-0.458,0-1.13-0.359-1.779-0.706c-0.737-0.395-1.5-0.802-2.341-0.957
			c-0.396-0.073-0.865-0.111-1.36-0.111c-1.278,0-2.906,0.218-3.402,1.257c-1.709,3.575-4.275,5.1-8.581,5.1
			c-0.979,0-2.065-0.074-3.421-0.234c-0.167-0.02-0.335-0.03-0.505-0.03c-1.319,0-2.537,0.619-3.723,1.893l-1.234,1.326l1.78,0.338
			c0.42,0.08,0.845,0.128,1.255,0.175c0.806,0.092,1.567,0.179,2.109,0.48c0.681,0.378,1.382,0.979,2.061,1.561
			c1.268,1.086,2.58,2.209,4.132,2.267c0.193,0.007,0.386,0.01,0.579,0.01c2.521,0,5.045-0.591,7.486-1.163
			c0.943-0.221,1.92-0.45,2.868-0.637c1.698-0.335,3.518-0.722,5.317-1.281c0.807-0.25,1.55-0.378,2.21-0.378
			c2.588,0,4.074,1.985,5.891,4.789c1.646,2.541,5.018,4.041,8.329,5.359c3.247,1.294,4.33,2.337,3.938,5.618
			c-0.43,3.618,0.023,7.538,1.246,10.754c0.622,1.637,2.152,2.766,3.633,3.858c0.743,0.549,1.512,1.116,2.108,1.714l0.257,0.256
			c0.778,0.775,1.956,1.946,1.986,2.705c0.125,3.189,0.108,6.45,0.093,9.603c-0.018,3.501-0.036,7.123,0.138,10.688
			c0.325,6.662,0.933,13.413,1.521,19.94c0.149,1.661,0.299,3.321,0.444,4.982c0.785,8.99,9.341,16.583,18.685,16.583
			c0.362,0,0.726-0.012,1.088-0.034c0.767,1.539,1.526,3.092,2.288,4.649c2.288,4.676,4.653,9.511,7.289,14.139
			c1.247,2.188,4.084,3.641,6.135,4.219c3.645,1.027,3.887,3.666,3.831,7.282c-0.017,1.093-1.612,3.069-3.16,3.916
			c-2.882,1.576-4.646,3.653-5.243,6.176c-0.721,3.043,0.27,6.545,2.943,10.408c1.416,2.045,2.957,4.044,4.447,5.978
			c0.476,0.617,0.952,1.235,1.427,1.856c-3.023,2.127-4.507,3.546-4.675,5.31c-0.191,2.011,1.484,3.866,4.062,6.469
			c4.807,4.853,10.028,11.646,7.725,21.188c-0.853,3.529-2.655,5.035-6.025,5.035c-0.25,0-0.507-0.009-0.771-0.025
			c-0.163-0.01-0.325-0.015-0.49-0.015c-0.752,0-1.519,0.099-2.58,0.235c-0.719,0.092-1.534,0.197-2.571,0.302l-2.308,0.233
			l1.754,1.518l5.084,4.402l0.592,5.809l0.223,2.189l1.503-1.608c4.73-5.062,9.885-7.522,15.758-7.522
			c6.148,0,12.355,2.736,17.616,5.414c5.479,2.788,12.979,7.513,14.845,16.322c2.94,13.879-0.684,25.184-11.079,34.561l-0.253,0.228
			l-0.062,0.336l-1.096,6.031l-0.215,1.18h-14.718h-2.545l1.864,1.732c2.752,2.558,4.786,4.448,7.004,6.51
			c-0.222,0.1-0.438,0.198-0.654,0.297c-1.663,0.758-3.1,1.412-4.614,1.412c-1.245,0-2.461-0.44-3.825-1.386
			c-0.932-0.646-2.117-0.959-3.624-0.959c-2.302,0-4.963,0.733-7.536,1.442l-0.633,0.174l-2.116,0.58l1.826,1.217
			c0.465,0.31,0.926,0.627,1.386,0.944c1.044,0.72,2.124,1.464,3.254,2.116l0.39,0.224c2.035,1.161,2.913,1.766,2.384,3.931
			c-0.672,2.748-1.857,3.807-4.374,3.904c-2.589,0.102-4.99,0.494-7.556,1.234l-3.532,1.021l3.563,0.909
			c2.914,0.744,4.648,1.757,5.456,3.186c0.737,1.303,0.761,3.049,0.074,5.339l-0.444,1.481l1.534-0.203l8.274-1.098l11.279-1.496
			c-0.173,1.003-0.339,1.983-0.502,2.945c-0.649,3.824-1.263,7.438-2.029,10.955c-0.068,0.31-0.895,1.051-1.896,1.44
			c-16.283,6.333-30.982,12.024-45.982,17.546c0,0-0.037,0.013-0.127,0.013c-0.839,0-2.488-0.933-3.097-1.752
			c-3.282-4.415-7.479-6.562-12.829-6.562c-1.048,0-2.164,0.084-3.317,0.249c-2.202,0.316-4.5,0.401-6.723,0.483
			c-1.534,0.057-3.12,0.115-4.684,0.249l-0.355,0.03c-1.357,0.116-2.641,0.227-3.89,0.227c-3.007,0-6.073-0.556-8.138-4.58
			c-0.724-1.41-3.164-1.842-4.554-1.973c-2.338-0.222-4.658-0.292-7.116-0.365c-0.999-0.03-2.016-0.061-3.059-0.103l-1.087-0.044
			l0.048,1.087l0.012,0.275l0.213,4.792c-0.938-0.438-1.866-0.891-2.775-1.333c-4.949-2.41-9.624-4.687-15.104-4.687
			c-1.543,0-3.104,0.19-4.637,0.564l-1.002,0.245l0.276,0.994l3.872,13.945c-0.82-0.523-1.627-1.034-2.42-1.536
			c-3.294-2.086-6.406-4.057-9.348-6.215c-1.688-1.237-3.229-1.839-4.709-1.839c-1.938,0-3.754,1.048-5.551,3.203
			c-0.857,1.028-1.911,1.905-3.027,2.835c-0.127,0.105-0.255,0.213-0.384,0.32c2.743-6.792-1.663-11.056-5.573-14.839
			c-0.301-0.292-0.603-0.584-0.9-0.876c-1.072-1.052-2.705-1.778-4.064-1.808c-2.848-0.061-5.908-0.088-9.924-0.088
			c-1.693,0-3.405,0.004-5.143,0.009c-1.792,0.005-3.612,0.01-5.47,0.01h-0.989l-0.011,0.989c-0.013,1.175,0.096,2.396,0.201,3.577
			c0.247,2.773,0.479,5.395-0.836,6.954c-0.833,0.987-2.282,1.552-4.428,1.726l-1.068,0.087l0.16,1.06
			c0.146,0.967,0.387,1.91,0.599,2.742c0.338,1.326,0.688,2.697,0.366,3.248l-0.353,0.604c-1.678,2.882-3.976,6.829-6.312,7.316
			c-0.324,0.067-0.674,0.102-1.04,0.102c-2.363,0-5.158-1.372-7.86-2.699c-0.667-0.327-1.322-0.649-1.959-0.944
			c-0.528-0.245-1.003-1.617-1.35-2.619c-0.141-0.407-0.279-0.807-0.424-1.168c-1.3-3.244-3.333-4.761-7.018-5.235
			c-2.492-0.32-4.896-1.09-7.442-1.904c-1.907-0.61-3.878-1.241-5.88-1.66c-0.384-0.081-0.797-0.121-1.229-0.121
			c-1.701,0-3.49,0.618-4.929,1.114c-1.263,0.437-2.494,1.038-3.685,1.619c-2.017,0.984-3.921,1.915-5.823,2.016
			c-4.533,0.241-9.157,1.429-9.08,8.411c0.003,0.3-0.178,0.735-0.408,1.286c-0.067,0.161-0.138,0.331-0.211,0.513
			c-0.454-0.075-0.909-0.151-1.366-0.227c-2.074-0.344-4.219-0.698-6.319-1.116c-0.188-0.038-0.517-0.214-0.71-0.356
			c0.168-5.348-3.563-6.5-6.573-7.429c-1.237-0.381-2.406-0.742-3.315-1.333c-0.425-0.277-0.859-0.45-1.459-0.69
			c-0.09-0.036-0.186-0.074-0.286-0.115l0.787-2.586l0.88-2.894c0.431-0.014,0.851-0.036,1.261-0.058
			c0.591-0.032,1.148-0.062,1.685-0.062c0.696,0,1.251,0.052,1.744,0.161c1.439,0.322,2.859,0.485,4.22,0.485
			c7.132,0,12.145-4.268,17.5-9.422c4.907-4.726,9.397-7.81,13.726-9.431c7.043-2.636,11.009-6.898,12.857-13.819
			c0.199-0.747,0.534-1.476,0.957-2.398c0.055-0.119,0.11-0.241,0.167-0.365l2.444,2.13l0.446,0.389l0.555-0.203
			c1.495-0.547,2.407-1.274,2.79-2.225c0.531-1.319-0.106-2.623-0.669-3.774c-0.302-0.617-0.612-1.251-0.677-1.769
			c5.531-2.916,10.625-4.335,15.558-4.335c4.83,0.001,9.381,1.352,13.914,4.13c0.446,0.273,0.91,0.484,1.359,0.688
			c0.596,0.271,1.159,0.527,1.56,0.88c2.533,2.232,5.213,3.317,8.193,3.317c3.669,0,7.176-1.641,10.745-3.469
			c1.17-0.6,2.768-2.407,2.608-3.874c-0.499-4.598,2.125-6.882,6.185-9.841c1.029-0.75,1.938-1.638,2.816-2.495
			c0.387-0.378,0.774-0.757,1.171-1.122l0.538-0.494l-0.308-0.662l-0.269-0.579l-0.269-0.579l-0.362-0.781l-0.826,0.242
			c-2.079,0.61-4.159,1.216-6.238,1.82c-4.729,1.376-9.62,2.799-14.414,4.263c-1.485,0.453-2.901,0.684-4.21,0.684
			c-3.855,0-6.902-1.916-9.314-5.858c-1.414-2.308-2.82-4.621-4.3-7.057l-2.149-3.532l-0.545-0.896l-0.869,0.588l-7.419,5.024
			l-0.242,0.164l-2.603-4.507l-7.717-13.363l-0.466-0.809l-0.838,0.41c-0.999,0.488-2.015,0.951-2.997,1.398
			c-2.296,1.047-4.466,2.036-6.514,3.351c-1.357,0.871-2.667,1.313-3.895,1.313c-1.284,0-2.482-0.492-3.562-1.462
			c-0.555-0.498-1.136-1.001-1.724-1.511c-2.972-2.574-6.045-5.235-6.922-8.278c-0.636-2.205,1.228-5.576,2.871-8.55
			c0.378-0.685,0.748-1.353,1.08-1.991c0.016-0.027,0.426-0.66,3.903-0.892c2.252-0.152,4.58-0.181,6.83-0.209
			c4.358-0.055,8.866-0.11,13.159-1.051c5.065-1.108,9.958-3.185,14.688-5.191c1.783-0.757,3.626-1.539,5.443-2.253
			c1.044-0.411,1.822-1.51,2.17-2.325c4.925-11.524,6.862-21.194,6.098-30.434c-0.171-2.063-1.727-3.834-3.374-5.709
			c-0.738-0.84-1.501-1.709-2.15-2.619l-0.716-1.003l-0.834,0.907c-0.556,0.604-1.1,1.219-1.638,1.826
			c-3.003,3.391-5.84,6.592-9.547,6.592c-1.414,0-2.912-0.44-4.56-1.345c0.131-0.395,0.259-0.793,0.387-1.192
			c1.314-4.1,2.557-7.971,7.711-9.096c1.136-0.248,2.375-1.107,3.01-2.091c2.952-4.559,7.121-6.718,14.39-7.452
			c2.838-0.287,5.487-1.775,8.049-3.215c1.096-0.616,2.229-1.252,3.335-1.768l0.253-0.117c0.113,0.08,0.226,0.16,0.338,0.24
			c1.676,1.191,3.409,2.423,5.312,3.317c0.96,0.451,2.189,0.71,3.37,0.71c0.995,0,1.881-0.188,2.562-0.541
			c0.867-0.451,1.617-0.68,2.228-0.68c0.748,0,1.664,0.282,2.787,2.373c0.636,1.184,1.29,2.313,2.28,3.116
			c0.675,0.547,1.538,0.712,2.298,0.857c0.293,0.056,0.57,0.108,0.816,0.179l1.035,0.291l0.216-1.053
			c0.044-0.215,0.123-0.461,0.207-0.722c0.229-0.716,0.489-1.527,0.225-2.327c-0.539-1.639-1.217-3.229-2.075-5.244
			c-0.098-0.23-0.199-0.467-0.303-0.711l3.84,1.556l8.095,3.276l0.746,0.302l0.454-0.664l0.593-0.867l0.491-0.717l-0.642-0.586
			l-7.836-7.149l-1.02-0.931l4.927-5.461l4.625-5.124l0.745-0.826l-0.901-0.653c-4.078-2.958-3.689-6.664-3.239-10.956
			c0.112-1.072,0.228-2.173,0.274-3.29c0.034,0,0.067,0,0.1,0c7.485,0,8.125-5.38,8.745-10.582c0.111-0.933,0.226-1.896,0.378-2.844
			l0.41-2.546l-2.019,1.604l-7.566,6.007l-0.25,0.198l-0.945-8.11l-0.114-0.984l-0.985,0.105c-0.686,0.073-1.332,0.109-1.919,0.109
			c-2.174,0-3.68-0.488-4.606-1.494c-1.09-1.184-1.5-3.217-1.252-6.216c0.21-2.542-0.238-5.112-0.67-7.597
			c-0.233-1.338-0.474-2.721-0.602-4.059c-0.026-0.27-0.055-0.542-0.083-0.817c-0.177-1.682-0.359-3.422,0.088-4.804
			c2.577-7.965,8.616-12.75,19.005-15.057l2.545-0.565l-2.271-1.282c-3.77-2.128-5.662-3.196-7.971-3.196
			c-1.757,0-3.566,0.607-6.85,1.709l-0.458,0.154c-0.482,0.162-1.05,0.237-1.788,0.237c-0.577,0-1.192-0.045-1.844-0.093
			c-0.727-0.053-1.479-0.108-2.266-0.108h-0.881l-0.111,0.875c-0.564,4.46-3.66,4.998-7.245,5.622
			c-0.801,0.139-1.629,0.283-2.422,0.476c-0.002,0-0.019,0.004-0.055,0.004c-0.583,0-1.802-0.758-2.414-1.502
			c-1.608-1.958-3.065-4.024-4.753-6.416c-0.703-0.996-1.439-2.04-2.234-3.144l-0.93-1.29l-0.76,1.396l-4.93,9.055
			c-0.402-0.513-0.793-1.017-1.177-1.512c-1.593-2.054-3.098-3.994-4.8-5.747c-0.983-1.012-3.072-2.438-4.641-2.438
			c-0.304,0-0.585,0.052-0.835,0.155c-0.947,0.388-1.817,0.584-2.586,0.584c-2.333,0-3.774-1.81-5.382-3.97
			c0.391-0.386,0.799-0.764,1.198-1.134c1.437-1.333,2.922-2.71,3.646-4.472c0.696-1.694,0.55-3.582,0.395-5.58
			c-0.042-0.54-0.085-1.091-0.109-1.64l0.781-0.111l1.652-0.234l0.373-0.053l0.246-0.285c2.284-2.654,3.785-5.76,5.237-8.763
			c2.679-5.54,4.992-10.325,11.435-11.726l1.193-0.259l-0.489-1.118c-0.67-1.534-1.451-3.041-2.205-4.497
			c-1.694-3.27-3.293-6.358-3.615-9.534c-0.283-2.787-0.367-9.437,4.958-11.004l0.801-0.236l-0.089-0.831l-0.118-1.094
			l-1.621-15.068l-0.145-1.343l-1.242,0.53c-1.022,0.437-2.094,0.813-3.13,1.176c-2.396,0.841-4.659,1.634-6.489,3.142
			c-4.247,3.495-9.035,5.084-15.49,5.136c0.5-0.381,0.931-0.775,1.259-1.266c0.367-0.547,0.757-1.088,1.171-1.661
			c1.439-1.994,2.928-4.056,3.378-6.398c1.076-5.586,4.608-12.935,8.658-15.562l1.179-0.765l-1.109-0.863
			c-1.015-0.79-1.523-1.513-1.556-2.211c-0.061-1.308,1.518-2.899,3.43-4.694l2.906-2.726l-3.849,1.031
			c-0.785,0.21-1.53,0.377-2.25,0.538c-3.509,0.785-6.54,1.462-7.917,6.343c-0.629,2.23-2.755,7.416-8.899,7.416
			c-0.364,0-0.742-0.019-1.122-0.057c-0.493-0.049-0.994-0.072-1.529-0.072c-1.815,0-3.622,0.275-5.536,0.566
			c-0.819,0.125-1.659,0.252-2.513,0.359l-0.48-2.164l-0.638-2.869c0.158,0.001,0.315,0.003,0.47,0.006
			c0.257,0.003,0.509,0.007,0.757,0.007c0.948,0,1.954-0.048,2.896-0.4c1.247-0.465,4.185-1.753,4.545-3.667
			c0.535-2.834,2.588-4.443,4.763-6.146c1.891-1.481,3.845-3.013,4.896-5.42c0.306-0.2,1.398-0.361,2.131-0.47
			c0.704-0.104,1.431-0.211,2.115-0.385l1.073-0.272l-0.38-1.04c-0.495-1.354-1.021-2.657-1.529-3.917
			c-1.187-2.942-2.308-5.722-2.79-8.551c-0.23-1.354,1.246-4.063,2.771-5.084c0.283-0.19,0.571-0.393,0.864-0.601
			c1.354-0.957,2.753-1.947,4.285-1.947c0.777,0,1.551,0.251,2.364,0.767c1.512,0.958,3.249,1.483,4.929,1.99
			c0.715,0.216,1.455,0.439,2.147,0.689l0.754,0.272l0.43-0.677l0.877-1.38l0.371-0.583l-0.415-0.553l-3.778-5.036l-1.276-1.701
			l1.071-0.352l7.363-2.421l0.759-0.25l-0.075-0.795c-0.848-8.942-2.18-18.372-8.204-26.736c-1.348-1.873-1.623-4.619-1.914-7.527
			c-0.111-1.106-0.225-2.244-0.405-3.342l0.465-0.259l0.523-0.291l2.31,2l2.911,2.521l0.895,0.775l0.615-1.012l2.269-3.737
			l0.403-0.663l3.54,0.708l4.963,0.994l0.64,0.128l0.375-0.534l0.21-0.299l0.625-0.891l0.399-0.567l-0.391-0.572l-5.137-7.523
			l-0.187-0.274c0.661-0.132,1.334-0.244,1.995-0.354c2.721-0.455,5.07-0.848,5.894-2.454c0.708-1.383,0.344-3.075-0.078-5.034
			c-0.206-0.957-0.43-1.996-0.539-3.076l3.097,1.892l5.287,3.229l0.466,0.285l0.492-0.238l0.624-0.303l0.656-0.317l0.737-0.358
			l-0.206-0.793l-2.382-9.175l1.99-1.148l2.249-1.298l0.875-0.505l-0.513-0.87l-0.792-1.341l-0.98-1.659
			c0.314-0.546,0.593-1.126,0.866-1.691C230.813,7.387,231.609,6.001,233.408,6.001 M233.408,5.001c-3.46,0-4.121,3.913-5.727,6.351
			c0.867,1.468,1.641,2.778,2.078,3.518c-2.3,1.327-4.172,2.408-4.898,2.827c1.084,4.176,1.829,7.044,2.573,9.912
			c-0.427,0.207-0.853,0.413-1.28,0.62c-3.32-2.028-6.641-4.055-9.961-6.083c-0.186,3.993,1.793,7.496,0.783,9.47
			c-0.875,1.708-5.141,1.681-8.65,2.619c2.066,3.026,4.108,6.017,6.15,9.008c-0.279,0.396-0.558,0.794-0.836,1.19
			c-2.959-0.593-5.918-1.185-9.19-1.84c-0.994,1.637-2.126,3.502-3.035,5c-2.064-1.788-3.908-3.383-5.75-4.979
			c-0.741,0.413-1.482,0.825-2.224,1.238c0.797,4.048,0.426,8.936,2.618,11.98c5.743,7.975,7.131,16.879,8.02,26.246
			c-3.003,0.987-6.046,1.988-9.758,3.208c2.308,3.076,4.1,5.463,5.891,7.852c-0.292,0.46-0.585,0.92-0.877,1.381
			c-2.311-0.834-4.855-1.299-6.88-2.583c-1.042-0.661-2.003-0.922-2.9-0.922c-2.218,0-4.04,1.601-5.706,2.716
			c-1.735,1.163-3.516,4.222-3.2,6.083c0.709,4.171,2.713,8.123,4.365,12.644c-1.923,0.488-4.503,0.454-4.886,1.354
			c-2.099,4.935-8.658,6.036-9.755,11.85c-0.227,1.205-2.405,2.353-3.913,2.916c-0.768,0.287-1.625,0.337-2.546,0.337
			c-0.495,0-1.008-0.014-1.537-0.014c-0.306,0-0.617,0.005-0.932,0.02c0.593,2.669,1.05,4.726,1.58,7.11
			c3.154-0.328,6.048-1.022,8.83-1.022c0.48,0,0.957,0.021,1.431,0.067c0.419,0.042,0.826,0.062,1.22,0.062
			c5.586,0,8.698-4.017,9.862-8.145c1.467-5.197,4.763-4.927,9.463-6.187c-3.284,3.082-5.553,5.506-1.804,8.423
			c-4.313,2.798-7.971,10.375-9.095,16.211c-0.53,2.753-2.745,5.226-4.398,7.691c-0.627,0.937-1.818,1.495-3.419,2.748
			c0.912,0.049,1.8,0.075,2.667,0.075c6.436,0,11.671-1.433,16.449-5.365c2.48-2.042,6.057-2.752,9.376-4.169
			c0.644,5.987,1.185,11.015,1.738,16.162c-5.211,1.534-6.149,7.365-5.671,12.065c0.492,4.856,3.758,9.431,5.899,14.33
			c-10.64,2.313-10.931,13.506-17.218,20.813c-0.696,0.099-2.309,0.328-3.313,0.471c0,2.776,0.691,5.563-0.189,7.704
			c-0.925,2.251-3.354,3.885-5.229,5.899c1.867,2.502,3.591,5.057,6.693,5.057c0.869,0,1.846-0.201,2.965-0.659
			c0.134-0.055,0.288-0.08,0.456-0.08c1.143,0,2.975,1.157,3.924,2.135c2.373,2.443,4.356,5.264,6.851,8.368
			c2.039-3.744,3.701-6.798,5.652-10.382c2.696,3.742,4.715,6.796,7.026,9.61c0.719,0.874,2.189,1.867,3.187,1.867
			c0.103,0,0.2-0.011,0.291-0.033c4.257-1.033,9.624-0.619,10.424-6.943c1.453,0,2.84,0.201,4.11,0.201
			c0.746,0,1.451-0.069,2.105-0.289c3.45-1.156,5.322-1.811,6.991-1.811c1.996,0,3.704,0.936,7.479,3.067
			c-9.319,2.07-16.708,6.356-19.74,15.726c-0.591,1.827-0.24,4.025-0.049,6.024c0.368,3.841,1.582,7.715,1.271,11.479
			c-0.488,5.91,1.433,8.792,6.855,8.792c0.627,0,1.302-0.038,2.025-0.115c0.352,3.028,0.705,6.058,1.152,9.896
			c3.29-2.611,5.92-4.699,9.223-7.322c-1.006,6.251-0.331,12.585-8.136,12.585c-0.343,0-0.702-0.012-1.079-0.037
			c0.014,5.937-2.62,11.759,3.356,16.093c-3.44,3.813-6.609,7.323-10.218,11.323c3.473,3.168,6.531,5.958,9.591,8.75
			c-0.198,0.289-0.396,0.578-0.593,0.867c-4.29-1.736-8.58-3.474-14.165-5.734c1.491,3.598,2.527,5.802,3.282,8.097
			c0.236,0.717-0.286,1.683-0.461,2.535c-0.935-0.264-2.063-0.289-2.756-0.851c-0.869-0.704-1.481-1.795-2.028-2.813
			c-0.99-1.845-2.096-2.899-3.667-2.899c-0.771,0-1.653,0.254-2.689,0.792c-0.571,0.297-1.319,0.429-2.101,0.429
			c-1.034,0-2.127-0.23-2.945-0.615c-2.582-1.213-4.853-3.087-7.254-4.686c0.168,0.415,0.336,0.829,0.504,1.244
			c-3.679,1.712-7.25,4.508-11.063,4.894c-6.376,0.645-11.548,2.374-15.129,7.904c-0.494,0.763-1.499,1.464-2.384,1.657
			c-6.614,1.442-7.434,7.006-9.096,11.718c2.182,1.332,4.075,1.892,5.771,1.892c4.859,0,8.104-4.589,11.921-8.741
			c2.078,2.913,5.128,5.255,5.341,7.83c0.865,10.445-1.932,20.39-6.021,29.958c-0.303,0.709-0.939,1.521-1.617,1.787
			c-6.619,2.603-13.106,5.894-19.979,7.398c-6.396,1.4-13.219,0.792-19.843,1.238c-1.652,0.11-4.186,0.396-4.722,1.427
			c-1.876,3.611-4.935,8.124-4.025,11.281c1.143,3.968,5.525,7.189,8.938,10.256c1.286,1.154,2.718,1.718,4.23,1.718
			c1.424,0,2.92-0.498,4.435-1.471c2.879-1.849,6.143-3.096,9.409-4.692c3.72,6.441,7.186,12.442,10.857,18.801
			c3.024-2.049,5.674-3.844,8.55-5.791c2.307,3.79,4.371,7.196,6.45,10.592c2.596,4.24,6.012,6.336,10.167,6.336
			c1.416,0,2.917-0.243,4.502-0.728c6.86-2.095,13.759-4.059,20.642-6.079c0.179,0.386,0.359,0.772,0.538,1.158
			c-1.293,1.19-2.487,2.516-3.898,3.544c-3.691,2.691-7.176,5.353-6.59,10.757c0.098,0.897-1.103,2.381-2.07,2.877
			c-3.398,1.74-6.826,3.358-10.289,3.358c-2.492,0-5.001-0.837-7.532-3.067c-0.85-0.748-2.067-1.063-3.057-1.671
			c-4.843-2.969-9.654-4.276-14.437-4.276c-5.543-0.001-11.049,1.756-16.527,4.718c-0.541,2.547,4.208,5.606-0.817,7.444
			c-1.107-0.965-2.146-1.871-3.467-3.022c-0.729,1.729-1.389,2.896-1.724,4.152c-1.756,6.576-5.54,10.633-12.241,13.141
			c-5.19,1.943-10.001,5.73-14.069,9.646c-5.034,4.845-9.945,9.143-16.807,9.143c-1.264,0-2.593-0.146-4.002-0.461
			c-0.632-0.141-1.286-0.186-1.962-0.186c-1.16,0-2.388,0.131-3.69,0.131c-0.696,2.288-1.361,4.473-2.143,7.042
			c1.237,0.538,1.883,0.72,2.42,1.069c3.507,2.28,9.83,1.338,9.42,8.197c-0.02,0.335,0.947,0.947,1.527,1.063
			c2.853,0.567,5.73,1.011,8.529,1.485c0.47-1.362,0.981-2.151,0.973-2.934c-0.062-5.596,2.888-7.122,8.133-7.4
			c3.312-0.176,6.471-2.545,9.781-3.688c1.453-0.502,3.102-1.06,4.602-1.06c0.352,0,0.694,0.03,1.025,0.1
			c4.522,0.947,8.858,2.993,13.399,3.578c3.349,0.431,5.072,1.758,6.217,4.615c0.617,1.538,1.101,3.775,2.282,4.322
			c3.267,1.514,7.024,3.736,10.24,3.736c0.425,0,0.84-0.039,1.244-0.123c2.95-0.615,5.418-5.142,7.322-8.395
			c0.795-1.357-0.423-3.894-0.839-6.645c8.759-0.709,5.921-7.648,5.983-13.243c3.661,0,7.174-0.019,10.613-0.019
			c3.348,0,6.625,0.018,9.903,0.088c1.153,0.024,2.546,0.697,3.385,1.521c4.342,4.261,9.392,8.354,5.804,15.61
			c-0.058,0.118,0.353,0.467,0.88,1.13c1.582-1.417,3.339-2.658,4.669-4.254c1.547-1.856,3.078-2.844,4.783-2.844
			c1.253,0,2.6,0.533,4.118,1.646c4.311,3.162,8.935,5.895,14.026,9.206c-1.622-5.841-3.105-11.183-4.575-16.475
			c1.521-0.371,2.983-0.536,4.4-0.536c6.796,0,12.56,3.781,18.951,6.606c-0.141-3.181-0.244-5.511-0.297-6.698
			c3.58,0.144,6.863,0.155,10.12,0.464c1.322,0.125,3.296,0.531,3.759,1.434c2.172,4.234,5.428,5.124,9.027,5.124
			c1.405,0,2.863-0.136,4.33-0.261c3.814-0.325,7.685-0.196,11.463-0.738c1.097-0.157,2.155-0.239,3.176-0.239
			c4.824,0,8.807,1.827,12.026,6.158c0.77,1.034,2.695,2.156,3.899,2.156c0.175,0,0.334-0.024,0.473-0.075
			c15.4-5.669,30.703-11.604,45.999-17.553c0.995-0.387,2.319-1.284,2.511-2.158c1.048-4.804,1.791-9.674,2.772-15.284
			c-7.233,0.96-13.659,1.812-20.903,2.772c1.845-6.15-1.259-8.508-6.241-9.78c2.594-0.749,4.95-1.104,7.317-1.196
			c3.117-0.121,4.565-1.637,5.307-4.666c0.779-3.188-1.192-4.07-3.244-5.257c-1.584-0.915-3.062-2.012-4.586-3.027
			c2.657-0.728,5.552-1.581,7.904-1.581c1.19,0,2.242,0.218,3.055,0.781c1.646,1.141,3.066,1.563,4.395,1.563
			c2.393,0,4.488-1.371,7.077-2.392c-2.688-2.5-4.921-4.576-8.132-7.56c5.979,0,10.657,0,15.553,0c0.46-2.53,0.96-5.28,1.46-8.032
			c10.709-9.66,14.363-21.463,11.388-35.51c-1.85-8.734-8.831-13.68-15.37-17.007c-5.764-2.934-11.892-5.522-18.069-5.522
			c-5.531,0-11.103,2.076-16.488,7.84c-0.285-2.804-0.483-4.749-0.632-6.203c-1.656-1.435-3.04-2.633-5.385-4.662
			c2.571-0.26,3.889-0.532,5.051-0.532c0.144,0,0.285,0.004,0.427,0.013c0.286,0.018,0.564,0.027,0.834,0.027
			c3.774,0,6.022-1.768,6.997-5.8c2.224-9.208-1.986-16.071-7.985-22.128c-5.2-5.249-5.311-6.299,1.33-10.847
			c-2.183-2.894-4.44-5.686-6.479-8.631c-3.889-5.618-4.706-11.494,1.957-15.137c1.67-0.914,3.655-3.132,3.681-4.778
			c0.05-3.24-0.006-6.977-4.56-8.261c-2.071-0.584-4.533-1.989-5.537-3.751c-3.601-6.321-6.655-12.953-9.854-19.347
			c-0.562,0.06-1.122,0.088-1.68,0.088c-8.778,0-16.944-7.152-17.688-15.67c-0.725-8.289-1.557-16.577-1.962-24.884
			c-0.329-6.749,0.034-13.529-0.23-20.282c-0.05-1.25-1.49-2.58-2.534-3.627c-1.808-1.814-4.706-3.097-5.515-5.222
			c-1.196-3.149-1.588-6.914-1.188-10.281c0.483-4.053-1.298-5.365-4.562-6.666c-2.876-1.145-6.317-2.592-7.86-4.974
			c-1.93-2.979-3.648-5.245-6.729-5.246c-0.748,0-1.576,0.134-2.507,0.423c-1.703,0.529-3.461,0.909-5.214,1.255
			c-3.381,0.666-6.795,1.781-10.161,1.781c-0.181,0-0.361-0.003-0.542-0.01c-1.946-0.072-3.728-2.58-5.744-3.702
			c-1.04-0.579-2.431-0.529-3.664-0.764c1.089-1.169,2.066-1.574,2.991-1.574c0.131,0,0.26,0.008,0.389,0.023
			c1.21,0.143,2.396,0.241,3.537,0.241c3.924,0,7.328-1.161,9.483-5.669c0.228-0.476,1.409-0.688,2.5-0.688
			c0.428,0,0.842,0.033,1.179,0.095c1.487,0.274,2.983,1.68,4.302,1.68c0.096,0,0.191-0.007,0.286-0.023
			c2.21-0.374,5.252-1.274,6.1-2.907c1.114-2.15,1.605-6.435,0.318-7.669c-2.742-2.632-5.971-4.903-9.949-4.903
			c-1.118,0-2.294,0.179-3.536,0.58c-1.444,0.467-3.029,0.501-4.625,0.501c-0.276,0-0.554-0.001-0.83-0.001
			c-0.649,0-1.297,0.006-1.934,0.044c3.443-2.82,6.948-4.402,10.887-4.402c1.323,0,2.695,0.179,4.13,0.548
			c1.126,0.29,2.459,0.463,3.782,0.463c1.941,0,3.864-0.372,5.089-1.291c3.963-2.974,7.388-6.97,10.174-11.121
			c2.813-4.19,8.395-6.787,7.987-12.97c-0.018-0.256,0.31-0.535,0.489-0.824c1.395-0.29,2.794-0.58,3.238-0.673
			c2.066-4.919,4.22-8.95,5.438-13.246c1.296-4.567,3.51-7.871,7.637-10.375c5.604-3.401,5.162-9.136-0.127-13.387
			c-6.282-5.048-15.604-2.311-21.3-8.692c-0.183-0.205-0.533-0.268-0.951-0.268c-0.616,0-1.381,0.137-1.976,0.153
			c-0.46,0.013-0.917,0.019-1.371,0.019c-5.536,0-10.7-0.974-15.827-3.881c-2.322-1.317-4.942-1.892-7.52-1.892
			c-4.009,0-7.913,1.389-10.441,3.538c-4.107,3.492-7.521,2.651-11.426,3.158c-0.302,0.039-0.598,0.059-0.886,0.059
			c-2.374,0-4.193-1.31-3.815-3.594c0.22-1.326,3.144-3.348,4.724-3.348c0.11,0,0.213,0.01,0.309,0.03
			c0.853,0.183,1.644,0.267,2.38,0.267c5.414,0,7.971-4.532,11.725-7.856c-2.424-1.917-4.422-3.498-7.145-5.65
			c9.833-5.081,18.948-9.789,28.931-14.946c0.09-1.947-1.078-5.968,3.506-7.808c0.454-0.182,0.497-2.614,0.014-3.675
			c-1.362-2.995,0.047-4.378,2.57-5.249c3.501-1.207,4.734-3.312,2.847-7.169c-4.829-0.303-9.783-0.683-14.743-0.904
			c-5.158-0.23-10.348-0.058-15.48-0.526c-1.396-0.127-2.766-0.225-4.109-0.225c-3.227,0-6.306,0.563-9.241,2.625
			c-1.272,0.895-3.222,0.824-4.575,1.131c0.592-2.058,1.067-3.706,1.542-5.355c-2.129-0.563-4.26-1.127-6.39-1.691
			c-1.543-1.948-3.466-4.189-5.839-4.872C234.477,5.085,233.913,5.001,233.408,5.001L233.408,5.001z"/>
	</g>
	<path style="fill-rule:evenodd;clip-rule:evenodd;fill:none;" d="M512.936,512.936c0-170.852,1-148.814,1,1
		C344.457,513.936,341.848,512.936,512.936,512.936z"/>
	<g>
		<g>
			<path style="fill:#FFFFFF;" d="M236.708,15.708c0.63,0.479,1.339,0.852,2.099,1.096c-0.105,1.895,0.56,3.778,1.894,5.19
				c1.338,1.417,3.183,2.196,5.085,2.196c0.513,0,1.032-0.057,1.545-0.173c0.116-0.023,0.449-0.065,0.692-0.096
				c1.52-0.191,4.064-0.512,6.376-2.138c1.366-0.96,2.877-1.352,5.215-1.352c1.168,0,2.411,0.099,3.473,0.196
				c3.419,0.312,6.782,0.361,10.034,0.408c1.998,0.029,3.885,0.056,5.771,0.141c1,0.044,2.005,0.096,3.013,0.153
				c-0.045,0.095-0.087,0.19-0.129,0.287c-0.606,1.411-1.088,3.494-0.52,6.11c-1.73,1.806-2.783,4.127-3.149,6.95l-10.745,5.551
				l-14.495,7.488c-2.112,1.091-3.526,3.181-3.754,5.548c-0.228,2.367,0.761,4.688,2.626,6.162l0.843,0.667
				c-0.4,0.248-0.735,0.349-1.082,0.349c-0.262,0-0.57-0.038-0.916-0.112c-0.574-0.123-1.171-0.185-1.773-0.185
				c-4.577,0-10.786,4.105-11.63,9.207c-0.49,2.964,0.271,5.813,2.145,8.02c2.003,2.361,5.129,3.715,8.577,3.715
				c0.59,0,1.192-0.04,1.787-0.117c0.645-0.084,1.371-0.12,2.14-0.159c3.363-0.168,7.968-0.398,12.918-4.607
				c1.096-0.932,3.348-1.872,5.908-1.872c1.528,0,2.935,0.339,4.066,0.981c5.766,3.27,11.892,4.792,19.28,4.792
				c0.471,0,0.943-0.006,1.419-0.018c4.182,3.347,8.952,4.257,12.911,5.012c2.871,0.548,5.352,1.021,6.883,2.251
				c0.82,0.659,1.24,1.225,1.424,1.558c-0.116,0.102-0.29,0.234-0.543,0.388c-5.473,3.32-8.885,7.911-10.74,14.449
				c-0.691,2.439-1.821,4.941-3.129,7.838c-0.181,0.398-0.362,0.801-0.545,1.208c-1.623,0.415-3.044,1.397-4.003,2.769
				c-1.283,1.642-1.868,3.43-1.739,5.298c0.06,0.906-0.407,1.569-2.774,3.943c-1.305,1.309-2.783,2.792-4.04,4.666
				c-2.567,3.824-5.425,7-8.281,9.208c-0.207,0.046-0.603,0.105-1.17,0.105c-0.697,0-1.439-0.088-2.035-0.241
				c-1.981-0.511-3.958-0.77-5.876-0.77c-5.392,0-10.403,1.958-15.323,5.986c-2.348,1.923-3.189,5.14-2.083,7.967
				c1.055,2.695,3.65,4.449,6.516,4.449c0.141,0,0.281-0.004,0.422-0.013c0.436-0.026,0.921-0.031,1.517-0.031l0.4,0l0.427,0
				c0.067,0,0.135,0,0.202,0c-1.716,0.997-2.626,2.343-3.091,3.317c-0.6,1.254-0.921,1.688-3.168,1.688
				c-0.739,0-1.603-0.062-2.722-0.193c-0.4-0.047-0.806-0.071-1.204-0.071c-2.085,0-5.186,0.66-8.114,3.804
				c-1.737,1.865-2.323,4.527-1.53,6.95c0.793,2.422,2.841,4.222,5.345,4.698c0.64,0.122,1.227,0.188,1.697,0.242
				c0.068,0.008,0.143,0.017,0.218,0.025c0.234,0.188,0.514,0.428,0.727,0.611c1.66,1.421,4.168,3.57,7.813,3.705
				c0.267,0.01,0.534,0.015,0.801,0.015c3.214,0,6.21-0.702,8.854-1.321c0.934-0.219,1.816-0.425,2.661-0.592
				c1.755-0.346,3.822-0.785,5.875-1.418c0.324,0.398,0.774,1.042,1.346,1.925c2.824,4.357,8.033,6.431,11.144,7.669
				c0.044,0.018,0.086,0.034,0.126,0.051c-0.411,4.395,0.175,8.941,1.672,12.882c1.25,3.284,3.81,5.173,5.678,6.552
				c0.537,0.396,1.146,0.846,1.422,1.123l0.274,0.274c0.08,0.079,0.176,0.174,0.273,0.273c0.064,2.531,0.052,5.08,0.038,7.751
				c-0.019,3.581-0.037,7.284,0.146,11.011c0.33,6.783,0.943,13.594,1.536,20.18c0.149,1.658,0.299,3.315,0.443,4.972
				c0.985,11.283,10.573,20.614,21.961,21.908c0.229,0.469,0.459,0.938,0.688,1.407c2.328,4.758,4.735,9.679,7.465,14.471
				c2.442,4.285,7.117,6.197,9.167,6.855c0.005,0.093,0.009,0.189,0.012,0.288c-0.029,0.023-0.057,0.045-0.081,0.062
				c-5.495,3.02-7.472,7.122-8.161,10.034c-0.776,3.278-0.739,8.578,3.85,15.206c0.848,1.226,1.724,2.416,2.603,3.58
				c-1.284,1.529-2.231,3.345-2.443,5.581c-0.472,4.956,2.99,8.451,5.771,11.258c5.734,5.79,7.46,10.152,6.155,15.558
				c-0.044,0.179-0.086,0.325-0.124,0.443c-0.022,0-0.045,0.001-0.069,0.001c-0.128,0-0.261-0.005-0.394-0.014
				c-0.287-0.018-0.575-0.026-0.868-0.026c-1.136,0-2.159,0.132-3.345,0.284c-0.682,0.088-1.453,0.187-2.408,0.283
				c-2.781,0.281-5.128,2.189-5.971,4.854c-0.843,2.665-0.021,5.575,2.093,7.404l3.283,2.843l0.351,3.438
				c0.277,2.731,2.127,5.049,4.729,5.926c0.732,0.247,1.486,0.366,2.234,0.366c1.906,0,3.77-0.78,5.115-2.221
				c4.707-5.037,8.746-5.619,11.374-5.619c4.881,0,10.269,2.406,14.895,4.762c7.061,3.592,10.668,7.36,11.697,12.218
				c2.491,11.764-0.44,20.935-9.229,28.862c-1.149,1.036-1.922,2.424-2.199,3.946l-0.415,2.283h-9.71
				c-2.878,0-5.463,1.762-6.516,4.44c-0.405,1.031-0.551,2.118-0.457,3.176c-2.93,0.099-5.906,0.919-8.552,1.648l-0.623,0.172
				c-2.646,0.724-4.624,2.927-5.062,5.635c-0.438,2.707,0.746,5.421,3.029,6.941c0.339,0.227,0.675,0.456,1.011,0.688
				c-1.285,0.232-2.569,0.534-3.866,0.908c-3.034,0.877-5.105,3.677-5.057,6.834c0.049,3.158,2.207,5.893,5.267,6.674
				c0.64,0.163,1.096,0.315,1.413,0.44c-0.034,0.154-0.081,0.336-0.145,0.547c-0.683,2.275-0.164,4.742,1.377,6.55
				c1.339,1.573,3.292,2.461,5.327,2.461c0.306,0,0.614-0.02,0.922-0.061l8.319-1.104l3.149-0.418
				c-0.196,1.096-0.397,2.173-0.606,3.233c-14.786,5.749-28.291,10.974-41.936,16.026c-4.307-5.107-9.892-7.694-16.625-7.694
				c-1.332,0-2.734,0.104-4.17,0.311c-1.888,0.271-3.93,0.346-6.092,0.426c-1.605,0.06-3.265,0.121-4.971,0.267l-0.358,0.03
				c-1.227,0.105-2.385,0.205-3.378,0.205c-2.123,0-2.279-0.306-2.799-1.319c-1.064-2.074-3.546-4.66-9.327-5.207
				c-2.529-0.24-4.944-0.313-7.502-0.39c-0.979-0.029-1.976-0.059-2.998-0.1c-0.094-0.004-0.188-0.006-0.28-0.006
				c-1.858,0-3.645,0.739-4.96,2.061c-0.319,0.321-0.604,0.669-0.853,1.039c-3.849-1.656-8.083-3.008-12.841-3.008
				c-2.023,0-4.062,0.248-6.062,0.736c-1.84,0.449-3.42,1.626-4.378,3.26c-0.726,1.238-1.048,2.659-0.941,4.068
				c-2.18-1.266-4.389-1.905-6.589-1.905c-1.426,0-2.801,0.257-4.12,0.769c-1.781-3.242-4.374-5.752-6.244-7.561
				c-0.292-0.282-0.583-0.564-0.869-0.845c-2.153-2.114-5.272-3.465-8.14-3.525c-2.893-0.063-5.992-0.09-10.052-0.09
				c-1.699,0-3.416,0.004-5.16,0.009c-1.787,0.005-3.602,0.01-5.455,0.01c-3.835,0-6.957,3.087-7,6.922
				c-0.017,1.476,0.111,2.909,0.224,4.176c0.057,0.644,0.131,1.48,0.159,2.175c-1.907,0.173-3.662,1.121-4.853,2.624
				c-1.205,1.521-1.725,3.475-1.435,5.394c0.191,1.263,0.483,2.407,0.718,3.328c0.025,0.098,0.052,0.203,0.079,0.311
				c-0.673,1.135-1.555,2.563-2.234,3.371c-1.217-0.326-3.269-1.333-4.585-1.979c-0.095-0.047-0.189-0.093-0.283-0.139v-0.001
				c-0.151-0.438-0.323-0.935-0.525-1.438c-2.113-5.274-5.98-8.203-11.821-8.954c-1.95-0.251-4.102-0.94-6.38-1.669
				c-2.052-0.656-4.174-1.335-6.481-1.818c-0.787-0.165-1.613-0.248-2.457-0.248c-2.708,0-5.223,0.868-6.888,1.443
				c-1.609,0.556-3.07,1.27-4.359,1.898c-1.192,0.582-2.824,1.38-3.508,1.416c-1.262,0.067-2.419,0.21-3.479,0.417
				c2.473-1.844,4.561-3.853,6.308-5.534c4.246-4.088,8.171-6.824,11.667-8.134c7.361-2.755,12.353-7.299,15.155-13.828
				c0.75-0.019,1.502-0.158,2.228-0.424c3.138-1.147,5.256-3.038,6.294-5.618c0.666-1.653,0.737-3.209,0.542-4.567
				c2.848-1.04,5.528-1.552,8.103-1.552c3.691,0,7.216,1.062,10.775,3.243c0.762,0.468,1.485,0.797,2.013,1.037
				c0.113,0.052,0.253,0.115,0.362,0.166c3.555,3.032,7.548,4.569,11.875,4.569c5.001,0,9.402-2.039,13.482-4.129
				c3.172-1.627,6.296-5.636,5.836-9.861c-0.111-1.023-0.162-1.49,3.753-4.345c1.377-1.004,2.491-2.091,3.474-3.051
				c0.345-0.337,0.69-0.675,1.043-1.001c2.24-2.063,2.89-5.336,1.607-8.098l-0.27-0.581l-0.269-0.577
				c-1.172-2.522-3.683-4.053-6.348-4.053c-0.654,0-1.318,0.092-1.973,0.284c-2.073,0.609-4.148,1.212-6.223,1.815
				c-4.749,1.382-9.659,2.81-14.493,4.286c-0.916,0.279-1.742,0.422-2.457,0.422c-0.827,0-2.367,0-4.198-2.991
				c-1.41-2.303-2.813-4.611-4.29-7.041l-2.15-3.535c-0.996-1.636-2.618-2.793-4.49-3.2c-0.493-0.107-0.992-0.16-1.489-0.16
				c-1.388,0-2.757,0.413-3.925,1.204l-2.324,1.574l-7.097-12.289c-1.29-2.234-3.638-3.5-6.066-3.5
				c-1.034,0-2.083,0.229-3.069,0.712c-0.926,0.453-1.861,0.879-2.851,1.33c-2.388,1.088-4.856,2.214-7.265,3.76
				c-0.171,0.11-0.312,0.188-0.424,0.242c-0.515-0.458-1.049-0.921-1.588-1.389c-1.683-1.457-4.138-3.583-4.896-4.967
				c0.311-1.032,1.338-2.917,2.048-4.203c0.081-0.007,0.166-0.013,0.255-0.019c2.088-0.141,4.232-0.168,6.502-0.196
				c4.659-0.058,9.477-0.117,14.367-1.188c5.611-1.229,10.765-3.415,15.75-5.529c1.827-0.775,3.552-1.508,5.297-2.193
				c2.348-0.925,4.401-3,5.49-5.55c5.324-12.459,7.408-23.036,6.56-33.287c-0.334-4.039-2.835-6.886-4.845-9.174
				c-0.669-0.761-1.301-1.48-1.773-2.143c-0.593-0.831-1.351-1.511-2.214-2.007c1.545-0.702,3.511-1.129,6.137-1.394
				c4.083-0.413,7.431-2.294,10.384-3.954c0.072-0.04,0.144-0.081,0.216-0.121c1.09,0.708,2.262,1.397,3.531,1.993
				c1.757,0.826,3.86,1.28,5.922,1.28c1.136,0,2.209-0.135,3.211-0.401c0.716,1.146,1.613,2.314,2.869,3.332
				c1.844,1.494,3.862,1.881,4.946,2.088c0.12,0.023,0.241,0.043,0.316,0.061c0.624,0.176,1.263,0.263,1.9,0.263
				c1.271,0,2.531-0.347,3.638-1.02c1.628-0.991,2.781-2.602,3.194-4.459c0.021-0.071,0.045-0.143,0.068-0.214
				c0.039-0.12,0.082-0.254,0.126-0.401l1.691,0.685c0.855,0.347,1.745,0.513,2.624,0.513c2.257,0,4.443-1.095,5.78-3.049
				l0.593-0.867c1.97-2.88,1.519-6.771-1.059-9.123l-4.448-4.059l1.039-1.15l4.515-5.004c1.331-1.475,1.972-3.445,1.765-5.421
				c-0.208-1.975-1.244-3.769-2.852-4.936c-0.924-0.67-1.215-0.881-0.917-4.225c7.761-2.674,8.761-11.073,9.233-15.035
				c0.108-0.913,0.211-1.775,0.344-2.602c0.459-2.853-0.881-5.693-3.375-7.153c-1.098-0.643-2.319-0.959-3.536-0.959
				c-1.445,0-2.884,0.447-4.099,1.325c-1.157-2.342-3.569-3.899-6.269-3.899c-0.248,0-0.498,0.014-0.75,0.04
				c-0.444,0.048-0.851,0.073-1.21,0.076c-0.004-0.316,0.007-0.718,0.048-1.217c0.273-3.308-0.265-6.396-0.739-9.119
				c-0.223-1.282-0.434-2.494-0.54-3.602c-0.028-0.287-0.058-0.579-0.089-0.872c-0.083-0.784-0.206-1.958-0.145-2.408
				c1.92-5.846,6.284-9.128,14.572-10.969c2.83-0.628,4.979-2.936,5.406-5.803c0.426-2.868-0.958-5.701-3.483-7.126
				c-4.235-2.391-7.034-3.971-10.92-3.971c-2.737,0-5.132,0.804-8.757,2.02l-0.233,0.079c-0.029,0-0.064,0.001-0.106,0.001
				c-0.358,0-0.867-0.037-1.407-0.077c-0.795-0.058-1.697-0.124-2.704-0.124c-3.523,0-6.496,2.618-6.943,6.111
				c-0.612,0.176-1.607,0.35-2.321,0.474c-0.026,0.004-0.053,0.009-0.079,0.014c-1.169-1.504-2.33-3.15-3.634-4.999
				c-0.714-1.011-1.462-2.072-2.27-3.193c-1.321-1.833-3.438-2.908-5.678-2.908c-0.146,0-0.294,0.004-0.441,0.014
				c-2.401,0.152-4.557,1.526-5.708,3.64l-0.432,0.794l-0.222,0.407c-0.222-0.24-0.448-0.478-0.679-0.716
				c-0.383-0.395-3.575-3.569-7.646-4.163c0.101-0.212,0.198-0.429,0.289-0.651c0.715-1.74,0.942-3.456,0.97-5.051
				c0.502-0.343,0.962-0.751,1.365-1.22c2.796-3.249,4.546-6.87,6.091-10.064c2.7-5.584,4.03-7.761,7.308-8.474
				c2.05-0.446,3.792-1.788,4.746-3.655c0.955-1.868,1.021-4.066,0.181-5.988c-0.75-1.716-1.576-3.311-2.375-4.854
				c-1.423-2.747-2.767-5.342-2.974-7.38c-0.287-2.825,0.32-4.364,0.561-4.596c0,0,0.034-0.021,0.123-0.047
				c3.247-0.956,5.345-4.098,4.983-7.463l-0.266-2.471l-1.472-13.69c-0.237-2.206-1.506-4.169-3.42-5.291
				c-1.088-0.638-2.312-0.961-3.54-0.961c-0.932,0-1.867,0.186-2.748,0.562c-0.84,0.358-1.773,0.686-2.761,1.032
				c-2.488,0.873-5.287,1.854-7.812,3.772c1.269-4.354,3.813-8.559,5.55-9.686c1.9-1.233,3.087-3.309,3.184-5.573
				c0.05-1.171-0.195-2.318-0.69-3.344c0.117-0.111,0.217-0.205,0.291-0.273c2.341-2.196,2.888-5.703,1.328-8.508
				c-1.257-2.26-3.623-3.598-6.117-3.598c-0.601,0-1.209,0.078-1.812,0.239c-0.067,0.018-0.133,0.035-0.2,0.052
				c0.32-1.328,0.247-2.735-0.23-4.042c-0.529-1.448-1.074-2.798-1.6-4.104c-0.942-2.333-1.774-4.397-2.232-6.307
				c0.054-0.081,0.109-0.156,0.159-0.214c0.269-0.183,0.541-0.375,0.818-0.571c0.227-0.16,0.509-0.36,0.772-0.536
				c1.959,1.09,3.96,1.694,5.608,2.191c0.669,0.202,1.302,0.393,1.844,0.588c0.78,0.282,1.582,0.417,2.375,0.417
				c2.343,0,4.599-1.181,5.912-3.25l0.831-1.308l0.043-0.068c1.563-2.458,1.44-5.626-0.307-7.956l-0.037-0.049l0.49-0.161
				c3.106-1.021,5.091-4.056,4.783-7.311c-0.844-8.902-2.151-18.279-7.605-27.124c1.641-0.497,3.055-1.583,3.957-3.068l0.489-0.804
				l4.377,0.876c0.459,0.092,0.919,0.137,1.376,0.137c2.251,0,4.402-1.089,5.729-2.979l0.211-0.301l0.621-0.884
				c1.679-2.387,1.701-5.565,0.055-7.975l-0.576-0.843c1.405-0.802,2.656-1.95,3.525-3.645c0.032-0.062,0.063-0.124,0.092-0.186
				c0.906,0.405,1.88,0.609,2.856,0.609c1.042,0,2.087-0.233,3.055-0.702l0.636-0.308l0.644-0.312
				c3.001-1.456,4.558-4.827,3.721-8.056l-1.234-4.755l0.283-0.163c1.619-0.934,2.796-2.476,3.271-4.283
				C236.61,16.338,236.67,16.024,236.708,15.708 M118.658,496.455c-0.736,0.862-1.305,1.791-1.742,2.741
				c-0.428-0.723-0.92-1.363-1.452-1.931C116.572,497.068,117.636,496.793,118.658,496.455 M233.408,5.001
				c-3.46,0-4.122,3.913-5.728,6.351c0.867,1.468,1.641,2.778,2.078,3.518c-2.3,1.327-4.172,2.408-4.898,2.827
				c1.084,4.176,1.829,7.044,2.573,9.912c-0.427,0.207-0.853,0.413-1.28,0.62c-3.32-2.028-6.641-4.055-9.961-6.083
				c-0.186,3.993,1.793,7.496,0.783,9.47c-0.875,1.708-5.141,1.681-8.65,2.619c2.066,3.026,4.108,6.017,6.15,9.008
				c-0.279,0.396-0.558,0.794-0.836,1.19c-2.959-0.593-5.918-1.185-9.19-1.84c-0.994,1.637-2.126,3.502-3.035,5
				c-2.064-1.788-3.908-3.383-5.75-4.979c-0.741,0.413-1.482,0.825-2.224,1.238c0.797,4.048,0.426,8.936,2.618,11.98
				c5.743,7.975,7.131,16.879,8.02,26.246c-3.003,0.987-6.046,1.988-9.758,3.208c2.308,3.076,4.1,5.463,5.891,7.852
				c-0.292,0.46-0.585,0.92-0.877,1.381c-2.311-0.834-4.855-1.299-6.88-2.583c-1.042-0.661-2.003-0.922-2.9-0.922
				c-2.218,0-4.041,1.601-5.706,2.716c-1.735,1.163-3.516,4.222-3.2,6.083c0.709,4.171,2.713,8.123,4.365,12.644
				c-1.923,0.488-4.503,0.454-4.886,1.354c-2.099,4.935-8.658,6.036-9.755,11.85c-0.227,1.205-2.405,2.353-3.913,2.916
				c-0.768,0.287-1.624,0.337-2.546,0.337c-0.495,0-1.008-0.015-1.537-0.015c-0.306,0-0.617,0.005-0.932,0.02
				c0.593,2.669,1.05,4.726,1.58,7.11c3.154-0.328,6.048-1.022,8.83-1.022c0.48,0,0.957,0.021,1.431,0.067
				c0.419,0.042,0.825,0.062,1.22,0.062c5.585,0,8.698-4.018,9.862-8.145c1.467-5.197,4.763-4.927,9.463-6.187
				c-3.284,3.082-5.553,5.506-1.804,8.423c-4.313,2.798-7.971,10.375-9.095,16.211c-0.53,2.753-2.745,5.226-4.398,7.691
				c-0.627,0.937-1.818,1.495-3.419,2.748c0.912,0.049,1.8,0.075,2.667,0.075c6.435,0,11.671-1.433,16.449-5.365
				c2.48-2.042,6.057-2.752,9.376-4.169c0.644,5.987,1.185,11.015,1.738,16.162c-5.211,1.534-6.149,7.365-5.671,12.065
				c0.492,4.856,3.758,9.431,5.899,14.33c-10.64,2.313-10.931,13.506-17.218,20.813c-0.696,0.099-2.309,0.328-3.313,0.471
				c0,2.776,0.691,5.563-0.189,7.704c-0.925,2.251-3.354,3.885-5.229,5.899c1.867,2.502,3.591,5.057,6.693,5.057
				c0.869,0,1.846-0.201,2.965-0.659c0.134-0.055,0.287-0.08,0.456-0.08c1.143,0,2.975,1.157,3.924,2.135
				c2.373,2.443,4.356,5.264,6.851,8.368c2.039-3.744,3.701-6.798,5.652-10.382c2.696,3.742,4.715,6.796,7.026,9.61
				c0.719,0.874,2.189,1.867,3.187,1.867c0.103,0,0.2-0.01,0.291-0.032c4.257-1.033,9.624-0.619,10.424-6.943
				c1.453,0,2.84,0.201,4.11,0.201c0.745,0,1.451-0.069,2.105-0.289c3.451-1.157,5.321-1.811,6.991-1.811
				c1.996,0,3.704,0.936,7.479,3.067c-9.319,2.07-16.708,6.356-19.74,15.726c-0.591,1.827-0.24,4.025-0.049,6.024
				c0.368,3.841,1.582,7.715,1.271,11.479c-0.488,5.911,1.432,8.792,6.855,8.792c0.627,0,1.302-0.038,2.025-0.115
				c0.352,3.028,0.705,6.058,1.152,9.896c3.29-2.611,5.92-4.699,9.223-7.322c-1.006,6.251-0.329,12.585-8.136,12.585
				c-0.343,0-0.702-0.012-1.079-0.037c0.014,5.937-2.62,11.759,3.356,16.093c-3.44,3.813-6.609,7.323-10.218,11.323
				c3.473,3.168,6.531,5.958,9.591,8.75c-0.198,0.289-0.396,0.578-0.593,0.867c-4.29-1.736-8.58-3.474-14.165-5.734
				c1.491,3.598,2.527,5.802,3.282,8.097c0.236,0.717-0.286,1.683-0.461,2.535c-0.935-0.264-2.063-0.289-2.756-0.851
				c-0.869-0.704-1.481-1.795-2.028-2.813c-0.991-1.845-2.096-2.899-3.667-2.899c-0.771,0-1.653,0.254-2.689,0.792
				c-0.571,0.297-1.319,0.429-2.101,0.429c-1.034,0-2.127-0.23-2.945-0.615c-2.582-1.213-4.853-3.087-7.254-4.686
				c0.168,0.415,0.336,0.829,0.504,1.244c-3.679,1.712-7.25,4.508-11.063,4.894c-6.376,0.645-11.548,2.374-15.129,7.904
				c-0.494,0.763-1.499,1.464-2.384,1.657c-6.614,1.442-7.434,7.006-9.096,11.718c2.183,1.333,4.075,1.892,5.771,1.892
				c4.858,0,8.104-4.589,11.921-8.741c2.078,2.913,5.128,5.255,5.341,7.83c0.865,10.445-1.932,20.39-6.021,29.958
				c-0.303,0.709-0.939,1.521-1.617,1.787c-6.619,2.603-13.106,5.894-19.979,7.398c-6.396,1.4-13.219,0.792-19.843,1.238
				c-1.652,0.11-4.186,0.396-4.722,1.427c-1.876,3.611-4.935,8.124-4.025,11.281c1.143,3.968,5.525,7.189,8.938,10.256
				c1.286,1.155,2.717,1.718,4.23,1.718c1.424,0,2.92-0.498,4.435-1.471c2.879-1.849,6.143-3.096,9.409-4.692
				c3.72,6.441,7.186,12.442,10.857,18.801c3.024-2.049,5.674-3.844,8.55-5.791c2.307,3.79,4.371,7.196,6.45,10.592
				c2.596,4.241,6.012,6.336,10.167,6.336c1.416,0,2.917-0.243,4.502-0.728c6.86-2.095,13.759-4.059,20.642-6.079
				c0.179,0.386,0.359,0.772,0.538,1.158c-1.293,1.19-2.487,2.516-3.898,3.544c-3.691,2.691-7.176,5.353-6.59,10.757
				c0.098,0.897-1.103,2.381-2.07,2.877c-3.398,1.74-6.826,3.358-10.289,3.358c-2.491,0-5.001-0.837-7.532-3.067
				c-0.85-0.748-2.067-1.063-3.057-1.671c-4.844-2.97-9.653-4.276-14.437-4.276c-5.543,0-11.05,1.757-16.527,4.718
				c-0.541,2.547,4.208,5.606-0.817,7.444c-1.107-0.965-2.146-1.871-3.467-3.022c-0.729,1.729-1.389,2.896-1.724,4.152
				c-1.756,6.576-5.54,10.633-12.241,13.141c-5.19,1.943-10.001,5.73-14.069,9.646c-5.034,4.846-9.944,9.143-16.807,9.143
				c-1.263,0-2.594-0.146-4.002-0.461c-0.632-0.141-1.286-0.186-1.962-0.186c-1.16,0-2.388,0.131-3.691,0.131
				c-0.696,2.288-1.361,4.473-2.143,7.042c1.237,0.538,1.883,0.72,2.42,1.069c3.507,2.28,9.83,1.338,9.42,8.197
				c-0.02,0.335,0.947,0.947,1.527,1.063c2.853,0.567,5.73,1.011,8.529,1.485c0.47-1.362,0.981-2.151,0.973-2.934
				c-0.062-5.596,2.888-7.122,8.133-7.4c3.312-0.176,6.471-2.545,9.781-3.688c1.453-0.502,3.102-1.06,4.602-1.06
				c0.351,0,0.694,0.03,1.025,0.1c4.522,0.947,8.858,2.993,13.399,3.578c3.349,0.431,5.072,1.758,6.217,4.615
				c0.617,1.538,1.101,3.775,2.282,4.322c3.267,1.514,7.024,3.736,10.24,3.736c0.425,0,0.841-0.039,1.244-0.123
				c2.95-0.615,5.418-5.142,7.322-8.395c0.795-1.357-0.423-3.894-0.839-6.645c8.759-0.709,5.921-7.648,5.983-13.243
				c3.662,0,7.175-0.019,10.615-0.019c3.348,0,6.625,0.018,9.901,0.088c1.153,0.024,2.546,0.697,3.385,1.521
				c4.342,4.261,9.392,8.354,5.804,15.61c-0.058,0.118,0.353,0.467,0.88,1.13c1.582-1.417,3.339-2.658,4.669-4.254
				c1.547-1.856,3.077-2.844,4.783-2.844c1.253,0,2.6,0.533,4.118,1.646c4.311,3.162,8.935,5.895,14.026,9.206
				c-1.622-5.841-3.105-11.183-4.575-16.475c1.521-0.372,2.983-0.536,4.4-0.536c6.795,0,12.561,3.781,18.951,6.606
				c-0.141-3.181-0.244-5.511-0.297-6.698c3.58,0.144,6.863,0.155,10.12,0.464c1.322,0.125,3.296,0.531,3.759,1.434
				c2.172,4.235,5.428,5.124,9.027,5.124c1.405,0,2.864-0.136,4.33-0.261c3.814-0.325,7.685-0.196,11.463-0.738
				c1.097-0.157,2.155-0.239,3.176-0.239c4.824,0,8.808,1.828,12.026,6.158c0.77,1.034,2.695,2.155,3.899,2.155
				c0.175,0,0.334-0.023,0.473-0.074c15.4-5.669,30.703-11.604,45.999-17.553c0.995-0.387,2.319-1.284,2.511-2.158
				c1.048-4.804,1.791-9.674,2.772-15.284c-7.233,0.96-13.659,1.812-20.903,2.772c1.845-6.15-1.259-8.508-6.241-9.78
				c2.594-0.749,4.95-1.104,7.317-1.196c3.117-0.121,4.565-1.637,5.307-4.666c0.779-3.188-1.192-4.07-3.244-5.257
				c-1.584-0.915-3.062-2.012-4.586-3.027c2.657-0.728,5.552-1.581,7.904-1.581c1.19,0,2.242,0.218,3.055,0.781
				c1.646,1.141,3.065,1.563,4.395,1.563c2.392,0,4.488-1.371,7.077-2.392c-2.688-2.5-4.921-4.576-8.132-7.56
				c5.979,0,10.657,0,15.553,0c0.46-2.53,0.96-5.28,1.46-8.032c10.709-9.66,14.363-21.463,11.388-35.51
				c-1.85-8.734-8.831-13.68-15.37-17.007c-5.765-2.934-11.891-5.522-18.069-5.522c-5.53,0-11.103,2.076-16.488,7.84
				c-0.285-2.804-0.483-4.749-0.632-6.203c-1.656-1.435-3.04-2.633-5.385-4.662c2.571-0.26,3.889-0.532,5.05-0.532
				c0.145,0,0.286,0.004,0.428,0.013c0.286,0.018,0.563,0.027,0.834,0.027c3.773,0,6.022-1.769,6.997-5.8
				c2.224-9.208-1.986-16.071-7.985-22.128c-5.2-5.249-5.311-6.299,1.33-10.847c-2.183-2.894-4.44-5.686-6.479-8.631
				c-3.889-5.618-4.706-11.494,1.957-15.137c1.67-0.914,3.655-3.132,3.681-4.778c0.05-3.24-0.006-6.977-4.56-8.261
				c-2.071-0.584-4.533-1.989-5.537-3.751c-3.601-6.321-6.655-12.953-9.854-19.347c-0.562,0.06-1.121,0.088-1.68,0.088
				c-8.778,0-16.944-7.153-17.688-15.67c-0.725-8.289-1.557-16.577-1.962-24.884c-0.329-6.749,0.034-13.529-0.23-20.282
				c-0.05-1.25-1.49-2.58-2.534-3.627c-1.808-1.814-4.706-3.097-5.515-5.222c-1.196-3.149-1.588-6.914-1.188-10.281
				c0.483-4.053-1.298-5.365-4.562-6.666c-2.876-1.145-6.317-2.592-7.86-4.974c-1.93-2.979-3.648-5.246-6.729-5.246
				c-0.748,0-1.576,0.134-2.507,0.423c-1.703,0.529-3.461,0.909-5.214,1.255c-3.381,0.666-6.795,1.781-10.161,1.781
				c-0.181,0-0.361-0.003-0.542-0.01c-1.946-0.072-3.728-2.58-5.744-3.702c-1.04-0.579-2.431-0.529-3.664-0.764
				c1.089-1.169,2.066-1.574,2.991-1.574c0.13,0,0.26,0.008,0.389,0.023c1.211,0.143,2.396,0.241,3.537,0.241
				c3.924,0,7.329-1.161,9.483-5.669c0.228-0.477,1.409-0.688,2.5-0.688c0.428,0,0.842,0.033,1.179,0.095
				c1.488,0.274,2.983,1.68,4.302,1.68c0.096,0,0.191-0.007,0.286-0.023c2.21-0.374,5.252-1.274,6.1-2.907
				c1.114-2.15,1.605-6.435,0.318-7.669c-2.742-2.632-5.971-4.903-9.95-4.903c-1.117,0-2.294,0.179-3.535,0.58
				c-1.445,0.467-3.03,0.501-4.626,0.501c-0.275,0-0.552-0.001-0.827-0.001c-0.649,0-1.298,0.006-1.936,0.044
				c3.443-2.82,6.947-4.402,10.887-4.402c1.323,0,2.695,0.179,4.13,0.548c1.126,0.29,2.459,0.463,3.782,0.463
				c1.941,0,3.864-0.372,5.089-1.291c3.963-2.974,7.388-6.97,10.174-11.121c2.813-4.19,8.395-6.787,7.987-12.97
				c-0.018-0.256,0.31-0.535,0.489-0.824c1.395-0.29,2.794-0.58,3.238-0.673c2.066-4.919,4.22-8.95,5.438-13.246
				c1.296-4.567,3.51-7.871,7.637-10.375c5.604-3.401,5.162-9.136-0.127-13.387c-6.282-5.048-15.604-2.311-21.3-8.692
				c-0.184-0.205-0.533-0.268-0.951-0.268c-0.616,0-1.381,0.137-1.976,0.153c-0.46,0.013-0.916,0.019-1.371,0.019
				c-5.535,0-10.7-0.974-15.827-3.881c-2.322-1.317-4.942-1.892-7.52-1.892c-4.008,0-7.914,1.39-10.441,3.538
				c-4.107,3.492-7.521,2.651-11.426,3.158c-0.302,0.039-0.598,0.059-0.886,0.059c-2.373,0-4.193-1.31-3.815-3.594
				c0.22-1.326,3.144-3.348,4.724-3.348c0.11,0,0.213,0.01,0.309,0.03c0.854,0.183,1.643,0.267,2.38,0.267
				c5.414,0,7.971-4.532,11.725-7.856c-2.424-1.917-4.422-3.498-7.145-5.65c9.833-5.081,18.948-9.789,28.931-14.946
				c0.09-1.947-1.078-5.968,3.506-7.808c0.454-0.182,0.497-2.614,0.014-3.675c-1.362-2.995,0.047-4.378,2.57-5.249
				c3.501-1.207,4.734-3.312,2.847-7.169c-4.829-0.303-9.783-0.683-14.743-0.904c-5.158-0.23-10.348-0.058-15.48-0.526
				c-1.396-0.127-2.766-0.225-4.109-0.225c-3.227,0-6.306,0.563-9.241,2.625c-1.272,0.895-3.222,0.824-4.575,1.131
				c0.592-2.058,1.067-3.706,1.542-5.355c-2.129-0.563-4.26-1.127-6.39-1.691c-1.543-1.948-3.466-4.189-5.839-4.872
				C234.477,5.085,233.913,5.001,233.408,5.001L233.408,5.001z M378.18,465.831h0.005H378.18z"/>
		</g>
	</g>
</g>
<g id="Layer_1">
</g>
</svg>
