<?xml version="1.0" encoding="iso-8859-1"?>
<!-- Generator: Adobe Illustrator 16.0.0, SVG Export Plug-In . SVG Version: 6.00 Build 0)  -->
<!DOCTYPE svg PUBLIC "-//W3C//DTD SVG 1.1//EN" "http://www.w3.org/Graphics/SVG/1.1/DTD/svg11.dtd">
<svg version="1.1" xmlns="http://www.w3.org/2000/svg" xmlns:xlink="http://www.w3.org/1999/xlink" x="0px" y="0px" width="512px"
	 height="512px" viewBox="0 0 512 512" style="enable-background:new 0 0 512 512;" xml:space="preserve">
<g id="yugoslovia">
	<g>
		<path style="fill:#FFFFFF;" d="M135.384,91.493c0.687,0.555,1.145,1.263,1.529,2.227c4.934,12.385,14.921,19.53,23.733,25.834
			c2.372,1.697,4.611,3.299,6.762,4.988c1.654,1.299,3.33,2.499,4.952,3.66c2.02,1.446,3.927,2.811,5.669,4.271
			c7.019,5.883,14.891,9.335,24.773,10.864c4.884,0.755,9.943,3.406,15.299,6.213c1.333,0.699,2.71,1.421,4.087,2.112
			c3.336,1.675,6.821,2.489,10.656,2.489c1.753,0,3.634-0.166,5.917-0.521c10.548-1.637,19.814-5.806,28.327-12.745
			c2.146-1.749,5.762-2.909,9.258-4.032c0.548-0.176,1.091-0.351,1.629-0.527c5.834-1.912,10.56-5.286,14.446-10.315
			c2.073-2.682,4.298-5.28,6.647-8.007c2.33,0.924,4.843,1.39,7.521,1.39c3.083,0,5.994-0.594,8.562-1.119
			c1.907-0.389,3.709-0.757,5.236-0.815c0.535-0.021,1.158-0.042,1.713-0.042c1.985,0,2.112,0.166,2.534,0.717
			c1.667,2.179,3.949,4.233,6.599,5.938c11.812,7.604,21.004,18.087,27.324,31.157c2.61,5.4,6.903,8.821,13.122,10.458
			c3.233,0.851,6.404,1.811,9.76,2.826c2.777,0.84,5.628,1.703,8.519,2.499c-0.408,4.491-0.722,8.96-1.051,13.652
			c-0.152,2.167-0.307,4.368-0.474,6.613c-0.265,3.55,2.178,6.733,5.676,7.397c2.179,0.414,4.406,0.901,6.56,1.373
			c5.123,1.123,10.42,2.283,15.901,2.653c5.012,0.337,8.852,3.278,14.166,7.348c0.682,0.522,1.375,1.053,2.082,1.587
			c1.238,0.935,2.723,1.413,4.218,1.413c1.063,0,2.132-0.242,3.12-0.734c2.377-1.184,3.879-3.61,3.879-6.266v-9.372l3.239,1.848
			l2.507,1.43c-1.025,1.335-2.022,2.668-2.998,4.052c-3.102,4.392-3.86,10.946,3.312,16.169c0.587,0.428,1.167,0.811,1.679,1.148
			c0.538,0.355,1.315,0.869,1.661,1.182c0,0.085-0.004,0.207-0.021,0.367c-0.145,1.381-0.342,2.051-0.449,2.331
			c-0.162,0.057-0.452,0.139-0.917,0.211c-4.006,0.623-8.443,2.964-8.886,7.672c-0.516,5.521-0.813,11.084-1.1,16.464l-0.126,2.359
			c-0.079,1.498,0.29,2.93,1.108,4.283c6.469,18.252,21.656,25.516,35.71,30.207c1.474,0.492,1.663,0.555,2.009,2.507
			c1.059,5.963,0.291,7.056-2.172,8.66c-3.078,2.004-5.613,4.446-8.015,6.887l-0.44-0.387c-1.291-1.136-2.938-1.744-4.623-1.744
			c-0.508,0-1.02,0.056-1.525,0.168c-2.183,0.487-4.002,1.989-4.894,4.041c-0.47,1.079-0.945,2.132-1.414,3.17
			c-1.277,2.827-2.598,5.75-3.628,8.838c-1.353,4.04,0.554,8.711,3.134,11.234c3.095,3.029,6.408,6.198,10.108,9.002
			c-3.47,6.395-2.279,12.98,3.397,18.303c0.523,0.491,1.018,1.137,1.391,1.814c4.6,8.372,11.948,12.896,21.271,13.107
			c0.137,0.281,0.315,0.678,0.55,1.236c3.034,7.232,3.823,15.084,4.658,23.396c0.285,2.838,0.579,5.759,0.969,8.682
			c-2.125,3.69-9.825,12.867-12.234,14.752c-2.38,1.026-4.79,1.526-7.354,1.526c-2.618,0-5.345-0.515-8.336-1.574
			c-1.907-0.676-3.611-1.004-5.209-1.004c-3.802-0.001-8.756,1.727-10.764,9.96c-1.408,5.778-3.312,11.542-4.888,16.086
			c-10.733,1.622-21.654,3.119-32.233,4.57c-1.523,0.209-3.047,0.418-4.569,0.627c-0.321-0.199-0.661-0.375-1.019-0.523
			c-0.325-0.135-0.759-0.354-1.219-0.587c-1.564-0.792-3.707-1.876-6.361-2.087c-0.633-0.05-1.284-0.074-1.993-0.074
			c-1.549,0-3.039,0.117-4.48,0.23c-1.191,0.094-2.315,0.183-3.25,0.183c-0.31,0-0.552-0.01-0.737-0.023
			c-0.418-0.913-0.89-2.682-1.222-3.924c-0.56-2.098-1.193-4.474-2.264-6.72c-3.839-8.053-2.591-16.919-1.271-26.305
			c0.198-1.409,0.396-2.813,0.576-4.211c2.448-18.982-6.743-31.929-17.041-43.091c-2.816-3.054-5.852-5.762-8.787-8.38
			c-2.328-2.076-4.527-4.038-6.566-6.111c-0.934-0.951-3.776-3.844-8.117-3.844c-2.204-0.001-4.332,0.746-6.33,2.219
			c-0.18-0.115-0.404-0.27-0.679-0.476c-2.293-1.721-4.693-3.157-7.015-4.548c-0.978-0.585-1.988-1.19-2.978-1.809
			c-1.124-0.702-2.411-1.064-3.711-1.064c-0.634,0-1.271,0.086-1.892,0.261c-1.897,0.532-3.482,1.84-4.366,3.602
			c-1.122,2.238-2.239,4.455-3.349,6.657c-3.708,7.356-7.209,14.304-10.632,21.491c-1.725,3.623-1.021,8.895,1.604,12
			c1.81,2.142,2.189,4.627,2.345,8.474c-4.93-2.453-7.947-5.728-9.762-10.323c-3.514-8.894-10.378-10.222-14.156-10.223
			c-1.007,0-2.063,0.09-3.141,0.266c-0.467,0.076-0.932,0.115-1.383,0.115c-3.268,0-6.442-2.11-10.119-4.553
			c-1.176-0.781-2.393-1.59-3.666-2.361c-7.351-4.455-15.111-9.266-22.082-14.767c-6.042-4.768-12.44-4.996-17.581-5.181
			c-1.441-0.051-2.802-0.1-4.052-0.241c-4.051-0.46-6.362-3.13-10.099-7.809c-0.423-0.529-0.846-1.059-1.274-1.585
			c-2.482-3.049-4.969-6.225-7.373-9.297c-3.951-5.047-8.036-10.266-12.357-15.255c-1.122-1.295-3.19-2.838-6.669-2.838
			c-1.377,0-2.727,0.238-3.917,0.449c-0.567,0.1-1.423,0.251-1.729,0.259c-0.7,0.008-1.381,0.056-1.982,0.098
			c-0.297,0.021-0.585,0.04-0.843,0.054c-6.333-4.615-13.108-6.953-20.157-6.953c-4.308,0-8.746,0.887-13.237,2.636
			c-3.125-9.833-12.093-14.416-16.393-16.614c-10.112-5.167-18.115-11.51-24.469-19.389c-0.902-1.119-1.293-1.931-1.437-2.363
			c0.324-0.246,0.989-0.639,2.125-1.021c6.273-2.112,5.787-7.188,5.625-8.183c-0.312-1.928-1.393-3.565-2.899-4.619
			c-1.309-1.073-2.608-2.156-3.906-3.238c-3.293-2.745-6.698-5.583-10.249-8.247c-3.425-2.57-5.254-6.008-6.114-11.496
			c-1.079-6.886-2.532-13.981-4.317-21.089c-1.062-4.224-5.195-7.332-8.584-8.431c-0.315-0.103-0.619-0.192-0.909-0.272
			c-0.665-3.187-3.192-5.518-4.874-6.524c-3.113-1.861-6.179-3.655-9.459-5.144c-1.792-0.813-3.623-1.225-5.443-1.225
			c-6.141,0-10.896,4.596-11.566,11.216c-0.049,0.485-0.123,1.218-0.197,1.458c-1.552,4.878-3.125,9.715-4.79,14.837l-0.014,0.043
			h-0.22c-2.411,0-4.565,1.226-5.829,3.122c-2.336-3.943-5.395-7.048-8.255-9.582c-0.003-0.005-0.006-0.011-0.009-0.016
			c1.686-7.112,0.617-13.855-3.181-20.077c3.046-4.248,6.944-6.696,12.592-7.921c2.242-0.486,4.104-2.04,4.982-4.159
			c0.879-2.119,0.664-4.534-0.576-6.464c-1.823-2.84-3.606-5.679-5.331-8.425c-4.194-6.679-8.156-12.988-12.586-19.191
			c-2.181-3.054-2.555-5.207-1.481-8.531c1.246-3.858,2.154-7.784,3.017-11.599c1.958,0.205,3.909,0.407,5.854,0.608
			c9.429,0.978,18.334,1.901,27.382,2.996c2.005,0.243,3.624,0.355,5.094,0.355c9.264,0,13.512-4.854,17.042-12.141
			c0.677-1.398,1.419-2.93,1.957-3.894c1.126,0.125,2.813,0.425,4.719,0.764c1.047,0.187,1.99,0.232,2.748,0.27
			c0.305,0.015,0.713,0.035,0.904,0.06c2.875,0.915,5.645,1.378,8.234,1.378c6.535,0,12.215-2.921,16.433-8.448
			c0.037-0.001,0.079-0.002,0.127-0.002c0.608,0,1.452,0.133,2.119,0.25c2.746,0.479,5.469,0.912,8.352,1.37
			c1.253,0.199,2.536,0.403,3.861,0.617c0.372,0.061,0.746,0.09,1.117,0.09c1.729,0,3.411-0.641,4.709-1.821
			c1.577-1.434,2.415-3.509,2.275-5.636l-0.181-2.771L135.384,91.493 M127.758,82.156c0.358,5.48,0.689,10.535,1.051,16.063
			c-4.344-0.702-8.244-1.296-12.128-1.973c-1.133-0.197-2.248-0.354-3.32-0.354c-2.116,0-4.064,0.608-5.655,2.707
			c-3.056,4.032-6.738,5.744-10.905,5.744c-1.966,0-4.04-0.381-6.208-1.08c-1.395-0.449-2.982-0.258-4.453-0.52
			c-3.1-0.552-5.235-0.934-6.833-0.934c-3.539,0-4.447,1.871-7.369,7.903c-2.989,6.172-5.424,8.192-10.742,8.192
			c-1.245,0-2.648-0.11-4.253-0.305c-13.009-1.573-26.055-2.83-39.501-4.266c-1.43,5.867-2.483,11.578-4.253,17.058
			c-1.782,5.518-0.984,9.95,2.446,14.752c6.149,8.61,11.567,17.743,17.723,27.33c-7.511,1.629-12.976,5.182-17.055,11.048
			c-1.643,2.362-2.256,4-0.592,6.48c3.382,5.041,4.359,10.428,2.707,16.49c-0.461,1.689,0.75,4.642,2.178,5.896
			c5.556,4.885,9.795,10.314,10.006,18.314c2.523,0.204,4.786,0.387,7.51,0.606c0.485-3.616,0.939-6.995,1.412-10.521
			c2.241,0,4.145,0,5.306,0c2.235-6.89,4.338-13.314,6.388-19.757c0.296-0.93,0.396-1.935,0.495-2.914
			c0.306-3.024,2.129-4.883,4.598-4.883c0.793,0,1.654,0.192,2.552,0.6c3.022,1.371,5.905,3.07,8.758,4.776
			c0.746,0.446,1.703,1.524,1.625,2.206c-0.512,4.467,2.761,4.322,5.589,5.24c1.574,0.511,3.596,2.042,3.957,3.479
			c1.696,6.749,3.113,13.59,4.191,20.467c1.019,6.5,3.408,11.944,8.828,16.012c4.909,3.683,9.546,7.729,14.323,11.631
			c0.012-0.006,0.019-0.009,0.021-0.009c0.019,0-0.449,0.263-0.949,0.432c-7.75,2.613-8.995,8.097-3.902,14.412
			c7.359,9.127,16.427,15.962,26.732,21.229c7.577,3.873,13.836,8.485,13.678,18.11c-0.01,0.604,0.471,1.214,0.705,1.777
			c0.277,0,0.516,0.029,0.728,0.029c0.128,0,0.247-0.011,0.358-0.045c0.634-0.195,1.274-0.415,1.855-0.729
			c5.259-2.853,10.416-4.397,15.49-4.397c5.764,0,11.42,1.994,16.995,6.334c0.645,0.502,1.599,0.635,2.644,0.635
			c1.128,0,2.363-0.154,3.43-0.168c1.697-0.021,4.023-0.707,5.56-0.707c0.619,0,1.11,0.111,1.38,0.423
			c6.822,7.876,13.006,16.299,19.591,24.387c4.292,5.272,8.128,11.034,16.012,11.929c6.083,0.689,12.429-0.502,18.085,3.962
			c7.158,5.648,14.974,10.521,22.791,15.258c5.474,3.317,10.603,7.928,17.413,7.928c0.813,0,1.649-0.065,2.513-0.207
			c0.708-0.116,1.378-0.174,2.011-0.174c3.697,0.001,6.135,1.97,7.646,5.795c4.197,10.631,13.047,15.146,24.119,17.823
			c-1.83-7.864,0.969-16.184-4.845-23.063c-0.846-1.001-1.185-3.309-0.63-4.474c4.428-9.298,9.128-18.467,13.918-28.02
			c3.369,2.106,6.601,3.843,9.501,6.02c1.713,1.285,3.347,2.145,5.043,2.145c1.221,0,2.475-0.445,3.813-1.497
			c0.851-0.669,1.612-0.989,2.354-0.989c1.02,0,2.001,0.606,3.125,1.75c4.88,4.963,10.491,9.226,15.201,14.331
			c9.682,10.495,17.289,21.588,15.243,37.449c-1.46,11.318-4.081,23.098,1.318,34.424c2.129,4.467,2.274,10.943,5.616,13.455
			c1.248,0.938,2.983,1.199,4.925,1.199c2.44,0,5.204-0.413,7.73-0.413c0.49,0,0.972,0.016,1.439,0.053
			c1.862,0.147,3.637,1.408,5.451,2.161c0.018,0.543,0.034,1.085,0.052,1.627c14.465-2,28.942-3.925,43.377-6.131
			c1.299-0.199,2.88-2.024,3.371-3.43c2.027-5.801,3.938-11.669,5.393-17.635c0.737-3.024,1.729-4.618,3.962-4.617
			c0.788,0,1.731,0.198,2.873,0.603c3.535,1.252,7.099,1.976,10.673,1.976c3.532,0,7.074-0.707,10.606-2.312
			c3.062-1.391,15.848-16.753,16.141-20.065c0.015-0.164-0.013-0.333-0.036-0.497c-1.706-11.792-1.549-23.876-6.295-35.19
			c-1.378-3.283-2.609-5.498-6.459-5.521c-7.065-0.042-12.27-3.273-15.683-9.485c-0.713-1.297-1.659-2.538-2.738-3.55
			c-3.525-3.306-4.147-6.817-1.378-10.934c1.855-2.756,1.464-4.917-1.514-7.055c-3.769-2.707-7.178-5.955-10.505-9.212
			c-0.935-0.914-1.758-2.919-1.393-4.01c1.274-3.818,3.091-7.455,4.823-11.439c2.034,1.789,3.614,3.178,5.379,4.729
			c3.935-3.708,7.275-7.856,11.519-10.619c6.309-4.108,6.391-9.299,5.245-15.75c-0.769-4.331-2.63-6.569-6.685-7.923
			c-14.005-4.675-26.468-11.319-31.573-26.617c-0.104-0.309-0.486-0.586-0.472-0.864c0.335-6.186,0.629-12.377,1.205-18.541
			c0.054-0.571,1.904-1.237,2.991-1.406c5.079-0.789,6.711-3.53,7.253-8.733c0.575-5.52-3.212-6.935-6.162-9.082
			c-2.685-1.955-3.608-3.787-1.713-6.472c2.364-3.35,4.968-6.529,7.765-10.167c-6.833-3.898-14.515-8.28-23.23-13.253
			c0,7.539,0,14.003,0,21.425c-6.689-5.049-12.051-9.797-19.994-10.332c-7.176-0.483-14.247-2.519-21.627-3.919
			c0.584-7.844,1.013-15.143,1.729-22.412c0.262-2.664-0.39-3.825-3.111-4.529c-6.906-1.787-13.67-4.121-20.57-5.938
			c-3.955-1.041-6.775-2.956-8.603-6.735c-6.799-14.062-16.639-25.499-29.837-33.996c-1.798-1.157-3.538-2.619-4.828-4.306
			c-2.248-2.94-4.857-3.464-8.094-3.464c-0.635,0-1.294,0.02-1.979,0.046c-4.442,0.169-9.027,1.929-13.531,1.929
			c-3.049,0-6.062-0.807-8.966-3.462c-3.706,4.387-7.39,8.464-10.74,12.798c-2.944,3.81-6.451,6.425-11.088,7.944
			c-4.548,1.49-9.546,2.864-13.129,5.784c-7.448,6.07-15.523,9.786-24.979,11.254c-1.686,0.262-3.282,0.438-4.843,0.438
			c-2.521,0-4.95-0.457-7.515-1.745c-6.951-3.491-14.008-7.836-21.458-8.987c-8.305-1.284-15.105-4.08-21.345-9.311
			c-3.438-2.881-7.262-5.297-10.794-8.071c-10.49-8.237-22.987-14.529-28.316-27.907C140.577,84.005,134.528,83.255,127.758,82.156
			L127.758,82.156z"/>
	</g>
</g>
<g id="Layer_1">
</g>
</svg>
