<?xml version="1.0" encoding="utf-8"?>
<!-- Generator: Adobe Illustrator 16.0.0, SVG Export Plug-In . SVG Version: 6.00 Build 0)  -->
<!DOCTYPE svg PUBLIC "-//W3C//DTD SVG 1.1//EN" "http://www.w3.org/Graphics/SVG/1.1/DTD/svg11.dtd">
<svg version="1.1" id="Layer_1" xmlns="http://www.w3.org/2000/svg" xmlns:xlink="http://www.w3.org/1999/xlink" x="0px" y="0px"
	 width="14400px" height="14400px" viewBox="0 0 14400 14400" enable-background="new 0 0 14400 14400" xml:space="preserve">
<path fill-rule="evenodd" clip-rule="evenodd" stroke="#0000FF" stroke-width="6" d="M7207.684,7426.963
	c-5.039-2.16-9.904-4.521-14.977-6.284c-2.06-0.716-4.572-0.128-6.878-0.138c-0.452-0.002-0.922,0.049-1.351-0.058
	c-0.391-0.097-0.766-0.334-1.101-0.575c-3.065-2.208-6.094-3.593-8.803,0.601c-1.179-0.848-2.18-1.433-3.019-2.197
	c-1.938-1.766-4.107-2.671-6.782-2.539c-0.869,0.043-1.769-0.562-2.884-0.949c-0.173,1.779-0.367,3.777-0.596,6.141
	c-2.104-0.123-4.178-0.043-6.166-0.421c-1.68-0.319-2.648-0.049-3.309,1.596c-0.555,1.38-1.349,2.669-2.093,3.967
	c-0.324,0.563-0.702,1.38-1.205,1.511c-3.861,1.005-5.49,4.223-6.955,7.315c-1.357,2.865-3.524,3.095-6.097,3.013
	c-0.731-0.023-1.465,0.07-2.409,0.123c-0.362-1.955-0.904-3.804-0.995-5.674c-0.09-1.869-0.96-2.571-2.635-2.936
	c-3.616-0.786-7.203-1.704-10.827-2.573c2.839-4.728,9.144-6.783,9.789-13.234c-3.716-0.73-6.958,0.525-9.977,2.188
	c-4.67,2.572-7.512,2.126-11.003-2.37c1.645-1.037,3.276-2.064,5.305-3.344c-2.205-0.562-4.884,0.605-5.583-2.486
	c-0.306,1.035-0.613,2.071-0.947,3.195c-1.027-0.334-1.945-0.633-3.258-1.06c0.649,1.311,1.13,2.281,1.778,3.587
	c-2.465,0.227-4.655,0.428-7.3,0.671c-0.958,3.532-1.646,7.391-3.092,10.94c-0.994,2.44-2.982,4.499-4.673,6.61
	c-0.268,0.334-1.313,0.047-2.159,0.047c1.352,2.235,2.635,4.358,4.354,7.203c-1.458,0-2.65,0.358-3.374-0.071
	c-1.656-0.985-3.052-0.896-4.63,0.031c-1.069,0.628-2.224,1.156-3.402,1.542c-1.574,0.515-3.573,1.64-4.741,1.1
	c-2.664-1.229-5.729-2.502-6.194-6.194c-0.165-1.305-0.563-2.616-1.07-3.836c-1.112-2.676-1.109-5.348-0.166-8.019
	c0.689-1.95,0.144-3.321-1.525-4.456c-6.33-4.304-11.59-9.664-15.867-16.023c-0.345-0.512-1.682-0.805-2.348-0.579
	c-4.091,1.385-8.083,3.07-12.19,4.398c-1.922,0.622-3.178,1.489-3.653,3.517c-0.258,1.101-0.866,2.119-1.301,3.138
	c-0.363-0.083-0.573-0.067-0.677-0.164c-5.906-5.544-12.278-3.344-18.493-0.889c-2.677,1.059-4.355,1.034-5.801-1.716
	c-0.432-0.822-1.912-1.252-2.996-1.527c-0.994-0.252-2.102-0.054-3.495-0.054c0.19-4.171,0.367-8.041,0.546-11.972
	c1.58-0.265,2.955-0.495,4.52-0.757c-0.538-1.558-0.854-3.13-1.593-4.467c-1.307-2.367-1.031-4.453,0.199-6.763
	c1.483-2.783,2.714-5.709,3.92-8.629c0.599-1.451,1.437-2.329,3.036-2.523c2.11-0.257,3.587-1.244,3.573-3.819
	c-0.729-0.496-1.603-1.09-2.652-1.802c0.579-0.634,1.091-1.194,1.832-2.006c-4.408-2.528-9.13-4.708-8.082-11.122
	c0.421-0.146,1.092-0.524,1.796-0.6c2.369-0.256,3.892-1.384,4.724-3.688c0.29-0.804,1.21-1.506,2.007-1.98
	c7.041-4.191,14.953-4.099,22.744-4.322c1.239-0.035,2.673,1.161,3.739,2.102c1.208,1.068,2.167,1.058,3.519,0.354
	c3.379-1.757,6.761-3.67,10.791-3.227c1.397,0.154,2.756,0.632,4.152,0.815c0.739,0.097,1.63,0.093,2.261-0.234
	c2.576-1.336,5.079-2.813,7.708-4.295c1.266,0.942,2.571,1.913,3.876,2.885c0.237-0.155,0.475-0.31,0.711-0.465
	c-1.311-2.465-2.622-4.93-4.092-7.696c2.75-2.889,5.65-5.937,8.809-9.254c-1.758-3.035-1.868-7.446-5.475-10.094
	c-0.334-0.246-0.413-1.226-0.227-1.72c0.551-1.465,1.294-2.856,1.984-4.322c2.011,0.636,3.93,1.242,5.66,1.789
	c0.649-2.273,1.202-4.212,1.915-6.708c-0.861-0.657-3.923-0.742-2.743-3.809c-3.613-0.689-3.998-0.564-5.499,2.312
	c-0.699-1.53-1.333-2.543-1.624-3.646c-0.446-1.697-1.118-2.825-3.144-2.583c-2.989,0.356-4.671-1.691-6.521-3.805
	c0.444-0.695,0.92-1.441,1.576-2.468c-2.005-0.528-3.929-1.036-6.015-1.586c0.231-0.58,0.298-1.115,0.596-1.434
	c1.364-1.461,0.895-2.64-0.45-3.746c-1.278-1.052-1.742-2.312-1.174-3.952c0.719-2.078-0.13-3.244-2.231-3.767
	c-1.761-0.438-3.544-1.678-5.184-1.477c-1.939,0.237-4.556,0.754-4.086,3.77c-4.086,1.435-3.708-2.013-4.766-4.074
	c-0.829,0.324-1.576,0.627-2.331,0.91c-1.402,0.526-2.735,1.761-4.331,0.339c-0.2-0.178-0.808,0.186-1.152,0.071
	c-1.04-0.347-2.593-0.528-2.963-1.268c-1.444-2.882-2.51-5.955-3.699-8.914c-1.034-0.087-1.742-0.147-2.578-0.218
	c-0.161-2.126-0.271-4.131-0.5-6.123c-0.042-0.37-0.572-0.986-0.862-0.979c-2.78,0.077-3.667-2.204-5.076-3.794
	c0.961-1.645,1.862-3.185,3.087-5.279c-1.031-1.387-2.316-3.115-3.602-4.843c-0.231,0.139-0.462,0.277-0.693,0.416
	c0.055-0.568-0.033-1.199,0.187-1.693c1.198-2.697,0.095-4.656-1.995-6.231c-1.788-1.348-0.982-2.68-0.216-4.113
	c0.425-0.796,0.786-1.641,1.05-2.502c0.166-0.54-0.125-1.479,0.17-1.68c2.61-1.779,0.8-3.517,0.106-5.317
	c-0.527-1.366-0.891-2.795-1.433-4.532c1.151,0.187,1.921,0.311,2.914,0.472c0.228-0.591,0.474-1.229,0.786-2.037
	c0.879,0.162,1.758,0.323,2.947,0.542c0.827-4.337,4.843-3.688,8.661-4.985c-2.503-0.864-4.338-2.032-6.153-2.004
	c-3,0.049-5.159-1.639-7.66-2.641c-1.47-0.588-2.963-1.119-4.823-1.816c1.251-3.07,2.751-6.691,4.206-10.331
	c4.003-10.02,8.444-19.886,10.194-30.668c0.263-1.621-0.003-2.393-1.445-3.141c-4.487-2.329-8.9-4.799-13.429-7.263
	c0.946-2.59,1.824-4.996,2.805-7.682c-1.376-0.528-2.624-1.157-3.945-1.471c-1.516-0.361-2.514-1.188-2.431-2.685
	c0.14-2.492-1.649-3.425-3.166-4.755c-0.705-0.618-0.983-1.806-1.278-2.788c-0.417-1.388-0.656-2.828-0.995-4.24
	c-0.463-1.931-0.951-3.856-1.461-5.92c0.636-0.286,1.188-0.534,1.874-0.842c-3.939-5.109-7.757-10.146-11.686-15.095
	c-0.943-1.188-1.121-2.212-0.572-3.591c0.984-2.471,1.731-5.039,2.764-7.486c0.623-1.474,0.401-2.477-0.824-3.44
	c-0.78-0.614-1.512-1.332-2.118-2.117c-1.523-1.971-3.458-3.029-5.962-2.871c-1.826,0.115-2.27-0.803-2.601-2.475
	c-0.728-3.679-1.814-7.287-2.835-11.236c0.549-0.204,1.74-0.646,2.922-1.086c0.061-0.307,0.19-0.565,0.143-0.785
	c-0.66-3.044,0.43-5.208,3.068-6.851c1.907-1.187,3.86-2.561,2.674-5.283c4.891,0,9.496,0,14.378,0
	c0.285,1.438,0.664,3.357,1.188,6.008c0.644-1.251,1.136-1.885,1.309-2.598c0.708-2.922,2.698-3.695,5.46-3.844
	c2.289-0.123,4.536-0.892,6.825-1.206c1.088-0.149,2.305-0.135,3.335,0.199c6.396,2.072,12.728,4.345,19.152,6.323
	c1.226,0.377,2.76-0.303,4.159-0.418c0.976-0.081,2.036-0.269,2.928,0.008c2.414,0.75,4.762,1.714,7.126,2.617
	c0.365,0.139,0.726,0.357,1.01,0.624c4.023,3.761,7.067,7.784,6.81,13.895c-0.159,3.775-0.737,6.833-2.946,10.073
	c-2.982,4.377-6.468,7.064-11.775,7.419c-6.703,0.449-13.396,1.045-20.098,1.514c-1.809,0.126-3.633,0.019-5.371,0.019
	c-0.455,1.978-0.899,3.909-1.405,6.107c2.35,0.245,5.055,0.781,7.75,0.731c2.365-0.044,3.21,1.696,4.636,2.86
	c2.244,1.833,0.613,3.367-0.2,4.992c-0.444,0.886-0.913,1.759-1.51,2.907c1.51,0.94,2.903,1.939,4.41,2.715
	c2.289,1.178,3.844,2.768,3.985,5.491c0.093,1.79,1.133,2.548,2.926,2.635c1.821,0.088,3.63,0.422,5.442,0.669
	c1.645,0.224,2.957,0.809,4.307,2.02c1.094,0.981,3.198,0.959,4.879,1.126c1.366,0.135,3.396,0.427,4.02-0.302
	c1.175-1.374,2.017-3.417,2.079-5.212c0.038-1.083-1.657-2.226-2.671-3.46c-1.526,1.309-2.831,2.429-4.278,3.671
	c-2.185-1.829-4.348-3.624-6.486-5.448c-0.294-0.251-0.632-0.624-0.672-0.972c-0.266-2.291-0.456-4.59-0.736-7.589
	c6.615,0.865,13.383,1.75,20.344,2.66c0.424-2.972,3.041-1.213,4.681-1.827c-0.223-3.25-1.568-5.605-4.685-6.97
	c-2.111-0.924-4.032-2.283-6.217-3.551c0.332-0.93,0.528-1.823,0.946-2.595c2.271-4.193,1.975-9.393,5.352-13.225
	c0.702-0.796,0.151-2.72,0.125-4.124c-0.019-1.047-0.122-2.092-0.213-3.563c2.933,0.995,5.37,0.895,7.577-0.935
	c0.336-0.278,1.377,0.091,1.986,0.382c1.835,0.875,3.619,1.86,5.111,2.639c-1.063-3.037-2.034-6.129-3.236-9.128
	c-0.72-1.798-1.578-3.638-2.803-5.1c-0.775-0.925-2.318-1.584-3.556-1.654c-1.813-0.104-2.704-0.665-3.035-2.462
	c-0.562-3.052-1.274-6.077-1.948-9.108c-0.058-0.258-0.248-0.536-0.457-0.704c-1.362-1.088-2.621-2.412-4.16-3.141
	c-1.414-0.67-3.137-0.689-5.005-1.05c0.156-1.069,0.329-2.244,0.549-3.75c4.402,1.868,7.351-1.286,10.728-2.748
	c1.603-0.693,2.609-0.578,4.015,0.393c2.722,1.88,5.646,3.469,8.761,5.344c-1.365,1.28-2.723,2.35-3.81,3.646
	c-0.672,0.802-1.292,1.94-1.317,2.943c-0.117,4.568-0.026,4.506,4.37,5.346c1.435,0.274,3.072,0.649,4.12,1.553
	c2.317,2,4.124,0.879,5.957-0.486c2.208-1.646,2.594-3.459,1.5-5.968c-1.224-2.807-2.419-5.625-3.707-8.626
	c1.798-0.823,3.443-1.576,5.585-2.557c-3.853-1.279-2.449-3.457-1.524-5.684c2.484-5.981,4.985-11.96,7.238-18.03
	c0.82-2.21,0.964-4.673,1.408-7.021c0.635-3.364,1.598-4.541,5.3-6.324c-0.124,0.815-0.116,1.573-0.36,2.238
	c-0.826,2.245-0.315,3.821,1.721,5.265c0.862,0.61,1.006,2.232,1.506,3.469c1.955-0.901,4.391-2.024,7.053-3.251
	c-0.389-1.606-0.786-3.725-1.436-5.762c-0.464-1.454-0.153-2.38,1.131-3.116c0.646-0.37,1.207-0.884,1.831-1.295
	c2.296-1.511,4.759-2.948,1.982-6.217c2.082-1.278,3.903-2.397,5.899-3.622c-1.118-0.771-2.088-1.44-3.349-2.311
	c1.485-0.816,2.683-1.476,3.728-2.05c3.289,1.757,4.644,7.849,10.17,3.667c-1.961-0.86-3.742-1.641-5.749-2.52
	c1.43-1.739,2.681-3.262,3.889-4.731c-2.151-3.735-5.827-5.039-9.506-6.406c-0.867-0.322-2.213-1.191-2.186-1.751
	c0.096-1.945-1.182-4.263,0.956-5.809c3.235-2.338,6.338-4.988,9.876-6.738c2.904-1.436,6.35-1.795,9.575-2.552
	c2.656-0.623,5.075-1.458,7.511-2.95c2.294-1.406,5.532-1.435,8.389-1.709c2.719-0.261,5.484-0.057,8.536-0.057
	c-0.666-1.503-1.308-2.953-2.064-4.661c10.966,0,21.708,0,32.616,0c-0.218,1.108-0.422,2.144-0.626,3.179
	c0.274-0.062,0.549-0.123,0.824-0.185c0.438,1.133,1.2,2.252,1.246,3.401c0.088,2.206-0.229,4.428-0.398,6.929
	c-2.468-0.266-4.559-0.491-6.886-0.742c-0.082,1.277-0.148,2.325-0.21,3.288c0.254,0.198,0.368,0.36,0.505,0.384
	c6.276,1.082,6.252,1.066,9.422-4.388c1.238-2.129,1.809-5.189,5.975-3.929c-1.443-3.139-2.639-5.736-4.092-8.899
	c72.826,2.114,145.261,4.216,217.909,6.325c0,42.541,0,84.971,0,127.547c-0.538,0.083-1.09,0.229-1.646,0.244
	c-18.565,0.506-37.131,1-55.696,1.494c-0.334,0.009-0.691,0.086-0.997-0.007c-5.096-1.547-8.899,1.246-12.841,3.723
	c-4.439,2.789-8.96,5.447-13.429,8.188c-3.879,2.38-6.711,5.603-8.096,10.026c-1.044,3.335-2.114,6.667-3.338,9.939
	c-0.676,1.807-0.942,3.334,1.249,4.548c-3.544,4.487-7.017,8.82-10.416,13.209c-2.794,3.608-3.398,7.848-2.86,12.194
	c0.186,1.504-0.359,1.938-1.399,2.384c-2.813,1.205-5.631,2.395-8.629,3.667c0.861,2.125,1.661,4.1,2.485,6.133
	c1.761-0.937,3.332-1.773,5.193-2.764c-0.134,1.396-0.224,2.332-0.357,3.728c4.049-1.953,7.948-4.87,11.342,0.7
	c-1.839,1.373-3.813,2.952-5.897,4.366c-1.36,0.923-2.023,1.88-1.141,3.472c0.197,0.354,0.273,0.785,0.363,1.189
	c0.511,2.31,1.297,4.344,4.452,3.992c-1.057,4.282-2.021,8.187-2.912,11.799c6.564,1.88,12.514-2.037,19.259-1.474
	c1.034,3.188,2.166,6.541,3.169,9.931c0.133,0.448-0.242,1.241-0.631,1.616c-1.917,1.849-3.875,3.662-5.918,5.369
	c-0.557,0.466-1.456,0.521-2.583,0.892c0.087,1.3,0.206,3.079,0.341,5.104c-4.122,1.346-8.268,2.775-12.473,3.992
	c-0.655,0.19-1.643-0.497-2.383-0.938c-0.912-0.542-1.727-1.249-2.291-1.669c-1.154,1.075-2.141,1.994-3.525,3.283
	c0.299,1.131,0.797,3.022,1.375,5.212c-4.174,1.168-8.227,2.301-12.457,3.485c0,3.036,0,6.094,0,9.354
	c-3.635,0.655-7.126,1.285-10.924,1.971c1.308,2.23,2.493,4.251,3.908,6.664c-11.286,0.55-22.127,1.078-32.972,1.606
	c-0.067,0.569-0.139,0.804-0.115,1.027c0.388,3.761,0.167,4.134-3.354,5.48c-0.932,0.356-1.871,0.692-2.819,1.001
	c-4.089,1.332-4.09,1.327-4.249,5.732c-0.119,3.31-2.43,6.909-4.964,7.734c1.264,3.789,0.659,6.799-2.406,11.433
	c1.598,1.672,3.311,3.336,4.854,5.144c0.582,0.682,1.083,1.695,1.086,2.56c0.014,3.681-1.297,4.874-5.275,5.091
	c-2.909,0.158-5.82,0.284-8.729,0.438c-0.148,0.009-0.29,0.148,0.16,0.416c-0.465,1.632-0.961,3.256-1.378,4.9
	c-0.129,0.507-0.171,1.104-0.03,1.599c0.316,1.113,0.72,2.211,1.181,3.275c1.001,2.313,1.021,5.775,5.43,4.041
	c0,4.908,0,9.283,0,13.797c2.572,0.166,4.896,0.208,7.187,0.498c1.769,0.225,3.439,0.642,3.044,3.246
	c-0.111,0.728,1.044,1.648,1.618,2.479c0.068-0.336,0.137-0.673,0.205-1.01c0.931-0.452,1.906-1.358,2.781-1.271
	c2.702,0.271,3.29-2.19,4.951-3.541c5.6,3.108,11.17,6.202,17.368,9.644c-1.732,1.602-3.19,2.949-4.743,4.384
	c1.804,0.191,3.539,0.641,5.222,0.491c2.484-0.222,3.466,0.889,3.717,3.122c0.082,0.725,0.252,1.439,0.41,2.317
	c-0.998,0.085-1.858,0.158-3.044,0.26c1.06,1.136,1.895,2.031,2.894,3.102c-0.682,0.466-1.212,0.976-1.846,1.234
	c-2.569,1.048-4.276,2.808-4.614,5.616c-0.215,1.791-1.483,1.314-2.576,1.524c-1.03,0.198-2.334,0.502-2.866,1.232
	c-0.357,0.489,0.218,1.938,0.729,2.732c2.668,4.15,2.303,8.694,1.726,13.206c-0.259,2.021-1.121,3.965-1.757,6.101
	c0.767,0.254,1.498,0.78,1.968,0.605c3.457-1.293,5.803,1.028,8.492,2.367c1.583,0.789,3.318,1.273,5.26,1.997
	c0.954,2.898,2.034,6.433,3.312,9.894c0.34,0.92,1.135,1.866,1.978,2.375c5.052,3.049,10.158,6.007,15.295,8.911
	c0.975,0.551,2.164,0.723,3.293,1.082c0,0.252,0.094,0.549-0.015,0.708c-2.36,3.468-2.666,7.482-2.864,11.457
	c-0.087,1.747-0.812,2.307-2.313,2.472c-3.388,0.371-6.764,0.975-10.16,1.115c-11.649,0.482-23.344,1.537-34.944,0.922
	c-7.191-0.381-14.321-0.248-21.472-0.133c-2.494,0.041-4.95,1.225-7.467,1.513c-1.942,0.222-4.015-0.491-5.911-0.145
	c-1.918,0.35-3.582,2.308-5.744,0.615c-0.242-0.189-0.656-0.33-0.941-0.269c-2.424,0.522-4.971,0.8-7.188,1.801
	C7208.433,7423.471,7208.262,7425.485,7207.684,7426.963z"/>
</svg>
