<?xml version="1.0" encoding="utf-8"?>
<!-- Generator: Adobe Illustrator 16.0.0, SVG Export Plug-In . SVG Version: 6.00 Build 0)  -->
<!DOCTYPE svg PUBLIC "-//W3C//DTD SVG 1.1//EN" "http://www.w3.org/Graphics/SVG/1.1/DTD/svg11.dtd">
<svg version="1.1" id="Layer_1" xmlns="http://www.w3.org/2000/svg" xmlns:xlink="http://www.w3.org/1999/xlink" x="0px" y="0px"
	 width="48px" height="48px" viewBox="0 0 48 48" enable-background="new 0 0 48 48" xml:space="preserve">
<path d="M33,24c0-3.54-2.04-6.58-5-8.06v4.42l4.9,4.9C32.96,24.859,33,24.44,33,24z M38,24c0,1.88-0.4,3.641-1.08,5.279l3.02,3.021
	C41.26,29.82,42,27,42,24c0-8.56-5.98-15.72-14-17.54v4.12C33.779,12.3,38,17.66,38,24z M8.54,6L6,8.54L15.46,18H6v12h8l10,10V26.54
	l8.5,8.5c-1.34,1.04-2.84,1.86-4.5,2.36v4.119c2.76-0.619,5.26-1.899,7.38-3.619l4.08,4.1L42,39.46l-18-18L8.54,6z M24,8l-4.18,4.18
	L24,16.36V8z"/>
</svg>
