<?xml version="1.0" encoding="utf-8"?>
<!-- Generator: Adobe Illustrator 16.0.0, SVG Export Plug-In . SVG Version: 6.00 Build 0)  -->
<!DOCTYPE svg PUBLIC "-//W3C//DTD SVG 1.1//EN" "http://www.w3.org/Graphics/SVG/1.1/DTD/svg11.dtd">
<svg version="1.1" xmlns="http://www.w3.org/2000/svg" xmlns:xlink="http://www.w3.org/1999/xlink" x="0px" y="0px" width="64px"
	 height="64px" viewBox="0 0 64 64" enable-background="new 0 0 64 64" xml:space="preserve">
<g id="Layer_2" display="none">
	<rect x="-4" display="inline" width="72" height="64"/>
</g>
<g id="Layer_3" display="none">
	<path fill="#FFFFFF" d="M27.435,25.456v23.58l18.529-11.789L27.435,25.456z"/>
</g>
<g id="Layer_1" display="none">
	<path fill="#FFFFFF" d="M20.824,14V2l-15,15l15,15V20c0.124,0,14.134,0.001,14.257,0.003c9.759,0.197,17.629,8.19,17.629,17.997
		c0,9.929-8.069,17.999-18,17.999c-9.93,0-18-8.07-18-17.999h-6C10.71,51.26,21.451,62,34.71,62c13.26,0,24-10.74,24-23.999
		c0-13.178-10.608-23.868-23.754-24C34.874,14,20.906,14,20.824,14z"/>
</g>
<g id="Layer_4">
	<path d="M16,50.667h10.667V13.333H16V50.667z M37.333,13.333v37.333H48V13.333H37.333z"/>
</g>
</svg>
